<svg width="225" height="225" viewBox="0 0 225 225" fill="none" xmlns="http://www.w3.org/2000/svg">
<g clip-path="url(#clip0_1_46)">
<rect width="225" height="225" fill="#F4F1DE"/>
<rect width="225" height="225" fill="#F4F1DE"/>
<circle cx="43.5" cy="43.5" r="22.3192" stroke="#1C1A1A" stroke-width="0.361538"/>
<circle cx="172.5" cy="78.5" r="22.3192" stroke="#1C1A1A" stroke-width="0.361538"/>
<circle cx="172.5" cy="139.5" r="22.3192" stroke="#1C1A1A" stroke-width="0.361538"/>
<circle cx="43.5" cy="112.5" r="22.3192" stroke="#1C1A1A" stroke-width="0.361538"/>
<circle cx="43.5" cy="181.5" r="22.3192" stroke="#1C1A1A" stroke-width="0.361538"/>
<path d="M150.19 78.4623C150.446 78.3572 150.567 78.065 150.462 77.8096L148.749 73.6486C148.644 73.3932 148.352 73.2715 148.096 73.3766C147.841 73.4818 147.719 73.774 147.824 74.0293L149.347 77.728L145.649 79.251C145.393 79.3562 145.271 79.6484 145.377 79.9037C145.482 80.1591 145.774 80.2809 146.029 80.1757L150.19 78.4623ZM65.8077 43.4615L149.808 78.4615L150.192 77.5385L66.1923 42.5385L65.8077 43.4615Z" fill="#5F5F5F"/>
<path d="M149.967 139.499C150.242 139.517 150.481 139.309 150.499 139.033L150.798 134.543C150.817 134.268 150.608 134.029 150.333 134.011C150.057 133.993 149.819 134.201 149.8 134.477L149.534 138.468L145.543 138.202C145.268 138.183 145.029 138.392 145.011 138.667C144.993 138.943 145.201 139.181 145.477 139.2L149.967 139.499ZM65.6237 43.3293L149.624 139.329L150.376 138.671L66.3763 42.6707L65.6237 43.3293Z" fill="#5F5F5F"/>
<path d="M150.46 78.1951C150.568 77.9408 150.449 77.6474 150.195 77.5396L146.052 75.784C145.797 75.6762 145.504 75.795 145.396 76.0493C145.288 76.3035 145.407 76.597 145.662 76.7047L149.345 78.2653L147.784 81.9483C147.676 82.2026 147.795 82.496 148.049 82.6038C148.304 82.7115 148.597 82.5927 148.705 82.3385L150.46 78.1951ZM66.1876 112.463L150.188 78.4635L149.812 77.5365L65.8124 111.537L66.1876 112.463Z" fill="#5F5F5F"/>
<path d="M150.228 139.445C150.474 139.319 150.571 139.017 150.445 138.772L148.389 134.769C148.263 134.523 147.962 134.426 147.716 134.552C147.47 134.678 147.373 134.98 147.5 135.225L149.327 138.784L145.769 140.611C145.523 140.737 145.426 141.038 145.552 141.284C145.678 141.53 145.98 141.627 146.225 141.5L150.228 139.445ZM65.847 112.476L149.847 139.476L150.153 138.524L66.153 111.524L65.847 112.476Z" fill="#5F5F5F"/>
<path d="M150.497 77.9495C150.47 77.6747 150.224 77.4747 149.949 77.5026L145.473 77.9574C145.198 77.9854 144.998 78.2307 145.026 78.5054C145.054 78.7801 145.299 78.9802 145.574 78.9523L149.553 78.548L149.957 82.5275C149.985 82.8022 150.231 83.0023 150.505 82.9744C150.78 82.9465 150.98 82.7011 150.952 82.4264L150.497 77.9495ZM66.3875 181.316L150.387 78.316L149.613 77.684L65.6125 180.684L66.3875 181.316Z" fill="#5F5F5F"/>
<path d="M149.475 139.156C149.561 138.893 149.418 138.611 149.156 138.525L144.88 137.122C144.618 137.036 144.335 137.179 144.249 137.442C144.163 137.704 144.306 137.987 144.568 138.073L148.369 139.319L147.122 143.12C147.036 143.382 147.179 143.665 147.442 143.751C147.704 143.837 147.987 143.694 148.073 143.432L149.475 139.156ZM66.2258 181.446L149.226 139.446L148.774 138.554L65.7742 180.554L66.2258 181.446Z" fill="#5F5F5F"/>
<path d="M23.5238 14C23.5106 14 23.504 13.9802 23.504 13.9407C23.504 13.9012 23.5106 13.8814 23.5238 13.8814C23.7807 13.8814 23.9487 13.8386 24.0278 13.7529C24.1134 13.6607 24.1562 13.4762 24.1562 13.1995V11.3515C24.1562 11.1209 24.1332 10.9529 24.0871 10.8475C24.0409 10.7355 23.9553 10.6795 23.8301 10.6795C23.7774 10.6795 23.7148 10.6927 23.6424 10.7191C23.5699 10.7388 23.4842 10.7718 23.3854 10.8179C23.3591 10.8245 23.336 10.8113 23.3162 10.7784C23.3031 10.7388 23.3064 10.7125 23.3261 10.6993L24.6108 10.1064C24.6306 10.0998 24.6438 10.0965 24.6504 10.0965C24.6635 10.0965 24.68 10.1064 24.6998 10.1261C24.7195 10.1393 24.7294 10.1558 24.7294 10.1755C24.7294 10.2282 24.7261 10.3567 24.7195 10.5609C24.7129 10.7652 24.7096 11.0254 24.7096 11.3416V13.1995C24.7096 13.4762 24.7459 13.6607 24.8184 13.7529C24.8974 13.8386 25.0687 13.8814 25.3322 13.8814C25.352 13.8814 25.3619 13.9012 25.3619 13.9407C25.3619 13.9802 25.352 14 25.3322 14C25.2136 14 25.0753 13.9967 24.9172 13.9901C24.7656 13.9835 24.6042 13.9802 24.4329 13.9802C24.2616 13.9802 24.0969 13.9835 23.9388 13.9901C23.7873 13.9967 23.6489 14 23.5238 14ZM24.3539 8.94024C24.2155 8.94024 24.1068 8.904 24.0278 8.83153C23.9553 8.75906 23.9191 8.65694 23.9191 8.52518C23.9191 8.39341 23.9553 8.29129 24.0278 8.21882C24.1068 8.14635 24.2155 8.11012 24.3539 8.11012C24.4856 8.11012 24.5878 8.14635 24.6602 8.21882C24.7327 8.29129 24.7689 8.39341 24.7689 8.52518C24.7689 8.80188 24.6306 8.94024 24.3539 8.94024ZM28.8053 14C28.7855 14 28.7756 13.9802 28.7756 13.9407C28.7756 13.9012 28.7855 13.8814 28.8053 13.8814C29.0622 13.8814 29.2269 13.8386 29.2994 13.7529C29.3784 13.6607 29.418 13.4762 29.418 13.1995V11.5986C29.418 11.2033 29.3455 10.9167 29.2006 10.7388C29.0556 10.5544 28.825 10.4621 28.5088 10.4621C28.2716 10.4621 28.0279 10.5379 27.7775 10.6894C27.5271 10.8409 27.313 11.0485 27.1351 11.312L27.0956 11.1934C27.3855 10.8047 27.6721 10.5181 27.9554 10.3336C28.2453 10.1492 28.5384 10.0569 28.8349 10.0569C29.1973 10.0569 29.4773 10.1591 29.6749 10.3633C29.8791 10.5609 29.9813 10.8607 29.9813 11.2626V13.1995C29.9813 13.4762 30.0175 13.6607 30.09 13.7529C30.169 13.8386 30.337 13.8814 30.594 13.8814C30.6137 13.8814 30.6236 13.9012 30.6236 13.9407C30.6236 13.9802 30.6137 14 30.594 14C30.482 14 30.3469 13.9967 30.1888 13.9901C30.0373 13.9835 29.8759 13.9802 29.7046 13.9802C29.5333 13.9802 29.3686 13.9835 29.2104 13.9901C29.0523 13.9967 28.9173 14 28.8053 14ZM26.1469 14C26.1271 14 26.1173 13.9802 26.1173 13.9407C26.1173 13.9012 26.1271 13.8814 26.1469 13.8814C26.4039 13.8814 26.5686 13.8386 26.641 13.7529C26.7201 13.6607 26.7596 13.4762 26.7596 13.1995V11.2428C26.7596 11.0254 26.7333 10.8673 26.6806 10.7685C26.6344 10.6631 26.5455 10.6104 26.4137 10.6104C26.3479 10.6104 26.2688 10.6235 26.1766 10.6499C26.0909 10.6762 25.9921 10.7125 25.8801 10.7586C25.8537 10.7652 25.8307 10.752 25.8109 10.7191C25.7977 10.6861 25.8043 10.6631 25.8307 10.6499L26.977 10.1064C26.9968 10.0998 27.0166 10.0965 27.0363 10.0965C27.0824 10.0965 27.1417 10.1656 27.2142 10.304C27.2867 10.4424 27.3229 10.6433 27.3229 10.9068V13.1995C27.3229 13.4762 27.3591 13.6607 27.4316 13.7529C27.5107 13.8386 27.6787 13.8814 27.9356 13.8814C27.9554 13.8814 27.9653 13.9012 27.9653 13.9407C27.9653 13.9802 27.9554 14 27.9356 14C27.8236 14 27.6886 13.9967 27.5304 13.9901C27.3789 13.9835 27.2175 13.9802 27.0462 13.9802C26.8749 13.9802 26.7102 13.9835 26.5521 13.9901C26.394 13.9967 26.2589 14 26.1469 14ZM31.1237 16.7176C31.1039 16.7176 31.094 16.6979 31.094 16.6584C31.094 16.6188 31.1039 16.5991 31.1237 16.5991C31.3806 16.5991 31.5486 16.5562 31.6277 16.4706C31.7067 16.3849 31.7463 16.2005 31.7463 15.9172V11.2725C31.7463 11.0419 31.7199 10.8739 31.6672 10.7685C31.6145 10.6631 31.5223 10.6104 31.3905 10.6104C31.3246 10.6104 31.2456 10.6235 31.1533 10.6499C31.0677 10.6696 30.9722 10.7026 30.8667 10.7487C30.8404 10.7619 30.8173 10.752 30.7976 10.7191C30.7778 10.6795 30.7811 10.6532 30.8074 10.64L31.9044 10.1162C31.9242 10.1096 31.9472 10.1064 31.9736 10.1064C32.0658 10.1064 32.1416 10.1821 32.2009 10.3336C32.2667 10.4786 32.2997 10.696 32.2997 10.9859V15.9172C32.2997 16.1016 32.3227 16.2433 32.3689 16.3421C32.4216 16.4409 32.5171 16.5068 32.6554 16.5398C32.8004 16.5793 33.0112 16.5991 33.2879 16.5991C33.3011 16.5991 33.3077 16.6188 33.3077 16.6584C33.3077 16.6979 33.3011 16.7176 33.2879 16.7176C33.1166 16.7176 32.9223 16.7144 32.7049 16.7078C32.494 16.7012 32.27 16.6979 32.0329 16.6979C31.8616 16.6979 31.6936 16.7012 31.5289 16.7078C31.3707 16.7144 31.2357 16.7176 31.1237 16.7176ZM33.3472 14.1285C33.0969 14.1285 32.8762 14.0988 32.6851 14.0395C32.494 13.9802 32.2799 13.8682 32.0427 13.7035L32.1811 13.16C32.3656 13.3774 32.5665 13.5586 32.7839 13.7035C33.0013 13.8485 33.2879 13.9209 33.6437 13.9209C33.9863 13.9209 34.2696 13.7694 34.4936 13.4664C34.7242 13.1633 34.8394 12.7351 34.8394 12.1816C34.8394 11.6085 34.7143 11.1736 34.4639 10.8772C34.2136 10.5807 33.9072 10.4325 33.5449 10.4325C33.255 10.4325 32.998 10.5148 32.774 10.6795C32.5566 10.8376 32.3425 11.0287 32.1317 11.2527L32.0526 11.1736C32.3886 10.7849 32.7114 10.5016 33.0211 10.3238C33.3307 10.1459 33.6437 10.0569 33.9599 10.0569C34.23 10.0569 34.4804 10.1294 34.711 10.2744C34.9416 10.4127 35.126 10.6169 35.2644 10.8871C35.4027 11.1572 35.4719 11.4866 35.4719 11.8753C35.4719 12.2772 35.4027 12.6198 35.2644 12.9031C35.1326 13.1864 34.9547 13.4202 34.7307 13.6047C34.5133 13.7826 34.2827 13.9144 34.039 14C33.7952 14.0856 33.5646 14.1285 33.3472 14.1285ZM37.6534 14.0791C37.3305 14.0791 37.0736 13.9769 36.8825 13.7727C36.6981 13.5619 36.6058 13.2588 36.6058 12.8635V11.3515C36.6058 11.0946 36.5828 10.9101 36.5367 10.7981C36.4971 10.6795 36.4214 10.6202 36.3094 10.6202C36.2171 10.6202 36.1051 10.6532 35.9734 10.7191C35.947 10.7256 35.924 10.7092 35.9042 10.6696C35.891 10.6301 35.8976 10.6071 35.924 10.6005L37.0209 10.1064C37.0341 10.0998 37.0472 10.0965 37.0604 10.0965C37.0802 10.0965 37.1 10.1064 37.1197 10.1261C37.1461 10.1393 37.1592 10.1558 37.1592 10.1755V12.5374C37.1592 12.9261 37.2284 13.216 37.3668 13.4071C37.5051 13.5915 37.7127 13.6838 37.9894 13.6838C38.2397 13.6838 38.4901 13.608 38.7404 13.4565C38.9974 13.3049 39.2214 13.1007 39.4124 12.8438L39.4618 12.9525C39.1588 13.3412 38.859 13.6278 38.5625 13.8122C38.2727 13.9901 37.9696 14.0791 37.6534 14.0791ZM39.7781 10.1755V12.9426C39.7781 13.1666 39.8044 13.328 39.8571 13.4268C39.9098 13.5256 39.9988 13.5751 40.124 13.5751C40.1898 13.5751 40.2623 13.5652 40.3414 13.5454C40.427 13.5191 40.5291 13.4828 40.6477 13.4367C40.6807 13.4235 40.7037 13.4367 40.7169 13.4762C40.7301 13.5092 40.7235 13.5322 40.6971 13.5454L39.5409 14.0889C39.5277 14.0955 39.5145 14.0988 39.5014 14.0988C39.4487 14.0988 39.3894 14.0296 39.3235 13.8913C39.2576 13.7464 39.2247 13.5421 39.2247 13.2786V11.3515C39.2247 11.0946 39.2016 10.9101 39.1555 10.7981C39.116 10.6795 39.0402 10.6202 38.9282 10.6202C38.836 10.6202 38.724 10.6532 38.5922 10.7191C38.5658 10.7256 38.5461 10.7092 38.5329 10.6696C38.5197 10.6301 38.5263 10.6071 38.5527 10.6005L39.6496 10.1064C39.6628 10.0998 39.6727 10.0965 39.6793 10.0965C39.699 10.0965 39.7188 10.1064 39.7385 10.1261C39.7649 10.1393 39.7781 10.1558 39.7781 10.1755ZM42.5863 14.1186C42.4282 14.1186 42.2766 14.0922 42.1317 14.0395C41.9868 13.9934 41.8682 13.9111 41.7759 13.7925C41.6837 13.6739 41.6376 13.5125 41.6376 13.3082V10.9859C41.6376 10.8278 41.6277 10.7092 41.6079 10.6301C41.5882 10.5511 41.542 10.5016 41.4696 10.4819C41.3971 10.4555 41.2851 10.4424 41.1336 10.4424C41.1072 10.4424 41.094 10.4226 41.094 10.3831C41.094 10.3369 41.1072 10.3139 41.1336 10.3139C41.3971 10.3073 41.6112 10.2348 41.7759 10.0965C41.9472 9.95812 42.0428 9.78024 42.0625 9.56282C42.0625 9.54306 42.0856 9.53318 42.1317 9.53318C42.1844 9.53318 42.2108 9.54306 42.2108 9.56282V12.9722C42.2108 13.2424 42.2766 13.4433 42.4084 13.5751C42.5468 13.7068 42.7411 13.7727 42.9915 13.7727C43.1628 13.7727 43.3143 13.7464 43.446 13.6936C43.5844 13.6344 43.6964 13.5685 43.782 13.496C43.8084 13.4828 43.8315 13.4927 43.8512 13.5256C43.8776 13.552 43.8776 13.5751 43.8512 13.5948C43.6075 13.7793 43.3868 13.9144 43.1891 14C42.998 14.0791 42.7971 14.1186 42.5863 14.1186ZM43.5449 10.6696C43.2879 10.6038 43.0409 10.5609 42.8037 10.5412C42.5665 10.5214 42.3129 10.5115 42.0428 10.5115V10.2941C42.3063 10.2941 42.5599 10.2842 42.8037 10.2645C43.0475 10.2447 43.3077 10.2216 43.5844 10.1953C43.5976 10.1953 43.6108 10.2184 43.6239 10.2645C43.6437 10.3106 43.6536 10.3666 43.6536 10.4325C43.6536 10.4786 43.6404 10.5313 43.614 10.5906C43.5943 10.6499 43.5712 10.6762 43.5449 10.6696ZM46.779 14C46.7593 14 46.7494 13.9802 46.7494 13.9407C46.7494 13.9012 46.7593 13.8814 46.779 13.8814C47.036 13.8814 47.204 13.8386 47.283 13.7529C47.3621 13.6607 47.4016 13.4762 47.4016 13.1995V8.09035C47.4016 7.85976 47.3786 7.69176 47.3324 7.58635C47.2863 7.47435 47.204 7.41835 47.0854 7.41835C46.9866 7.41835 46.835 7.46447 46.6308 7.55671C46.611 7.56988 46.5913 7.55671 46.5715 7.51718C46.5517 7.47765 46.555 7.45459 46.5814 7.448L47.8463 6.84518C47.8595 6.83859 47.876 6.83529 47.8957 6.83529C47.9089 6.83529 47.9254 6.84518 47.9451 6.86494C47.9715 6.87812 47.9847 6.89459 47.9847 6.91435V13.1995C47.9847 13.4762 48.0209 13.6607 48.0934 13.7529C48.1658 13.8386 48.3338 13.8814 48.5974 13.8814C48.6171 13.8814 48.627 13.9012 48.627 13.9407C48.627 13.9802 48.6171 14 48.5974 14C48.4854 14 48.3503 13.9967 48.1922 13.9901C48.0341 13.9835 47.8661 13.9802 47.6882 13.9802C47.5169 13.9802 47.3489 13.9835 47.1842 13.9901C47.0261 13.9967 46.891 14 46.779 14ZM52.0346 14.0593C52.0082 14.0725 51.9819 14.0791 51.9555 14.0791C51.8699 14.0791 51.7875 14.0099 51.7085 13.8715C51.6294 13.7266 51.5899 13.5191 51.5899 13.2489V11.48C51.5899 11.1704 51.5602 10.9299 51.5009 10.7586C51.4482 10.5873 51.3725 10.4687 51.2736 10.4028C51.1814 10.3369 51.076 10.304 50.9574 10.304C50.7927 10.304 50.6576 10.3468 50.5522 10.4325C50.4468 10.5115 50.3678 10.6136 50.3151 10.7388C50.2623 10.864 50.2261 10.9892 50.2063 11.1144C50.1998 11.2066 50.1701 11.2922 50.1174 11.3713C50.0713 11.4504 49.9791 11.4899 49.8407 11.4899C49.7353 11.4899 49.6529 11.4635 49.5936 11.4108C49.5343 11.3581 49.5047 11.2856 49.5047 11.1934C49.5047 11.0748 49.564 10.9529 49.6826 10.8278C49.8012 10.696 49.9494 10.5774 50.1273 10.472C50.3118 10.36 50.5028 10.2711 50.7005 10.2052C50.9047 10.1327 51.0958 10.0965 51.2736 10.0965C51.524 10.0965 51.7315 10.1854 51.8962 10.3633C52.0609 10.5346 52.1433 10.808 52.1433 11.1835V12.9327C52.1433 13.1633 52.1729 13.3313 52.2322 13.4367C52.2915 13.5421 52.3871 13.5948 52.5188 13.5948C52.6374 13.5948 52.8021 13.552 53.0129 13.4664C53.0459 13.4532 53.0689 13.4664 53.0821 13.5059C53.0953 13.5388 53.0854 13.5619 53.0525 13.5751L52.0346 14.0593ZM50.0976 14.0692C49.8868 14.0692 49.7287 14.0132 49.6233 13.9012C49.5179 13.7826 49.4652 13.6475 49.4652 13.496C49.4652 13.3115 49.5376 13.1666 49.6826 13.0612C49.8275 12.9492 50.0647 12.8372 50.3941 12.7252L51.6887 12.2607L51.7183 12.3694L50.572 12.8042C50.4205 12.8635 50.3118 12.9294 50.2459 13.0019C50.1866 13.0744 50.1569 13.1666 50.1569 13.2786C50.1569 13.4169 50.1965 13.5256 50.2755 13.6047C50.3546 13.6772 50.4567 13.7134 50.5819 13.7134C50.6543 13.7134 50.7235 13.7068 50.7894 13.6936C50.8553 13.6739 50.9212 13.6475 50.9871 13.6146L51.8271 13.1896L51.8468 13.3082L50.9871 13.7727C50.7894 13.8715 50.6247 13.9473 50.4929 14C50.3612 14.0461 50.2294 14.0692 50.0976 14.0692ZM57.2248 10.1854C57.2446 10.1854 57.2545 10.2052 57.2545 10.2447C57.2545 10.2842 57.2446 10.304 57.2248 10.304C57.0601 10.304 56.9185 10.36 56.7999 10.472C56.6813 10.584 56.5693 10.7816 56.4639 11.0649L55.2582 14.2767C55.0211 14.9092 54.7938 15.4066 54.5764 15.7689C54.3589 16.1379 54.1317 16.3981 53.8945 16.5496C53.6639 16.7012 53.4069 16.7769 53.1236 16.7769C52.9853 16.7769 52.8667 16.744 52.7679 16.6781C52.6691 16.6188 52.6196 16.5233 52.6196 16.3915C52.6196 16.2927 52.6526 16.2169 52.7185 16.1642C52.7778 16.1181 52.8469 16.0951 52.926 16.0951C53.0578 16.0951 53.1566 16.1148 53.2225 16.1544C53.2884 16.1939 53.3542 16.2334 53.4201 16.2729C53.486 16.3125 53.5716 16.3322 53.6771 16.3322C53.8352 16.3322 53.9867 16.2565 54.1317 16.1049C54.2832 15.96 54.4446 15.7096 54.6159 15.3539C54.7872 14.9981 54.9881 14.5139 55.2187 13.9012L55.2088 14.1779L53.6474 11.0056C53.5025 10.7158 53.3872 10.528 53.3015 10.4424C53.2225 10.3501 53.1204 10.304 52.9952 10.304C52.982 10.304 52.9754 10.2842 52.9754 10.2447C52.9754 10.2052 52.982 10.1854 52.9952 10.1854C53.1006 10.1854 53.2093 10.1887 53.3213 10.1953C53.4399 10.2019 53.5519 10.2052 53.6573 10.2052C53.8747 10.2052 54.0658 10.2019 54.2305 10.1953C54.3952 10.1887 54.5434 10.1854 54.6752 10.1854C54.6884 10.1854 54.6949 10.2052 54.6949 10.2447C54.6949 10.2842 54.6884 10.304 54.6752 10.304C54.4644 10.304 54.3029 10.3304 54.1909 10.3831C54.0855 10.4358 54.0724 10.5379 54.1514 10.6894L55.5053 13.4762L55.278 13.8814L56.2465 11.0946C56.3453 10.7981 56.342 10.5939 56.2366 10.4819C56.1378 10.3633 55.9138 10.304 55.5646 10.304C55.5514 10.304 55.5448 10.2842 55.5448 10.2447C55.5448 10.2052 55.5514 10.1854 55.5646 10.1854C55.7227 10.1854 55.8709 10.1887 56.0093 10.1953C56.1542 10.2019 56.3387 10.2052 56.5627 10.2052C56.7077 10.2052 56.8229 10.2019 56.9086 10.1953C57.0008 10.1887 57.1062 10.1854 57.2248 10.1854ZM59.4738 14.1186C59.0653 14.1186 58.7227 14.0296 58.446 13.8518C58.1693 13.6673 57.9618 13.4301 57.8234 13.1402C57.6851 12.8504 57.6159 12.544 57.6159 12.2212C57.6159 11.8193 57.7081 11.4602 57.8926 11.144C58.0836 10.8212 58.3373 10.5675 58.6535 10.3831C58.9763 10.192 59.3387 10.0965 59.7406 10.0965C60.1029 10.0965 60.3796 10.1854 60.5707 10.3633C60.7683 10.5346 60.8672 10.7718 60.8672 11.0748C60.8672 11.1473 60.8606 11.2033 60.8474 11.2428C60.8342 11.2824 60.8013 11.3021 60.7486 11.3021H60.1754C60.2018 10.9793 60.1425 10.7322 59.9975 10.5609C59.8592 10.3831 59.6615 10.2941 59.4046 10.2941C59.0356 10.2941 58.7523 10.4325 58.5547 10.7092C58.3636 10.9859 58.2681 11.3614 58.2681 11.8358C58.2681 12.2113 58.3274 12.544 58.446 12.8339C58.5712 13.1238 58.7491 13.3544 58.9796 13.5256C59.2168 13.6904 59.4968 13.7727 59.8196 13.7727C59.9909 13.7727 60.1655 13.7464 60.3434 13.6936C60.5213 13.6409 60.6893 13.5586 60.8474 13.4466C60.8606 13.4334 60.8771 13.4433 60.8968 13.4762C60.9232 13.5026 60.9298 13.5256 60.9166 13.5454C60.6794 13.7496 60.4422 13.8979 60.2051 13.9901C59.9679 14.0758 59.7241 14.1186 59.4738 14.1186ZM58.0902 11.3219L58.0803 11.1934L60.3335 11.144V11.3021L58.0902 11.3219ZM62.7073 11.3219L62.6678 11.2132C62.9115 10.9167 63.1125 10.6894 63.2706 10.5313C63.4287 10.3666 63.5638 10.2546 63.6758 10.1953C63.7944 10.1294 63.9064 10.0965 64.0118 10.0965C64.1501 10.0965 64.2852 10.136 64.4169 10.2151C64.5553 10.2941 64.6245 10.3896 64.6245 10.5016C64.6245 10.5873 64.5948 10.6598 64.5355 10.7191C64.4828 10.7784 64.4038 10.808 64.2984 10.808C64.2127 10.808 64.1402 10.7816 64.0809 10.7289C64.0216 10.6762 63.9591 10.6268 63.8932 10.5807C63.8273 10.5346 63.7416 10.5115 63.6362 10.5115C63.5769 10.5115 63.5144 10.528 63.4485 10.5609C63.3826 10.5939 63.2936 10.6696 63.1816 10.7882C63.0696 10.9002 62.9115 11.0781 62.7073 11.3219ZM61.7388 14C61.7191 14 61.7092 13.9802 61.7092 13.9407C61.7092 13.9012 61.7191 13.8814 61.7388 13.8814C61.9958 13.8814 62.1605 13.8386 62.2329 13.7529C62.312 13.6607 62.3515 13.4762 62.3515 13.1995V11.2428C62.3515 11.0254 62.3252 10.8673 62.2725 10.7685C62.2264 10.6631 62.1374 10.6104 62.0056 10.6104C61.9398 10.6104 61.8607 10.6235 61.7685 10.6499C61.6828 10.6762 61.584 10.7125 61.472 10.7586C61.4456 10.7652 61.4226 10.752 61.4028 10.7191C61.3896 10.6861 61.3962 10.6631 61.4226 10.6499L62.5689 10.1064C62.5887 10.0998 62.6085 10.0965 62.6282 10.0965C62.6744 10.0965 62.7336 10.1656 62.8061 10.304C62.8786 10.4424 62.9148 10.6433 62.9148 10.9068V13.1995C62.9148 13.384 62.9379 13.5289 62.984 13.6344C63.0301 13.7332 63.1224 13.7991 63.2607 13.832C63.3991 13.8649 63.6033 13.8814 63.8734 13.8814C63.8998 13.8814 63.9129 13.9012 63.9129 13.9407C63.9129 13.9802 63.8998 14 63.8734 14C63.7153 14 63.5275 13.9967 63.3101 13.9901C63.0993 13.9835 62.8753 13.9802 62.6381 13.9802C62.4668 13.9802 62.3021 13.9835 62.144 13.9901C61.9859 13.9967 61.8508 14 61.7388 14Z" fill="black"/>
<path d="M155.283 49.1285C154.894 49.1285 154.555 49.0329 154.265 48.8419C153.975 48.6508 153.751 48.3972 153.593 48.0809C153.435 47.7581 153.356 47.4122 153.356 47.0433C153.356 46.7007 153.418 46.4042 153.544 46.1539C153.669 45.9035 153.837 45.6993 154.048 45.5412C154.258 45.3765 154.486 45.2546 154.729 45.1755C154.98 45.0965 155.224 45.0569 155.461 45.0569C155.863 45.0569 156.205 45.1558 156.488 45.3534C156.778 45.5511 156.999 45.8047 157.151 46.1144C157.302 46.424 157.378 46.7501 157.378 47.0927C157.378 47.5144 157.282 47.8767 157.091 48.1798C156.9 48.4828 156.647 48.7167 156.33 48.8814C156.014 49.0461 155.665 49.1285 155.283 49.1285ZM155.569 48.9407C155.919 48.9407 156.195 48.8188 156.4 48.5751C156.604 48.3247 156.706 47.9228 156.706 47.3694C156.706 46.9544 156.637 46.5887 156.498 46.2725C156.367 45.9496 156.182 45.6993 155.945 45.5214C155.708 45.3369 155.438 45.2447 155.135 45.2447C154.785 45.2447 154.512 45.3732 154.314 45.6301C154.117 45.8871 154.018 46.256 154.018 46.7369C154.018 47.1388 154.084 47.5078 154.216 47.8438C154.347 48.1798 154.528 48.4466 154.759 48.6442C154.996 48.8419 155.266 48.9407 155.569 48.9407ZM159.527 49.0791C159.205 49.0791 158.948 48.9769 158.757 48.7727C158.572 48.5619 158.48 48.2588 158.48 47.8635V46.3515C158.48 46.0946 158.457 45.9101 158.411 45.7981C158.371 45.6795 158.295 45.6202 158.183 45.6202C158.091 45.6202 157.979 45.6532 157.847 45.7191C157.821 45.7256 157.798 45.7092 157.778 45.6696C157.765 45.6301 157.772 45.6071 157.798 45.6005L158.895 45.1064C158.908 45.0998 158.921 45.0965 158.935 45.0965C158.954 45.0965 158.974 45.1064 158.994 45.1261C159.02 45.1393 159.033 45.1558 159.033 45.1755V47.5374C159.033 47.9261 159.103 48.216 159.241 48.4071C159.379 48.5915 159.587 48.6838 159.863 48.6838C160.114 48.6838 160.364 48.608 160.615 48.4565C160.871 48.3049 161.095 48.1007 161.287 47.8438L161.336 47.9525C161.033 48.3412 160.733 48.6278 160.437 48.8122C160.147 48.9901 159.844 49.0791 159.527 49.0791ZM161.652 45.1755V47.9426C161.652 48.1666 161.679 48.328 161.731 48.4268C161.784 48.5256 161.873 48.5751 161.998 48.5751C162.064 48.5751 162.136 48.5652 162.215 48.5454C162.301 48.5191 162.403 48.4828 162.522 48.4367C162.555 48.4235 162.578 48.4367 162.591 48.4762C162.604 48.5092 162.598 48.5322 162.571 48.5454L161.415 49.0889C161.402 49.0955 161.389 49.0988 161.375 49.0988C161.323 49.0988 161.263 49.0296 161.198 48.8913C161.132 48.7464 161.099 48.5421 161.099 48.2786V46.3515C161.099 46.0946 161.076 45.9101 161.03 45.7981C160.99 45.6795 160.914 45.6202 160.802 45.6202C160.71 45.6202 160.598 45.6532 160.466 45.7191C160.44 45.7256 160.42 45.7092 160.407 45.6696C160.394 45.6301 160.4 45.6071 160.427 45.6005L161.524 45.1064C161.537 45.0998 161.547 45.0965 161.553 45.0965C161.573 45.0965 161.593 45.1064 161.613 45.1261C161.639 45.1393 161.652 45.1558 161.652 45.1755ZM164.46 49.1186C164.302 49.1186 164.151 49.0922 164.006 49.0395C163.861 48.9934 163.742 48.9111 163.65 48.7925C163.558 48.6739 163.512 48.5125 163.512 48.3082V45.9859C163.512 45.8278 163.502 45.7092 163.482 45.6301C163.462 45.5511 163.416 45.5016 163.344 45.4819C163.271 45.4555 163.159 45.4424 163.008 45.4424C162.981 45.4424 162.968 45.4226 162.968 45.3831C162.968 45.3369 162.981 45.3139 163.008 45.3139C163.271 45.3073 163.485 45.2348 163.65 45.0965C163.821 44.9581 163.917 44.7802 163.937 44.5628C163.937 44.5431 163.96 44.5332 164.006 44.5332C164.058 44.5332 164.085 44.5431 164.085 44.5628V47.9722C164.085 48.2424 164.151 48.4433 164.282 48.5751C164.421 48.7068 164.615 48.7727 164.866 48.7727C165.037 48.7727 165.188 48.7464 165.32 48.6936C165.458 48.6344 165.57 48.5685 165.656 48.496C165.682 48.4828 165.706 48.4927 165.725 48.5256C165.752 48.552 165.752 48.5751 165.725 48.5948C165.482 48.7793 165.261 48.9144 165.063 49C164.872 49.0791 164.671 49.1186 164.46 49.1186ZM165.419 45.6696C165.162 45.6038 164.915 45.5609 164.678 45.5412C164.441 45.5214 164.187 45.5115 163.917 45.5115V45.2941C164.18 45.2941 164.434 45.2842 164.678 45.2645C164.922 45.2447 165.182 45.2216 165.458 45.1953C165.472 45.1953 165.485 45.2184 165.498 45.2645C165.518 45.3106 165.528 45.3666 165.528 45.4325C165.528 45.4786 165.514 45.5313 165.488 45.5906C165.468 45.6499 165.445 45.6762 165.419 45.6696ZM166.258 51.7176C166.238 51.7176 166.228 51.6979 166.228 51.6584C166.228 51.6188 166.238 51.5991 166.258 51.5991C166.515 51.5991 166.683 51.5562 166.762 51.4706C166.841 51.3849 166.88 51.2005 166.88 50.9172V46.2725C166.88 46.0419 166.854 45.8739 166.801 45.7685C166.749 45.6631 166.656 45.6104 166.525 45.6104C166.459 45.6104 166.38 45.6235 166.288 45.6499C166.202 45.6696 166.106 45.7026 166.001 45.7487C165.975 45.7619 165.952 45.752 165.932 45.7191C165.912 45.6795 165.915 45.6532 165.942 45.64L167.039 45.1162C167.058 45.1096 167.081 45.1064 167.108 45.1064C167.2 45.1064 167.276 45.1821 167.335 45.3336C167.401 45.4786 167.434 45.696 167.434 45.9859V50.9172C167.434 51.1016 167.457 51.2433 167.503 51.3421C167.556 51.4409 167.651 51.5068 167.79 51.5398C167.935 51.5793 168.145 51.5991 168.422 51.5991C168.435 51.5991 168.442 51.6188 168.442 51.6584C168.442 51.6979 168.435 51.7176 168.422 51.7176C168.251 51.7176 168.056 51.7144 167.839 51.7078C167.628 51.7012 167.404 51.6979 167.167 51.6979C166.996 51.6979 166.828 51.7012 166.663 51.7078C166.505 51.7144 166.37 51.7176 166.258 51.7176ZM168.481 49.1285C168.231 49.1285 168.01 49.0988 167.819 49.0395C167.628 48.9802 167.414 48.8682 167.177 48.7035L167.315 48.16C167.5 48.3774 167.701 48.5586 167.918 48.7035C168.136 48.8485 168.422 48.9209 168.778 48.9209C169.12 48.9209 169.404 48.7694 169.628 48.4664C169.858 48.1633 169.974 47.7351 169.974 47.1816C169.974 46.6085 169.848 46.1736 169.598 45.8772C169.348 45.5807 169.041 45.4325 168.679 45.4325C168.389 45.4325 168.132 45.5148 167.908 45.6795C167.691 45.8376 167.477 46.0287 167.266 46.2527L167.187 46.1736C167.523 45.7849 167.846 45.5016 168.155 45.3238C168.465 45.1459 168.778 45.0569 169.094 45.0569C169.364 45.0569 169.615 45.1294 169.845 45.2744C170.076 45.4127 170.26 45.6169 170.399 45.8871C170.537 46.1572 170.606 46.4866 170.606 46.8753C170.606 47.2772 170.537 47.6198 170.399 47.9031C170.267 48.1864 170.089 48.4202 169.865 48.6047C169.648 48.7826 169.417 48.9144 169.173 49C168.929 49.0856 168.699 49.1285 168.481 49.1285ZM172.788 49.0791C172.465 49.0791 172.208 48.9769 172.017 48.7727C171.832 48.5619 171.74 48.2588 171.74 47.8635V46.3515C171.74 46.0946 171.717 45.9101 171.671 45.7981C171.631 45.6795 171.556 45.6202 171.444 45.6202C171.351 45.6202 171.239 45.6532 171.108 45.7191C171.081 45.7256 171.058 45.7092 171.038 45.6696C171.025 45.6301 171.032 45.6071 171.058 45.6005L172.155 45.1064C172.168 45.0998 172.181 45.0965 172.195 45.0965C172.214 45.0965 172.234 45.1064 172.254 45.1261C172.28 45.1393 172.293 45.1558 172.293 45.1755V47.5374C172.293 47.9261 172.363 48.216 172.501 48.4071C172.639 48.5915 172.847 48.6838 173.124 48.6838C173.374 48.6838 173.624 48.608 173.875 48.4565C174.132 48.3049 174.356 48.1007 174.547 47.8438L174.596 47.9525C174.293 48.3412 173.993 48.6278 173.697 48.8122C173.407 48.9901 173.104 49.0791 172.788 49.0791ZM174.912 45.1755V47.9426C174.912 48.1666 174.939 48.328 174.991 48.4268C175.044 48.5256 175.133 48.5751 175.258 48.5751C175.324 48.5751 175.397 48.5652 175.476 48.5454C175.561 48.5191 175.663 48.4828 175.782 48.4367C175.815 48.4235 175.838 48.4367 175.851 48.4762C175.864 48.5092 175.858 48.5322 175.831 48.5454L174.675 49.0889C174.662 49.0955 174.649 49.0988 174.636 49.0988C174.583 49.0988 174.524 49.0296 174.458 48.8913C174.392 48.7464 174.359 48.5421 174.359 48.2786V46.3515C174.359 46.0946 174.336 45.9101 174.29 45.7981C174.25 45.6795 174.174 45.6202 174.062 45.6202C173.97 45.6202 173.858 45.6532 173.726 45.7191C173.7 45.7256 173.68 45.7092 173.667 45.6696C173.654 45.6301 173.661 45.6071 173.687 45.6005L174.784 45.1064C174.797 45.0998 174.807 45.0965 174.813 45.0965C174.833 45.0965 174.853 45.1064 174.873 45.1261C174.899 45.1393 174.912 45.1558 174.912 45.1755ZM177.72 49.1186C177.562 49.1186 177.411 49.0922 177.266 49.0395C177.121 48.9934 177.002 48.9111 176.91 48.7925C176.818 48.6739 176.772 48.5125 176.772 48.3082V45.9859C176.772 45.8278 176.762 45.7092 176.742 45.6301C176.722 45.5511 176.676 45.5016 176.604 45.4819C176.531 45.4555 176.419 45.4424 176.268 45.4424C176.241 45.4424 176.228 45.4226 176.228 45.3831C176.228 45.3369 176.241 45.3139 176.268 45.3139C176.531 45.3073 176.745 45.2348 176.91 45.0965C177.081 44.9581 177.177 44.7802 177.197 44.5628C177.197 44.5431 177.22 44.5332 177.266 44.5332C177.319 44.5332 177.345 44.5431 177.345 44.5628V47.9722C177.345 48.2424 177.411 48.4433 177.543 48.5751C177.681 48.7068 177.875 48.7727 178.126 48.7727C178.297 48.7727 178.448 48.7464 178.58 48.6936C178.719 48.6344 178.831 48.5685 178.916 48.496C178.943 48.4828 178.966 48.4927 178.985 48.5256C179.012 48.552 179.012 48.5751 178.985 48.5948C178.742 48.7793 178.521 48.9144 178.323 49C178.132 49.0791 177.931 49.1186 177.72 49.1186ZM178.679 45.6696C178.422 45.6038 178.175 45.5609 177.938 45.5412C177.701 45.5214 177.447 45.5115 177.177 45.5115V45.2941C177.44 45.2941 177.694 45.2842 177.938 45.2645C178.182 45.2447 178.442 45.2216 178.719 45.1953C178.732 45.1953 178.745 45.2184 178.758 45.2645C178.778 45.3106 178.788 45.3666 178.788 45.4325C178.788 45.4786 178.775 45.5313 178.748 45.5906C178.728 45.6499 178.705 45.6762 178.679 45.6696ZM181.913 49C181.893 49 181.884 48.9802 181.884 48.9407C181.884 48.9012 181.893 48.8814 181.913 48.8814C182.17 48.8814 182.338 48.8386 182.417 48.7529C182.496 48.6607 182.536 48.4762 182.536 48.1995V43.0904C182.536 42.8598 182.513 42.6918 182.467 42.5864C182.421 42.4744 182.338 42.4184 182.22 42.4184C182.121 42.4184 181.969 42.4645 181.765 42.5567C181.745 42.5699 181.725 42.5567 181.706 42.5172C181.686 42.4776 181.689 42.4546 181.716 42.448L182.981 41.8452C182.994 41.8386 183.01 41.8353 183.03 41.8353C183.043 41.8353 183.06 41.8452 183.079 41.8649C183.106 41.8781 183.119 41.8946 183.119 41.9144V48.1995C183.119 48.4762 183.155 48.6607 183.228 48.7529C183.3 48.8386 183.468 48.8814 183.732 48.8814C183.751 48.8814 183.761 48.9012 183.761 48.9407C183.761 48.9802 183.751 49 183.732 49C183.62 49 183.485 48.9967 183.326 48.9901C183.168 48.9835 183 48.9802 182.822 48.9802C182.651 48.9802 182.483 48.9835 182.318 48.9901C182.16 48.9967 182.025 49 181.913 49ZM187.169 49.0593C187.142 49.0725 187.116 49.0791 187.09 49.0791C187.004 49.0791 186.922 49.0099 186.843 48.8715C186.764 48.7266 186.724 48.5191 186.724 48.2489V46.48C186.724 46.1704 186.694 45.9299 186.635 45.7586C186.582 45.5873 186.507 45.4687 186.408 45.4028C186.316 45.3369 186.21 45.304 186.092 45.304C185.927 45.304 185.792 45.3468 185.686 45.4325C185.581 45.5115 185.502 45.6136 185.449 45.7388C185.397 45.864 185.36 45.9892 185.341 46.1144C185.334 46.2066 185.304 46.2922 185.252 46.3713C185.205 46.4504 185.113 46.4899 184.975 46.4899C184.869 46.4899 184.787 46.4635 184.728 46.4108C184.669 46.3581 184.639 46.2856 184.639 46.1934C184.639 46.0748 184.698 45.9529 184.817 45.8278C184.935 45.696 185.084 45.5774 185.261 45.472C185.446 45.36 185.637 45.2711 185.835 45.2052C186.039 45.1327 186.23 45.0965 186.408 45.0965C186.658 45.0965 186.866 45.1854 187.03 45.3633C187.195 45.5346 187.277 45.808 187.277 46.1835V47.9327C187.277 48.1633 187.307 48.3313 187.366 48.4367C187.426 48.5421 187.521 48.5948 187.653 48.5948C187.772 48.5948 187.936 48.552 188.147 48.4664C188.18 48.4532 188.203 48.4664 188.216 48.5059C188.229 48.5388 188.22 48.5619 188.187 48.5751L187.169 49.0593ZM185.232 49.0692C185.021 49.0692 184.863 49.0132 184.757 48.9012C184.652 48.7826 184.599 48.6475 184.599 48.496C184.599 48.3115 184.672 48.1666 184.817 48.0612C184.962 47.9492 185.199 47.8372 185.528 47.7252L186.823 47.2607L186.853 47.3694L185.706 47.8042C185.555 47.8635 185.446 47.9294 185.38 48.0019C185.321 48.0744 185.291 48.1666 185.291 48.2786C185.291 48.4169 185.331 48.5256 185.41 48.6047C185.489 48.6772 185.591 48.7134 185.716 48.7134C185.789 48.7134 185.858 48.7068 185.924 48.6936C185.989 48.6739 186.055 48.6475 186.121 48.6146L186.961 48.1896L186.981 48.3082L186.121 48.7727C185.924 48.8715 185.759 48.9473 185.627 49C185.495 49.0461 185.364 49.0692 185.232 49.0692ZM192.359 45.1854C192.379 45.1854 192.389 45.2052 192.389 45.2447C192.389 45.2842 192.379 45.304 192.359 45.304C192.194 45.304 192.053 45.36 191.934 45.472C191.815 45.584 191.703 45.7816 191.598 46.0649L190.392 49.2767C190.155 49.9092 189.928 50.4066 189.711 50.7689C189.493 51.1379 189.266 51.3981 189.029 51.5496C188.798 51.7012 188.541 51.7769 188.258 51.7769C188.119 51.7769 188.001 51.744 187.902 51.6781C187.803 51.6188 187.754 51.5233 187.754 51.3915C187.754 51.2927 187.787 51.2169 187.853 51.1642C187.912 51.1181 187.981 51.0951 188.06 51.0951C188.192 51.0951 188.291 51.1148 188.357 51.1544C188.423 51.1939 188.488 51.2334 188.554 51.2729C188.62 51.3125 188.706 51.3322 188.811 51.3322C188.969 51.3322 189.121 51.2565 189.266 51.1049C189.417 50.96 189.579 50.7096 189.75 50.3539C189.921 49.9981 190.122 49.5139 190.353 48.9012L190.343 49.1779L188.782 46.0056C188.637 45.7158 188.521 45.528 188.436 45.4424C188.357 45.3501 188.255 45.304 188.129 45.304C188.116 45.304 188.11 45.2842 188.11 45.2447C188.11 45.2052 188.116 45.1854 188.129 45.1854C188.235 45.1854 188.343 45.1887 188.455 45.1953C188.574 45.2019 188.686 45.2052 188.791 45.2052C189.009 45.2052 189.2 45.2019 189.365 45.1953C189.529 45.1887 189.678 45.1854 189.809 45.1854C189.823 45.1854 189.829 45.2052 189.829 45.2447C189.829 45.2842 189.823 45.304 189.809 45.304C189.599 45.304 189.437 45.3304 189.325 45.3831C189.22 45.4358 189.207 45.5379 189.286 45.6894L190.639 48.4762L190.412 48.8814L191.381 46.0946C191.479 45.7981 191.476 45.5939 191.371 45.4819C191.272 45.3633 191.048 45.304 190.699 45.304C190.686 45.304 190.679 45.2842 190.679 45.2447C190.679 45.2052 190.686 45.1854 190.699 45.1854C190.857 45.1854 191.005 45.1887 191.143 45.1953C191.288 45.2019 191.473 45.2052 191.697 45.2052C191.842 45.2052 191.957 45.2019 192.043 45.1953C192.135 45.1887 192.24 45.1854 192.359 45.1854ZM194.608 49.1186C194.199 49.1186 193.857 49.0296 193.58 48.8518C193.303 48.6673 193.096 48.4301 192.958 48.1402C192.819 47.8504 192.75 47.544 192.75 47.2212C192.75 46.8193 192.842 46.4602 193.027 46.144C193.218 45.8212 193.471 45.5675 193.788 45.3831C194.111 45.192 194.473 45.0965 194.875 45.0965C195.237 45.0965 195.514 45.1854 195.705 45.3633C195.903 45.5346 196.001 45.7718 196.001 46.0748C196.001 46.1473 195.995 46.2033 195.982 46.2428C195.968 46.2824 195.935 46.3021 195.883 46.3021H195.31C195.336 45.9793 195.277 45.7322 195.132 45.5609C194.993 45.3831 194.796 45.2941 194.539 45.2941C194.17 45.2941 193.887 45.4325 193.689 45.7092C193.498 45.9859 193.402 46.3614 193.402 46.8358C193.402 47.2113 193.462 47.544 193.58 47.8339C193.705 48.1238 193.883 48.3544 194.114 48.5256C194.351 48.6904 194.631 48.7727 194.954 48.7727C195.125 48.7727 195.3 48.7464 195.478 48.6936C195.655 48.6409 195.823 48.5586 195.982 48.4466C195.995 48.4334 196.011 48.4433 196.031 48.4762C196.057 48.5026 196.064 48.5256 196.051 48.5454C195.814 48.7496 195.576 48.8979 195.339 48.9901C195.102 49.0758 194.858 49.1186 194.608 49.1186ZM193.224 46.3219L193.215 46.1934L195.468 46.144V46.3021L193.224 46.3219ZM197.841 46.3219L197.802 46.2132C198.046 45.9167 198.247 45.6894 198.405 45.5313C198.563 45.3666 198.698 45.2546 198.81 45.1953C198.929 45.1294 199.041 45.0965 199.146 45.0965C199.284 45.0965 199.419 45.136 199.551 45.2151C199.689 45.2941 199.759 45.3896 199.759 45.5016C199.759 45.5873 199.729 45.6598 199.67 45.7191C199.617 45.7784 199.538 45.808 199.433 45.808C199.347 45.808 199.274 45.7816 199.215 45.7289C199.156 45.6762 199.093 45.6268 199.027 45.5807C198.961 45.5346 198.876 45.5115 198.77 45.5115C198.711 45.5115 198.649 45.528 198.583 45.5609C198.517 45.5939 198.428 45.6696 198.316 45.7882C198.204 45.9002 198.046 46.0781 197.841 46.3219ZM196.873 49C196.853 49 196.843 48.9802 196.843 48.9407C196.843 48.9012 196.853 48.8814 196.873 48.8814C197.13 48.8814 197.295 48.8386 197.367 48.7529C197.446 48.6607 197.486 48.4762 197.486 48.1995V46.2428C197.486 46.0254 197.459 45.8673 197.407 45.7685C197.361 45.6631 197.272 45.6104 197.14 45.6104C197.074 45.6104 196.995 45.6235 196.903 45.6499C196.817 45.6762 196.718 45.7125 196.606 45.7586C196.58 45.7652 196.557 45.752 196.537 45.7191C196.524 45.6861 196.53 45.6631 196.557 45.6499L197.703 45.1064C197.723 45.0998 197.743 45.0965 197.762 45.0965C197.809 45.0965 197.868 45.1656 197.94 45.304C198.013 45.4424 198.049 45.6433 198.049 45.9068V48.1995C198.049 48.384 198.072 48.5289 198.118 48.6344C198.164 48.7332 198.257 48.7991 198.395 48.832C198.533 48.8649 198.737 48.8814 199.008 48.8814C199.034 48.8814 199.047 48.9012 199.047 48.9407C199.047 48.9802 199.034 49 199.008 49C198.849 49 198.662 48.9967 198.444 48.9901C198.233 48.9835 198.009 48.9802 197.772 48.9802C197.601 48.9802 197.436 48.9835 197.278 48.9901C197.12 48.9967 196.985 49 196.873 49Z" fill="black"/>
<path d="M94.2828 46.1186C93.8348 46.1186 93.4692 46.0231 93.1859 45.832C92.9026 45.6344 92.6918 45.3873 92.5534 45.0908C92.4216 44.7878 92.3558 44.4814 92.3558 44.1718C92.3558 43.8424 92.4184 43.5492 92.5435 43.2922C92.6753 43.0353 92.8466 42.8179 93.0574 42.64C93.2682 42.4621 93.5021 42.3271 93.7591 42.2348C94.016 42.1426 94.2664 42.0965 94.5101 42.0965C94.7012 42.0965 94.8824 42.1228 95.0536 42.1755C95.2315 42.2216 95.3765 42.2908 95.4885 42.3831C95.6071 42.4753 95.6664 42.5807 95.6664 42.6993C95.6664 42.7849 95.6367 42.8607 95.5774 42.9266C95.5181 42.9859 95.4325 43.0155 95.3205 43.0155C95.2151 43.0155 95.1261 42.9826 95.0536 42.9167C94.9878 42.8508 94.9318 42.7751 94.8856 42.6894C94.8132 42.5708 94.7275 42.4753 94.6287 42.4028C94.5299 42.3304 94.3816 42.2941 94.184 42.2941C93.8085 42.2941 93.5186 42.4424 93.3144 42.7388C93.1101 43.0287 93.008 43.4075 93.008 43.8753C93.008 44.2113 93.064 44.5242 93.176 44.8141C93.2946 45.104 93.4758 45.3379 93.7195 45.5158C93.9633 45.6871 94.2795 45.7727 94.6682 45.7727C94.8461 45.7727 95.0207 45.7496 95.192 45.7035C95.3633 45.6574 95.5247 45.5718 95.6762 45.4466C95.6894 45.4334 95.7059 45.44 95.7256 45.4664C95.752 45.4927 95.7586 45.5125 95.7454 45.5256C95.5148 45.7299 95.2842 45.8814 95.0536 45.9802C94.8231 46.0725 94.5661 46.1186 94.2828 46.1186ZM98.2879 46.1285C97.8992 46.1285 97.5599 46.0329 97.27 45.8419C96.9801 45.6508 96.7561 45.3972 96.598 45.0809C96.4399 44.7581 96.3608 44.4122 96.3608 44.0433C96.3608 43.7007 96.4234 43.4042 96.5486 43.1539C96.6738 42.9035 96.8418 42.6993 97.0526 42.5412C97.2634 42.3765 97.4907 42.2546 97.7345 42.1755C97.9848 42.0965 98.2286 42.0569 98.4658 42.0569C98.8676 42.0569 99.2102 42.1558 99.4935 42.3534C99.7834 42.5511 100.004 42.8047 100.156 43.1144C100.307 43.424 100.383 43.7501 100.383 44.0927C100.383 44.5144 100.287 44.8767 100.096 45.1798C99.9053 45.4828 99.6516 45.7167 99.3354 45.8814C99.0192 46.0461 98.67 46.1285 98.2879 46.1285ZM98.5745 45.9407C98.9236 45.9407 99.2003 45.8188 99.4046 45.5751C99.6088 45.3247 99.7109 44.9228 99.7109 44.3694C99.7109 43.9544 99.6418 43.5887 99.5034 43.2725C99.3716 42.9496 99.1872 42.6993 98.95 42.5214C98.7128 42.3369 98.4427 42.2447 98.1396 42.2447C97.7905 42.2447 97.5171 42.3732 97.3194 42.6301C97.1218 42.8871 97.0229 43.256 97.0229 43.7369C97.0229 44.1388 97.0888 44.5078 97.2206 44.8438C97.3523 45.1798 97.5335 45.4466 97.7641 45.6442C98.0013 45.8419 98.2714 45.9407 98.5745 45.9407ZM103.837 46C103.817 46 103.807 45.9802 103.807 45.9407C103.807 45.9012 103.817 45.8814 103.837 45.8814C104.094 45.8814 104.259 45.8386 104.331 45.7529C104.41 45.6607 104.45 45.4762 104.45 45.1995V43.5986C104.45 43.2033 104.377 42.9167 104.232 42.7388C104.087 42.5544 103.857 42.4621 103.541 42.4621C103.303 42.4621 103.06 42.5379 102.809 42.6894C102.559 42.8409 102.345 43.0485 102.167 43.312L102.127 43.1934C102.417 42.8047 102.704 42.5181 102.987 42.3336C103.277 42.1492 103.57 42.0569 103.867 42.0569C104.229 42.0569 104.509 42.1591 104.707 42.3633C104.911 42.5609 105.013 42.8607 105.013 43.2626V45.1995C105.013 45.4762 105.049 45.6607 105.122 45.7529C105.201 45.8386 105.369 45.8814 105.626 45.8814C105.645 45.8814 105.655 45.9012 105.655 45.9407C105.655 45.9802 105.645 46 105.626 46C105.514 46 105.379 45.9967 105.221 45.9901C105.069 45.9835 104.908 45.9802 104.736 45.9802C104.565 45.9802 104.4 45.9835 104.242 45.9901C104.084 45.9967 103.949 46 103.837 46ZM101.179 46C101.159 46 101.149 45.9802 101.149 45.9407C101.149 45.9012 101.159 45.8814 101.179 45.8814C101.436 45.8814 101.6 45.8386 101.673 45.7529C101.752 45.6607 101.791 45.4762 101.791 45.1995V43.2428C101.791 43.0254 101.765 42.8673 101.712 42.7685C101.666 42.6631 101.577 42.6104 101.445 42.6104C101.38 42.6104 101.301 42.6235 101.208 42.6499C101.123 42.6762 101.024 42.7125 100.912 42.7586C100.885 42.7652 100.862 42.752 100.843 42.7191C100.829 42.6861 100.836 42.6631 100.862 42.6499L102.009 42.1064C102.029 42.0998 102.048 42.0965 102.068 42.0965C102.114 42.0965 102.173 42.1656 102.246 42.304C102.318 42.4424 102.355 42.6433 102.355 42.9068V45.1995C102.355 45.4762 102.391 45.6607 102.463 45.7529C102.542 45.8386 102.71 45.8814 102.967 45.8814C102.987 45.8814 102.997 45.9012 102.997 45.9407C102.997 45.9802 102.987 46 102.967 46C102.855 46 102.72 45.9967 102.562 45.9901C102.411 45.9835 102.249 45.9802 102.078 45.9802C101.907 45.9802 101.742 45.9835 101.584 45.9901C101.426 45.9967 101.291 46 101.179 46ZM108.942 46C108.922 46 108.913 45.9802 108.913 45.9407C108.913 45.9012 108.922 45.8814 108.942 45.8814C109.199 45.8814 109.364 45.8386 109.436 45.7529C109.515 45.6607 109.555 45.4762 109.555 45.1995V43.5986C109.555 43.2033 109.482 42.9167 109.338 42.7388C109.193 42.5544 108.962 42.4621 108.646 42.4621C108.409 42.4621 108.165 42.5379 107.914 42.6894C107.664 42.8409 107.45 43.0485 107.272 43.312L107.233 43.1934C107.522 42.8047 107.809 42.5181 108.092 42.3336C108.382 42.1492 108.675 42.0569 108.972 42.0569C109.334 42.0569 109.614 42.1591 109.812 42.3633C110.016 42.5609 110.118 42.8607 110.118 43.2626V45.1995C110.118 45.4762 110.154 45.6607 110.227 45.7529C110.306 45.8386 110.474 45.8814 110.731 45.8814C110.751 45.8814 110.761 45.9012 110.761 45.9407C110.761 45.9802 110.751 46 110.731 46C110.619 46 110.484 45.9967 110.326 45.9901C110.174 45.9835 110.013 45.9802 109.842 45.9802C109.67 45.9802 109.506 45.9835 109.347 45.9901C109.189 45.9967 109.054 46 108.942 46ZM106.284 46C106.264 46 106.254 45.9802 106.254 45.9407C106.254 45.9012 106.264 45.8814 106.284 45.8814C106.541 45.8814 106.706 45.8386 106.778 45.7529C106.857 45.6607 106.897 45.4762 106.897 45.1995V43.2428C106.897 43.0254 106.87 42.8673 106.818 42.7685C106.771 42.6631 106.682 42.6104 106.551 42.6104C106.485 42.6104 106.406 42.6235 106.314 42.6499C106.228 42.6762 106.129 42.7125 106.017 42.7586C105.991 42.7652 105.968 42.752 105.948 42.7191C105.935 42.6861 105.941 42.6631 105.968 42.6499L107.114 42.1064C107.134 42.0998 107.154 42.0965 107.173 42.0965C107.219 42.0965 107.279 42.1656 107.351 42.304C107.424 42.4424 107.46 42.6433 107.46 42.9068V45.1995C107.46 45.4762 107.496 45.6607 107.569 45.7529C107.648 45.8386 107.816 45.8814 108.073 45.8814C108.092 45.8814 108.102 45.9012 108.102 45.9407C108.102 45.9802 108.092 46 108.073 46C107.961 46 107.826 45.9967 107.667 45.9901C107.516 45.9835 107.354 45.9802 107.183 45.9802C107.012 45.9802 106.847 45.9835 106.689 45.9901C106.531 45.9967 106.396 46 106.284 46ZM113.158 46.1186C112.75 46.1186 112.407 46.0296 112.13 45.8518C111.854 45.6673 111.646 45.4301 111.508 45.1402C111.369 44.8504 111.3 44.544 111.3 44.2212C111.3 43.8193 111.392 43.4602 111.577 43.144C111.768 42.8212 112.022 42.5675 112.338 42.3831C112.661 42.192 113.023 42.0965 113.425 42.0965C113.787 42.0965 114.064 42.1854 114.255 42.3633C114.453 42.5346 114.551 42.7718 114.551 43.0748C114.551 43.1473 114.545 43.2033 114.532 43.2428C114.519 43.2824 114.486 43.3021 114.433 43.3021H113.86C113.886 42.9793 113.827 42.7322 113.682 42.5609C113.543 42.3831 113.346 42.2941 113.089 42.2941C112.72 42.2941 112.437 42.4325 112.239 42.7092C112.048 42.9859 111.952 43.3614 111.952 43.8358C111.952 44.2113 112.012 44.544 112.13 44.8339C112.255 45.1238 112.433 45.3544 112.664 45.5256C112.901 45.6904 113.181 45.7727 113.504 45.7727C113.675 45.7727 113.85 45.7464 114.028 45.6936C114.206 45.6409 114.374 45.5586 114.532 45.4466C114.545 45.4334 114.561 45.4433 114.581 45.4762C114.607 45.5026 114.614 45.5256 114.601 45.5454C114.364 45.7496 114.127 45.8979 113.889 45.9901C113.652 46.0758 113.408 46.1186 113.158 46.1186ZM111.775 43.3219L111.765 43.1934L114.018 43.144V43.3021L111.775 43.3219ZM117.203 46.1186C116.755 46.1186 116.39 46.0231 116.106 45.832C115.823 45.6344 115.612 45.3873 115.474 45.0908C115.342 44.7878 115.276 44.4814 115.276 44.1718C115.276 43.8424 115.339 43.5492 115.464 43.2922C115.596 43.0353 115.767 42.8179 115.978 42.64C116.189 42.4621 116.423 42.3271 116.68 42.2348C116.936 42.1426 117.187 42.0965 117.431 42.0965C117.622 42.0965 117.803 42.1228 117.974 42.1755C118.152 42.2216 118.297 42.2908 118.409 42.3831C118.528 42.4753 118.587 42.5807 118.587 42.6993C118.587 42.7849 118.557 42.8607 118.498 42.9266C118.439 42.9859 118.353 43.0155 118.241 43.0155C118.136 43.0155 118.047 42.9826 117.974 42.9167C117.908 42.8508 117.852 42.7751 117.806 42.6894C117.734 42.5708 117.648 42.4753 117.549 42.4028C117.45 42.3304 117.302 42.2941 117.104 42.2941C116.729 42.2941 116.439 42.4424 116.235 42.7388C116.031 43.0287 115.928 43.4075 115.928 43.8753C115.928 44.2113 115.984 44.5242 116.096 44.8141C116.215 45.104 116.396 45.3379 116.64 45.5158C116.884 45.6871 117.2 45.7727 117.589 45.7727C117.767 45.7727 117.941 45.7496 118.112 45.7035C118.284 45.6574 118.445 45.5718 118.597 45.4466C118.61 45.4334 118.626 45.44 118.646 45.4664C118.672 45.4927 118.679 45.5125 118.666 45.5256C118.435 45.7299 118.205 45.8814 117.974 45.9802C117.744 46.0725 117.487 46.1186 117.203 46.1186ZM120.841 46.1186C120.683 46.1186 120.532 46.0922 120.387 46.0395C120.242 45.9934 120.123 45.9111 120.031 45.7925C119.939 45.6739 119.893 45.5125 119.893 45.3082V42.9859C119.893 42.8278 119.883 42.7092 119.863 42.6301C119.843 42.5511 119.797 42.5016 119.725 42.4819C119.652 42.4555 119.54 42.4424 119.389 42.4424C119.362 42.4424 119.349 42.4226 119.349 42.3831C119.349 42.3369 119.362 42.3139 119.389 42.3139C119.652 42.3073 119.866 42.2348 120.031 42.0965C120.202 41.9581 120.298 41.7802 120.318 41.5628C120.318 41.5431 120.341 41.5332 120.387 41.5332C120.439 41.5332 120.466 41.5431 120.466 41.5628V44.9722C120.466 45.2424 120.532 45.4433 120.663 45.5751C120.802 45.7068 120.996 45.7727 121.247 45.7727C121.418 45.7727 121.569 45.7464 121.701 45.6936C121.839 45.6344 121.951 45.5685 122.037 45.496C122.063 45.4828 122.087 45.4927 122.106 45.5256C122.133 45.552 122.133 45.5751 122.106 45.5948C121.863 45.7793 121.642 45.9144 121.444 46C121.253 46.0791 121.052 46.1186 120.841 46.1186ZM121.8 42.6696C121.543 42.6038 121.296 42.5609 121.059 42.5412C120.822 42.5214 120.568 42.5115 120.298 42.5115V42.2941C120.561 42.2941 120.815 42.2842 121.059 42.2645C121.303 42.2447 121.563 42.2216 121.839 42.1953C121.853 42.1953 121.866 42.2184 121.879 42.2645C121.899 42.3106 121.909 42.3666 121.909 42.4325C121.909 42.4786 121.895 42.5313 121.869 42.5906C121.849 42.6499 121.826 42.6762 121.8 42.6696ZM122.846 46C122.833 46 122.827 45.9802 122.827 45.9407C122.827 45.9012 122.833 45.8814 122.846 45.8814C123.103 45.8814 123.271 45.8386 123.35 45.7529C123.436 45.6607 123.479 45.4762 123.479 45.1995V43.3515C123.479 43.1209 123.456 42.9529 123.41 42.8475C123.364 42.7355 123.278 42.6795 123.153 42.6795C123.1 42.6795 123.037 42.6927 122.965 42.7191C122.892 42.7388 122.807 42.7718 122.708 42.8179C122.682 42.8245 122.659 42.8113 122.639 42.7784C122.626 42.7388 122.629 42.7125 122.649 42.6993L123.933 42.1064C123.953 42.0998 123.966 42.0965 123.973 42.0965C123.986 42.0965 124.003 42.1064 124.022 42.1261C124.042 42.1393 124.052 42.1558 124.052 42.1755C124.052 42.2282 124.049 42.3567 124.042 42.5609C124.036 42.7652 124.032 43.0254 124.032 43.3416V45.1995C124.032 45.4762 124.068 45.6607 124.141 45.7529C124.22 45.8386 124.391 45.8814 124.655 45.8814C124.675 45.8814 124.684 45.9012 124.684 45.9407C124.684 45.9802 124.675 46 124.655 46C124.536 46 124.398 45.9967 124.24 45.9901C124.088 45.9835 123.927 45.9802 123.756 45.9802C123.584 45.9802 123.42 45.9835 123.261 45.9901C123.11 45.9967 122.972 46 122.846 46ZM123.676 40.9402C123.538 40.9402 123.429 40.904 123.35 40.8315C123.278 40.7591 123.242 40.6569 123.242 40.5252C123.242 40.3934 123.278 40.2913 123.35 40.2188C123.429 40.1464 123.538 40.1101 123.676 40.1101C123.808 40.1101 123.91 40.1464 123.983 40.2188C124.055 40.2913 124.092 40.3934 124.092 40.5252C124.092 40.8019 123.953 40.9402 123.676 40.9402ZM127.308 46.1285C126.919 46.1285 126.58 46.0329 126.29 45.8419C126 45.6508 125.776 45.3972 125.618 45.0809C125.46 44.7581 125.381 44.4122 125.381 44.0433C125.381 43.7007 125.443 43.4042 125.568 43.1539C125.694 42.9035 125.862 42.6993 126.072 42.5412C126.283 42.3765 126.51 42.2546 126.754 42.1755C127.005 42.0965 127.248 42.0569 127.486 42.0569C127.887 42.0569 128.23 42.1558 128.513 42.3534C128.803 42.5511 129.024 42.8047 129.175 43.1144C129.327 43.424 129.403 43.7501 129.403 44.0927C129.403 44.5144 129.307 44.8767 129.116 45.1798C128.925 45.4828 128.671 45.7167 128.355 45.8814C128.039 46.0461 127.69 46.1285 127.308 46.1285ZM127.594 45.9407C127.943 45.9407 128.22 45.8188 128.424 45.5751C128.629 45.3247 128.731 44.9228 128.731 44.3694C128.731 43.9544 128.662 43.5887 128.523 43.2725C128.391 42.9496 128.207 42.6993 127.97 42.5214C127.733 42.3369 127.462 42.2447 127.159 42.2447C126.81 42.2447 126.537 42.3732 126.339 42.6301C126.142 42.8871 126.043 43.256 126.043 43.7369C126.043 44.1388 126.109 44.5078 126.24 44.8438C126.372 45.1798 126.553 45.4466 126.784 45.6442C127.021 45.8419 127.291 45.9407 127.594 45.9407ZM132.857 46C132.837 46 132.827 45.9802 132.827 45.9407C132.827 45.9012 132.837 45.8814 132.857 45.8814C133.114 45.8814 133.278 45.8386 133.351 45.7529C133.43 45.6607 133.469 45.4762 133.469 45.1995V43.5986C133.469 43.2033 133.397 42.9167 133.252 42.7388C133.107 42.5544 132.877 42.4621 132.56 42.4621C132.323 42.4621 132.079 42.5379 131.829 42.6894C131.579 42.8409 131.365 43.0485 131.187 43.312L131.147 43.1934C131.437 42.8047 131.724 42.5181 132.007 42.3336C132.297 42.1492 132.59 42.0569 132.886 42.0569C133.249 42.0569 133.529 42.1591 133.726 42.3633C133.931 42.5609 134.033 42.8607 134.033 43.2626V45.1995C134.033 45.4762 134.069 45.6607 134.141 45.7529C134.221 45.8386 134.389 45.8814 134.645 45.8814C134.665 45.8814 134.675 45.9012 134.675 45.9407C134.675 45.9802 134.665 46 134.645 46C134.533 46 134.398 45.9967 134.24 45.9901C134.089 45.9835 133.927 45.9802 133.756 45.9802C133.585 45.9802 133.42 45.9835 133.262 45.9901C133.104 45.9967 132.969 46 132.857 46ZM130.198 46C130.179 46 130.169 45.9802 130.169 45.9407C130.169 45.9012 130.179 45.8814 130.198 45.8814C130.455 45.8814 130.62 45.8386 130.693 45.7529C130.772 45.6607 130.811 45.4762 130.811 45.1995V43.2428C130.811 43.0254 130.785 42.8673 130.732 42.7685C130.686 42.6631 130.597 42.6104 130.465 42.6104C130.399 42.6104 130.32 42.6235 130.228 42.6499C130.142 42.6762 130.044 42.7125 129.932 42.7586C129.905 42.7652 129.882 42.752 129.862 42.7191C129.849 42.6861 129.856 42.6631 129.882 42.6499L131.029 42.1064C131.048 42.0998 131.068 42.0965 131.088 42.0965C131.134 42.0965 131.193 42.1656 131.266 42.304C131.338 42.4424 131.374 42.6433 131.374 42.9068V45.1995C131.374 45.4762 131.411 45.6607 131.483 45.7529C131.562 45.8386 131.73 45.8814 131.987 45.8814C132.007 45.8814 132.017 45.9012 132.017 45.9407C132.017 45.9802 132.007 46 131.987 46C131.875 46 131.74 45.9967 131.582 45.9901C131.43 45.9835 131.269 45.9802 131.098 45.9802C130.926 45.9802 130.762 45.9835 130.604 45.9901C130.445 45.9967 130.31 46 130.198 46ZM135.847 42.7882C135.847 42.9595 135.89 43.1045 135.976 43.2231C136.068 43.3416 136.18 43.4438 136.312 43.5294C136.45 43.6085 136.595 43.6875 136.746 43.7666C136.918 43.8522 137.079 43.9445 137.231 44.0433C137.382 44.1355 137.507 44.2508 137.606 44.3892C137.705 44.5209 137.754 44.6955 137.754 44.9129C137.754 45.1238 137.702 45.3214 137.596 45.5059C137.491 45.6838 137.333 45.8287 137.122 45.9407C136.918 46.0527 136.664 46.1087 136.361 46.1087C136.196 46.1087 136.038 46.0856 135.887 46.0395C135.735 46 135.577 45.9242 135.412 45.8122C135.399 45.7991 135.386 45.7826 135.373 45.7628C135.36 45.7431 135.353 45.72 135.353 45.6936L135.333 44.9228C135.333 44.9031 135.35 44.8932 135.383 44.8932C135.422 44.8866 135.445 44.8932 135.452 44.9129C135.531 45.1369 135.63 45.3247 135.748 45.4762C135.867 45.6212 136.002 45.7332 136.154 45.8122C136.305 45.8847 136.466 45.9209 136.638 45.9209C136.849 45.9209 137.01 45.8682 137.122 45.7628C137.241 45.6574 137.297 45.5026 137.29 45.2984C137.283 45.1073 137.234 44.9525 137.142 44.8339C137.05 44.7153 136.934 44.6165 136.796 44.5374C136.664 44.4518 136.526 44.3727 136.381 44.3002C136.216 44.2212 136.058 44.1388 135.906 44.0532C135.762 43.9609 135.64 43.8456 135.541 43.7073C135.449 43.5689 135.402 43.3878 135.402 43.1638C135.402 42.9068 135.468 42.6993 135.6 42.5412C135.732 42.3765 135.9 42.2579 136.104 42.1854C136.308 42.1064 136.522 42.0668 136.746 42.0668C136.872 42.0668 136.994 42.0767 137.112 42.0965C137.231 42.1162 137.349 42.1558 137.468 42.2151C137.527 42.2348 137.557 42.2711 137.557 42.3238C137.557 42.4292 137.554 42.5412 137.547 42.6598C137.54 42.7718 137.537 42.9002 137.537 43.0452C137.537 43.0584 137.517 43.0649 137.478 43.0649C137.438 43.0649 137.418 43.0584 137.418 43.0452C137.418 42.8936 137.366 42.7586 137.26 42.64C137.155 42.5214 137.023 42.4292 136.865 42.3633C136.707 42.2908 136.549 42.2546 136.391 42.2546C136.233 42.2546 136.101 42.2974 135.995 42.3831C135.897 42.4687 135.847 42.6038 135.847 42.7882Z" fill="black"/>
<path d="M41.8984 46.0936C41.8568 46.1144 41.8152 46.1248 41.7736 46.1248C41.6384 46.1248 41.5084 46.0156 41.3836 45.7972C41.2588 45.5684 41.1964 45.2408 41.1964 44.8144V42.022C41.1964 41.5332 41.1496 41.1536 41.056 40.8832C40.9728 40.6128 40.8532 40.4256 40.6972 40.3216C40.5516 40.2176 40.3852 40.1656 40.198 40.1656C39.938 40.1656 39.7248 40.2332 39.5584 40.3684C39.392 40.4932 39.2672 40.6544 39.184 40.852C39.1008 41.0496 39.0436 41.2472 39.0124 41.4448C39.002 41.5904 38.9552 41.7256 38.872 41.8504C38.7992 41.9752 38.6536 42.0376 38.4352 42.0376C38.2688 42.0376 38.1388 41.996 38.0452 41.9128C37.9516 41.8296 37.9048 41.7152 37.9048 41.5696C37.9048 41.3824 37.9984 41.19 38.1856 40.9924C38.3728 40.7844 38.6068 40.5972 38.8876 40.4308C39.1788 40.254 39.4804 40.1136 39.7924 40.0096C40.1148 39.8952 40.4164 39.838 40.6972 39.838C41.0924 39.838 41.42 39.9784 41.68 40.2592C41.94 40.5296 42.07 40.9612 42.07 41.554V44.3152C42.07 44.6792 42.1168 44.9444 42.2104 45.1108C42.304 45.2772 42.4548 45.3604 42.6628 45.3604C42.85 45.3604 43.11 45.2928 43.4428 45.1576C43.4948 45.1368 43.5312 45.1576 43.552 45.22C43.5728 45.272 43.5572 45.3084 43.5052 45.3292L41.8984 46.0936ZM38.8408 46.1092C38.508 46.1092 38.2584 46.0208 38.092 45.844C37.9256 45.6568 37.8424 45.4436 37.8424 45.2044C37.8424 44.9132 37.9568 44.6844 38.1856 44.518C38.4144 44.3412 38.7888 44.1644 39.3088 43.9876L41.3524 43.2544L41.3992 43.426L39.5896 44.1124C39.3504 44.206 39.1788 44.31 39.0748 44.4244C38.9812 44.5388 38.9344 44.6844 38.9344 44.8612C38.9344 45.0796 38.9968 45.2512 39.1216 45.376C39.2464 45.4904 39.4076 45.5476 39.6052 45.5476C39.7196 45.5476 39.8288 45.5372 39.9328 45.5164C40.0368 45.4852 40.1408 45.4436 40.2448 45.3916L41.5708 44.7208L41.602 44.908L40.2448 45.6412C39.9328 45.7972 39.6728 45.9168 39.4648 46C39.2568 46.0728 39.0488 46.1092 38.8408 46.1092ZM44.3935 46C44.3623 46 44.3467 45.9688 44.3467 45.9064C44.3467 45.844 44.3623 45.8128 44.3935 45.8128C44.8199 45.8128 45.1423 45.7868 45.3607 45.7348C45.5895 45.6828 45.7403 45.5788 45.8131 45.4228C45.8859 45.2668 45.9223 45.038 45.9223 44.7364V41.8348C45.9223 41.4188 45.8911 41.1276 45.8287 40.9612C45.7663 40.7948 45.6207 40.7324 45.3919 40.774C45.1735 40.8052 44.8355 40.93 44.3779 41.1484C44.3363 41.1588 44.2999 41.138 44.2687 41.086C44.2479 41.0236 44.2583 40.9872 44.2999 40.9768L46.6555 39.838C46.6971 39.8172 46.7335 39.8224 46.7647 39.8536C46.7959 39.8848 46.8115 39.916 46.8115 39.9472V44.7364C46.8115 45.038 46.8427 45.2668 46.9051 45.4228C46.9779 45.5788 47.1235 45.6828 47.3419 45.7348C47.5603 45.7868 47.8879 45.8128 48.3247 45.8128C48.3559 45.8128 48.3715 45.844 48.3715 45.9064C48.3715 45.9688 48.3559 46 48.3247 46C48.0647 46 47.7683 45.9948 47.4355 45.9844C47.1027 45.974 46.7439 45.9688 46.3591 45.9688C45.9951 45.9688 45.6415 45.974 45.2983 45.9844C44.9655 45.9948 44.6639 46 44.3935 46Z" fill="black"/>
<path d="M172.724 76.9784C172.755 76.9784 172.77 77.0096 172.77 77.072C172.77 77.1344 172.755 77.1656 172.724 77.1656C172.464 77.1656 172.24 77.254 172.053 77.4308C171.866 77.6076 171.689 77.9196 171.522 78.3668L169.619 83.4368C169.245 84.4352 168.886 85.2204 168.543 85.7924C168.2 86.3748 167.841 86.7856 167.466 87.0248C167.102 87.264 166.697 87.3836 166.25 87.3836C166.031 87.3836 165.844 87.3316 165.688 87.2276C165.532 87.134 165.454 86.9832 165.454 86.7752C165.454 86.6192 165.506 86.4996 165.61 86.4164C165.704 86.3436 165.813 86.3072 165.938 86.3072C166.146 86.3072 166.302 86.3384 166.406 86.4008C166.51 86.4632 166.614 86.5256 166.718 86.588C166.822 86.6504 166.957 86.6816 167.123 86.6816C167.373 86.6816 167.612 86.562 167.841 86.3228C168.08 86.094 168.335 85.6988 168.605 85.1372C168.876 84.5756 169.193 83.8112 169.557 82.844L169.541 83.2808L167.076 78.2732C166.848 77.8156 166.666 77.5192 166.53 77.384C166.406 77.2384 166.244 77.1656 166.047 77.1656C166.026 77.1656 166.016 77.1344 166.016 77.072C166.016 77.0096 166.026 76.9784 166.047 76.9784C166.213 76.9784 166.385 76.9836 166.562 76.994C166.749 77.0044 166.926 77.0096 167.092 77.0096C167.435 77.0096 167.737 77.0044 167.997 76.994C168.257 76.9836 168.491 76.9784 168.699 76.9784C168.72 76.9784 168.73 77.0096 168.73 77.072C168.73 77.1344 168.72 77.1656 168.699 77.1656C168.366 77.1656 168.111 77.2072 167.934 77.2904C167.768 77.3736 167.747 77.5348 167.872 77.774L170.009 82.1732L169.65 82.8128L171.179 78.4136C171.335 77.9456 171.33 77.6232 171.164 77.4464C171.008 77.2592 170.654 77.1656 170.103 77.1656C170.082 77.1656 170.072 77.1344 170.072 77.072C170.072 77.0096 170.082 76.9784 170.103 76.9784C170.352 76.9784 170.586 76.9836 170.805 76.994C171.034 77.0044 171.325 77.0096 171.678 77.0096C171.907 77.0096 172.089 77.0044 172.224 76.994C172.37 76.9836 172.536 76.9784 172.724 76.9784ZM173.637 83C173.606 83 173.59 82.9688 173.59 82.9064C173.59 82.844 173.606 82.8128 173.637 82.8128C174.064 82.8128 174.386 82.7868 174.604 82.7348C174.833 82.6828 174.984 82.5788 175.057 82.4228C175.13 82.2668 175.166 82.038 175.166 81.7364V78.8348C175.166 78.4188 175.135 78.1276 175.072 77.9612C175.01 77.7948 174.864 77.7324 174.636 77.774C174.417 77.8052 174.079 77.93 173.622 78.1484C173.58 78.1588 173.544 78.138 173.512 78.086C173.492 78.0236 173.502 77.9872 173.544 77.9768L175.899 76.838C175.941 76.8172 175.977 76.8224 176.008 76.8536C176.04 76.8848 176.055 76.916 176.055 76.9472V81.7364C176.055 82.038 176.086 82.2668 176.149 82.4228C176.222 82.5788 176.367 82.6828 176.586 82.7348C176.804 82.7868 177.132 82.8128 177.568 82.8128C177.6 82.8128 177.615 82.844 177.615 82.9064C177.615 82.9688 177.6 83 177.568 83C177.308 83 177.012 82.9948 176.679 82.9844C176.346 82.974 175.988 82.9688 175.603 82.9688C175.239 82.9688 174.885 82.974 174.542 82.9844C174.209 82.9948 173.908 83 173.637 83Z" fill="black"/>
<path d="M172.724 137.978C172.755 137.978 172.77 138.01 172.77 138.072C172.77 138.134 172.755 138.166 172.724 138.166C172.464 138.166 172.24 138.254 172.053 138.431C171.866 138.608 171.689 138.92 171.522 139.367L169.619 144.437C169.245 145.435 168.886 146.22 168.543 146.792C168.2 147.375 167.841 147.786 167.466 148.025C167.102 148.264 166.697 148.384 166.25 148.384C166.031 148.384 165.844 148.332 165.688 148.228C165.532 148.134 165.454 147.983 165.454 147.775C165.454 147.619 165.506 147.5 165.61 147.416C165.704 147.344 165.813 147.307 165.938 147.307C166.146 147.307 166.302 147.338 166.406 147.401C166.51 147.463 166.614 147.526 166.718 147.588C166.822 147.65 166.957 147.682 167.123 147.682C167.373 147.682 167.612 147.562 167.841 147.323C168.08 147.094 168.335 146.699 168.605 146.137C168.876 145.576 169.193 144.811 169.557 143.844L169.541 144.281L167.076 139.273C166.848 138.816 166.666 138.519 166.53 138.384C166.406 138.238 166.244 138.166 166.047 138.166C166.026 138.166 166.016 138.134 166.016 138.072C166.016 138.01 166.026 137.978 166.047 137.978C166.213 137.978 166.385 137.984 166.562 137.994C166.749 138.004 166.926 138.01 167.092 138.01C167.435 138.01 167.737 138.004 167.997 137.994C168.257 137.984 168.491 137.978 168.699 137.978C168.72 137.978 168.73 138.01 168.73 138.072C168.73 138.134 168.72 138.166 168.699 138.166C168.366 138.166 168.111 138.207 167.934 138.29C167.768 138.374 167.747 138.535 167.872 138.774L170.009 143.173L169.65 143.813L171.179 139.414C171.335 138.946 171.33 138.623 171.164 138.446C171.008 138.259 170.654 138.166 170.103 138.166C170.082 138.166 170.072 138.134 170.072 138.072C170.072 138.01 170.082 137.978 170.103 137.978C170.352 137.978 170.586 137.984 170.805 137.994C171.034 138.004 171.325 138.01 171.678 138.01C171.907 138.01 172.089 138.004 172.224 137.994C172.37 137.984 172.536 137.978 172.724 137.978ZM173.356 143.766C174.022 143.236 174.578 142.768 175.026 142.362C175.483 141.956 175.847 141.598 176.118 141.286C176.388 140.963 176.58 140.662 176.695 140.381C176.82 140.1 176.882 139.819 176.882 139.538C176.882 139.112 176.752 138.769 176.492 138.509C176.242 138.249 175.915 138.119 175.509 138.119C175.093 138.119 174.74 138.285 174.448 138.618C174.157 138.94 173.918 139.419 173.731 140.053C173.72 140.074 173.684 140.079 173.622 140.069C173.559 140.058 173.533 140.038 173.544 140.006L174.152 137.635C174.162 137.604 174.199 137.599 174.261 137.62C174.324 137.63 174.344 137.646 174.324 137.666C174.282 137.843 174.287 137.958 174.339 138.01C174.402 138.062 174.469 138.088 174.542 138.088C174.698 138.088 174.906 138.036 175.166 137.932C175.436 137.828 175.764 137.776 176.149 137.776C176.69 137.776 177.111 137.921 177.412 138.212C177.714 138.493 177.865 138.862 177.865 139.32C177.865 139.601 177.797 139.882 177.662 140.162C177.527 140.433 177.324 140.719 177.054 141.02C176.783 141.312 176.44 141.629 176.024 141.972C175.618 142.315 175.14 142.7 174.589 143.126C174.547 143.158 174.537 143.184 174.558 143.204C174.578 143.225 174.61 143.236 174.651 143.236C175.41 143.236 176.024 143.23 176.492 143.22C176.96 143.199 177.324 143.163 177.584 143.111C177.844 143.048 178.031 142.95 178.146 142.814C178.27 142.669 178.359 142.471 178.411 142.222C178.421 142.201 178.452 142.196 178.504 142.206C178.567 142.206 178.598 142.216 178.598 142.237L178.364 143.828C178.364 143.87 178.348 143.912 178.317 143.953C178.296 143.984 178.265 144 178.224 144C177.485 144 176.7 144 175.868 144C175.036 144 174.235 144 173.466 144C173.424 144 173.388 143.974 173.356 143.922C173.325 143.86 173.325 143.808 173.356 143.766Z" fill="black"/>
<path d="M41.8984 115.094C41.8568 115.114 41.8152 115.125 41.7736 115.125C41.6384 115.125 41.5084 115.016 41.3836 114.797C41.2588 114.568 41.1964 114.241 41.1964 113.814V111.022C41.1964 110.533 41.1496 110.154 41.056 109.883C40.9728 109.613 40.8532 109.426 40.6972 109.322C40.5516 109.218 40.3852 109.166 40.198 109.166C39.938 109.166 39.7248 109.233 39.5584 109.368C39.392 109.493 39.2672 109.654 39.184 109.852C39.1008 110.05 39.0436 110.247 39.0124 110.445C39.002 110.59 38.9552 110.726 38.872 110.85C38.7992 110.975 38.6536 111.038 38.4352 111.038C38.2688 111.038 38.1388 110.996 38.0452 110.913C37.9516 110.83 37.9048 110.715 37.9048 110.57C37.9048 110.382 37.9984 110.19 38.1856 109.992C38.3728 109.784 38.6068 109.597 38.8876 109.431C39.1788 109.254 39.4804 109.114 39.7924 109.01C40.1148 108.895 40.4164 108.838 40.6972 108.838C41.0924 108.838 41.42 108.978 41.68 109.259C41.94 109.53 42.07 109.961 42.07 110.554V113.315C42.07 113.679 42.1168 113.944 42.2104 114.111C42.304 114.277 42.4548 114.36 42.6628 114.36C42.85 114.36 43.11 114.293 43.4428 114.158C43.4948 114.137 43.5312 114.158 43.552 114.22C43.5728 114.272 43.5572 114.308 43.5052 114.329L41.8984 115.094ZM38.8408 115.109C38.508 115.109 38.2584 115.021 38.092 114.844C37.9256 114.657 37.8424 114.444 37.8424 114.204C37.8424 113.913 37.9568 113.684 38.1856 113.518C38.4144 113.341 38.7888 113.164 39.3088 112.988L41.3524 112.254L41.3992 112.426L39.5896 113.112C39.3504 113.206 39.1788 113.31 39.0748 113.424C38.9812 113.539 38.9344 113.684 38.9344 113.861C38.9344 114.08 38.9968 114.251 39.1216 114.376C39.2464 114.49 39.4076 114.548 39.6052 114.548C39.7196 114.548 39.8288 114.537 39.9328 114.516C40.0368 114.485 40.1408 114.444 40.2448 114.392L41.5708 113.721L41.602 113.908L40.2448 114.641C39.9328 114.797 39.6728 114.917 39.4648 115C39.2568 115.073 39.0488 115.109 38.8408 115.109ZM44.1127 114.766C44.7783 114.236 45.3347 113.768 45.7819 113.362C46.2395 112.956 46.6035 112.598 46.8739 112.286C47.1443 111.963 47.3367 111.662 47.4511 111.381C47.5759 111.1 47.6383 110.819 47.6383 110.538C47.6383 110.112 47.5083 109.769 47.2483 109.509C46.9987 109.249 46.6711 109.119 46.2655 109.119C45.8495 109.119 45.4959 109.285 45.2047 109.618C44.9135 109.94 44.6743 110.419 44.4871 111.053C44.4767 111.074 44.4403 111.079 44.3779 111.069C44.3155 111.058 44.2895 111.038 44.2999 111.006L44.9083 108.635C44.9187 108.604 44.9551 108.599 45.0175 108.62C45.0799 108.63 45.1007 108.646 45.0799 108.666C45.0383 108.843 45.0435 108.958 45.0955 109.01C45.1579 109.062 45.2255 109.088 45.2983 109.088C45.4543 109.088 45.6623 109.036 45.9223 108.932C46.1927 108.828 46.5203 108.776 46.9051 108.776C47.4459 108.776 47.8671 108.921 48.1687 109.212C48.4703 109.493 48.6211 109.862 48.6211 110.32C48.6211 110.601 48.5535 110.882 48.4183 111.162C48.2831 111.433 48.0803 111.719 47.8099 112.02C47.5395 112.312 47.1963 112.629 46.7803 112.972C46.3747 113.315 45.8963 113.7 45.3451 114.126C45.3035 114.158 45.2931 114.184 45.3139 114.204C45.3347 114.225 45.3659 114.236 45.4075 114.236C46.1667 114.236 46.7803 114.23 47.2483 114.22C47.7163 114.199 48.0803 114.163 48.3403 114.111C48.6003 114.048 48.7875 113.95 48.9019 113.814C49.0267 113.669 49.1151 113.471 49.1671 113.222C49.1775 113.201 49.2087 113.196 49.2607 113.206C49.3231 113.206 49.3543 113.216 49.3543 113.237L49.1203 114.828C49.1203 114.87 49.1047 114.912 49.0735 114.953C49.0527 114.984 49.0215 115 48.9799 115C48.2415 115 47.4563 115 46.6243 115C45.7923 115 44.9915 115 44.2219 115C44.1803 115 44.1439 114.974 44.1127 114.922C44.0815 114.86 44.0815 114.808 44.1127 114.766Z" fill="black"/>
<path d="M40.8984 184.094C40.8568 184.114 40.8152 184.125 40.7736 184.125C40.6384 184.125 40.5084 184.016 40.3836 183.797C40.2588 183.568 40.1964 183.241 40.1964 182.814V180.022C40.1964 179.533 40.1496 179.154 40.056 178.883C39.9728 178.613 39.8532 178.426 39.6972 178.322C39.5516 178.218 39.3852 178.166 39.198 178.166C38.938 178.166 38.7248 178.233 38.5584 178.368C38.392 178.493 38.2672 178.654 38.184 178.852C38.1008 179.05 38.0436 179.247 38.0124 179.445C38.002 179.59 37.9552 179.726 37.872 179.85C37.7992 179.975 37.6536 180.038 37.4352 180.038C37.2688 180.038 37.1388 179.996 37.0452 179.913C36.9516 179.83 36.9048 179.715 36.9048 179.57C36.9048 179.382 36.9984 179.19 37.1856 178.992C37.3728 178.784 37.6068 178.597 37.8876 178.431C38.1788 178.254 38.4804 178.114 38.7924 178.01C39.1148 177.895 39.4164 177.838 39.6972 177.838C40.0924 177.838 40.42 177.978 40.68 178.259C40.94 178.53 41.07 178.961 41.07 179.554V182.315C41.07 182.679 41.1168 182.944 41.2104 183.111C41.304 183.277 41.4548 183.36 41.6628 183.36C41.85 183.36 42.11 183.293 42.4428 183.158C42.4948 183.137 42.5312 183.158 42.552 183.22C42.5728 183.272 42.5572 183.308 42.5052 183.329L40.8984 184.094ZM37.8408 184.109C37.508 184.109 37.2584 184.021 37.092 183.844C36.9256 183.657 36.8424 183.444 36.8424 183.204C36.8424 182.913 36.9568 182.684 37.1856 182.518C37.4144 182.341 37.7888 182.164 38.3088 181.988L40.3524 181.254L40.3992 181.426L38.5896 182.112C38.3504 182.206 38.1788 182.31 38.0748 182.424C37.9812 182.539 37.9344 182.684 37.9344 182.861C37.9344 183.08 37.9968 183.251 38.1216 183.376C38.2464 183.49 38.4076 183.548 38.6052 183.548C38.7196 183.548 38.8288 183.537 38.9328 183.516C39.0368 183.485 39.1408 183.444 39.2448 183.392L40.5708 182.721L40.602 182.908L39.2448 183.641C38.9328 183.797 38.6728 183.917 38.4648 184C38.2568 184.073 38.0488 184.109 37.8408 184.109ZM43.4559 188.29C43.4143 188.3 43.3779 188.274 43.3467 188.212C43.3259 188.16 43.3363 188.129 43.3779 188.118C44.0643 187.9 44.6311 187.64 45.0783 187.338C45.5255 187.037 45.8791 186.709 46.1391 186.356C46.4095 186.002 46.5967 185.648 46.7007 185.295C46.8047 184.952 46.8567 184.624 46.8567 184.312C46.8567 183.979 46.7995 183.662 46.6851 183.36C46.5707 183.048 46.3835 182.799 46.1235 182.612C45.8739 182.414 45.5359 182.315 45.1095 182.315C44.9847 182.315 44.8599 182.32 44.7351 182.331C44.6103 182.341 44.4803 182.367 44.3451 182.409C44.3139 182.419 44.2879 182.393 44.2671 182.331C44.2463 182.268 44.2515 182.232 44.2827 182.222C45.1147 182.003 45.6919 181.707 46.0143 181.332C46.3471 180.958 46.5135 180.454 46.5135 179.819C46.5135 179.31 46.4043 178.899 46.1859 178.587C45.9779 178.275 45.6347 178.119 45.1563 178.119C44.7091 178.119 44.3243 178.264 44.0019 178.556C43.6795 178.847 43.4247 179.32 43.2375 179.975C43.2271 179.996 43.1907 180.001 43.1283 179.991C43.0659 179.98 43.0399 179.96 43.0503 179.928L43.6275 177.651C43.6483 177.62 43.6847 177.614 43.7367 177.635C43.7991 177.646 43.8251 177.661 43.8147 177.682C43.7731 177.859 43.7835 177.978 43.8459 178.041C43.9083 178.093 43.9759 178.119 44.0487 178.119C44.2047 178.119 44.4179 178.062 44.6883 177.947C44.9587 177.833 45.2863 177.776 45.6711 177.776C46.2743 177.776 46.7319 177.958 47.0439 178.322C47.3559 178.686 47.5119 179.096 47.5119 179.554C47.5119 179.939 47.4235 180.313 47.2467 180.677C47.0699 181.031 46.8151 181.343 46.4823 181.613C46.1495 181.873 45.7491 182.05 45.2811 182.144L45.5151 181.941C46.0767 181.951 46.5395 182.06 46.9035 182.268C47.2675 182.476 47.5379 182.747 47.7147 183.08C47.8915 183.412 47.9799 183.766 47.9799 184.14C47.9799 184.619 47.8187 185.123 47.4963 185.654C47.1843 186.194 46.6903 186.694 46.0143 187.151C45.3487 187.619 44.4959 187.999 43.4559 188.29Z" fill="black"/>
<rect x="144" y="37" width="63" height="136" stroke="#5F5F5F" stroke-dasharray="2 2"/>
<rect x="12" y="5" width="64" height="203" stroke="#5F5F5F" stroke-width="1.39683" stroke-dasharray="2.79 2.79"/>
</g>
<defs>
<clipPath id="clip0_1_46">
<rect width="225" height="225" fill="white"/>
</clipPath>
</defs>
</svg>
