<svg width="225" height="225" viewBox="0 0 225 225" fill="none" xmlns="http://www.w3.org/2000/svg">
<g clip-path="url(#clip0_1_46)">
<rect width="225" height="225" fill="#F4F1DE"/>
<rect width="225" height="225" fill="#F4F1DE"/>
<circle cx="43.5" cy="43.5" r="22.3192" stroke="#1C1A1A" stroke-width="0.361538"/>
<circle cx="172.5" cy="78.5" r="22.3192" stroke="#1C1A1A" stroke-width="0.361538"/>
<circle cx="172.5" cy="139.5" r="22.3192" stroke="#1C1A1A" stroke-width="0.361538"/>
<circle cx="43.5" cy="112.5" r="22.3192" stroke="#1C1A1A" stroke-width="0.361538"/>
<circle cx="43.5" cy="181.5" r="22.3192" stroke="#1C1A1A" stroke-width="0.361538"/>
<path d="M150.19 78.4623C150.446 78.3572 150.567 78.065 150.462 77.8096L148.749 73.6486C148.644 73.3932 148.352 73.2715 148.096 73.3766C147.841 73.4818 147.719 73.774 147.824 74.0293L149.347 77.728L145.649 79.251C145.393 79.3562 145.271 79.6484 145.377 79.9037C145.482 80.1591 145.774 80.2809 146.029 80.1757L150.19 78.4623ZM65.8077 43.4615L149.808 78.4615L150.192 77.5385L66.1923 42.5385L65.8077 43.4615Z" fill="#5F5F5F"/>
<path d="M149.967 139.499C150.242 139.517 150.481 139.309 150.499 139.033L150.798 134.543C150.817 134.268 150.608 134.029 150.333 134.011C150.057 133.993 149.819 134.201 149.8 134.477L149.534 138.468L145.543 138.202C145.268 138.183 145.029 138.392 145.011 138.667C144.993 138.943 145.201 139.181 145.477 139.2L149.967 139.499ZM65.6237 43.3293L149.624 139.329L150.376 138.671L66.3763 42.6707L65.6237 43.3293Z" fill="#5F5F5F"/>
<path d="M150.46 78.1951C150.568 77.9408 150.449 77.6474 150.195 77.5396L146.052 75.784C145.797 75.6762 145.504 75.795 145.396 76.0493C145.288 76.3035 145.407 76.597 145.662 76.7047L149.345 78.2653L147.784 81.9483C147.676 82.2026 147.795 82.496 148.049 82.6038C148.304 82.7115 148.597 82.5927 148.705 82.3385L150.46 78.1951ZM66.1876 112.463L150.188 78.4635L149.812 77.5365L65.8124 111.537L66.1876 112.463Z" fill="#5F5F5F"/>
<path d="M150.228 139.445C150.474 139.319 150.571 139.017 150.445 138.772L148.389 134.769C148.263 134.523 147.962 134.426 147.716 134.552C147.47 134.678 147.373 134.98 147.5 135.225L149.327 138.784L145.769 140.611C145.523 140.737 145.426 141.038 145.552 141.284C145.678 141.53 145.98 141.627 146.225 141.5L150.228 139.445ZM65.847 112.476L149.847 139.476L150.153 138.524L66.153 111.524L65.847 112.476Z" fill="#5F5F5F"/>
<path d="M150.497 77.9495C150.47 77.6747 150.224 77.4747 149.949 77.5026L145.473 77.9574C145.198 77.9854 144.998 78.2307 145.026 78.5054C145.054 78.7801 145.299 78.9802 145.574 78.9523L149.553 78.548L149.957 82.5275C149.985 82.8022 150.231 83.0023 150.505 82.9744C150.78 82.9465 150.98 82.7011 150.952 82.4264L150.497 77.9495ZM66.3875 181.316L150.387 78.316L149.613 77.684L65.6125 180.684L66.3875 181.316Z" fill="#5F5F5F"/>
<path d="M149.475 139.156C149.561 138.893 149.418 138.611 149.156 138.525L144.88 137.122C144.618 137.036 144.335 137.179 144.249 137.442C144.163 137.704 144.306 137.987 144.568 138.073L148.369 139.319L147.122 143.12C147.036 143.382 147.179 143.665 147.442 143.751C147.704 143.837 147.987 143.694 148.073 143.432L149.475 139.156ZM66.2258 181.446L149.226 139.446L148.774 138.554L65.7742 180.554L66.2258 181.446Z" fill="#5F5F5F"/>
<path d="M23.5238 14C23.5106 14 23.504 13.9802 23.504 13.9407C23.504 13.9012 23.5106 13.8814 23.5238 13.8814C23.7807 13.8814 23.9487 13.8386 24.0278 13.7529C24.1134 13.6607 24.1562 13.4762 24.1562 13.1995V11.3515C24.1562 11.1209 24.1332 10.9529 24.0871 10.8475C24.0409 10.7355 23.9553 10.6795 23.8301 10.6795C23.7774 10.6795 23.7148 10.6927 23.6424 10.7191C23.5699 10.7388 23.4842 10.7718 23.3854 10.8179C23.3591 10.8245 23.336 10.8113 23.3162 10.7784C23.3031 10.7388 23.3064 10.7125 23.3261 10.6993L24.6108 10.1064C24.6306 10.0998 24.6438 10.0965 24.6504 10.0965C24.6635 10.0965 24.68 10.1064 24.6998 10.1261C24.7195 10.1393 24.7294 10.1558 24.7294 10.1755C24.7294 10.2282 24.7261 10.3567 24.7195 10.5609C24.7129 10.7652 24.7096 11.0254 24.7096 11.3416V13.1995C24.7096 13.4762 24.7459 13.6607 24.8184 13.7529C24.8974 13.8386 25.0687 13.8814 25.3322 13.8814C25.352 13.8814 25.3619 13.9012 25.3619 13.9407C25.3619 13.9802 25.352 14 25.3322 14C25.2136 14 25.0753 13.9967 24.9172 13.9901C24.7656 13.9835 24.6042 13.9802 24.4329 13.9802C24.2616 13.9802 24.0969 13.9835 23.9388 13.9901C23.7873 13.9967 23.6489 14 23.5238 14ZM24.3539 8.94024C24.2155 8.94024 24.1068 8.904 24.0278 8.83153C23.9553 8.75906 23.9191 8.65694 23.9191 8.52518C23.9191 8.39341 23.9553 8.29129 24.0278 8.21882C24.1068 8.14635 24.2155 8.11012 24.3539 8.11012C24.4856 8.11012 24.5878 8.14635 24.6602 8.21882C24.7327 8.29129 24.7689 8.39341 24.7689 8.52518C24.7689 8.80188 24.6306 8.94024 24.3539 8.94024ZM28.8053 14C28.7855 14 28.7756 13.9802 28.7756 13.9407C28.7756 13.9012 28.7855 13.8814 28.8053 13.8814C29.0622 13.8814 29.2269 13.8386 29.2994 13.7529C29.3784 13.6607 29.418 13.4762 29.418 13.1995V11.5986C29.418 11.2033 29.3455 10.9167 29.2006 10.7388C29.0556 10.5544 28.825 10.4621 28.5088 10.4621C28.2716 10.4621 28.0279 10.5379 27.7775 10.6894C27.5271 10.8409 27.313 11.0485 27.1351 11.312L27.0956 11.1934C27.3855 10.8047 27.6721 10.5181 27.9554 10.3336C28.2453 10.1492 28.5384 10.0569 28.8349 10.0569C29.1973 10.0569 29.4773 10.1591 29.6749 10.3633C29.8791 10.5609 29.9813 10.8607 29.9813 11.2626V13.1995C29.9813 13.4762 30.0175 13.6607 30.09 13.7529C30.169 13.8386 30.337 13.8814 30.594 13.8814C30.6137 13.8814 30.6236 13.9012 30.6236 13.9407C30.6236 13.9802 30.6137 14 30.594 14C30.482 14 30.3469 13.9967 30.1888 13.9901C30.0373 13.9835 29.8759 13.9802 29.7046 13.9802C29.5333 13.9802 29.3686 13.9835 29.2104 13.9901C29.0523 13.9967 28.9173 14 28.8053 14ZM26.1469 14C26.1271 14 26.1173 13.9802 26.1173 13.9407C26.1173 13.9012 26.1271 13.8814 26.1469 13.8814C26.4039 13.8814 26.5686 13.8386 26.641 13.7529C26.7201 13.6607 26.7596 13.4762 26.7596 13.1995V11.2428C26.7596 11.0254 26.7333 10.8673 26.6806 10.7685C26.6344 10.6631 26.5455 10.6104 26.4137 10.6104C26.3479 10.6104 26.2688 10.6235 26.1766 10.6499C26.0909 10.6762 25.9921 10.7125 25.8801 10.7586C25.8537 10.7652 25.8307 10.752 25.8109 10.7191C25.7977 10.6861 25.8043 10.6631 25.8307 10.6499L26.977 10.1064C26.9968 10.0998 27.0166 10.0965 27.0363 10.0965C27.0824 10.0965 27.1417 10.1656 27.2142 10.304C27.2867 10.4424 27.3229 10.6433 27.3229 10.9068V13.1995C27.3229 13.4762 27.3591 13.6607 27.4316 13.7529C27.5107 13.8386 27.6787 13.8814 27.9356 13.8814C27.9554 13.8814 27.9653 13.9012 27.9653 13.9407C27.9653 13.9802 27.9554 14 27.9356 14C27.8236 14 27.6886 13.9967 27.5304 13.9901C27.3789 13.9835 27.2175 13.9802 27.0462 13.9802C26.8749 13.9802 26.7102 13.9835 26.5521 13.9901C26.394 13.9967 26.2589 14 26.1469 14ZM31.1237 16.7176C31.1039 16.7176 31.094 16.6979 31.094 16.6584C31.094 16.6188 31.1039 16.5991 31.1237 16.5991C31.3806 16.5991 31.5486 16.5562 31.6277 16.4706C31.7067 16.3849 31.7463 16.2005 31.7463 15.9172V11.2725C31.7463 11.0419 31.7199 10.8739 31.6672 10.7685C31.6145 10.6631 31.5223 10.6104 31.3905 10.6104C31.3246 10.6104 31.2456 10.6235 31.1533 10.6499C31.0677 10.6696 30.9722 10.7026 30.8667 10.7487C30.8404 10.7619 30.8173 10.752 30.7976 10.7191C30.7778 10.6795 30.7811 10.6532 30.8074 10.64L31.9044 10.1162C31.9242 10.1096 31.9472 10.1064 31.9736 10.1064C32.0658 10.1064 32.1416 10.1821 32.2009 10.3336C32.2667 10.4786 32.2997 10.696 32.2997 10.9859V15.9172C32.2997 16.1016 32.3227 16.2433 32.3689 16.3421C32.4216 16.4409 32.5171 16.5068 32.6554 16.5398C32.8004 16.5793 33.0112 16.5991 33.2879 16.5991C33.3011 16.5991 33.3077 16.6188 33.3077 16.6584C33.3077 16.6979 33.3011 16.7176 33.2879 16.7176C33.1166 16.7176 32.9223 16.7144 32.7049 16.7078C32.494 16.7012 32.27 16.6979 32.0329 16.6979C31.8616 16.6979 31.6936 16.7012 31.5289 16.7078C31.3707 16.7144 31.2357 16.7176 31.1237 16.7176ZM33.3472 14.1285C33.0969 14.1285 32.8762 14.0988 32.6851 14.0395C32.494 13.9802 32.2799 13.8682 32.0427 13.7035L32.1811 13.16C32.3656 13.3774 32.5665 13.5586 32.7839 13.7035C33.0013 13.8485 33.2879 13.9209 33.6437 13.9209C33.9863 13.9209 34.2696 13.7694 34.4936 13.4664C34.7242 13.1633 34.8394 12.7351 34.8394 12.1816C34.8394 11.6085 34.7143 11.1736 34.4639 10.8772C34.2136 10.5807 33.9072 10.4325 33.5449 10.4325C33.255 10.4325 32.998 10.5148 32.774 10.6795C32.5566 10.8376 32.3425 11.0287 32.1317 11.2527L32.0526 11.1736C32.3886 10.7849 32.7114 10.5016 33.0211 10.3238C33.3307 10.1459 33.6437 10.0569 33.9599 10.0569C34.23 10.0569 34.4804 10.1294 34.711 10.2744C34.9416 10.4127 35.126 10.6169 35.2644 10.8871C35.4027 11.1572 35.4719 11.4866 35.4719 11.8753C35.4719 12.2772 35.4027 12.6198 35.2644 12.9031C35.1326 13.1864 34.9547 13.4202 34.7307 13.6047C34.5133 13.7826 34.2827 13.9144 34.039 14C33.7952 14.0856 33.5646 14.1285 33.3472 14.1285ZM37.6534 14.0791C37.3305 14.0791 37.0736 13.9769 36.8825 13.7727C36.6981 13.5619 36.6058 13.2588 36.6058 12.8635V11.3515C36.6058 11.0946 36.5828 10.9101 36.5367 10.7981C36.4971 10.6795 36.4214 10.6202 36.3094 10.6202C36.2171 10.6202 36.1051 10.6532 35.9734 10.7191C35.947 10.7256 35.924 10.7092 35.9042 10.6696C35.891 10.6301 35.8976 10.6071 35.924 10.6005L37.0209 10.1064C37.0341 10.0998 37.0472 10.0965 37.0604 10.0965C37.0802 10.0965 37.1 10.1064 37.1197 10.1261C37.1461 10.1393 37.1592 10.1558 37.1592 10.1755V12.5374C37.1592 12.9261 37.2284 13.216 37.3668 13.4071C37.5051 13.5915 37.7127 13.6838 37.9894 13.6838C38.2397 13.6838 38.4901 13.608 38.7404 13.4565C38.9974 13.3049 39.2214 13.1007 39.4124 12.8438L39.4618 12.9525C39.1588 13.3412 38.859 13.6278 38.5625 13.8122C38.2727 13.9901 37.9696 14.0791 37.6534 14.0791ZM39.7781 10.1755V12.9426C39.7781 13.1666 39.8044 13.328 39.8571 13.4268C39.9098 13.5256 39.9988 13.5751 40.124 13.5751C40.1898 13.5751 40.2623 13.5652 40.3414 13.5454C40.427 13.5191 40.5291 13.4828 40.6477 13.4367C40.6807 13.4235 40.7037 13.4367 40.7169 13.4762C40.7301 13.5092 40.7235 13.5322 40.6971 13.5454L39.5409 14.0889C39.5277 14.0955 39.5145 14.0988 39.5014 14.0988C39.4487 14.0988 39.3894 14.0296 39.3235 13.8913C39.2576 13.7464 39.2247 13.5421 39.2247 13.2786V11.3515C39.2247 11.0946 39.2016 10.9101 39.1555 10.7981C39.116 10.6795 39.0402 10.6202 38.9282 10.6202C38.836 10.6202 38.724 10.6532 38.5922 10.7191C38.5658 10.7256 38.5461 10.7092 38.5329 10.6696C38.5197 10.6301 38.5263 10.6071 38.5527 10.6005L39.6496 10.1064C39.6628 10.0998 39.6727 10.0965 39.6793 10.0965C39.699 10.0965 39.7188 10.1064 39.7385 10.1261C39.7649 10.1393 39.7781 10.1558 39.7781 10.1755ZM42.5863 14.1186C42.4282 14.1186 42.2766 14.0922 42.1317 14.0395C41.9868 13.9934 41.8682 13.9111 41.7759 13.7925C41.6837 13.6739 41.6376 13.5125 41.6376 13.3082V10.9859C41.6376 10.8278 41.6277 10.7092 41.6079 10.6301C41.5882 10.5511 41.542 10.5016 41.4696 10.4819C41.3971 10.4555 41.2851 10.4424 41.1336 10.4424C41.1072 10.4424 41.094 10.4226 41.094 10.3831C41.094 10.3369 41.1072 10.3139 41.1336 10.3139C41.3971 10.3073 41.6112 10.2348 41.7759 10.0965C41.9472 9.95812 42.0428 9.78024 42.0625 9.56282C42.0625 9.54306 42.0856 9.53318 42.1317 9.53318C42.1844 9.53318 42.2108 9.54306 42.2108 9.56282V12.9722C42.2108 13.2424 42.2766 13.4433 42.4084 13.5751C42.5468 13.7068 42.7411 13.7727 42.9915 13.7727C43.1628 13.7727 43.3143 13.7464 43.446 13.6936C43.5844 13.6344 43.6964 13.5685 43.782 13.496C43.8084 13.4828 43.8315 13.4927 43.8512 13.5256C43.8776 13.552 43.8776 13.5751 43.8512 13.5948C43.6075 13.7793 43.3868 13.9144 43.1891 14C42.998 14.0791 42.7971 14.1186 42.5863 14.1186ZM43.5449 10.6696C43.2879 10.6038 43.0409 10.5609 42.8037 10.5412C42.5665 10.5214 42.3129 10.5115 42.0428 10.5115V10.2941C42.3063 10.2941 42.5599 10.2842 42.8037 10.2645C43.0475 10.2447 43.3077 10.2216 43.5844 10.1953C43.5976 10.1953 43.6108 10.2184 43.6239 10.2645C43.6437 10.3106 43.6536 10.3666 43.6536 10.4325C43.6536 10.4786 43.6404 10.5313 43.614 10.5906C43.5943 10.6499 43.5712 10.6762 43.5449 10.6696ZM46.779 14C46.7593 14 46.7494 13.9802 46.7494 13.9407C46.7494 13.9012 46.7593 13.8814 46.779 13.8814C47.036 13.8814 47.204 13.8386 47.283 13.7529C47.3621 13.6607 47.4016 13.4762 47.4016 13.1995V8.09035C47.4016 7.85976 47.3786 7.69176 47.3324 7.58635C47.2863 7.47435 47.204 7.41835 47.0854 7.41835C46.9866 7.41835 46.835 7.46447 46.6308 7.55671C46.611 7.56988 46.5913 7.55671 46.5715 7.51718C46.5517 7.47765 46.555 7.45459 46.5814 7.448L47.8463 6.84518C47.8595 6.83859 47.876 6.83529 47.8957 6.83529C47.9089 6.83529 47.9254 6.84518 47.9451 6.86494C47.9715 6.87812 47.9847 6.89459 47.9847 6.91435V13.1995C47.9847 13.4762 48.0209 13.6607 48.0934 13.7529C48.1658 13.8386 48.3338 13.8814 48.5974 13.8814C48.6171 13.8814 48.627 13.9012 48.627 13.9407C48.627 13.9802 48.6171 14 48.5974 14C48.4854 14 48.3503 13.9967 48.1922 13.9901C48.0341 13.9835 47.8661 13.9802 47.6882 13.9802C47.5169 13.9802 47.3489 13.9835 47.1842 13.9901C47.0261 13.9967 46.891 14 46.779 14ZM52.0346 14.0593C52.0082 14.0725 51.9819 14.0791 51.9555 14.0791C51.8699 14.0791 51.7875 14.0099 51.7085 13.8715C51.6294 13.7266 51.5899 13.5191 51.5899 13.2489V11.48C51.5899 11.1704 51.5602 10.9299 51.5009 10.7586C51.4482 10.5873 51.3725 10.4687 51.2736 10.4028C51.1814 10.3369 51.076 10.304 50.9574 10.304C50.7927 10.304 50.6576 10.3468 50.5522 10.4325C50.4468 10.5115 50.3678 10.6136 50.3151 10.7388C50.2623 10.864 50.2261 10.9892 50.2063 11.1144C50.1998 11.2066 50.1701 11.2922 50.1174 11.3713C50.0713 11.4504 49.9791 11.4899 49.8407 11.4899C49.7353 11.4899 49.6529 11.4635 49.5936 11.4108C49.5343 11.3581 49.5047 11.2856 49.5047 11.1934C49.5047 11.0748 49.564 10.9529 49.6826 10.8278C49.8012 10.696 49.9494 10.5774 50.1273 10.472C50.3118 10.36 50.5028 10.2711 50.7005 10.2052C50.9047 10.1327 51.0958 10.0965 51.2736 10.0965C51.524 10.0965 51.7315 10.1854 51.8962 10.3633C52.0609 10.5346 52.1433 10.808 52.1433 11.1835V12.9327C52.1433 13.1633 52.1729 13.3313 52.2322 13.4367C52.2915 13.5421 52.3871 13.5948 52.5188 13.5948C52.6374 13.5948 52.8021 13.552 53.0129 13.4664C53.0459 13.4532 53.0689 13.4664 53.0821 13.5059C53.0953 13.5388 53.0854 13.5619 53.0525 13.5751L52.0346 14.0593ZM50.0976 14.0692C49.8868 14.0692 49.7287 14.0132 49.6233 13.9012C49.5179 13.7826 49.4652 13.6475 49.4652 13.496C49.4652 13.3115 49.5376 13.1666 49.6826 13.0612C49.8275 12.9492 50.0647 12.8372 50.3941 12.7252L51.6887 12.2607L51.7183 12.3694L50.572 12.8042C50.4205 12.8635 50.3118 12.9294 50.2459 13.0019C50.1866 13.0744 50.1569 13.1666 50.1569 13.2786C50.1569 13.4169 50.1965 13.5256 50.2755 13.6047C50.3546 13.6772 50.4567 13.7134 50.5819 13.7134C50.6543 13.7134 50.7235 13.7068 50.7894 13.6936C50.8553 13.6739 50.9212 13.6475 50.9871 13.6146L51.8271 13.1896L51.8468 13.3082L50.9871 13.7727C50.7894 13.8715 50.6247 13.9473 50.4929 14C50.3612 14.0461 50.2294 14.0692 50.0976 14.0692ZM57.2248 10.1854C57.2446 10.1854 57.2545 10.2052 57.2545 10.2447C57.2545 10.2842 57.2446 10.304 57.2248 10.304C57.0601 10.304 56.9185 10.36 56.7999 10.472C56.6813 10.584 56.5693 10.7816 56.4639 11.0649L55.2582 14.2767C55.0211 14.9092 54.7938 15.4066 54.5764 15.7689C54.3589 16.1379 54.1317 16.3981 53.8945 16.5496C53.6639 16.7012 53.4069 16.7769 53.1236 16.7769C52.9853 16.7769 52.8667 16.744 52.7679 16.6781C52.6691 16.6188 52.6196 16.5233 52.6196 16.3915C52.6196 16.2927 52.6526 16.2169 52.7185 16.1642C52.7778 16.1181 52.8469 16.0951 52.926 16.0951C53.0578 16.0951 53.1566 16.1148 53.2225 16.1544C53.2884 16.1939 53.3542 16.2334 53.4201 16.2729C53.486 16.3125 53.5716 16.3322 53.6771 16.3322C53.8352 16.3322 53.9867 16.2565 54.1317 16.1049C54.2832 15.96 54.4446 15.7096 54.6159 15.3539C54.7872 14.9981 54.9881 14.5139 55.2187 13.9012L55.2088 14.1779L53.6474 11.0056C53.5025 10.7158 53.3872 10.528 53.3015 10.4424C53.2225 10.3501 53.1204 10.304 52.9952 10.304C52.982 10.304 52.9754 10.2842 52.9754 10.2447C52.9754 10.2052 52.982 10.1854 52.9952 10.1854C53.1006 10.1854 53.2093 10.1887 53.3213 10.1953C53.4399 10.2019 53.5519 10.2052 53.6573 10.2052C53.8747 10.2052 54.0658 10.2019 54.2305 10.1953C54.3952 10.1887 54.5434 10.1854 54.6752 10.1854C54.6884 10.1854 54.6949 10.2052 54.6949 10.2447C54.6949 10.2842 54.6884 10.304 54.6752 10.304C54.4644 10.304 54.3029 10.3304 54.1909 10.3831C54.0855 10.4358 54.0724 10.5379 54.1514 10.6894L55.5053 13.4762L55.278 13.8814L56.2465 11.0946C56.3453 10.7981 56.342 10.5939 56.2366 10.4819C56.1378 10.3633 55.9138 10.304 55.5646 10.304C55.5514 10.304 55.5448 10.2842 55.5448 10.2447C55.5448 10.2052 55.5514 10.1854 55.5646 10.1854C55.7227 10.1854 55.8709 10.1887 56.0093 10.1953C56.1542 10.2019 56.3387 10.2052 56.5627 10.2052C56.7077 10.2052 56.8229 10.2019 56.9086 10.1953C57.0008 10.1887 57.1062 10.1854 57.2248 10.1854ZM59.4738 14.1186C59.0653 14.1186 58.7227 14.0296 58.446 13.8518C58.1693 13.6673 57.9618 13.4301 57.8234 13.1402C57.6851 12.8504 57.6159 12.544 57.6159 12.2212C57.6159 11.8193 57.7081 11.4602 57.8926 11.144C58.0836 10.8212 58.3373 10.5675 58.6535 10.3831C58.9763 10.192 59.3387 10.0965 59.7406 10.0965C60.1029 10.0965 60.3796 10.1854 60.5707 10.3633C60.7683 10.5346 60.8672 10.7718 60.8672 11.0748C60.8672 11.1473 60.8606 11.2033 60.8474 11.2428C60.8342 11.2824 60.8013 11.3021 60.7486 11.3021H60.1754C60.2018 10.9793 60.1425 10.7322 59.9975 10.5609C59.8592 10.3831 59.6615 10.2941 59.4046 10.2941C59.0356 10.2941 58.7523 10.4325 58.5547 10.7092C58.3636 10.9859 58.2681 11.3614 58.2681 11.8358C58.2681 12.2113 58.3274 12.544 58.446 12.8339C58.5712 13.1238 58.7491 13.3544 58.9796 13.5256C59.2168 13.6904 59.4968 13.7727 59.8196 13.7727C59.9909 13.7727 60.1655 13.7464 60.3434 13.6936C60.5213 13.6409 60.6893 13.5586 60.8474 13.4466C60.8606 13.4334 60.8771 13.4433 60.8968 13.4762C60.9232 13.5026 60.9298 13.5256 60.9166 13.5454C60.6794 13.7496 60.4422 13.8979 60.2051 13.9901C59.9679 14.0758 59.7241 14.1186 59.4738 14.1186ZM58.0902 11.3219L58.0803 11.1934L60.3335 11.144V11.3021L58.0902 11.3219ZM62.7073 11.3219L62.6678 11.2132C62.9115 10.9167 63.1125 10.6894 63.2706 10.5313C63.4287 10.3666 63.5638 10.2546 63.6758 10.1953C63.7944 10.1294 63.9064 10.0965 64.0118 10.0965C64.1501 10.0965 64.2852 10.136 64.4169 10.2151C64.5553 10.2941 64.6245 10.3896 64.6245 10.5016C64.6245 10.5873 64.5948 10.6598 64.5355 10.7191C64.4828 10.7784 64.4038 10.808 64.2984 10.808C64.2127 10.808 64.1402 10.7816 64.0809 10.7289C64.0216 10.6762 63.9591 10.6268 63.8932 10.5807C63.8273 10.5346 63.7416 10.5115 63.6362 10.5115C63.5769 10.5115 63.5144 10.528 63.4485 10.5609C63.3826 10.5939 63.2936 10.6696 63.1816 10.7882C63.0696 10.9002 62.9115 11.0781 62.7073 11.3219ZM61.7388 14C61.7191 14 61.7092 13.9802 61.7092 13.9407C61.7092 13.9012 61.7191 13.8814 61.7388 13.8814C61.9958 13.8814 62.1605 13.8386 62.2329 13.7529C62.312 13.6607 62.3515 13.4762 62.3515 13.1995V11.2428C62.3515 11.0254 62.3252 10.8673 62.2725 10.7685C62.2264 10.6631 62.1374 10.6104 62.0056 10.6104C61.9398 10.6104 61.8607 10.6235 61.7685 10.6499C61.6828 10.6762 61.584 10.7125 61.472 10.7586C61.4456 10.7652 61.4226 10.752 61.4028 10.7191C61.3896 10.6861 61.3962 10.6631 61.4226 10.6499L62.5689 10.1064C62.5887 10.0998 62.6085 10.0965 62.6282 10.0965C62.6744 10.0965 62.7336 10.1656 62.8061 10.304C62.8786 10.4424 62.9148 10.6433 62.9148 10.9068V13.1995C62.9148 13.384 62.9379 13.5289 62.984 13.6344C63.0301 13.7332 63.1224 13.7991 63.2607 13.832C63.3991 13.8649 63.6033 13.8814 63.8734 13.8814C63.8998 13.8814 63.9129 13.9012 63.9129 13.9407C63.9129 13.9802 63.8998 14 63.8734 14C63.7153 14 63.5275 13.9967 63.3101 13.9901C63.0993 13.9835 62.8753 13.9802 62.6381 13.9802C62.4668 13.9802 62.3021 13.9835 62.144 13.9901C61.9859 13.9967 61.8508 14 61.7388 14Z" fill="black"/>
<path d="M155.283 49.1285C154.894 49.1285 154.555 49.0329 154.265 48.8419C153.975 48.6508 153.751 48.3972 153.593 48.0809C153.435 47.7581 153.356 47.4122 153.356 47.0433C153.356 46.7007 153.418 46.4042 153.544 46.1539C153.669 45.9035 153.837 45.6993 154.048 45.5412C154.258 45.3765 154.486 45.2546 154.729 45.1755C154.98 45.0965 155.224 45.0569 155.461 45.0569C155.863 45.0569 156.205 45.1558 156.488 45.3534C156.778 45.5511 156.999 45.8047 157.151 46.1144C157.302 46.424 157.378 46.7501 157.378 47.0927C157.378 47.5144 157.282 47.8767 157.091 48.1798C156.9 48.4828 156.647 48.7167 156.33 48.8814C156.014 49.0461 155.665 49.1285 155.283 49.1285ZM155.569 48.9407C155.919 48.9407 156.195 48.8188 156.4 48.5751C156.604 48.3247 156.706 47.9228 156.706 47.3694C156.706 46.9544 156.637 46.5887 156.498 46.2725C156.367 45.9496 156.182 45.6993 155.945 45.5214C155.708 45.3369 155.438 45.2447 155.135 45.2447C154.785 45.2447 154.512 45.3732 154.314 45.6301C154.117 45.8871 154.018 46.256 154.018 46.7369C154.018 47.1388 154.084 47.5078 154.216 47.8438C154.347 48.1798 154.528 48.4466 154.759 48.6442C154.996 48.8419 155.266 48.9407 155.569 48.9407ZM159.527 49.0791C159.205 49.0791 158.948 48.9769 158.757 48.7727C158.572 48.5619 158.48 48.2588 158.48 47.8635V46.3515C158.48 46.0946 158.457 45.9101 158.411 45.7981C158.371 45.6795 158.295 45.6202 158.183 45.6202C158.091 45.6202 157.979 45.6532 157.847 45.7191C157.821 45.7256 157.798 45.7092 157.778 45.6696C157.765 45.6301 157.772 45.6071 157.798 45.6005L158.895 45.1064C158.908 45.0998 158.921 45.0965 158.935 45.0965C158.954 45.0965 158.974 45.1064 158.994 45.1261C159.02 45.1393 159.033 45.1558 159.033 45.1755V47.5374C159.033 47.9261 159.103 48.216 159.241 48.4071C159.379 48.5915 159.587 48.6838 159.863 48.6838C160.114 48.6838 160.364 48.608 160.615 48.4565C160.871 48.3049 161.095 48.1007 161.287 47.8438L161.336 47.9525C161.033 48.3412 160.733 48.6278 160.437 48.8122C160.147 48.9901 159.844 49.0791 159.527 49.0791ZM161.652 45.1755V47.9426C161.652 48.1666 161.679 48.328 161.731 48.4268C161.784 48.5256 161.873 48.5751 161.998 48.5751C162.064 48.5751 162.136 48.5652 162.215 48.5454C162.301 48.5191 162.403 48.4828 162.522 48.4367C162.555 48.4235 162.578 48.4367 162.591 48.4762C162.604 48.5092 162.598 48.5322 162.571 48.5454L161.415 49.0889C161.402 49.0955 161.389 49.0988 161.375 49.0988C161.323 49.0988 161.263 49.0296 161.198 48.8913C161.132 48.7464 161.099 48.5421 161.099 48.2786V46.3515C161.099 46.0946 161.076 45.9101 161.03 45.7981C160.99 45.6795 160.914 45.6202 160.802 45.6202C160.71 45.6202 160.598 45.6532 160.466 45.7191C160.44 45.7256 160.42 45.7092 160.407 45.6696C160.394 45.6301 160.4 45.6071 160.427 45.6005L161.524 45.1064C161.537 45.0998 161.547 45.0965 161.553 45.0965C161.573 45.0965 161.593 45.1064 161.613 45.1261C161.639 45.1393 161.652 45.1558 161.652 45.1755ZM164.46 49.1186C164.302 49.1186 164.151 49.0922 164.006 49.0395C163.861 48.9934 163.742 48.9111 163.65 48.7925C163.558 48.6739 163.512 48.5125 163.512 48.3082V45.9859C163.512 45.8278 163.502 45.7092 163.482 45.6301C163.462 45.5511 163.416 45.5016 163.344 45.4819C163.271 45.4555 163.159 45.4424 163.008 45.4424C162.981 45.4424 162.968 45.4226 162.968 45.3831C162.968 45.3369 162.981 45.3139 163.008 45.3139C163.271 45.3073 163.485 45.2348 163.65 45.0965C163.821 44.9581 163.917 44.7802 163.937 44.5628C163.937 44.5431 163.96 44.5332 164.006 44.5332C164.058 44.5332 164.085 44.5431 164.085 44.5628V47.9722C164.085 48.2424 164.151 48.4433 164.282 48.5751C164.421 48.7068 164.615 48.7727 164.866 48.7727C165.037 48.7727 165.188 48.7464 165.32 48.6936C165.458 48.6344 165.57 48.5685 165.656 48.496C165.682 48.4828 165.706 48.4927 165.725 48.5256C165.752 48.552 165.752 48.5751 165.725 48.5948C165.482 48.7793 165.261 48.9144 165.063 49C164.872 49.0791 164.671 49.1186 164.46 49.1186ZM165.419 45.6696C165.162 45.6038 164.915 45.5609 164.678 45.5412C164.441 45.5214 164.187 45.5115 163.917 45.5115V45.2941C164.18 45.2941 164.434 45.2842 164.678 45.2645C164.922 45.2447 165.182 45.2216 165.458 45.1953C165.472 45.1953 165.485 45.2184 165.498 45.2645C165.518 45.3106 165.528 45.3666 165.528 45.4325C165.528 45.4786 165.514 45.5313 165.488 45.5906C165.468 45.6499 165.445 45.6762 165.419 45.6696ZM166.258 51.7176C166.238 51.7176 166.228 51.6979 166.228 51.6584C166.228 51.6188 166.238 51.5991 166.258 51.5991C166.515 51.5991 166.683 51.5562 166.762 51.4706C166.841 51.3849 166.88 51.2005 166.88 50.9172V46.2725C166.88 46.0419 166.854 45.8739 166.801 45.7685C166.749 45.6631 166.656 45.6104 166.525 45.6104C166.459 45.6104 166.38 45.6235 166.288 45.6499C166.202 45.6696 166.106 45.7026 166.001 45.7487C165.975 45.7619 165.952 45.752 165.932 45.7191C165.912 45.6795 165.915 45.6532 165.942 45.64L167.039 45.1162C167.058 45.1096 167.081 45.1064 167.108 45.1064C167.2 45.1064 167.276 45.1821 167.335 45.3336C167.401 45.4786 167.434 45.696 167.434 45.9859V50.9172C167.434 51.1016 167.457 51.2433 167.503 51.3421C167.556 51.4409 167.651 51.5068 167.79 51.5398C167.935 51.5793 168.145 51.5991 168.422 51.5991C168.435 51.5991 168.442 51.6188 168.442 51.6584C168.442 51.6979 168.435 51.7176 168.422 51.7176C168.251 51.7176 168.056 51.7144 167.839 51.7078C167.628 51.7012 167.404 51.6979 167.167 51.6979C166.996 51.6979 166.828 51.7012 166.663 51.7078C166.505 51.7144 166.37 51.7176 166.258 51.7176ZM168.481 49.1285C168.231 49.1285 168.01 49.0988 167.819 49.0395C167.628 48.9802 167.414 48.8682 167.177 48.7035L167.315 48.16C167.5 48.3774 167.701 48.5586 167.918 48.7035C168.136 48.8485 168.422 48.9209 168.778 48.9209C169.12 48.9209 169.404 48.7694 169.628 48.4664C169.858 48.1633 169.974 47.7351 169.974 47.1816C169.974 46.6085 169.848 46.1736 169.598 45.8772C169.348 45.5807 169.041 45.4325 168.679 45.4325C168.389 45.4325 168.132 45.5148 167.908 45.6795C167.691 45.8376 167.477 46.0287 167.266 46.2527L167.187 46.1736C167.523 45.7849 167.846 45.5016 168.155 45.3238C168.465 45.1459 168.778 45.0569 169.094 45.0569C169.364 45.0569 169.615 45.1294 169.845 45.2744C170.076 45.4127 170.26 45.6169 170.399 45.8871C170.537 46.1572 170.606 46.4866 170.606 46.8753C170.606 47.2772 170.537 47.6198 170.399 47.9031C170.267 48.1864 170.089 48.4202 169.865 48.6047C169.648 48.7826 169.417 48.9144 169.173 49C168.929 49.0856 168.699 49.1285 168.481 49.1285ZM172.788 49.0791C172.465 49.0791 172.208 48.9769 172.017 48.7727C171.832 48.5619 171.74 48.2588 171.74 47.8635V46.3515C171.74 46.0946 171.717 45.9101 171.671 45.7981C171.631 45.6795 171.556 45.6202 171.444 45.6202C171.351 45.6202 171.239 45.6532 171.108 45.7191C171.081 45.7256 171.058 45.7092 171.038 45.6696C171.025 45.6301 171.032 45.6071 171.058 45.6005L172.155 45.1064C172.168 45.0998 172.181 45.0965 172.195 45.0965C172.214 45.0965 172.234 45.1064 172.254 45.1261C172.28 45.1393 172.293 45.1558 172.293 45.1755V47.5374C172.293 47.9261 172.363 48.216 172.501 48.4071C172.639 48.5915 172.847 48.6838 173.124 48.6838C173.374 48.6838 173.624 48.608 173.875 48.4565C174.132 48.3049 174.356 48.1007 174.547 47.8438L174.596 47.9525C174.293 48.3412 173.993 48.6278 173.697 48.8122C173.407 48.9901 173.104 49.0791 172.788 49.0791ZM174.912 45.1755V47.9426C174.912 48.1666 174.939 48.328 174.991 48.4268C175.044 48.5256 175.133 48.5751 175.258 48.5751C175.324 48.5751 175.397 48.5652 175.476 48.5454C175.561 48.5191 175.663 48.4828 175.782 48.4367C175.815 48.4235 175.838 48.4367 175.851 48.4762C175.864 48.5092 175.858 48.5322 175.831 48.5454L174.675 49.0889C174.662 49.0955 174.649 49.0988 174.636 49.0988C174.583 49.0988 174.524 49.0296 174.458 48.8913C174.392 48.7464 174.359 48.5421 174.359 48.2786V46.3515C174.359 46.0946 174.336 45.9101 174.29 45.7981C174.25 45.6795 174.174 45.6202 174.062 45.6202C173.97 45.6202 173.858 45.6532 173.726 45.7191C173.7 45.7256 173.68 45.7092 173.667 45.6696C173.654 45.6301 173.661 45.6071 173.687 45.6005L174.784 45.1064C174.797 45.0998 174.807 45.0965 174.813 45.0965C174.833 45.0965 174.853 45.1064 174.873 45.1261C174.899 45.1393 174.912 45.1558 174.912 45.1755ZM177.72 49.1186C177.562 49.1186 177.411 49.0922 177.266 49.0395C177.121 48.9934 177.002 48.9111 176.91 48.7925C176.818 48.6739 176.772 48.5125 176.772 48.3082V45.9859C176.772 45.8278 176.762 45.7092 176.742 45.6301C176.722 45.5511 176.676 45.5016 176.604 45.4819C176.531 45.4555 176.419 45.4424 176.268 45.4424C176.241 45.4424 176.228 45.4226 176.228 45.3831C176.228 45.3369 176.241 45.3139 176.268 45.3139C176.531 45.3073 176.745 45.2348 176.91 45.0965C177.081 44.9581 177.177 44.7802 177.197 44.5628C177.197 44.5431 177.22 44.5332 177.266 44.5332C177.319 44.5332 177.345 44.5431 177.345 44.5628V47.9722C177.345 48.2424 177.411 48.4433 177.543 48.5751C177.681 48.7068 177.875 48.7727 178.126 48.7727C178.297 48.7727 178.448 48.7464 178.58 48.6936C178.719 48.6344 178.831 48.5685 178.916 48.496C178.943 48.4828 178.966 48.4927 178.985 48.5256C179.012 48.552 179.012 48.5751 178.985 48.5948C178.742 48.7793 178.521 48.9144 178.323 49C178.132 49.0791 177.931 49.1186 177.72 49.1186ZM178.679 45.6696C178.422 45.6038 178.175 45.5609 177.938 45.5412C177.701 45.5214 177.447 45.5115 177.177 45.5115V45.2941C177.44 45.2941 177.694 45.2842 177.938 45.2645C178.182 45.2447 178.442 45.2216 178.719 45.1953C178.732 45.1953 178.745 45.2184 178.758 45.2645C178.778 45.3106 178.788 45.3666 178.788 45.4325C178.788 45.4786 178.775 45.5313 178.748 45.5906C178.728 45.6499 178.705 45.6762 178.679 45.6696ZM181.913 49C181.893 49 181.884 48.9802 181.884 48.9407C181.884 48.9012 181.893 48.8814 181.913 48.8814C182.17 48.8814 182.338 48.8386 182.417 48.7529C182.496 48.6607 182.536 48.4762 182.536 48.1995V43.0904C182.536 42.8598 182.513 42.6918 182.467 42.5864C182.421 42.4744 182.338 42.4184 182.22 42.4184C182.121 42.4184 181.969 42.4645 181.765 42.5567C181.745 42.5699 181.725 42.5567 181.706 42.5172C181.686 42.4776 181.689 42.4546 181.716 42.448L182.981 41.8452C182.994 41.8386 183.01 41.8353 183.03 41.8353C183.043 41.8353 183.06 41.8452 183.079 41.8649C183.106 41.8781 183.119 41.8946 183.119 41.9144V48.1995C183.119 48.4762 183.155 48.6607 183.228 48.7529C183.3 48.8386 183.468 48.8814 183.732 48.8814C183.751 48.8814 183.761 48.9012 183.761 48.9407C183.761 48.9802 183.751 49 183.732 49C183.62 49 183.485 48.9967 183.326 48.9901C183.168 48.9835 183 48.9802 182.822 48.9802C182.651 48.9802 182.483 48.9835 182.318 48.9901C182.16 48.9967 182.025 49 181.913 49ZM187.169 49.0593C187.142 49.0725 187.116 49.0791 187.09 49.0791C187.004 49.0791 186.922 49.0099 186.843 48.8715C186.764 48.7266 186.724 48.5191 186.724 48.2489V46.48C186.724 46.1704 186.694 45.9299 186.635 45.7586C186.582 45.5873 186.507 45.4687 186.408 45.4028C186.316 45.3369 186.21 45.304 186.092 45.304C185.927 45.304 185.792 45.3468 185.686 45.4325C185.581 45.5115 185.502 45.6136 185.449 45.7388C185.397 45.864 185.36 45.9892 185.341 46.1144C185.334 46.2066 185.304 46.2922 185.252 46.3713C185.205 46.4504 185.113 46.4899 184.975 46.4899C184.869 46.4899 184.787 46.4635 184.728 46.4108C184.669 46.3581 184.639 46.2856 184.639 46.1934C184.639 46.0748 184.698 45.9529 184.817 45.8278C184.935 45.696 185.084 45.5774 185.261 45.472C185.446 45.36 185.637 45.2711 185.835 45.2052C186.039 45.1327 186.23 45.0965 186.408 45.0965C186.658 45.0965 186.866 45.1854 187.03 45.3633C187.195 45.5346 187.277 45.808 187.277 46.1835V47.9327C187.277 48.1633 187.307 48.3313 187.366 48.4367C187.426 48.5421 187.521 48.5948 187.653 48.5948C187.772 48.5948 187.936 48.552 188.147 48.4664C188.18 48.4532 188.203 48.4664 188.216 48.5059C188.229 48.5388 188.22 48.5619 188.187 48.5751L187.169 49.0593ZM185.232 49.0692C185.021 49.0692 184.863 49.0132 184.757 48.9012C184.652 48.7826 184.599 48.6475 184.599 48.496C184.599 48.3115 184.672 48.1666 184.817 48.0612C184.962 47.9492 185.199 47.8372 185.528 47.7252L186.823 47.2607L186.853 47.3694L185.706 47.8042C185.555 47.8635 185.446 47.9294 185.38 48.0019C185.321 48.0744 185.291 48.1666 185.291 48.2786C185.291 48.4169 185.331 48.5256 185.41 48.6047C185.489 48.6772 185.591 48.7134 185.716 48.7134C185.789 48.7134 185.858 48.7068 185.924 48.6936C185.989 48.6739 186.055 48.6475 186.121 48.6146L186.961 48.1896L186.981 48.3082L186.121 48.7727C185.924 48.8715 185.759 48.9473 185.627 49C185.495 49.0461 185.364 49.0692 185.232 49.0692ZM192.359 45.1854C192.379 45.1854 192.389 45.2052 192.389 45.2447C192.389 45.2842 192.379 45.304 192.359 45.304C192.194 45.304 192.053 45.36 191.934 45.472C191.815 45.584 191.703 45.7816 191.598 46.0649L190.392 49.2767C190.155 49.9092 189.928 50.4066 189.711 50.7689C189.493 51.1379 189.266 51.3981 189.029 51.5496C188.798 51.7012 188.541 51.7769 188.258 51.7769C188.119 51.7769 188.001 51.744 187.902 51.6781C187.803 51.6188 187.754 51.5233 187.754 51.3915C187.754 51.2927 187.787 51.2169 187.853 51.1642C187.912 51.1181 187.981 51.0951 188.06 51.0951C188.192 51.0951 188.291 51.1148 188.357 51.1544C188.423 51.1939 188.488 51.2334 188.554 51.2729C188.62 51.3125 188.706 51.3322 188.811 51.3322C188.969 51.3322 189.121 51.2565 189.266 51.1049C189.417 50.96 189.579 50.7096 189.75 50.3539C189.921 49.9981 190.122 49.5139 190.353 48.9012L190.343 49.1779L188.782 46.0056C188.637 45.7158 188.521 45.528 188.436 45.4424C188.357 45.3501 188.255 45.304 188.129 45.304C188.116 45.304 188.11 45.2842 188.11 45.2447C188.11 45.2052 188.116 45.1854 188.129 45.1854C188.235 45.1854 188.343 45.1887 188.455 45.1953C188.574 45.2019 188.686 45.2052 188.791 45.2052C189.009 45.2052 189.2 45.2019 189.365 45.1953C189.529 45.1887 189.678 45.1854 189.809 45.1854C189.823 45.1854 189.829 45.2052 189.829 45.2447C189.829 45.2842 189.823 45.304 189.809 45.304C189.599 45.304 189.437 45.3304 189.325 45.3831C189.22 45.4358 189.207 45.5379 189.286 45.6894L190.639 48.4762L190.412 48.8814L191.381 46.0946C191.479 45.7981 191.476 45.5939 191.371 45.4819C191.272 45.3633 191.048 45.304 190.699 45.304C190.686 45.304 190.679 45.2842 190.679 45.2447C190.679 45.2052 190.686 45.1854 190.699 45.1854C190.857 45.1854 191.005 45.1887 191.143 45.1953C191.288 45.2019 191.473 45.2052 191.697 45.2052C191.842 45.2052 191.957 45.2019 192.043 45.1953C192.135 45.1887 192.24 45.1854 192.359 45.1854ZM194.608 49.1186C194.199 49.1186 193.857 49.0296 193.58 48.8518C193.303 48.6673 193.096 48.4301 192.958 48.1402C192.819 47.8504 192.75 47.544 192.75 47.2212C192.75 46.8193 192.842 46.4602 193.027 46.144C193.218 45.8212 193.471 45.5675 193.788 45.3831C194.111 45.192 194.473 45.0965 194.875 45.0965C195.237 45.0965 195.514 45.1854 195.705 45.3633C195.903 45.5346 196.001 45.7718 196.001 46.0748C196.001 46.1473 195.995 46.2033 195.982 46.2428C195.968 46.2824 195.935 46.3021 195.883 46.3021H195.31C195.336 45.9793 195.277 45.7322 195.132 45.5609C194.993 45.3831 194.796 45.2941 194.539 45.2941C194.17 45.2941 193.887 45.4325 193.689 45.7092C193.498 45.9859 193.402 46.3614 193.402 46.8358C193.402 47.2113 193.462 47.544 193.58 47.8339C193.705 48.1238 193.883 48.3544 194.114 48.5256C194.351 48.6904 194.631 48.7727 194.954 48.7727C195.125 48.7727 195.3 48.7464 195.478 48.6936C195.655 48.6409 195.823 48.5586 195.982 48.4466C195.995 48.4334 196.011 48.4433 196.031 48.4762C196.057 48.5026 196.064 48.5256 196.051 48.5454C195.814 48.7496 195.576 48.8979 195.339 48.9901C195.102 49.0758 194.858 49.1186 194.608 49.1186ZM193.224 46.3219L193.215 46.1934L195.468 46.144V46.3021L193.224 46.3219ZM197.841 46.3219L197.802 46.2132C198.046 45.9167 198.247 45.6894 198.405 45.5313C198.563 45.3666 198.698 45.2546 198.81 45.1953C198.929 45.1294 199.041 45.0965 199.146 45.0965C199.284 45.0965 199.419 45.136 199.551 45.2151C199.689 45.2941 199.759 45.3896 199.759 45.5016C199.759 45.5873 199.729 45.6598 199.67 45.7191C199.617 45.7784 199.538 45.808 199.433 45.808C199.347 45.808 199.274 45.7816 199.215 45.7289C199.156 45.6762 199.093 45.6268 199.027 45.5807C198.961 45.5346 198.876 45.5115 198.77 45.5115C198.711 45.5115 198.649 45.528 198.583 45.5609C198.517 45.5939 198.428 45.6696 198.316 45.7882C198.204 45.9002 198.046 46.0781 197.841 46.3219ZM196.873 49C196.853 49 196.843 48.9802 196.843 48.9407C196.843 48.9012 196.853 48.8814 196.873 48.8814C197.13 48.8814 197.295 48.8386 197.367 48.7529C197.446 48.6607 197.486 48.4762 197.486 48.1995V46.2428C197.486 46.0254 197.459 45.8673 197.407 45.7685C197.361 45.6631 197.272 45.6104 197.14 45.6104C197.074 45.6104 196.995 45.6235 196.903 45.6499C196.817 45.6762 196.718 45.7125 196.606 45.7586C196.58 45.7652 196.557 45.752 196.537 45.7191C196.524 45.6861 196.53 45.6631 196.557 45.6499L197.703 45.1064C197.723 45.0998 197.743 45.0965 197.762 45.0965C197.809 45.0965 197.868 45.1656 197.94 45.304C198.013 45.4424 198.049 45.6433 198.049 45.9068V48.1995C198.049 48.384 198.072 48.5289 198.118 48.6344C198.164 48.7332 198.257 48.7991 198.395 48.832C198.533 48.8649 198.737 48.8814 199.008 48.8814C199.034 48.8814 199.047 48.9012 199.047 48.9407C199.047 48.9802 199.034 49 199.008 49C198.849 49 198.662 48.9967 198.444 48.9901C198.233 48.9835 198.009 48.9802 197.772 48.9802C197.601 48.9802 197.436 48.9835 197.278 48.9901C197.12 48.9967 196.985 49 196.873 49Z" fill="black"/>
<path d="M41.0404 46C41.0092 46 40.9936 45.9688 40.9936 45.9064C40.9936 45.844 41.0092 45.8128 41.0404 45.8128C41.3524 45.8128 41.524 45.7712 41.5552 45.688C41.5864 45.6048 41.524 45.4436 41.368 45.2044L38.7628 41.2732C38.482 40.8572 38.2064 40.5712 37.936 40.4152C37.6656 40.2488 37.4368 40.1656 37.2496 40.1656C37.2288 40.1656 37.2184 40.1344 37.2184 40.072C37.2184 40.0096 37.2288 39.9784 37.2496 39.9784C37.4056 39.9784 37.5668 39.9836 37.7332 39.994C37.8996 40.0044 38.0608 40.0096 38.2168 40.0096C38.56 40.0096 38.8616 40.0044 39.1216 39.994C39.3816 39.9836 39.6156 39.9784 39.8236 39.9784C39.8444 39.9784 39.8548 40.0096 39.8548 40.072C39.8548 40.1344 39.8444 40.1656 39.8236 40.1656C39.5324 40.1656 39.366 40.2072 39.3244 40.2904C39.2828 40.3736 39.3452 40.5348 39.5116 40.774L42.1168 44.7052C42.3976 45.1316 42.6784 45.4228 42.9592 45.5788C43.24 45.7348 43.474 45.8128 43.6612 45.8128C43.682 45.8128 43.6924 45.844 43.6924 45.9064C43.6924 45.9688 43.682 46 43.6612 46C43.5052 46 43.3388 45.9948 43.162 45.9844C42.9852 45.974 42.8188 45.9688 42.6628 45.9688C42.3092 45.9688 42.0024 45.974 41.7424 45.9844C41.4928 45.9948 41.2588 46 41.0404 46ZM37.2028 46C37.182 46 37.1716 45.9688 37.1716 45.9064C37.1716 45.844 37.182 45.8128 37.2028 45.8128C37.4628 45.8128 37.7488 45.7192 38.0608 45.532C38.3832 45.3344 38.6848 45.0432 38.9656 44.6584L40.2136 42.9268L40.4008 43.0828L39.2464 44.752C39.0904 44.9808 38.9916 45.1784 38.95 45.3448C38.9084 45.5008 38.95 45.6204 39.0748 45.7036C39.21 45.7764 39.4596 45.8128 39.8236 45.8128C39.8548 45.8128 39.8704 45.844 39.8704 45.9064C39.8704 45.9688 39.8548 46 39.8236 46C39.5844 46 39.3504 45.9948 39.1216 45.9844C38.9032 45.974 38.6172 45.9688 38.2636 45.9688C38.0348 45.9688 37.8476 45.974 37.702 45.9844C37.5668 45.9948 37.4004 46 37.2028 46ZM40.4476 42.9892L40.2916 42.8332L41.3836 41.2264C41.6332 40.852 41.7372 40.5816 41.6956 40.4152C41.654 40.2488 41.3576 40.1656 40.8064 40.1656C40.7856 40.1656 40.7752 40.1344 40.7752 40.072C40.7752 40.0096 40.7856 39.9784 40.8064 39.9784C41.056 39.9784 41.29 39.9836 41.5084 39.994C41.7372 40.0044 42.0284 40.0096 42.382 40.0096C42.6108 40.0096 42.7928 40.0044 42.928 39.994C43.0736 39.9836 43.2452 39.9784 43.4428 39.9784C43.4636 39.9784 43.474 40.0096 43.474 40.072C43.474 40.1344 43.4636 40.1656 43.4428 40.1656C43.1828 40.1656 42.8968 40.2592 42.5848 40.4464C42.2832 40.6232 41.9816 40.9144 41.68 41.32L40.4476 42.9892ZM44.7135 46C44.6823 46 44.6667 45.9688 44.6667 45.9064C44.6667 45.844 44.6823 45.8128 44.7135 45.8128C45.1399 45.8128 45.4623 45.7868 45.6807 45.7348C45.9095 45.6828 46.0603 45.5788 46.1331 45.4228C46.2059 45.2668 46.2423 45.038 46.2423 44.7364V41.8348C46.2423 41.4188 46.2111 41.1276 46.1487 40.9612C46.0863 40.7948 45.9407 40.7324 45.7119 40.774C45.4935 40.8052 45.1555 40.93 44.6979 41.1484C44.6563 41.1588 44.6199 41.138 44.5887 41.086C44.5679 41.0236 44.5783 40.9872 44.6199 40.9768L46.9755 39.838C47.0171 39.8172 47.0535 39.8224 47.0847 39.8536C47.1159 39.8848 47.1315 39.916 47.1315 39.9472V44.7364C47.1315 45.038 47.1627 45.2668 47.2251 45.4228C47.2979 45.5788 47.4435 45.6828 47.6619 45.7348C47.8803 45.7868 48.2079 45.8128 48.6447 45.8128C48.6759 45.8128 48.6915 45.844 48.6915 45.9064C48.6915 45.9688 48.6759 46 48.6447 46C48.3847 46 48.0883 45.9948 47.7555 45.9844C47.4227 45.974 47.0639 45.9688 46.6791 45.9688C46.3151 45.9688 45.9615 45.974 45.6183 45.9844C45.2855 45.9948 44.9839 46 44.7135 46Z" fill="black"/>
<path d="M172.724 76.9784C172.755 76.9784 172.77 77.0096 172.77 77.072C172.77 77.1344 172.755 77.1656 172.724 77.1656C172.464 77.1656 172.24 77.254 172.053 77.4308C171.866 77.6076 171.689 77.9196 171.522 78.3668L169.619 83.4368C169.245 84.4352 168.886 85.2204 168.543 85.7924C168.2 86.3748 167.841 86.7856 167.466 87.0248C167.102 87.264 166.697 87.3836 166.25 87.3836C166.031 87.3836 165.844 87.3316 165.688 87.2276C165.532 87.134 165.454 86.9832 165.454 86.7752C165.454 86.6192 165.506 86.4996 165.61 86.4164C165.704 86.3436 165.813 86.3072 165.938 86.3072C166.146 86.3072 166.302 86.3384 166.406 86.4008C166.51 86.4632 166.614 86.5256 166.718 86.588C166.822 86.6504 166.957 86.6816 167.123 86.6816C167.373 86.6816 167.612 86.562 167.841 86.3228C168.08 86.094 168.335 85.6988 168.605 85.1372C168.876 84.5756 169.193 83.8112 169.557 82.844L169.541 83.2808L167.076 78.2732C166.848 77.8156 166.666 77.5192 166.53 77.384C166.406 77.2384 166.244 77.1656 166.047 77.1656C166.026 77.1656 166.016 77.1344 166.016 77.072C166.016 77.0096 166.026 76.9784 166.047 76.9784C166.213 76.9784 166.385 76.9836 166.562 76.994C166.749 77.0044 166.926 77.0096 167.092 77.0096C167.435 77.0096 167.737 77.0044 167.997 76.994C168.257 76.9836 168.491 76.9784 168.699 76.9784C168.72 76.9784 168.73 77.0096 168.73 77.072C168.73 77.1344 168.72 77.1656 168.699 77.1656C168.366 77.1656 168.111 77.2072 167.934 77.2904C167.768 77.3736 167.747 77.5348 167.872 77.774L170.009 82.1732L169.65 82.8128L171.179 78.4136C171.335 77.9456 171.33 77.6232 171.164 77.4464C171.008 77.2592 170.654 77.1656 170.103 77.1656C170.082 77.1656 170.072 77.1344 170.072 77.072C170.072 77.0096 170.082 76.9784 170.103 76.9784C170.352 76.9784 170.586 76.9836 170.805 76.994C171.034 77.0044 171.325 77.0096 171.678 77.0096C171.907 77.0096 172.089 77.0044 172.224 76.994C172.37 76.9836 172.536 76.9784 172.724 76.9784ZM173.637 83C173.606 83 173.59 82.9688 173.59 82.9064C173.59 82.844 173.606 82.8128 173.637 82.8128C174.064 82.8128 174.386 82.7868 174.604 82.7348C174.833 82.6828 174.984 82.5788 175.057 82.4228C175.13 82.2668 175.166 82.038 175.166 81.7364V78.8348C175.166 78.4188 175.135 78.1276 175.072 77.9612C175.01 77.7948 174.864 77.7324 174.636 77.774C174.417 77.8052 174.079 77.93 173.622 78.1484C173.58 78.1588 173.544 78.138 173.512 78.086C173.492 78.0236 173.502 77.9872 173.544 77.9768L175.899 76.838C175.941 76.8172 175.977 76.8224 176.008 76.8536C176.04 76.8848 176.055 76.916 176.055 76.9472V81.7364C176.055 82.038 176.086 82.2668 176.149 82.4228C176.222 82.5788 176.367 82.6828 176.586 82.7348C176.804 82.7868 177.132 82.8128 177.568 82.8128C177.6 82.8128 177.615 82.844 177.615 82.9064C177.615 82.9688 177.6 83 177.568 83C177.308 83 177.012 82.9948 176.679 82.9844C176.346 82.974 175.988 82.9688 175.603 82.9688C175.239 82.9688 174.885 82.974 174.542 82.9844C174.209 82.9948 173.908 83 173.637 83Z" fill="black"/>
<path d="M172.724 137.978C172.755 137.978 172.77 138.01 172.77 138.072C172.77 138.134 172.755 138.166 172.724 138.166C172.464 138.166 172.24 138.254 172.053 138.431C171.866 138.608 171.689 138.92 171.522 139.367L169.619 144.437C169.245 145.435 168.886 146.22 168.543 146.792C168.2 147.375 167.841 147.786 167.466 148.025C167.102 148.264 166.697 148.384 166.25 148.384C166.031 148.384 165.844 148.332 165.688 148.228C165.532 148.134 165.454 147.983 165.454 147.775C165.454 147.619 165.506 147.5 165.61 147.416C165.704 147.344 165.813 147.307 165.938 147.307C166.146 147.307 166.302 147.338 166.406 147.401C166.51 147.463 166.614 147.526 166.718 147.588C166.822 147.65 166.957 147.682 167.123 147.682C167.373 147.682 167.612 147.562 167.841 147.323C168.08 147.094 168.335 146.699 168.605 146.137C168.876 145.576 169.193 144.811 169.557 143.844L169.541 144.281L167.076 139.273C166.848 138.816 166.666 138.519 166.53 138.384C166.406 138.238 166.244 138.166 166.047 138.166C166.026 138.166 166.016 138.134 166.016 138.072C166.016 138.01 166.026 137.978 166.047 137.978C166.213 137.978 166.385 137.984 166.562 137.994C166.749 138.004 166.926 138.01 167.092 138.01C167.435 138.01 167.737 138.004 167.997 137.994C168.257 137.984 168.491 137.978 168.699 137.978C168.72 137.978 168.73 138.01 168.73 138.072C168.73 138.134 168.72 138.166 168.699 138.166C168.366 138.166 168.111 138.207 167.934 138.29C167.768 138.374 167.747 138.535 167.872 138.774L170.009 143.173L169.65 143.813L171.179 139.414C171.335 138.946 171.33 138.623 171.164 138.446C171.008 138.259 170.654 138.166 170.103 138.166C170.082 138.166 170.072 138.134 170.072 138.072C170.072 138.01 170.082 137.978 170.103 137.978C170.352 137.978 170.586 137.984 170.805 137.994C171.034 138.004 171.325 138.01 171.678 138.01C171.907 138.01 172.089 138.004 172.224 137.994C172.37 137.984 172.536 137.978 172.724 137.978ZM173.356 143.766C174.022 143.236 174.578 142.768 175.026 142.362C175.483 141.956 175.847 141.598 176.118 141.286C176.388 140.963 176.58 140.662 176.695 140.381C176.82 140.1 176.882 139.819 176.882 139.538C176.882 139.112 176.752 138.769 176.492 138.509C176.242 138.249 175.915 138.119 175.509 138.119C175.093 138.119 174.74 138.285 174.448 138.618C174.157 138.94 173.918 139.419 173.731 140.053C173.72 140.074 173.684 140.079 173.622 140.069C173.559 140.058 173.533 140.038 173.544 140.006L174.152 137.635C174.162 137.604 174.199 137.599 174.261 137.62C174.324 137.63 174.344 137.646 174.324 137.666C174.282 137.843 174.287 137.958 174.339 138.01C174.402 138.062 174.469 138.088 174.542 138.088C174.698 138.088 174.906 138.036 175.166 137.932C175.436 137.828 175.764 137.776 176.149 137.776C176.69 137.776 177.111 137.921 177.412 138.212C177.714 138.493 177.865 138.862 177.865 139.32C177.865 139.601 177.797 139.882 177.662 140.162C177.527 140.433 177.324 140.719 177.054 141.02C176.783 141.312 176.44 141.629 176.024 141.972C175.618 142.315 175.14 142.7 174.589 143.126C174.547 143.158 174.537 143.184 174.558 143.204C174.578 143.225 174.61 143.236 174.651 143.236C175.41 143.236 176.024 143.23 176.492 143.22C176.96 143.199 177.324 143.163 177.584 143.111C177.844 143.048 178.031 142.95 178.146 142.814C178.27 142.669 178.359 142.471 178.411 142.222C178.421 142.201 178.452 142.196 178.504 142.206C178.567 142.206 178.598 142.216 178.598 142.237L178.364 143.828C178.364 143.87 178.348 143.912 178.317 143.953C178.296 143.984 178.265 144 178.224 144C177.485 144 176.7 144 175.868 144C175.036 144 174.235 144 173.466 144C173.424 144 173.388 143.974 173.356 143.922C173.325 143.86 173.325 143.808 173.356 143.766Z" fill="black"/>
<path d="M41.0404 115C41.0092 115 40.9936 114.969 40.9936 114.906C40.9936 114.844 41.0092 114.813 41.0404 114.813C41.3524 114.813 41.524 114.771 41.5552 114.688C41.5864 114.605 41.524 114.444 41.368 114.204L38.7628 110.273C38.482 109.857 38.2064 109.571 37.936 109.415C37.6656 109.249 37.4368 109.166 37.2496 109.166C37.2288 109.166 37.2184 109.134 37.2184 109.072C37.2184 109.01 37.2288 108.978 37.2496 108.978C37.4056 108.978 37.5668 108.984 37.7332 108.994C37.8996 109.004 38.0608 109.01 38.2168 109.01C38.56 109.01 38.8616 109.004 39.1216 108.994C39.3816 108.984 39.6156 108.978 39.8236 108.978C39.8444 108.978 39.8548 109.01 39.8548 109.072C39.8548 109.134 39.8444 109.166 39.8236 109.166C39.5324 109.166 39.366 109.207 39.3244 109.29C39.2828 109.374 39.3452 109.535 39.5116 109.774L42.1168 113.705C42.3976 114.132 42.6784 114.423 42.9592 114.579C43.24 114.735 43.474 114.813 43.6612 114.813C43.682 114.813 43.6924 114.844 43.6924 114.906C43.6924 114.969 43.682 115 43.6612 115C43.5052 115 43.3388 114.995 43.162 114.984C42.9852 114.974 42.8188 114.969 42.6628 114.969C42.3092 114.969 42.0024 114.974 41.7424 114.984C41.4928 114.995 41.2588 115 41.0404 115ZM37.2028 115C37.182 115 37.1716 114.969 37.1716 114.906C37.1716 114.844 37.182 114.813 37.2028 114.813C37.4628 114.813 37.7488 114.719 38.0608 114.532C38.3832 114.334 38.6848 114.043 38.9656 113.658L40.2136 111.927L40.4008 112.083L39.2464 113.752C39.0904 113.981 38.9916 114.178 38.95 114.345C38.9084 114.501 38.95 114.62 39.0748 114.704C39.21 114.776 39.4596 114.813 39.8236 114.813C39.8548 114.813 39.8704 114.844 39.8704 114.906C39.8704 114.969 39.8548 115 39.8236 115C39.5844 115 39.3504 114.995 39.1216 114.984C38.9032 114.974 38.6172 114.969 38.2636 114.969C38.0348 114.969 37.8476 114.974 37.702 114.984C37.5668 114.995 37.4004 115 37.2028 115ZM40.4476 111.989L40.2916 111.833L41.3836 110.226C41.6332 109.852 41.7372 109.582 41.6956 109.415C41.654 109.249 41.3576 109.166 40.8064 109.166C40.7856 109.166 40.7752 109.134 40.7752 109.072C40.7752 109.01 40.7856 108.978 40.8064 108.978C41.056 108.978 41.29 108.984 41.5084 108.994C41.7372 109.004 42.0284 109.01 42.382 109.01C42.6108 109.01 42.7928 109.004 42.928 108.994C43.0736 108.984 43.2452 108.978 43.4428 108.978C43.4636 108.978 43.474 109.01 43.474 109.072C43.474 109.134 43.4636 109.166 43.4428 109.166C43.1828 109.166 42.8968 109.259 42.5848 109.446C42.2832 109.623 41.9816 109.914 41.68 110.32L40.4476 111.989ZM44.4327 114.766C45.0983 114.236 45.6547 113.768 46.1019 113.362C46.5595 112.956 46.9235 112.598 47.1939 112.286C47.4643 111.963 47.6567 111.662 47.7711 111.381C47.8959 111.1 47.9583 110.819 47.9583 110.538C47.9583 110.112 47.8283 109.769 47.5683 109.509C47.3187 109.249 46.9911 109.119 46.5855 109.119C46.1695 109.119 45.8159 109.285 45.5247 109.618C45.2335 109.94 44.9943 110.419 44.8071 111.053C44.7967 111.074 44.7603 111.079 44.6979 111.069C44.6355 111.058 44.6095 111.038 44.6199 111.006L45.2283 108.635C45.2387 108.604 45.2751 108.599 45.3375 108.62C45.3999 108.63 45.4207 108.646 45.3999 108.666C45.3583 108.843 45.3635 108.958 45.4155 109.01C45.4779 109.062 45.5455 109.088 45.6183 109.088C45.7743 109.088 45.9823 109.036 46.2423 108.932C46.5127 108.828 46.8403 108.776 47.2251 108.776C47.7659 108.776 48.1871 108.921 48.4887 109.212C48.7903 109.493 48.9411 109.862 48.9411 110.32C48.9411 110.601 48.8735 110.882 48.7383 111.162C48.6031 111.433 48.4003 111.719 48.1299 112.02C47.8595 112.312 47.5163 112.629 47.1003 112.972C46.6947 113.315 46.2163 113.7 45.6651 114.126C45.6235 114.158 45.6131 114.184 45.6339 114.204C45.6547 114.225 45.6859 114.236 45.7275 114.236C46.4867 114.236 47.1003 114.23 47.5683 114.22C48.0363 114.199 48.4003 114.163 48.6603 114.111C48.9203 114.048 49.1075 113.95 49.2219 113.814C49.3467 113.669 49.4351 113.471 49.4871 113.222C49.4975 113.201 49.5287 113.196 49.5807 113.206C49.6431 113.206 49.6743 113.216 49.6743 113.237L49.4403 114.828C49.4403 114.87 49.4247 114.912 49.3935 114.953C49.3727 114.984 49.3415 115 49.2999 115C48.5615 115 47.7763 115 46.9443 115C46.1123 115 45.3115 115 44.5419 115C44.5003 115 44.4639 114.974 44.4327 114.922C44.4015 114.86 44.4015 114.808 44.4327 114.766Z" fill="black"/>
<path d="M40.0404 184C40.0092 184 39.9936 183.969 39.9936 183.906C39.9936 183.844 40.0092 183.813 40.0404 183.813C40.3524 183.813 40.524 183.771 40.5552 183.688C40.5864 183.605 40.524 183.444 40.368 183.204L37.7628 179.273C37.482 178.857 37.2064 178.571 36.936 178.415C36.6656 178.249 36.4368 178.166 36.2496 178.166C36.2288 178.166 36.2184 178.134 36.2184 178.072C36.2184 178.01 36.2288 177.978 36.2496 177.978C36.4056 177.978 36.5668 177.984 36.7332 177.994C36.8996 178.004 37.0608 178.01 37.2168 178.01C37.56 178.01 37.8616 178.004 38.1216 177.994C38.3816 177.984 38.6156 177.978 38.8236 177.978C38.8444 177.978 38.8548 178.01 38.8548 178.072C38.8548 178.134 38.8444 178.166 38.8236 178.166C38.5324 178.166 38.366 178.207 38.3244 178.29C38.2828 178.374 38.3452 178.535 38.5116 178.774L41.1168 182.705C41.3976 183.132 41.6784 183.423 41.9592 183.579C42.24 183.735 42.474 183.813 42.6612 183.813C42.682 183.813 42.6924 183.844 42.6924 183.906C42.6924 183.969 42.682 184 42.6612 184C42.5052 184 42.3388 183.995 42.162 183.984C41.9852 183.974 41.8188 183.969 41.6628 183.969C41.3092 183.969 41.0024 183.974 40.7424 183.984C40.4928 183.995 40.2588 184 40.0404 184ZM36.2028 184C36.182 184 36.1716 183.969 36.1716 183.906C36.1716 183.844 36.182 183.813 36.2028 183.813C36.4628 183.813 36.7488 183.719 37.0608 183.532C37.3832 183.334 37.6848 183.043 37.9656 182.658L39.2136 180.927L39.4008 181.083L38.2464 182.752C38.0904 182.981 37.9916 183.178 37.95 183.345C37.9084 183.501 37.95 183.62 38.0748 183.704C38.21 183.776 38.4596 183.813 38.8236 183.813C38.8548 183.813 38.8704 183.844 38.8704 183.906C38.8704 183.969 38.8548 184 38.8236 184C38.5844 184 38.3504 183.995 38.1216 183.984C37.9032 183.974 37.6172 183.969 37.2636 183.969C37.0348 183.969 36.8476 183.974 36.702 183.984C36.5668 183.995 36.4004 184 36.2028 184ZM39.4476 180.989L39.2916 180.833L40.3836 179.226C40.6332 178.852 40.7372 178.582 40.6956 178.415C40.654 178.249 40.3576 178.166 39.8064 178.166C39.7856 178.166 39.7752 178.134 39.7752 178.072C39.7752 178.01 39.7856 177.978 39.8064 177.978C40.056 177.978 40.29 177.984 40.5084 177.994C40.7372 178.004 41.0284 178.01 41.382 178.01C41.6108 178.01 41.7928 178.004 41.928 177.994C42.0736 177.984 42.2452 177.978 42.4428 177.978C42.4636 177.978 42.474 178.01 42.474 178.072C42.474 178.134 42.4636 178.166 42.4428 178.166C42.1828 178.166 41.8968 178.259 41.5848 178.446C41.2832 178.623 40.9816 178.914 40.68 179.32L39.4476 180.989ZM43.7759 188.29C43.7343 188.3 43.6979 188.274 43.6667 188.212C43.6459 188.16 43.6563 188.129 43.6979 188.118C44.3843 187.9 44.9511 187.64 45.3983 187.338C45.8455 187.037 46.1991 186.709 46.4591 186.356C46.7295 186.002 46.9167 185.648 47.0207 185.295C47.1247 184.952 47.1767 184.624 47.1767 184.312C47.1767 183.979 47.1195 183.662 47.0051 183.36C46.8907 183.048 46.7035 182.799 46.4435 182.612C46.1939 182.414 45.8559 182.315 45.4295 182.315C45.3047 182.315 45.1799 182.32 45.0551 182.331C44.9303 182.341 44.8003 182.367 44.6651 182.409C44.6339 182.419 44.6079 182.393 44.5871 182.331C44.5663 182.268 44.5715 182.232 44.6027 182.222C45.4347 182.003 46.0119 181.707 46.3343 181.332C46.6671 180.958 46.8335 180.454 46.8335 179.819C46.8335 179.31 46.7243 178.899 46.5059 178.587C46.2979 178.275 45.9547 178.119 45.4763 178.119C45.0291 178.119 44.6443 178.264 44.3219 178.556C43.9995 178.847 43.7447 179.32 43.5575 179.975C43.5471 179.996 43.5107 180.001 43.4483 179.991C43.3859 179.98 43.3599 179.96 43.3703 179.928L43.9475 177.651C43.9683 177.62 44.0047 177.614 44.0567 177.635C44.1191 177.646 44.1451 177.661 44.1347 177.682C44.0931 177.859 44.1035 177.978 44.1659 178.041C44.2283 178.093 44.2959 178.119 44.3687 178.119C44.5247 178.119 44.7379 178.062 45.0083 177.947C45.2787 177.833 45.6063 177.776 45.9911 177.776C46.5943 177.776 47.0519 177.958 47.3639 178.322C47.6759 178.686 47.8319 179.096 47.8319 179.554C47.8319 179.939 47.7435 180.313 47.5667 180.677C47.3899 181.031 47.1351 181.343 46.8023 181.613C46.4695 181.873 46.0691 182.05 45.6011 182.144L45.8351 181.941C46.3967 181.951 46.8595 182.06 47.2235 182.268C47.5875 182.476 47.8579 182.747 48.0347 183.08C48.2115 183.412 48.2999 183.766 48.2999 184.14C48.2999 184.619 48.1387 185.123 47.8163 185.654C47.5043 186.194 47.0103 186.694 46.3343 187.151C45.6687 187.619 44.8159 187.999 43.7759 188.29Z" fill="black"/>
<rect x="144" y="37" width="63" height="136" stroke="#5F5F5F" stroke-dasharray="2 2"/>
<g filter="url(#filter0_d_1_46)">
<rect x="12" y="5" width="64" height="203" stroke="#5F5F5F" stroke-width="1.4" stroke-dasharray="2.79 2.79" shape-rendering="crispEdges"/>
</g>
</g>
<defs>
<filter id="filter0_d_1_46" x="7.3" y="4.29999" width="73.4" height="212.4" filterUnits="userSpaceOnUse" color-interpolation-filters="sRGB">
<feFlood flood-opacity="0" result="BackgroundImageFix"/>
<feColorMatrix in="SourceAlpha" type="matrix" values="0 0 0 0 0 0 0 0 0 0 0 0 0 0 0 0 0 0 127 0" result="hardAlpha"/>
<feOffset dy="4"/>
<feGaussianBlur stdDeviation="2"/>
<feComposite in2="hardAlpha" operator="out"/>
<feColorMatrix type="matrix" values="0 0 0 0 0 0 0 0 0 0 0 0 0 0 0 0 0 0 0.25 0"/>
<feBlend mode="normal" in2="BackgroundImageFix" result="effect1_dropShadow_1_46"/>
<feBlend mode="normal" in="SourceGraphic" in2="effect1_dropShadow_1_46" result="shape"/>
</filter>
<clipPath id="clip0_1_46">
<rect width="225" height="225" fill="white"/>
</clipPath>
</defs>
</svg>
