<svg width="225" height="225" viewBox="0 0 225 225" fill="none" xmlns="http://www.w3.org/2000/svg">
<g clip-path="url(#clip0_5_2)">
<rect width="225" height="225" fill="#F4F1DE"/>
<rect width="225" height="225" fill="#F4F1DE"/>
<circle cx="43.5" cy="43.5" r="22.3192" stroke="#1C1A1A" stroke-width="0.361538"/>
<circle cx="172.5" cy="78.5" r="22.3192" stroke="#1C1A1A" stroke-width="0.361538"/>
<circle cx="173" cy="25" r="15.8715" stroke="#1C1A1A" stroke-width="0.257094"/>
<circle cx="172.5" cy="139.5" r="22.3192" stroke="#1C1A1A" stroke-width="0.361538"/>
<circle cx="43.5" cy="112.5" r="22.3192" stroke="#1C1A1A" stroke-width="0.361538"/>
<circle cx="43.5" cy="181.5" r="22.3192" stroke="#1C1A1A" stroke-width="0.361538"/>
<path d="M150.19 78.4623C150.446 78.3572 150.567 78.065 150.462 77.8096L148.749 73.6486C148.644 73.3932 148.352 73.2715 148.096 73.3766C147.841 73.4818 147.719 73.774 147.824 74.0293L149.347 77.728L145.649 79.251C145.393 79.3562 145.271 79.6484 145.377 79.9037C145.482 80.1591 145.774 80.2809 146.029 80.1757L150.19 78.4623ZM65.8077 43.4615L149.808 78.4615L150.192 77.5385L66.1923 42.5385L65.8077 43.4615Z" fill="#5F5F5F"/>
<path d="M172.646 56.3536C172.842 56.5488 173.158 56.5488 173.354 56.3536L176.536 53.1716C176.731 52.9763 176.731 52.6597 176.536 52.4645C176.34 52.2692 176.024 52.2692 175.828 52.4645L173 55.2929L170.172 52.4645C169.976 52.2692 169.66 52.2692 169.464 52.4645C169.269 52.6597 169.269 52.9763 169.464 53.1716L172.646 56.3536ZM172.5 41V41.9375H173.5V41H172.5ZM172.5 43.8125V45.6875H173.5V43.8125H172.5ZM172.5 47.5625V49.4375H173.5V47.5625H172.5ZM172.5 51.3125V53.1875H173.5V51.3125H172.5ZM172.5 55.0625V56H173.5V55.0625H172.5ZM172.646 56.3536C172.842 56.5488 173.158 56.5488 173.354 56.3536L176.536 53.1716C176.731 52.9763 176.731 52.6597 176.536 52.4645C176.34 52.2692 176.024 52.2692 175.828 52.4645L173 55.2929L170.172 52.4645C169.976 52.2692 169.66 52.2692 169.464 52.4645C169.269 52.6597 169.269 52.9763 169.464 53.1716L172.646 56.3536ZM172.5 41V41.9375H173.5V41H172.5ZM172.5 43.8125V45.6875H173.5V43.8125H172.5ZM172.5 47.5625V49.4375H173.5V47.5625H172.5ZM172.5 51.3125V53.1875H173.5V51.3125H172.5ZM172.5 55.0625V56H173.5V55.0625H172.5Z" fill="#5F5F5F"/>
<path d="M149.967 139.499C150.242 139.517 150.481 139.309 150.499 139.033L150.798 134.543C150.817 134.268 150.608 134.029 150.333 134.011C150.057 133.993 149.819 134.201 149.8 134.477L149.534 138.468L145.543 138.202C145.268 138.183 145.029 138.392 145.011 138.667C144.993 138.943 145.201 139.181 145.477 139.2L149.967 139.499ZM65.6237 43.3293L149.624 139.329L150.376 138.671L66.3763 42.6707L65.6237 43.3293Z" fill="#5F5F5F"/>
<path d="M150.46 78.1951C150.568 77.9408 150.449 77.6474 150.195 77.5396L146.052 75.784C145.797 75.6762 145.504 75.795 145.396 76.0493C145.289 76.3035 145.407 76.597 145.662 76.7047L149.345 78.2653L147.784 81.9483C147.676 82.2026 147.795 82.496 148.049 82.6038C148.304 82.7115 148.597 82.5927 148.705 82.3385L150.46 78.1951ZM66.1876 112.463L150.188 78.4635L149.812 77.5365L65.8124 111.537L66.1876 112.463Z" fill="#5F5F5F"/>
<path d="M150.228 139.445C150.474 139.319 150.571 139.017 150.445 138.772L148.389 134.769C148.263 134.523 147.962 134.426 147.716 134.552C147.47 134.678 147.373 134.98 147.5 135.225L149.327 138.784L145.769 140.611C145.523 140.737 145.426 141.038 145.552 141.284C145.678 141.53 145.98 141.627 146.225 141.5L150.228 139.445ZM65.847 112.476L149.847 139.476L150.153 138.524L66.153 111.524L65.847 112.476Z" fill="#5F5F5F"/>
<path d="M150.497 77.9495C150.47 77.6747 150.224 77.4747 149.949 77.5026L145.473 77.9574C145.198 77.9854 144.998 78.2307 145.026 78.5054C145.054 78.7802 145.299 78.9802 145.574 78.9523L149.553 78.548L149.957 82.5275C149.985 82.8022 150.231 83.0023 150.505 82.9744C150.78 82.9465 150.98 82.7011 150.952 82.4264L150.497 77.9495ZM66.3875 181.316L150.387 78.316L149.613 77.684L65.6125 180.684L66.3875 181.316Z" fill="#5F5F5F"/>
<path d="M149.475 139.156C149.561 138.893 149.418 138.611 149.156 138.525L144.88 137.122C144.618 137.036 144.335 137.179 144.249 137.442C144.163 137.704 144.306 137.987 144.568 138.073L148.369 139.319L147.122 143.12C147.036 143.382 147.179 143.665 147.442 143.751C147.704 143.837 147.987 143.694 148.073 143.432L149.475 139.156ZM66.2258 181.446L149.226 139.446L148.774 138.554L65.7742 180.554L66.2258 181.446Z" fill="#5F5F5F"/>
<path d="M41.8984 46.0936C41.8568 46.1144 41.8152 46.1248 41.7736 46.1248C41.6384 46.1248 41.5084 46.0156 41.3836 45.7972C41.2588 45.5684 41.1964 45.2408 41.1964 44.8144V42.022C41.1964 41.5332 41.1496 41.1536 41.056 40.8832C40.9728 40.6128 40.8532 40.4256 40.6972 40.3216C40.5516 40.2176 40.3852 40.1656 40.198 40.1656C39.938 40.1656 39.7248 40.2332 39.5584 40.3684C39.392 40.4932 39.2672 40.6544 39.184 40.852C39.1008 41.0496 39.0436 41.2472 39.0124 41.4448C39.002 41.5904 38.9552 41.7256 38.872 41.8504C38.7992 41.9752 38.6536 42.0376 38.4352 42.0376C38.2688 42.0376 38.1388 41.996 38.0452 41.9128C37.9516 41.8296 37.9048 41.7152 37.9048 41.5696C37.9048 41.3824 37.9984 41.19 38.1856 40.9924C38.3728 40.7844 38.6068 40.5972 38.8876 40.4308C39.1788 40.254 39.4804 40.1136 39.7924 40.0096C40.1148 39.8952 40.4164 39.838 40.6972 39.838C41.0924 39.838 41.42 39.9784 41.68 40.2592C41.94 40.5296 42.07 40.9612 42.07 41.554V44.3152C42.07 44.6792 42.1168 44.9444 42.2104 45.1108C42.304 45.2772 42.4548 45.3604 42.6628 45.3604C42.85 45.3604 43.11 45.2928 43.4428 45.1576C43.4948 45.1368 43.5312 45.1576 43.552 45.22C43.5728 45.272 43.5572 45.3084 43.5052 45.3292L41.8984 46.0936ZM38.8408 46.1092C38.508 46.1092 38.2584 46.0208 38.092 45.844C37.9256 45.6568 37.8424 45.4436 37.8424 45.2044C37.8424 44.9132 37.9568 44.6844 38.1856 44.518C38.4144 44.3412 38.7888 44.1644 39.3088 43.9876L41.3524 43.2544L41.3992 43.426L39.5896 44.1124C39.3504 44.206 39.1788 44.31 39.0748 44.4244C38.9812 44.5388 38.9344 44.6844 38.9344 44.8612C38.9344 45.0796 38.9968 45.2512 39.1216 45.376C39.2464 45.4904 39.4076 45.5476 39.6052 45.5476C39.7196 45.5476 39.8288 45.5372 39.9328 45.5164C40.0368 45.4852 40.1408 45.4436 40.2448 45.3916L41.5708 44.7208L41.602 44.908L40.2448 45.6412C39.9328 45.7972 39.6728 45.9168 39.4648 46C39.2568 46.0728 39.0488 46.1092 38.8408 46.1092ZM44.3935 46C44.3623 46 44.3467 45.9688 44.3467 45.9064C44.3467 45.844 44.3623 45.8128 44.3935 45.8128C44.8199 45.8128 45.1423 45.7868 45.3607 45.7348C45.5895 45.6828 45.7403 45.5788 45.8131 45.4228C45.8859 45.2668 45.9223 45.038 45.9223 44.7364V41.8348C45.9223 41.4188 45.8911 41.1276 45.8287 40.9612C45.7663 40.7948 45.6207 40.7324 45.3919 40.774C45.1735 40.8052 44.8355 40.93 44.3779 41.1484C44.3363 41.1588 44.2999 41.138 44.2687 41.086C44.2479 41.0236 44.2583 40.9872 44.2999 40.9768L46.6555 39.838C46.6971 39.8172 46.7335 39.8224 46.7647 39.8536C46.7959 39.8848 46.8115 39.916 46.8115 39.9472V44.7364C46.8115 45.038 46.8427 45.2668 46.9051 45.4228C46.9779 45.5788 47.1235 45.6828 47.3419 45.7348C47.5603 45.7868 47.8879 45.8128 48.3247 45.8128C48.3559 45.8128 48.3715 45.844 48.3715 45.9064C48.3715 45.9688 48.3559 46 48.3247 46C48.0647 46 47.7683 45.9948 47.4355 45.9844C47.1027 45.974 46.7439 45.9688 46.3591 45.9688C45.9951 45.9688 45.6415 45.974 45.2983 45.9844C44.9655 45.9948 44.6639 46 44.3935 46Z" fill="black"/>
<path d="M172.724 76.9784C172.755 76.9784 172.77 77.0096 172.77 77.072C172.77 77.1344 172.755 77.1656 172.724 77.1656C172.464 77.1656 172.24 77.254 172.053 77.4308C171.866 77.6076 171.689 77.9196 171.522 78.3668L169.619 83.4368C169.245 84.4352 168.886 85.2204 168.543 85.7924C168.2 86.3748 167.841 86.7856 167.466 87.0248C167.102 87.264 166.697 87.3836 166.25 87.3836C166.031 87.3836 165.844 87.3316 165.688 87.2276C165.532 87.134 165.454 86.9832 165.454 86.7752C165.454 86.6192 165.506 86.4996 165.61 86.4164C165.704 86.3436 165.813 86.3072 165.938 86.3072C166.146 86.3072 166.302 86.3384 166.406 86.4008C166.51 86.4632 166.614 86.5256 166.718 86.588C166.822 86.6504 166.957 86.6816 167.123 86.6816C167.373 86.6816 167.612 86.562 167.841 86.3228C168.08 86.094 168.335 85.6988 168.605 85.1372C168.876 84.5756 169.193 83.8112 169.557 82.844L169.541 83.2808L167.076 78.2732C166.848 77.8156 166.666 77.5192 166.53 77.384C166.406 77.2384 166.244 77.1656 166.047 77.1656C166.026 77.1656 166.016 77.1344 166.016 77.072C166.016 77.0096 166.026 76.9784 166.047 76.9784C166.213 76.9784 166.385 76.9836 166.562 76.994C166.749 77.0044 166.926 77.0096 167.092 77.0096C167.435 77.0096 167.737 77.0044 167.997 76.994C168.257 76.9836 168.491 76.9784 168.699 76.9784C168.72 76.9784 168.73 77.0096 168.73 77.072C168.73 77.1344 168.72 77.1656 168.699 77.1656C168.366 77.1656 168.111 77.2072 167.934 77.2904C167.768 77.3736 167.747 77.5348 167.872 77.774L170.009 82.1732L169.65 82.8128L171.179 78.4136C171.335 77.9456 171.33 77.6232 171.164 77.4464C171.008 77.2592 170.654 77.1656 170.103 77.1656C170.082 77.1656 170.072 77.1344 170.072 77.072C170.072 77.0096 170.082 76.9784 170.103 76.9784C170.352 76.9784 170.586 76.9836 170.805 76.994C171.034 77.0044 171.325 77.0096 171.678 77.0096C171.907 77.0096 172.089 77.0044 172.224 76.994C172.37 76.9836 172.536 76.9784 172.724 76.9784ZM173.637 83C173.606 83 173.59 82.9688 173.59 82.9064C173.59 82.844 173.606 82.8128 173.637 82.8128C174.064 82.8128 174.386 82.7868 174.604 82.7348C174.833 82.6828 174.984 82.5788 175.057 82.4228C175.13 82.2668 175.166 82.038 175.166 81.7364V78.8348C175.166 78.4188 175.135 78.1276 175.072 77.9612C175.01 77.7948 174.864 77.7324 174.636 77.774C174.417 77.8052 174.079 77.93 173.622 78.1484C173.58 78.1588 173.544 78.138 173.512 78.086C173.492 78.0236 173.502 77.9872 173.544 77.9768L175.899 76.838C175.941 76.8172 175.977 76.8224 176.008 76.8536C176.04 76.8848 176.055 76.916 176.055 76.9472V81.7364C176.055 82.038 176.086 82.2668 176.149 82.4228C176.222 82.5788 176.367 82.6828 176.586 82.7348C176.804 82.7868 177.132 82.8128 177.568 82.8128C177.6 82.8128 177.615 82.844 177.615 82.9064C177.615 82.9688 177.6 83 177.568 83C177.308 83 177.012 82.9948 176.679 82.9844C176.346 82.974 175.988 82.9688 175.603 82.9688C175.239 82.9688 174.885 82.974 174.542 82.9844C174.209 82.9948 173.908 83 173.637 83Z" fill="black"/>
<path d="M170.819 29.1449C170.529 29.1449 170.243 29.0966 169.961 29C169.679 28.9109 169.408 28.7549 169.148 28.532L169.671 27.5403C169.671 27.882 169.757 28.1569 169.928 28.3649C170.099 28.5654 170.299 28.7103 170.529 28.7994C170.767 28.8886 170.979 28.9331 171.165 28.9331C171.595 28.9331 171.93 28.766 172.167 28.4317C172.413 28.0974 172.535 27.6183 172.535 26.9943C172.535 26.3034 172.401 25.7871 172.134 25.4454C171.867 25.0963 171.525 24.9217 171.109 24.9217C170.804 24.9217 170.522 25.0183 170.262 25.2114C170.002 25.3971 169.761 25.6089 169.538 25.8466L169.449 25.7686C169.605 25.5977 169.779 25.4194 169.972 25.2337C170.165 25.0406 170.385 24.8809 170.63 24.7546C170.882 24.6209 171.165 24.554 171.477 24.554C171.796 24.554 172.089 24.632 172.357 24.788C172.624 24.9366 172.843 25.1631 173.014 25.4677C173.185 25.7723 173.271 26.1549 173.271 26.6154C173.271 27.18 173.148 27.6517 172.903 28.0306C172.665 28.402 172.357 28.6806 171.978 28.8663C171.607 29.052 171.22 29.1449 170.819 29.1449ZM168.457 29.0557C168.427 29.0631 168.405 29.0483 168.39 29.0111C168.375 28.9814 168.379 28.9591 168.401 28.9443C168.617 28.7957 168.776 28.6509 168.88 28.5097C168.992 28.3686 169.047 28.1494 169.047 27.8523V22.3477C169.047 22.0803 169.021 21.8871 168.969 21.7683C168.917 21.6494 168.821 21.59 168.68 21.59C168.561 21.59 168.394 21.6383 168.178 21.7349C168.149 21.7497 168.123 21.7349 168.1 21.6903C168.085 21.6457 168.093 21.6197 168.123 21.6123L169.515 20.9326C169.538 20.9251 169.556 20.9214 169.571 20.9214C169.593 20.9214 169.616 20.9326 169.638 20.9549C169.66 20.9697 169.671 20.9883 169.671 21.0106V28.4874L168.457 29.0557ZM174.293 29C174.271 29 174.26 28.9777 174.26 28.9331C174.26 28.8886 174.271 28.8663 174.293 28.8663C174.598 28.8663 174.828 28.8477 174.984 28.8106C175.147 28.7734 175.255 28.6991 175.307 28.5877C175.359 28.4763 175.385 28.3129 175.385 28.0974V26.0249C175.385 25.7277 175.363 25.5197 175.318 25.4009C175.274 25.282 175.17 25.2374 175.006 25.2671C174.85 25.2894 174.609 25.3786 174.282 25.5346C174.252 25.542 174.226 25.5271 174.204 25.49C174.189 25.4454 174.197 25.4194 174.226 25.412L175.909 24.5986C175.939 24.5837 175.965 24.5874 175.987 24.6097C176.009 24.632 176.02 24.6543 176.02 24.6766V28.0974C176.02 28.3129 176.043 28.4763 176.087 28.5877C176.139 28.6991 176.243 28.7734 176.399 28.8106C176.555 28.8477 176.789 28.8663 177.101 28.8663C177.123 28.8663 177.135 28.8886 177.135 28.9331C177.135 28.9777 177.123 29 177.101 29C176.915 29 176.704 28.9963 176.466 28.9889C176.228 28.9814 175.972 28.9777 175.697 28.9777C175.437 28.9777 175.185 28.9814 174.939 28.9889C174.702 28.9963 174.486 29 174.293 29Z" fill="black"/>
<circle cx="16" cy="16" r="15.8715" transform="matrix(1 0 0 -1 156 210)" stroke="#1C1A1A" stroke-width="0.257094"/>
<path d="M171.646 162.646C171.842 162.451 172.158 162.451 172.354 162.646L175.536 165.828C175.731 166.024 175.731 166.34 175.536 166.536C175.34 166.731 175.024 166.731 174.828 166.536L172 163.707L169.172 166.536C168.976 166.731 168.66 166.731 168.464 166.536C168.269 166.34 168.269 166.024 168.464 165.828L171.646 162.646ZM171.5 178V177.062H172.5V178H171.5ZM171.5 175.187V173.312H172.5V175.187H171.5ZM171.5 171.437V169.562H172.5V171.437H171.5ZM171.5 167.687V165.812H172.5V167.687H171.5ZM171.5 163.937V163H172.5V163.937H171.5ZM171.646 162.646C171.842 162.451 172.158 162.451 172.354 162.646L175.536 165.828C175.731 166.024 175.731 166.34 175.536 166.536C175.34 166.731 175.024 166.731 174.828 166.536L172 163.707L169.172 166.536C168.976 166.731 168.66 166.731 168.464 166.536C168.269 166.34 168.269 166.024 168.464 165.828L171.646 162.646ZM171.5 178V177.062H172.5V178H171.5ZM171.5 175.187V173.312H172.5V175.187H171.5ZM171.5 171.437V169.562H172.5V171.437H171.5ZM171.5 167.687V165.812H172.5V167.687H171.5ZM171.5 163.937V163H172.5V163.937H171.5Z" fill="#5F5F5F"/>
<path d="M80.0919 44.9908L78.7988 42.2012C78.6756 41.9241 78.574 41.7456 78.4939 41.6655C78.4139 41.5854 78.3154 41.5454 78.1984 41.5454C78.1861 41.5454 78.1799 41.5269 78.1799 41.49C78.1799 41.4531 78.1861 41.4346 78.1984 41.4346C78.2907 41.4346 78.3893 41.4377 78.4939 41.4438C78.5986 41.45 78.7064 41.4531 78.8172 41.4531C79.0266 41.4531 79.2052 41.45 79.353 41.4438C79.5069 41.4377 79.6455 41.4346 79.7686 41.4346C79.7871 41.4346 79.7963 41.4531 79.7963 41.49C79.7963 41.5269 79.7871 41.5454 79.7686 41.5454C79.5839 41.5454 79.4361 41.5701 79.3253 41.6193C79.2206 41.6686 79.2021 41.764 79.2698 41.9057L80.4522 44.4273L80.1935 44.7968L81.265 42.1735C81.3574 41.9518 81.3512 41.7917 81.2465 41.6932C81.1418 41.5947 80.9263 41.5454 80.5999 41.5454C80.5876 41.5454 80.5815 41.5269 80.5815 41.49C80.5815 41.4531 80.5876 41.4346 80.5999 41.4346C80.7477 41.4346 80.8863 41.4377 81.0156 41.4438C81.1511 41.45 81.3235 41.4531 81.5329 41.4531C81.6683 41.4531 81.7761 41.45 81.8562 41.4438C81.9362 41.4377 82.0347 41.4346 82.1517 41.4346C82.1702 41.4346 82.1794 41.4531 82.1794 41.49C82.1794 41.5269 82.1702 41.5454 82.1517 41.5454C82.0039 41.5454 81.8777 41.5947 81.773 41.6932C81.6683 41.7856 81.5606 41.9611 81.4497 42.2197L80.2951 44.9908C80.289 45.0154 80.2551 45.0277 80.1935 45.0277C80.1381 45.0277 80.1042 45.0154 80.0919 44.9908ZM77.912 44.9908L76.6189 42.2012C76.4896 41.9241 76.3818 41.7456 76.2956 41.6655C76.2155 41.5854 76.117 41.5454 76 41.5454C75.9815 41.5454 75.9723 41.5269 75.9723 41.49C75.9723 41.4531 75.9815 41.4346 76 41.4346C76.0924 41.4346 76.1909 41.4377 76.2956 41.4438C76.4064 41.45 76.5203 41.4531 76.6373 41.4531C76.8344 41.4531 77.0068 41.45 77.1546 41.4438C77.3086 41.4377 77.4533 41.4346 77.5887 41.4346C77.6072 41.4346 77.6164 41.4531 77.6164 41.49C77.6164 41.5269 77.6072 41.5454 77.5887 41.5454C77.3917 41.5454 77.2408 41.5701 77.1361 41.6193C77.0376 41.6686 77.0222 41.764 77.0899 41.9057L78.2815 44.4273L78.0044 44.7968L79.0112 42.3675L79.1682 42.4691L78.1152 44.9908C78.1091 45.0154 78.0752 45.0277 78.0136 45.0277C77.9582 45.0277 77.9243 45.0154 77.912 44.9908ZM82.705 45C82.6865 45 82.6773 44.9815 82.6773 44.9446C82.6773 44.9076 82.6865 44.8892 82.705 44.8892C82.9575 44.8892 83.1484 44.8738 83.2777 44.843C83.4132 44.8122 83.5025 44.7506 83.5456 44.6582C83.5887 44.5659 83.6102 44.4304 83.6102 44.2518V42.5338C83.6102 42.2874 83.5917 42.115 83.5548 42.0165C83.5179 41.918 83.4316 41.881 83.2962 41.9057C83.1669 41.9241 82.9667 41.998 82.6958 42.1273C82.6711 42.1335 82.6496 42.1212 82.6311 42.0904C82.6188 42.0534 82.625 42.0319 82.6496 42.0257L84.0444 41.3514C84.069 41.3391 84.0905 41.3422 84.109 41.3607C84.1275 41.3792 84.1367 41.3976 84.1367 41.4161V44.2518C84.1367 44.4304 84.1552 44.5659 84.1921 44.6582C84.2352 44.7506 84.3215 44.8122 84.4508 44.843C84.5801 44.8738 84.7741 44.8892 85.0327 44.8892C85.0512 44.8892 85.0604 44.9076 85.0604 44.9446C85.0604 44.9815 85.0512 45 85.0327 45C84.8787 45 84.7032 44.9969 84.5062 44.9908C84.3091 44.9846 84.0967 44.9815 83.8689 44.9815C83.6533 44.9815 83.444 44.9846 83.2407 44.9908C83.0437 44.9969 82.8651 45 82.705 45Z" fill="black"/>
<path d="M76.0919 101.866L74.7988 99.0762C74.6756 98.7991 74.574 98.6206 74.4939 98.5405C74.4139 98.4604 74.3154 98.4204 74.1984 98.4204C74.1861 98.4204 74.1799 98.4019 74.1799 98.365C74.1799 98.3281 74.1861 98.3096 74.1984 98.3096C74.2907 98.3096 74.3893 98.3127 74.4939 98.3188C74.5986 98.325 74.7064 98.3281 74.8172 98.3281C75.0266 98.3281 75.2052 98.325 75.353 98.3188C75.5069 98.3127 75.6455 98.3096 75.7686 98.3096C75.7871 98.3096 75.7963 98.3281 75.7963 98.365C75.7963 98.4019 75.7871 98.4204 75.7686 98.4204C75.5839 98.4204 75.4361 98.4451 75.3253 98.4943C75.2206 98.5436 75.2021 98.639 75.2698 98.7807L76.4522 101.302L76.1935 101.672L77.265 99.0485C77.3574 98.8268 77.3512 98.6667 77.2465 98.5682C77.1418 98.4697 76.9263 98.4204 76.5999 98.4204C76.5876 98.4204 76.5815 98.4019 76.5815 98.365C76.5815 98.3281 76.5876 98.3096 76.5999 98.3096C76.7477 98.3096 76.8863 98.3127 77.0156 98.3188C77.1511 98.325 77.3235 98.3281 77.5329 98.3281C77.6683 98.3281 77.7761 98.325 77.8562 98.3188C77.9362 98.3127 78.0347 98.3096 78.1517 98.3096C78.1702 98.3096 78.1794 98.3281 78.1794 98.365C78.1794 98.4019 78.1702 98.4204 78.1517 98.4204C78.0039 98.4204 77.8777 98.4697 77.773 98.5682C77.6683 98.6606 77.5606 98.8361 77.4497 99.0947L76.2951 101.866C76.289 101.89 76.2551 101.903 76.1935 101.903C76.1381 101.903 76.1042 101.89 76.0919 101.866ZM73.912 101.866L72.6189 99.0762C72.4896 98.7991 72.3818 98.6206 72.2956 98.5405C72.2155 98.4604 72.117 98.4204 72 98.4204C71.9815 98.4204 71.9723 98.4019 71.9723 98.365C71.9723 98.3281 71.9815 98.3096 72 98.3096C72.0924 98.3096 72.1909 98.3127 72.2956 98.3188C72.4064 98.325 72.5203 98.3281 72.6373 98.3281C72.8344 98.3281 73.0068 98.325 73.1546 98.3188C73.3086 98.3127 73.4533 98.3096 73.5887 98.3096C73.6072 98.3096 73.6164 98.3281 73.6164 98.365C73.6164 98.4019 73.6072 98.4204 73.5887 98.4204C73.3917 98.4204 73.2408 98.4451 73.1361 98.4943C73.0376 98.5436 73.0222 98.639 73.0899 98.7807L74.2815 101.302L74.0044 101.672L75.0112 99.2425L75.1682 99.3441L74.1152 101.866C74.1091 101.89 74.0752 101.903 74.0136 101.903C73.9582 101.903 73.9243 101.89 73.912 101.866ZM78.5387 101.736C78.9329 101.422 79.2623 101.145 79.5271 100.905C79.798 100.665 80.0136 100.453 80.1737 100.268C80.3338 100.077 80.4477 99.8983 80.5154 99.7321C80.5893 99.5658 80.6263 99.3995 80.6263 99.2333C80.6263 98.9808 80.5493 98.7776 80.3954 98.6236C80.2476 98.4697 80.0536 98.3927 79.8134 98.3927C79.5671 98.3927 79.3577 98.4912 79.1853 98.6883C79.0129 98.8792 78.8713 99.1624 78.7604 99.5381C78.7543 99.5504 78.7327 99.5535 78.6958 99.5473C78.6588 99.5412 78.6434 99.5288 78.6496 99.5104L79.0098 98.1064C79.016 98.0879 79.0375 98.0848 79.0745 98.0971C79.1114 98.1033 79.1237 98.1125 79.1114 98.1248C79.0868 98.2295 79.0899 98.2973 79.1207 98.3281C79.1576 98.3588 79.1976 98.3742 79.2407 98.3742C79.3331 98.3742 79.4563 98.3434 79.6102 98.2819C79.7703 98.2203 79.9643 98.1895 80.1921 98.1895C80.5124 98.1895 80.7617 98.2757 80.9403 98.4481C81.1189 98.6144 81.2082 98.833 81.2082 99.1039C81.2082 99.2702 81.1682 99.4365 81.0881 99.6027C81.0081 99.7628 80.888 99.9322 80.7279 100.111C80.5678 100.283 80.3646 100.471 80.1182 100.674C79.8781 100.877 79.5948 101.105 79.2685 101.358C79.2438 101.376 79.2377 101.392 79.25 101.404C79.2623 101.416 79.2808 101.422 79.3054 101.422C79.7549 101.422 80.1182 101.419 80.3954 101.413C80.6725 101.401 80.888 101.379 81.0419 101.348C81.1959 101.312 81.3067 101.253 81.3745 101.173C81.4484 101.087 81.5007 100.97 81.5315 100.822C81.5376 100.81 81.5561 100.807 81.5869 100.813C81.6239 100.813 81.6423 100.819 81.6423 100.831L81.5038 101.773C81.5038 101.798 81.4945 101.823 81.4761 101.847C81.4637 101.866 81.4453 101.875 81.4206 101.875C80.9834 101.875 80.5185 101.875 80.0259 101.875C79.5332 101.875 79.0591 101.875 78.6034 101.875C78.5788 101.875 78.5572 101.86 78.5387 101.829C78.5203 101.792 78.5203 101.761 78.5387 101.736Z" fill="black"/>
<path d="M72.0919 162.866L70.7988 160.076C70.6756 159.799 70.574 159.621 70.4939 159.54C70.4139 159.46 70.3154 159.42 70.1984 159.42C70.1861 159.42 70.1799 159.402 70.1799 159.365C70.1799 159.328 70.1861 159.31 70.1984 159.31C70.2907 159.31 70.3893 159.313 70.4939 159.319C70.5986 159.325 70.7064 159.328 70.8172 159.328C71.0266 159.328 71.2052 159.325 71.353 159.319C71.5069 159.313 71.6455 159.31 71.7686 159.31C71.7871 159.31 71.7963 159.328 71.7963 159.365C71.7963 159.402 71.7871 159.42 71.7686 159.42C71.5839 159.42 71.4361 159.445 71.3253 159.494C71.2206 159.544 71.2021 159.639 71.2698 159.781L72.4522 162.302L72.1935 162.672L73.265 160.049C73.3574 159.827 73.3512 159.667 73.2465 159.568C73.1418 159.47 72.9263 159.42 72.5999 159.42C72.5876 159.42 72.5815 159.402 72.5815 159.365C72.5815 159.328 72.5876 159.31 72.5999 159.31C72.7477 159.31 72.8863 159.313 73.0156 159.319C73.1511 159.325 73.3235 159.328 73.5329 159.328C73.6683 159.328 73.7761 159.325 73.8562 159.319C73.9362 159.313 74.0347 159.31 74.1517 159.31C74.1702 159.31 74.1794 159.328 74.1794 159.365C74.1794 159.402 74.1702 159.42 74.1517 159.42C74.0039 159.42 73.8777 159.47 73.773 159.568C73.6683 159.661 73.5606 159.836 73.4497 160.095L72.2951 162.866C72.289 162.89 72.2551 162.903 72.1935 162.903C72.1381 162.903 72.1042 162.89 72.0919 162.866ZM69.912 162.866L68.6189 160.076C68.4896 159.799 68.3818 159.621 68.2956 159.54C68.2155 159.46 68.117 159.42 68 159.42C67.9815 159.42 67.9723 159.402 67.9723 159.365C67.9723 159.328 67.9815 159.31 68 159.31C68.0924 159.31 68.1909 159.313 68.2956 159.319C68.4064 159.325 68.5203 159.328 68.6373 159.328C68.8344 159.328 69.0068 159.325 69.1546 159.319C69.3086 159.313 69.4533 159.31 69.5887 159.31C69.6072 159.31 69.6164 159.328 69.6164 159.365C69.6164 159.402 69.6072 159.42 69.5887 159.42C69.3917 159.42 69.2408 159.445 69.1361 159.494C69.0376 159.544 69.0222 159.639 69.0899 159.781L70.2815 162.302L70.0044 162.672L71.0112 160.242L71.1682 160.344L70.1152 162.866C70.1091 162.89 70.0752 162.903 70.0136 162.903C69.9582 162.903 69.9243 162.89 69.912 162.866ZM74.742 165.415C74.7173 165.421 74.6958 165.406 74.6773 165.369C74.665 165.338 74.6711 165.32 74.6958 165.314C75.1022 165.184 75.4378 165.03 75.7026 164.852C75.9674 164.673 76.1767 164.479 76.3307 164.27C76.4908 164.06 76.6016 163.851 76.6632 163.642C76.7248 163.438 76.7556 163.244 76.7556 163.06C76.7556 162.863 76.7217 162.675 76.654 162.496C76.5862 162.312 76.4754 162.164 76.3215 162.053C76.1737 161.936 75.9735 161.877 75.7211 161.877C75.6472 161.877 75.5733 161.88 75.4994 161.887C75.4255 161.893 75.3485 161.908 75.2685 161.933C75.25 161.939 75.2346 161.924 75.2223 161.887C75.21 161.85 75.213 161.828 75.2315 161.822C75.7241 161.693 76.0659 161.517 76.2568 161.295C76.4539 161.074 76.5524 160.775 76.5524 160.4C76.5524 160.098 76.4877 159.855 76.3584 159.67C76.2352 159.485 76.032 159.393 75.7488 159.393C75.484 159.393 75.2561 159.479 75.0652 159.651C74.8744 159.824 74.7235 160.104 74.6126 160.492C74.6065 160.504 74.5849 160.507 74.548 160.501C74.511 160.495 74.4956 160.483 74.5018 160.464L74.8436 159.116C74.8559 159.097 74.8774 159.094 74.9082 159.106C74.9452 159.113 74.9606 159.122 74.9544 159.134C74.9298 159.239 74.9359 159.31 74.9729 159.347C75.0098 159.377 75.0499 159.393 75.093 159.393C75.1853 159.393 75.3116 159.359 75.4717 159.291C75.6318 159.223 75.8257 159.189 76.0536 159.189C76.4107 159.189 76.6817 159.297 76.8664 159.513C77.0512 159.728 77.1435 159.972 77.1435 160.242C77.1435 160.47 77.0912 160.692 76.9865 160.908C76.8818 161.117 76.731 161.302 76.5339 161.462C76.3369 161.616 76.0998 161.72 75.8227 161.776L75.9612 161.656C76.2937 161.662 76.5678 161.727 76.7833 161.85C76.9988 161.973 77.1589 162.133 77.2636 162.33C77.3683 162.527 77.4206 162.736 77.4206 162.958C77.4206 163.241 77.3252 163.54 77.1343 163.854C76.9496 164.174 76.6571 164.47 76.2568 164.741C75.8627 165.018 75.3577 165.243 74.742 165.415Z" fill="black"/>
<path d="M79.1148 180.514C79.1269 180.514 79.1329 180.532 79.1329 180.568C79.1329 180.604 79.1269 180.622 79.1148 180.622C78.9643 180.622 78.8349 180.67 78.7265 180.767C78.6241 180.857 78.5218 181.029 78.4194 181.281L77.2905 183.991C77.2844 184.015 77.2513 184.027 77.1911 184.027C77.1369 184.027 77.1038 184.015 77.0918 183.991L75.8273 181.263C75.7009 180.992 75.5955 180.818 75.5112 180.74C75.433 180.661 75.3366 180.622 75.2222 180.622C75.2042 180.622 75.1951 180.604 75.1951 180.568C75.1951 180.532 75.2042 180.514 75.2222 180.514C75.3125 180.514 75.4089 180.517 75.5112 180.523C75.6196 180.529 75.731 180.532 75.8454 180.532C76.0501 180.532 76.2277 180.529 76.3783 180.523C76.5288 180.517 76.6673 180.514 76.7937 180.514C76.8118 180.514 76.8208 180.532 76.8208 180.568C76.8208 180.604 76.8118 180.622 76.7937 180.622C76.6071 180.622 76.4596 180.646 76.3512 180.694C76.2428 180.737 76.2217 180.83 76.288 180.974L77.444 183.431L77.1821 183.801L78.2388 181.236C78.3291 181.02 78.3201 180.863 78.2117 180.767C78.1093 180.67 77.9016 180.622 77.5885 180.622C77.5765 180.622 77.5704 180.604 77.5704 180.568C77.5704 180.532 77.5765 180.514 77.5885 180.514C77.733 180.514 77.8685 180.517 77.9949 180.523C78.1274 180.529 78.296 180.532 78.5007 180.532C78.6271 180.532 78.7295 180.529 78.8078 180.523C78.8921 180.517 78.9944 180.514 79.1148 180.514ZM79.6711 186.484C79.647 186.49 79.626 186.475 79.6079 186.439C79.5959 186.408 79.6019 186.39 79.626 186.384C80.0234 186.258 80.3515 186.107 80.6104 185.933C80.8693 185.758 81.074 185.568 81.2246 185.364C81.3811 185.159 81.4895 184.954 81.5497 184.75C81.6099 184.551 81.64 184.361 81.64 184.181C81.64 183.988 81.6069 183.804 81.5407 183.63C81.4744 183.449 81.3661 183.305 81.2155 183.196C81.071 183.082 80.8753 183.025 80.6285 183.025C80.5562 183.025 80.484 183.028 80.4117 183.034C80.3395 183.04 80.2642 183.055 80.1859 183.079C80.1679 183.085 80.1528 183.07 80.1408 183.034C80.1287 182.997 80.1317 182.976 80.1498 182.97C80.6315 182.844 80.9657 182.672 81.1523 182.456C81.345 182.239 81.4413 181.947 81.4413 181.58C81.4413 181.285 81.3781 181.047 81.2517 180.866C81.1312 180.685 80.9325 180.595 80.6556 180.595C80.3967 180.595 80.1739 180.679 79.9872 180.848C79.8006 181.017 79.6531 181.291 79.5447 181.67C79.5387 181.682 79.5176 181.685 79.4815 181.679C79.4453 181.673 79.4303 181.661 79.4363 181.643L79.7705 180.324C79.7825 180.306 79.8036 180.303 79.8337 180.315C79.8698 180.321 79.8849 180.33 79.8789 180.342C79.8548 180.445 79.8608 180.514 79.8969 180.55C79.933 180.58 79.9722 180.595 80.0143 180.595C80.1046 180.595 80.2281 180.562 80.3846 180.496C80.5412 180.43 80.7308 180.396 80.9536 180.396C81.3028 180.396 81.5678 180.502 81.7484 180.713C81.929 180.923 82.0193 181.161 82.0193 181.426C82.0193 181.649 81.9682 181.866 81.8658 182.076C81.7634 182.281 81.6159 182.462 81.4233 182.618C81.2306 182.769 80.9988 182.871 80.7278 182.925L80.8633 182.808C81.1884 182.814 81.4564 182.877 81.6671 182.997C81.8778 183.118 82.0344 183.274 82.1367 183.467C82.2391 183.66 82.2903 183.865 82.2903 184.081C82.2903 184.358 82.197 184.65 82.0103 184.957C81.8297 185.27 81.5437 185.559 81.1523 185.824C80.767 186.095 80.2732 186.315 79.6711 186.484Z" fill="black"/>
<path d="M76.1148 119.514C76.1269 119.514 76.1329 119.532 76.1329 119.568C76.1329 119.604 76.1269 119.622 76.1148 119.622C75.9643 119.622 75.8349 119.67 75.7265 119.767C75.6241 119.857 75.5218 120.029 75.4194 120.281L74.2905 122.991C74.2844 123.015 74.2513 123.027 74.1911 123.027C74.1369 123.027 74.1038 123.015 74.0918 122.991L72.8273 120.263C72.7009 119.992 72.5955 119.818 72.5112 119.74C72.433 119.661 72.3366 119.622 72.2222 119.622C72.2042 119.622 72.1951 119.604 72.1951 119.568C72.1951 119.532 72.2042 119.514 72.2222 119.514C72.3125 119.514 72.4089 119.517 72.5112 119.523C72.6196 119.529 72.731 119.532 72.8454 119.532C73.0501 119.532 73.2277 119.529 73.3783 119.523C73.5288 119.517 73.6673 119.514 73.7937 119.514C73.8118 119.514 73.8208 119.532 73.8208 119.568C73.8208 119.604 73.8118 119.622 73.7937 119.622C73.6071 119.622 73.4596 119.646 73.3512 119.694C73.2428 119.737 73.2217 119.83 73.288 119.974L74.444 122.431L74.1821 122.801L75.2388 120.236C75.3291 120.02 75.3201 119.863 75.2117 119.767C75.1093 119.67 74.9016 119.622 74.5885 119.622C74.5765 119.622 74.5704 119.604 74.5704 119.568C74.5704 119.532 74.5765 119.514 74.5885 119.514C74.733 119.514 74.8685 119.517 74.9949 119.523C75.1274 119.529 75.296 119.532 75.5007 119.532C75.6271 119.532 75.7295 119.529 75.8078 119.523C75.8921 119.517 75.9944 119.514 76.1148 119.514ZM76.4724 122.865C76.8578 122.557 77.1799 122.287 77.4388 122.052C77.7037 121.817 77.9145 121.609 78.071 121.429C78.2276 121.242 78.339 121.067 78.4052 120.905C78.4774 120.742 78.5136 120.58 78.5136 120.417C78.5136 120.17 78.4383 119.971 78.2878 119.821C78.1433 119.67 77.9536 119.595 77.7188 119.595C77.4779 119.595 77.2732 119.691 77.1046 119.884C76.9361 120.071 76.7976 120.348 76.6892 120.715C76.6832 120.727 76.6621 120.73 76.626 120.724C76.5898 120.718 76.5748 120.706 76.5808 120.688L76.933 119.315C76.9391 119.297 76.9601 119.294 76.9963 119.306C77.0324 119.312 77.0444 119.321 77.0324 119.333C77.0083 119.436 77.0113 119.502 77.0414 119.532C77.0775 119.562 77.1167 119.577 77.1588 119.577C77.2491 119.577 77.3696 119.547 77.5201 119.487C77.6766 119.427 77.8663 119.396 78.0891 119.396C78.4022 119.396 78.646 119.481 78.8206 119.649C78.9953 119.812 79.0826 120.026 79.0826 120.291C79.0826 120.453 79.0434 120.616 78.9651 120.778C78.8869 120.935 78.7695 121.1 78.6129 121.275C78.4564 121.444 78.2577 121.627 78.0168 121.826C77.782 122.025 77.505 122.247 77.1859 122.494C77.1618 122.512 77.1558 122.527 77.1679 122.539C77.1799 122.551 77.198 122.557 77.2221 122.557C77.6616 122.557 78.0168 122.554 78.2878 122.548C78.5587 122.536 78.7695 122.515 78.92 122.485C79.0705 122.449 79.1789 122.392 79.2451 122.314C79.3174 122.229 79.3686 122.115 79.3987 121.97C79.4047 121.958 79.4227 121.955 79.4529 121.961C79.489 121.961 79.507 121.967 79.507 121.979L79.3716 122.901C79.3716 122.925 79.3625 122.949 79.3445 122.973C79.3324 122.991 79.3144 123 79.2903 123C78.8628 123 78.4082 123 77.9265 123C77.4448 123 76.9812 123 76.5357 123C76.5116 123 76.4905 122.985 76.4724 122.955C76.4544 122.919 76.4544 122.889 76.4724 122.865Z" fill="black"/>
<path d="M74.7346 58.3797C74.7472 58.3797 74.7534 58.3985 74.7534 58.436C74.7534 58.4735 74.7472 58.4923 74.7346 58.4923C74.5783 58.4923 74.4439 58.5423 74.3314 58.6423C74.2251 58.7361 74.1188 58.9143 74.0125 59.1769L72.8401 61.9906C72.8338 62.0156 72.7995 62.0281 72.7369 62.0281C72.6807 62.0281 72.6463 62.0156 72.6338 61.9906L71.3207 59.1582C71.1894 58.8768 71.08 58.6955 70.9924 58.6142C70.9112 58.5329 70.8111 58.4923 70.6923 58.4923C70.6736 58.4923 70.6642 58.4735 70.6642 58.436C70.6642 58.3985 70.6736 58.3797 70.6923 58.3797C70.7861 58.3797 70.8862 58.3829 70.9924 58.3891C71.105 58.3954 71.2207 58.3985 71.3395 58.3985C71.5521 58.3985 71.7365 58.3954 71.8928 58.3891C72.0491 58.3829 72.193 58.3797 72.3243 58.3797C72.343 58.3797 72.3524 58.3985 72.3524 58.436C72.3524 58.4735 72.343 58.4923 72.3243 58.4923C72.1304 58.4923 71.9772 58.5173 71.8647 58.5673C71.7521 58.6111 71.7303 58.708 71.799 58.8581L72.9995 61.4091L72.7276 61.7937L73.8249 59.13C73.9187 58.9049 73.9093 58.7424 73.7968 58.6423C73.6905 58.5423 73.4747 58.4923 73.1496 58.4923C73.1371 58.4923 73.1308 58.4735 73.1308 58.436C73.1308 58.3985 73.1371 58.3797 73.1496 58.3797C73.2997 58.3797 73.4404 58.3829 73.5717 58.3891C73.7092 58.3954 73.8843 58.3985 74.0969 58.3985C74.2282 58.3985 74.3345 58.3954 74.4158 58.3891C74.5033 58.3829 74.6096 58.3797 74.7346 58.3797ZM75.2748 62C75.2561 62 75.2467 61.9812 75.2467 61.9437C75.2467 61.9062 75.2561 61.8875 75.2748 61.8875C75.5312 61.8875 75.725 61.8718 75.8563 61.8406C75.9939 61.8093 76.0845 61.7468 76.1283 61.653C76.1721 61.5592 76.194 61.4216 76.194 61.2403V59.4958C76.194 59.2457 76.1752 59.0706 76.1377 58.9706C76.1002 58.8706 76.0126 58.833 75.8751 58.8581C75.7438 58.8768 75.5406 58.9518 75.2654 59.0831C75.2404 59.0894 75.2185 59.0769 75.1998 59.0456C75.1873 59.0081 75.1935 58.9862 75.2185 58.98L76.6348 58.2953C76.6598 58.2828 76.6817 58.2859 76.7004 58.3047C76.7192 58.3235 76.7286 58.3422 76.7286 58.361V61.2403C76.7286 61.4216 76.7473 61.5592 76.7848 61.653C76.8286 61.7468 76.9161 61.8093 77.0474 61.8406C77.1787 61.8718 77.3757 61.8875 77.6383 61.8875C77.6571 61.8875 77.6664 61.9062 77.6664 61.9437C77.6664 61.9812 77.6571 62 77.6383 62C77.482 62 77.3038 61.9969 77.1037 61.9906C76.9036 61.9844 76.6879 61.9812 76.4566 61.9812C76.2377 61.9812 76.0251 61.9844 75.8188 61.9906C75.6187 61.9969 75.4374 62 75.2748 62Z" fill="black"/>
<path d="M172.724 137.978C172.755 137.978 172.77 138.01 172.77 138.072C172.77 138.134 172.755 138.166 172.724 138.166C172.464 138.166 172.24 138.254 172.053 138.431C171.866 138.608 171.689 138.92 171.522 139.367L169.619 144.437C169.245 145.435 168.886 146.22 168.543 146.792C168.2 147.375 167.841 147.786 167.466 148.025C167.102 148.264 166.697 148.384 166.25 148.384C166.031 148.384 165.844 148.332 165.688 148.228C165.532 148.134 165.454 147.983 165.454 147.775C165.454 147.619 165.506 147.5 165.61 147.416C165.704 147.344 165.813 147.307 165.938 147.307C166.146 147.307 166.302 147.338 166.406 147.401C166.51 147.463 166.614 147.526 166.718 147.588C166.822 147.65 166.957 147.682 167.123 147.682C167.373 147.682 167.612 147.562 167.841 147.323C168.08 147.094 168.335 146.699 168.605 146.137C168.876 145.576 169.193 144.811 169.557 143.844L169.541 144.281L167.076 139.273C166.848 138.816 166.666 138.519 166.53 138.384C166.406 138.238 166.244 138.166 166.047 138.166C166.026 138.166 166.016 138.134 166.016 138.072C166.016 138.01 166.026 137.978 166.047 137.978C166.213 137.978 166.385 137.984 166.562 137.994C166.749 138.004 166.926 138.01 167.092 138.01C167.435 138.01 167.737 138.004 167.997 137.994C168.257 137.984 168.491 137.978 168.699 137.978C168.72 137.978 168.73 138.01 168.73 138.072C168.73 138.134 168.72 138.166 168.699 138.166C168.366 138.166 168.111 138.207 167.934 138.29C167.768 138.374 167.747 138.535 167.872 138.774L170.009 143.173L169.65 143.813L171.179 139.414C171.335 138.946 171.33 138.623 171.164 138.446C171.008 138.259 170.654 138.166 170.103 138.166C170.082 138.166 170.072 138.134 170.072 138.072C170.072 138.01 170.082 137.978 170.103 137.978C170.352 137.978 170.586 137.984 170.805 137.994C171.034 138.004 171.325 138.01 171.678 138.01C171.907 138.01 172.089 138.004 172.224 137.994C172.37 137.984 172.536 137.978 172.724 137.978ZM173.356 143.766C174.022 143.236 174.578 142.768 175.026 142.362C175.483 141.956 175.847 141.598 176.118 141.286C176.388 140.963 176.58 140.662 176.695 140.381C176.82 140.1 176.882 139.819 176.882 139.538C176.882 139.112 176.752 138.769 176.492 138.509C176.242 138.249 175.915 138.119 175.509 138.119C175.093 138.119 174.74 138.285 174.448 138.618C174.157 138.94 173.918 139.419 173.731 140.053C173.72 140.074 173.684 140.079 173.622 140.069C173.559 140.058 173.533 140.038 173.544 140.006L174.152 137.635C174.162 137.604 174.199 137.599 174.261 137.62C174.324 137.63 174.344 137.646 174.324 137.666C174.282 137.843 174.287 137.958 174.339 138.01C174.402 138.062 174.469 138.088 174.542 138.088C174.698 138.088 174.906 138.036 175.166 137.932C175.436 137.828 175.764 137.776 176.149 137.776C176.69 137.776 177.111 137.921 177.412 138.212C177.714 138.493 177.865 138.862 177.865 139.32C177.865 139.601 177.797 139.882 177.662 140.162C177.527 140.433 177.324 140.719 177.054 141.02C176.783 141.312 176.44 141.629 176.024 141.972C175.618 142.315 175.14 142.7 174.589 143.126C174.547 143.158 174.537 143.184 174.558 143.204C174.578 143.225 174.61 143.236 174.651 143.236C175.41 143.236 176.024 143.23 176.492 143.22C176.96 143.199 177.324 143.163 177.584 143.111C177.844 143.048 178.031 142.95 178.146 142.814C178.27 142.669 178.359 142.471 178.411 142.222C178.421 142.201 178.452 142.196 178.504 142.206C178.567 142.206 178.598 142.216 178.598 142.237L178.364 143.828C178.364 143.87 178.348 143.912 178.317 143.953C178.296 143.984 178.265 144 178.224 144C177.485 144 176.7 144 175.868 144C175.036 144 174.235 144 173.466 144C173.424 144 173.388 143.974 173.356 143.922C173.325 143.86 173.325 143.808 173.356 143.766Z" fill="black"/>
<path d="M41.8984 115.094C41.8568 115.114 41.8152 115.125 41.7736 115.125C41.6384 115.125 41.5084 115.016 41.3836 114.797C41.2588 114.568 41.1964 114.241 41.1964 113.814V111.022C41.1964 110.533 41.1496 110.154 41.056 109.883C40.9728 109.613 40.8532 109.426 40.6972 109.322C40.5516 109.218 40.3852 109.166 40.198 109.166C39.938 109.166 39.7248 109.233 39.5584 109.368C39.392 109.493 39.2672 109.654 39.184 109.852C39.1008 110.05 39.0436 110.247 39.0124 110.445C39.002 110.59 38.9552 110.726 38.872 110.85C38.7992 110.975 38.6536 111.038 38.4352 111.038C38.2688 111.038 38.1388 110.996 38.0452 110.913C37.9516 110.83 37.9048 110.715 37.9048 110.57C37.9048 110.382 37.9984 110.19 38.1856 109.992C38.3728 109.784 38.6068 109.597 38.8876 109.431C39.1788 109.254 39.4804 109.114 39.7924 109.01C40.1148 108.895 40.4164 108.838 40.6972 108.838C41.0924 108.838 41.42 108.978 41.68 109.259C41.94 109.53 42.07 109.961 42.07 110.554V113.315C42.07 113.679 42.1168 113.944 42.2104 114.111C42.304 114.277 42.4548 114.36 42.6628 114.36C42.85 114.36 43.11 114.293 43.4428 114.158C43.4948 114.137 43.5312 114.158 43.552 114.22C43.5728 114.272 43.5572 114.308 43.5052 114.329L41.8984 115.094ZM38.8408 115.109C38.508 115.109 38.2584 115.021 38.092 114.844C37.9256 114.657 37.8424 114.444 37.8424 114.204C37.8424 113.913 37.9568 113.684 38.1856 113.518C38.4144 113.341 38.7888 113.164 39.3088 112.988L41.3524 112.254L41.3992 112.426L39.5896 113.112C39.3504 113.206 39.1788 113.31 39.0748 113.424C38.9812 113.539 38.9344 113.684 38.9344 113.861C38.9344 114.08 38.9968 114.251 39.1216 114.376C39.2464 114.49 39.4076 114.548 39.6052 114.548C39.7196 114.548 39.8288 114.537 39.9328 114.516C40.0368 114.485 40.1408 114.444 40.2448 114.392L41.5708 113.721L41.602 113.908L40.2448 114.641C39.9328 114.797 39.6728 114.917 39.4648 115C39.2568 115.073 39.0488 115.109 38.8408 115.109ZM44.1127 114.766C44.7783 114.236 45.3347 113.768 45.7819 113.362C46.2395 112.956 46.6035 112.598 46.8739 112.286C47.1443 111.963 47.3367 111.662 47.4511 111.381C47.5759 111.1 47.6383 110.819 47.6383 110.538C47.6383 110.112 47.5083 109.769 47.2483 109.509C46.9987 109.249 46.6711 109.119 46.2655 109.119C45.8495 109.119 45.4959 109.285 45.2047 109.618C44.9135 109.94 44.6743 110.419 44.4871 111.053C44.4767 111.074 44.4403 111.079 44.3779 111.069C44.3155 111.058 44.2895 111.038 44.2999 111.006L44.9083 108.635C44.9187 108.604 44.9551 108.599 45.0175 108.62C45.0799 108.63 45.1007 108.646 45.0799 108.666C45.0383 108.843 45.0435 108.958 45.0955 109.01C45.1579 109.062 45.2255 109.088 45.2983 109.088C45.4543 109.088 45.6623 109.036 45.9223 108.932C46.1927 108.828 46.5203 108.776 46.9051 108.776C47.4459 108.776 47.8671 108.921 48.1687 109.212C48.4703 109.493 48.6211 109.862 48.6211 110.32C48.6211 110.601 48.5535 110.882 48.4183 111.162C48.2831 111.433 48.0803 111.719 47.8099 112.02C47.5395 112.312 47.1963 112.629 46.7803 112.972C46.3747 113.315 45.8963 113.7 45.3451 114.126C45.3035 114.158 45.2931 114.184 45.3139 114.204C45.3347 114.225 45.3659 114.236 45.4075 114.236C46.1667 114.236 46.7803 114.23 47.2483 114.22C47.7163 114.199 48.0803 114.163 48.3403 114.111C48.6003 114.048 48.7875 113.95 48.9019 113.814C49.0267 113.669 49.1151 113.471 49.1671 113.222C49.1775 113.201 49.2087 113.196 49.2607 113.206C49.3231 113.206 49.3543 113.216 49.3543 113.237L49.1203 114.828C49.1203 114.87 49.1047 114.912 49.0735 114.953C49.0527 114.984 49.0215 115 48.9799 115C48.2415 115 47.4563 115 46.6243 115C45.7923 115 44.9915 115 44.2219 115C44.1803 115 44.1439 114.974 44.1127 114.922C44.0815 114.86 44.0815 114.808 44.1127 114.766Z" fill="black"/>
<path d="M40.8984 184.094C40.8568 184.114 40.8152 184.125 40.7736 184.125C40.6384 184.125 40.5084 184.016 40.3836 183.797C40.2588 183.568 40.1964 183.241 40.1964 182.814V180.022C40.1964 179.533 40.1496 179.154 40.056 178.883C39.9728 178.613 39.8532 178.426 39.6972 178.322C39.5516 178.218 39.3852 178.166 39.198 178.166C38.938 178.166 38.7248 178.233 38.5584 178.368C38.392 178.493 38.2672 178.654 38.184 178.852C38.1008 179.05 38.0436 179.247 38.0124 179.445C38.002 179.59 37.9552 179.726 37.872 179.85C37.7992 179.975 37.6536 180.038 37.4352 180.038C37.2688 180.038 37.1388 179.996 37.0452 179.913C36.9516 179.83 36.9048 179.715 36.9048 179.57C36.9048 179.382 36.9984 179.19 37.1856 178.992C37.3728 178.784 37.6068 178.597 37.8876 178.431C38.1788 178.254 38.4804 178.114 38.7924 178.01C39.1148 177.895 39.4164 177.838 39.6972 177.838C40.0924 177.838 40.42 177.978 40.68 178.259C40.94 178.53 41.07 178.961 41.07 179.554V182.315C41.07 182.679 41.1168 182.944 41.2104 183.111C41.304 183.277 41.4548 183.36 41.6628 183.36C41.85 183.36 42.11 183.293 42.4428 183.158C42.4948 183.137 42.5312 183.158 42.552 183.22C42.5728 183.272 42.5572 183.308 42.5052 183.329L40.8984 184.094ZM37.8408 184.109C37.508 184.109 37.2584 184.021 37.092 183.844C36.9256 183.657 36.8424 183.444 36.8424 183.204C36.8424 182.913 36.9568 182.684 37.1856 182.518C37.4144 182.341 37.7888 182.164 38.3088 181.988L40.3524 181.254L40.3992 181.426L38.5896 182.112C38.3504 182.206 38.1788 182.31 38.0748 182.424C37.9812 182.539 37.9344 182.684 37.9344 182.861C37.9344 183.08 37.9968 183.251 38.1216 183.376C38.2464 183.49 38.4076 183.548 38.6052 183.548C38.7196 183.548 38.8288 183.537 38.9328 183.516C39.0368 183.485 39.1408 183.444 39.2448 183.392L40.5708 182.721L40.602 182.908L39.2448 183.641C38.9328 183.797 38.6728 183.917 38.4648 184C38.2568 184.073 38.0488 184.109 37.8408 184.109ZM43.4559 188.29C43.4143 188.3 43.3779 188.274 43.3467 188.212C43.3259 188.16 43.3363 188.129 43.3779 188.118C44.0643 187.9 44.6311 187.64 45.0783 187.338C45.5255 187.037 45.8791 186.709 46.1391 186.356C46.4095 186.002 46.5967 185.648 46.7007 185.295C46.8047 184.952 46.8567 184.624 46.8567 184.312C46.8567 183.979 46.7995 183.662 46.6851 183.36C46.5707 183.048 46.3835 182.799 46.1235 182.612C45.8739 182.414 45.5359 182.315 45.1095 182.315C44.9847 182.315 44.8599 182.32 44.7351 182.331C44.6103 182.341 44.4803 182.367 44.3451 182.409C44.3139 182.419 44.2879 182.393 44.2671 182.331C44.2463 182.268 44.2515 182.232 44.2827 182.222C45.1147 182.003 45.6919 181.707 46.0143 181.332C46.3471 180.958 46.5135 180.454 46.5135 179.819C46.5135 179.31 46.4043 178.899 46.1859 178.587C45.9779 178.275 45.6347 178.119 45.1563 178.119C44.7091 178.119 44.3243 178.264 44.0019 178.556C43.6795 178.847 43.4247 179.32 43.2375 179.975C43.2271 179.996 43.1907 180.001 43.1283 179.991C43.0659 179.98 43.0399 179.96 43.0503 179.928L43.6275 177.651C43.6483 177.62 43.6847 177.614 43.7367 177.635C43.7991 177.646 43.8251 177.661 43.8147 177.682C43.7731 177.859 43.7835 177.978 43.8459 178.041C43.9083 178.093 43.9759 178.119 44.0487 178.119C44.2047 178.119 44.4179 178.062 44.6883 177.947C44.9587 177.833 45.2863 177.776 45.6711 177.776C46.2743 177.776 46.7319 177.958 47.0439 178.322C47.3559 178.686 47.5119 179.096 47.5119 179.554C47.5119 179.939 47.4235 180.313 47.2467 180.677C47.0699 181.031 46.8151 181.343 46.4823 181.613C46.1495 181.873 45.7491 182.05 45.2811 182.144L45.5151 181.941C46.0767 181.951 46.5395 182.06 46.9035 182.268C47.2675 182.476 47.5379 182.747 47.7147 183.08C47.8915 183.412 47.9799 183.766 47.9799 184.14C47.9799 184.619 47.8187 185.123 47.4963 185.654C47.1843 186.194 46.6903 186.694 46.0143 187.151C45.3487 187.619 44.4959 187.999 43.4559 188.29Z" fill="black"/>
<path d="M168.819 197.145C168.529 197.145 168.243 197.097 167.961 197C167.679 196.911 167.408 196.755 167.148 196.532L167.671 195.54C167.671 195.882 167.757 196.157 167.928 196.365C168.099 196.565 168.299 196.71 168.529 196.799C168.767 196.889 168.979 196.933 169.165 196.933C169.595 196.933 169.93 196.766 170.167 196.432C170.413 196.097 170.535 195.618 170.535 194.994C170.535 194.303 170.401 193.787 170.134 193.445C169.867 193.096 169.525 192.922 169.109 192.922C168.804 192.922 168.522 193.018 168.262 193.211C168.002 193.397 167.761 193.609 167.538 193.847L167.449 193.769C167.605 193.598 167.779 193.419 167.972 193.234C168.165 193.041 168.385 192.881 168.63 192.755C168.882 192.621 169.165 192.554 169.477 192.554C169.796 192.554 170.089 192.632 170.357 192.788C170.624 192.937 170.843 193.163 171.014 193.468C171.185 193.772 171.271 194.155 171.271 194.615C171.271 195.18 171.148 195.652 170.903 196.031C170.665 196.402 170.357 196.681 169.978 196.866C169.607 197.052 169.22 197.145 168.819 197.145ZM166.457 197.056C166.427 197.063 166.405 197.048 166.39 197.011C166.375 196.981 166.379 196.959 166.401 196.944C166.617 196.796 166.776 196.651 166.88 196.51C166.992 196.369 167.047 196.149 167.047 195.852V190.348C167.047 190.08 167.021 189.887 166.969 189.768C166.917 189.649 166.821 189.59 166.68 189.59C166.561 189.59 166.394 189.638 166.178 189.735C166.149 189.75 166.123 189.735 166.1 189.69C166.085 189.646 166.093 189.62 166.123 189.612L167.515 188.933C167.538 188.925 167.556 188.921 167.571 188.921C167.593 188.921 167.616 188.933 167.638 188.955C167.66 188.97 167.671 188.988 167.671 189.011V196.487L166.457 197.056ZM172.093 196.833C172.568 196.454 172.965 196.12 173.285 195.83C173.612 195.54 173.872 195.284 174.065 195.061C174.258 194.831 174.395 194.615 174.477 194.415C174.566 194.214 174.611 194.014 174.611 193.813C174.611 193.509 174.518 193.263 174.332 193.078C174.154 192.892 173.92 192.799 173.63 192.799C173.333 192.799 173.081 192.918 172.873 193.156C172.665 193.386 172.494 193.728 172.36 194.181C172.353 194.196 172.327 194.199 172.282 194.192C172.237 194.185 172.219 194.17 172.226 194.147L172.661 192.454C172.668 192.431 172.694 192.428 172.739 192.443C172.783 192.45 172.798 192.461 172.783 192.476C172.754 192.602 172.757 192.684 172.795 192.721C172.839 192.758 172.887 192.777 172.939 192.777C173.051 192.777 173.199 192.74 173.385 192.665C173.578 192.591 173.812 192.554 174.087 192.554C174.473 192.554 174.774 192.658 174.99 192.866C175.205 193.067 175.313 193.33 175.313 193.657C175.313 193.858 175.265 194.058 175.168 194.259C175.071 194.452 174.927 194.656 174.733 194.872C174.54 195.08 174.295 195.306 173.998 195.551C173.708 195.797 173.367 196.071 172.973 196.376C172.943 196.398 172.936 196.417 172.951 196.432C172.965 196.447 172.988 196.454 173.017 196.454C173.56 196.454 173.998 196.45 174.332 196.443C174.667 196.428 174.927 196.402 175.112 196.365C175.298 196.32 175.432 196.25 175.513 196.153C175.603 196.049 175.666 195.908 175.703 195.73C175.71 195.715 175.733 195.711 175.77 195.719C175.814 195.719 175.837 195.726 175.837 195.741L175.669 196.877C175.669 196.907 175.658 196.937 175.636 196.967C175.621 196.989 175.599 197 175.569 197C175.042 197 174.481 197 173.887 197C173.292 197 172.72 197 172.171 197C172.141 197 172.115 196.981 172.093 196.944C172.07 196.9 172.07 196.863 172.093 196.833Z" fill="black"/>
</g>
<defs>
<clipPath id="clip0_5_2">
<rect width="225" height="225" fill="white"/>
</clipPath>
</defs>
</svg>
