<svg width="225" height="225" viewBox="0 0 225 225" fill="none" xmlns="http://www.w3.org/2000/svg">
<g clip-path="url(#clip0_18_1324)">
<rect width="225" height="225" fill="#F4F1DE"/>
<rect width="225" height="225" fill="#F4F1DE"/>
<circle cx="101" cy="99" r="2" fill="#F98F8F"/>
<circle cx="72" cy="118" r="2" fill="#F98F8F"/>
<circle cx="76" cy="127" r="2" fill="#F98F8F"/>
<circle cx="82" cy="111" r="2" fill="#F98F8F"/>
<circle cx="99" cy="113" r="2" fill="#F98F8F"/>
<circle cx="83" cy="138" r="2" fill="#F98F8F"/>
<circle cx="121" cy="122" r="2" fill="#F98F8F"/>
<path d="M11.1464 9.64645C11.3417 9.45118 11.6583 9.45118 11.8536 9.64645L15.0355 12.8284C15.2308 13.0237 15.2308 13.3403 15.0355 13.5355C14.8403 13.7308 14.5237 13.7308 14.3284 13.5355L11.5 10.7071L8.67157 13.5355C8.47631 13.7308 8.15973 13.7308 7.96447 13.5355C7.7692 13.3403 7.7692 13.0237 7.96447 12.8284L11.1464 9.64645ZM11 210L11 10L12 10L12 210L11 210Z" fill="#5F5F5F"/>
<path d="M212.354 209.854C212.549 209.658 212.549 209.342 212.354 209.146L209.172 205.964C208.976 205.769 208.66 205.769 208.464 205.964C208.269 206.16 208.269 206.476 208.464 206.672L211.293 209.5L208.464 212.328C208.269 212.524 208.269 212.84 208.464 213.036C208.66 213.231 208.976 213.231 209.172 213.036L212.354 209.854ZM12 210H212V209H12V210Z" fill="#5F5F5F"/>
<circle cx="46" cy="137" r="2" fill="#F98F8F"/>
<circle cx="30" cy="184" r="2" fill="#F98F8F"/>
<circle cx="61" cy="123" r="2" fill="#F98F8F"/>
<circle cx="47" cy="147" r="2" fill="#F98F8F"/>
<circle cx="46" cy="170" r="2" fill="#F98F8F"/>
<circle cx="46" cy="170" r="2" fill="#F98F8F"/>
<circle cx="65" cy="159" r="2" fill="#F98F8F"/>
<circle cx="77" cy="106" r="2" fill="#F98F8F"/>
<circle cx="63" cy="130" r="2" fill="#F98F8F"/>
<circle cx="74" cy="150" r="2" fill="#F98F8F"/>
<circle cx="66" cy="143" r="2" fill="#F98F8F"/>
<circle cx="37" cy="122" r="2" fill="#F98F8F"/>
<circle cx="35" cy="141" r="2" fill="#F98F8F"/>
<circle cx="49" cy="122" r="2" fill="#F98F8F"/>
<circle cx="59" cy="115" r="2" fill="#F98F8F"/>
<circle cx="121" cy="107" r="2" fill="#F98F8F"/>
<circle cx="85" cy="116" r="2" fill="#F98F8F"/>
<circle cx="90" cy="99" r="2" fill="#F98F8F"/>
<circle cx="72" cy="118" r="2" fill="#F98F8F"/>
<circle cx="82" cy="111" r="2" fill="#F98F8F"/>
<circle cx="109" cy="118" r="2" fill="#F98F8F"/>
<circle cx="77" cy="106" r="2" fill="#F98F8F"/>
<circle cx="49" cy="122" r="2" fill="#F98F8F"/>
<circle cx="59" cy="115" r="2" fill="#F98F8F"/>
<circle cx="109" cy="107" r="2" fill="#F98F8F"/>
<circle cx="94" cy="129" r="2" fill="#F98F8F"/>
<circle cx="134" cy="116" r="2" fill="#F98F8F"/>
<circle cx="137" cy="152" r="2" fill="#F98F8F"/>
<circle cx="137" cy="137" r="2" fill="#F98F8F"/>
<circle cx="125" cy="148" r="2" fill="#F98F8F"/>
<circle cx="125" cy="137" r="2" fill="#F98F8F"/>
<circle cx="150" cy="146" r="2" fill="#F98F8F"/>
<circle cx="155" cy="130" r="2" fill="#F98F8F"/>
<circle cx="155" cy="115" r="2" fill="#F98F8F"/>
<circle cx="143" cy="126" r="2" fill="#F98F8F"/>
<circle cx="143" cy="115" r="2" fill="#F98F8F"/>
<circle cx="168" cy="124" r="2" fill="#F98F8F"/>
<circle cx="171" cy="154" r="2" fill="#F98F8F"/>
<circle cx="171" cy="139" r="2" fill="#F98F8F"/>
<circle cx="159" cy="150" r="2" fill="#F98F8F"/>
<circle cx="159" cy="139" r="2" fill="#F98F8F"/>
<circle cx="184" cy="148" r="2" fill="#F98F8F"/>
<circle cx="2" cy="2" r="2" transform="matrix(0.141675 -0.989913 -0.989913 -0.141675 103.096 156.786)" fill="#F98F8F"/>
<circle cx="2" cy="2" r="2" transform="matrix(0.141675 -0.989913 -0.989913 -0.141675 105.927 144.058)" fill="#F98F8F"/>
<circle cx="2" cy="2" r="2" transform="matrix(0.141675 -0.989913 -0.989913 -0.141675 114.274 135.151)" fill="#F98F8F"/>
<circle cx="2" cy="2" r="2" transform="matrix(0.141675 -0.989913 -0.989913 -0.141675 119.96 144.526)" fill="#F98F8F"/>
<path d="M119.547 160.283C118.453 160.127 117.44 160.886 117.283 161.98C117.127 163.073 117.886 164.087 118.98 164.243C120.073 164.399 121.087 163.64 121.243 162.547C121.4 161.453 120.64 160.44 119.547 160.283Z" fill="#F98F8F"/>
<path d="M127.547 158.283C126.453 158.127 125.44 158.886 125.283 159.98C125.127 161.073 125.886 162.087 126.98 162.243C128.073 162.399 129.087 161.64 129.243 160.547C129.4 159.453 128.64 158.44 127.547 158.283Z" fill="#F98F8F"/>
<path d="M120.547 172.283C119.453 172.127 118.44 172.886 118.283 173.98C118.127 175.073 118.886 176.087 119.98 176.243C121.073 176.399 122.087 175.64 122.243 174.547C122.4 173.453 121.64 172.44 120.547 172.283Z" fill="#F98F8F"/>
<path d="M164.547 158.283C163.453 158.127 162.44 158.886 162.283 159.98C162.127 161.073 162.886 162.087 163.98 162.243C165.073 162.399 166.087 161.64 166.243 160.547C166.4 159.453 165.64 158.44 164.547 158.283Z" fill="#F98F8F"/>
<path d="M176.547 161.283C175.453 161.127 174.44 161.886 174.283 162.98C174.127 164.073 174.886 165.087 175.98 165.243C177.073 165.399 178.087 164.64 178.243 163.547C178.4 162.453 177.64 161.44 176.547 161.283Z" fill="#F98F8F"/>
<path d="M187.547 156.283C186.453 156.127 185.44 156.886 185.283 157.98C185.127 159.073 185.886 160.087 186.98 160.243C188.073 160.399 189.087 159.64 189.243 158.547C189.4 157.453 188.64 156.44 187.547 156.283Z" fill="#F98F8F"/>
<path d="M33.5466 151.283C32.4532 151.127 31.4399 151.886 31.2834 152.98C31.1269 154.073 31.8865 155.087 32.9799 155.243C34.0733 155.399 35.0866 154.64 35.2431 153.547C35.3996 152.453 34.64 151.44 33.5466 151.283Z" fill="#F98F8F"/>
<circle cx="37" cy="163" r="2" fill="#F98F8F"/>
<circle cx="25" cy="157" r="2" fill="#F98F8F"/>
<path d="M23.5466 167.283C22.4532 167.127 21.4399 167.886 21.2834 168.98C21.1269 170.073 21.8865 171.087 22.9799 171.243C24.0733 171.399 25.0866 170.64 25.2431 169.547C25.3996 168.453 24.64 167.44 23.5466 167.283Z" fill="#F98F8F"/>
<circle cx="32" cy="194" r="2" fill="#F98F8F"/>
<circle cx="20" cy="188" r="2" fill="#F98F8F"/>
<path d="M18.5466 198.283C17.4532 198.127 16.4399 198.886 16.2834 199.98C16.1269 201.073 16.8865 202.087 17.9799 202.243C19.0733 202.399 20.0866 201.64 20.2431 200.547C20.3996 199.453 19.64 198.44 18.5466 198.283Z" fill="#F98F8F"/>
<circle cx="33" cy="129" r="2" fill="#F98F8F"/>
<circle cx="21" cy="123" r="2" fill="#F98F8F"/>
<path d="M19.5466 133.283C18.4532 133.127 17.4399 133.886 17.2834 134.98C17.1269 136.073 17.8865 137.087 18.9799 137.243C20.0733 137.399 21.0866 136.64 21.2431 135.547C21.3996 134.453 20.64 133.44 19.5466 133.283Z" fill="#F98F8F"/>
<circle cx="2" cy="2" r="2" transform="matrix(0.141675 -0.989913 -0.989913 -0.141675 88.9463 185.066)" fill="#F98F8F"/>
<circle cx="2" cy="2" r="2" transform="matrix(0.141675 -0.989913 -0.989913 -0.141675 63.2048 195.525)" fill="#F98F8F"/>
<circle cx="2" cy="2" r="2" transform="matrix(0.141675 -0.989913 -0.989913 -0.141675 35.7671 203.72)" fill="#F98F8F"/>
<circle cx="2" cy="2" r="2" transform="matrix(0.141675 -0.989913 -0.989913 -0.141675 44.1133 194.813)" fill="#F98F8F"/>
<circle cx="2" cy="2" r="2" transform="matrix(0.141675 -0.989913 -0.989913 -0.141675 104.93 172.201)" fill="#F98F8F"/>
<circle cx="2" cy="2" r="2" transform="matrix(0.141675 -0.989913 -0.989913 -0.141675 79.1887 182.66)" fill="#F98F8F"/>
<circle cx="2" cy="2" r="2" transform="matrix(0.141675 -0.989913 -0.989913 -0.141675 51.751 190.855)" fill="#F98F8F"/>
<circle cx="2" cy="2" r="2" transform="matrix(0.141675 -0.989913 -0.989913 -0.141675 60.0972 181.948)" fill="#F98F8F"/>
<circle cx="44" cy="158" r="2" fill="#F98F8F"/>
<circle cx="2" cy="2" r="2" transform="matrix(0.141675 -0.989913 -0.989913 -0.141675 49.751 178.855)" fill="#F98F8F"/>
<circle cx="2" cy="2" r="2" transform="matrix(0.141675 -0.989913 -0.989913 -0.141675 58.0972 169.948)" fill="#F98F8F"/>
<circle cx="2" cy="2" r="2" transform="matrix(0.141675 -0.989913 -0.989913 -0.141675 98.2842 169.229)" fill="#F98F8F"/>
<circle cx="2" cy="2" r="2" transform="matrix(0.141675 -0.989913 -0.989913 -0.141675 70.8462 177.425)" fill="#F98F8F"/>
<circle cx="2" cy="2" r="2" transform="matrix(0.141675 -0.989913 -0.989913 -0.141675 79.1926 168.517)" fill="#F98F8F"/>
<circle cx="2" cy="2" r="2" transform="matrix(0.141675 -0.989913 -0.989913 -0.141675 102.52 196.101)" fill="#F98F8F"/>
<circle cx="2" cy="2" r="2" transform="matrix(0.141675 -0.989913 -0.989913 -0.141675 113.96 196.526)" fill="#F98F8F"/>
<circle cx="2" cy="2" r="2" transform="matrix(0.141675 -0.989913 -0.989913 -0.141675 114.96 189.526)" fill="#F98F8F"/>
<circle cx="2" cy="2" r="2" transform="matrix(0.141675 -0.989913 -0.989913 -0.141675 113.96 180.526)" fill="#F98F8F"/>
<circle cx="2" cy="2" r="2" transform="matrix(0.141675 -0.989913 -0.989913 -0.141675 75.082 204.296)" fill="#F98F8F"/>
<circle cx="2" cy="2" r="2" transform="matrix(0.141675 -0.989913 -0.989913 -0.141675 83.4282 195.389)" fill="#F98F8F"/>
<circle cx="2" cy="2" r="2" transform="matrix(0.141675 -0.989913 -0.989913 -0.141675 172.96 185.526)" fill="#8FB9F9"/>
<circle cx="2" cy="2" r="2" transform="matrix(0.141675 -0.989913 -0.989913 -0.141675 156.96 206.526)" fill="#8FB9F9"/>
<circle cx="2" cy="2" r="2" transform="matrix(0.141675 -0.989913 -0.989913 -0.141675 111.438 162.02)" fill="#F98F8F"/>
<circle cx="2" cy="2" r="2" transform="matrix(0.141675 -0.989913 -0.989913 -0.141675 166.96 206.526)" fill="#8FB9F9"/>
<circle cx="2" cy="2" r="2" transform="matrix(0.141675 -0.989913 -0.989913 -0.141675 143.96 171.526)" fill="#8FB9F9"/>
<circle cx="2" cy="2" r="2" transform="matrix(0.141675 -0.989913 -0.989913 -0.141675 133.96 186.526)" fill="#8FB9F9"/>
<circle cx="2" cy="2" r="2" transform="matrix(0.141675 -0.989913 -0.989913 -0.141675 177.96 192.526)" fill="#8FB9F9"/>
<circle cx="2" cy="2" r="2" transform="matrix(0.141675 -0.989913 -0.989913 -0.141675 184.96 197.526)" fill="#8FB9F9"/>
<circle cx="2" cy="2" r="2" transform="matrix(0.141675 -0.989913 -0.989913 -0.141675 148.96 186.526)" fill="#8FB9F9"/>
<circle cx="2" cy="2" r="2" transform="matrix(0.141675 -0.989913 -0.989913 -0.141675 175.96 208.526)" fill="#8FB9F9"/>
<circle cx="2" cy="2" r="2" transform="matrix(0.141675 -0.989913 -0.989913 -0.141675 104.22 184.222)" fill="#F98F8F"/>
<circle cx="2" cy="2" r="2" transform="matrix(0.141675 -0.989913 -0.989913 -0.141675 174.96 202.526)" fill="#8FB9F9"/>
<circle cx="2" cy="2" r="2" transform="matrix(0.141675 -0.989913 -0.989913 -0.141675 187.96 204.526)" fill="#8FB9F9"/>
<circle cx="2" cy="2" r="2" transform="matrix(0.141675 -0.989913 -0.989913 -0.141675 151.483 176.269)" fill="#8FB9F9"/>
<circle cx="2" cy="2" r="2" transform="matrix(0.141675 -0.989913 -0.989913 -0.141675 140.96 191.526)" fill="#8FB9F9"/>
<circle cx="2" cy="2" r="2" transform="matrix(0.141675 -0.989913 -0.989913 -0.141675 137.96 178.526)" fill="#8FB9F9"/>
<circle cx="2" cy="2" r="2" transform="matrix(0.141675 -0.989913 -0.989913 -0.141675 158.96 187.526)" fill="#8FB9F9"/>
<circle cx="2" cy="2" r="2" transform="matrix(0.141675 -0.989913 -0.989913 -0.141675 170.96 177.526)" fill="#8FB9F9"/>
<circle cx="2" cy="2" r="2" transform="matrix(0.141675 -0.989913 -0.989913 -0.141675 167.96 194.526)" fill="#8FB9F9"/>
<circle cx="2" cy="2" r="2" transform="matrix(0.141675 -0.989913 -0.989913 -0.141675 160.96 199.526)" fill="#8FB9F9"/>
<circle cx="2" cy="2" r="2" transform="matrix(0.141675 -0.989913 -0.989913 -0.141675 140.96 198.526)" fill="#8FB9F9"/>
<circle cx="2" cy="2" r="2" transform="matrix(0.141675 -0.989913 -0.989913 -0.141675 156.96 170.526)" fill="#8FB9F9"/>
<circle cx="2" cy="2" r="2" transform="matrix(0.141675 -0.989913 -0.989913 -0.141675 149.96 196.526)" fill="#8FB9F9"/>
<circle cx="2" cy="2" r="2" transform="matrix(0.141675 -0.989913 -0.989913 -0.141675 160.96 178.526)" fill="#8FB9F9"/>
<circle cx="2" cy="2" r="2" transform="matrix(0.141675 -0.989913 -0.989913 -0.141675 145.96 206.526)" fill="#8FB9F9"/>
<circle cx="2" cy="2" r="2" transform="matrix(0.141675 -0.989913 -0.989913 -0.141675 133.96 203.526)" fill="#8FB9F9"/>
<circle cx="2" cy="2" r="2" transform="matrix(0.141675 -0.989913 -0.989913 -0.141675 87.822 157.63)" fill="#F98F8F"/>
<circle cx="2" cy="2" r="2" transform="matrix(0.141675 -0.989913 -0.989913 -0.141675 96.168 148.723)" fill="#F98F8F"/>
<rect x="103" y="210" width="104" height="15" fill="#F4F1DE"/>
<line x1="110.57" y1="209.745" x2="167.57" y2="113.745" stroke="black"/>
</g>
<defs>
<clipPath id="clip0_18_1324">
<rect width="225" height="225" fill="white"/>
</clipPath>
</defs>
</svg>
