<svg width="225" height="225" viewBox="0 0 225 225" fill="none" xmlns="http://www.w3.org/2000/svg">
<g clip-path="url(#clip0_16_981)">
<rect width="225" height="225" fill="#F4F1DE"/>
<rect width="225" height="225" fill="#F4F1DE"/>
<circle cx="101" cy="99" r="2" fill="#F98F8F"/>
<circle cx="72" cy="118" r="2" fill="#F98F8F"/>
<circle cx="76" cy="127" r="2" fill="#F98F8F"/>
<circle cx="82" cy="111" r="2" fill="#F98F8F"/>
<circle cx="99" cy="113" r="2" fill="#F98F8F"/>
<circle cx="83" cy="138" r="2" fill="#F98F8F"/>
<circle cx="121" cy="122" r="2" fill="#F98F8F"/>
<path d="M11.1464 9.64645C11.3417 9.45118 11.6583 9.45118 11.8536 9.64645L15.0355 12.8284C15.2308 13.0237 15.2308 13.3403 15.0355 13.5355C14.8403 13.7308 14.5237 13.7308 14.3284 13.5355L11.5 10.7071L8.67157 13.5355C8.47631 13.7308 8.15973 13.7308 7.96447 13.5355C7.7692 13.3403 7.7692 13.0237 7.96447 12.8284L11.1464 9.64645ZM11 210L11 10L12 10L12 210L11 210Z" fill="#5F5F5F"/>
<path d="M212.354 209.854C212.549 209.658 212.549 209.342 212.354 209.146L209.172 205.964C208.976 205.769 208.66 205.769 208.464 205.964C208.269 206.16 208.269 206.476 208.464 206.672L211.293 209.5L208.464 212.328C208.269 212.524 208.269 212.84 208.464 213.036C208.66 213.231 208.976 213.231 209.172 213.036L212.354 209.854ZM12 210H212V209H12V210Z" fill="#5F5F5F"/>
<circle cx="46" cy="137" r="2" fill="#F98F8F"/>
<circle cx="30" cy="184" r="2" fill="#F98F8F"/>
<circle cx="61" cy="123" r="2" fill="#F98F8F"/>
<circle cx="47" cy="147" r="2" fill="#F98F8F"/>
<circle cx="46" cy="170" r="2" fill="#F98F8F"/>
<circle cx="46" cy="170" r="2" fill="#F98F8F"/>
<circle cx="65" cy="159" r="2" fill="#F98F8F"/>
<circle cx="77" cy="106" r="2" fill="#F98F8F"/>
<circle cx="63" cy="130" r="2" fill="#F98F8F"/>
<circle cx="74" cy="150" r="2" fill="#F98F8F"/>
<circle cx="66" cy="143" r="2" fill="#F98F8F"/>
<circle cx="37" cy="122" r="2" fill="#F98F8F"/>
<circle cx="35" cy="141" r="2" fill="#F98F8F"/>
<circle cx="49" cy="122" r="2" fill="#F98F8F"/>
<circle cx="59" cy="115" r="2" fill="#F98F8F"/>
<circle cx="121" cy="107" r="2" fill="#F98F8F"/>
<circle cx="85" cy="116" r="2" fill="#F98F8F"/>
<circle cx="90" cy="99" r="2" fill="#F98F8F"/>
<circle cx="72" cy="118" r="2" fill="#F98F8F"/>
<circle cx="82" cy="111" r="2" fill="#F98F8F"/>
<circle cx="109" cy="118" r="2" fill="#F98F8F"/>
<circle cx="77" cy="106" r="2" fill="#F98F8F"/>
<circle cx="49" cy="122" r="2" fill="#F98F8F"/>
<circle cx="59" cy="115" r="2" fill="#F98F8F"/>
<circle cx="109" cy="107" r="2" fill="#F98F8F"/>
<circle cx="94" cy="129" r="2" fill="#F98F8F"/>
<circle cx="134" cy="116" r="2" fill="#F98F8F"/>
<circle cx="137" cy="152" r="2" fill="#F98F8F"/>
<circle cx="137" cy="137" r="2" fill="#F98F8F"/>
<circle cx="125" cy="148" r="2" fill="#F98F8F"/>
<circle cx="125" cy="137" r="2" fill="#F98F8F"/>
<circle cx="150" cy="146" r="2" fill="#F98F8F"/>
<circle cx="155" cy="130" r="2" fill="#F98F8F"/>
<circle cx="155" cy="115" r="2" fill="#F98F8F"/>
<circle cx="143" cy="126" r="2" fill="#F98F8F"/>
<circle cx="143" cy="115" r="2" fill="#F98F8F"/>
<circle cx="168" cy="124" r="2" fill="#F98F8F"/>
<circle cx="171" cy="154" r="2" fill="#F98F8F"/>
<circle cx="171" cy="139" r="2" fill="#F98F8F"/>
<circle cx="159" cy="150" r="2" fill="#F98F8F"/>
<circle cx="159" cy="139" r="2" fill="#F98F8F"/>
<circle cx="184" cy="148" r="2" fill="#F98F8F"/>
<circle cx="2" cy="2" r="2" transform="matrix(0.141675 -0.989913 -0.989913 -0.141675 103.096 156.786)" fill="#F98F8F"/>
<circle cx="2" cy="2" r="2" transform="matrix(0.141675 -0.989913 -0.989913 -0.141675 105.927 144.058)" fill="#F98F8F"/>
<circle cx="2" cy="2" r="2" transform="matrix(0.141675 -0.989913 -0.989913 -0.141675 114.274 135.151)" fill="#F98F8F"/>
<circle cx="2" cy="2" r="2" transform="matrix(0.141675 -0.989913 -0.989913 -0.141675 119.96 144.526)" fill="#F98F8F"/>
<path d="M119.547 160.283C118.453 160.127 117.44 160.886 117.283 161.98C117.127 163.073 117.886 164.087 118.98 164.243C120.073 164.399 121.087 163.64 121.243 162.547C121.4 161.453 120.64 160.44 119.547 160.283Z" fill="#F98F8F"/>
<path d="M127.547 158.283C126.453 158.127 125.44 158.886 125.283 159.98C125.127 161.073 125.886 162.087 126.98 162.243C128.073 162.399 129.087 161.64 129.243 160.547C129.4 159.453 128.64 158.44 127.547 158.283Z" fill="#F98F8F"/>
<path d="M120.547 172.283C119.453 172.127 118.44 172.886 118.283 173.98C118.127 175.073 118.886 176.087 119.98 176.243C121.073 176.399 122.087 175.64 122.243 174.547C122.4 173.453 121.64 172.44 120.547 172.283Z" fill="#F98F8F"/>
<path d="M164.547 158.283C163.453 158.127 162.44 158.886 162.283 159.98C162.127 161.073 162.886 162.087 163.98 162.243C165.073 162.399 166.087 161.64 166.243 160.547C166.4 159.453 165.64 158.44 164.547 158.283Z" fill="#F98F8F"/>
<path d="M176.547 161.283C175.453 161.127 174.44 161.886 174.283 162.98C174.127 164.073 174.886 165.087 175.98 165.243C177.073 165.399 178.087 164.64 178.243 163.547C178.4 162.453 177.64 161.44 176.547 161.283Z" fill="#F98F8F"/>
<path d="M187.547 156.283C186.453 156.127 185.44 156.886 185.283 157.98C185.127 159.073 185.886 160.087 186.98 160.243C188.073 160.399 189.087 159.64 189.243 158.547C189.4 157.453 188.64 156.44 187.547 156.283Z" fill="#F98F8F"/>
<path d="M33.5465 151.283C32.453 151.127 31.4398 151.886 31.2833 152.98C31.1268 154.073 31.8863 155.087 32.9798 155.243C34.0732 155.399 35.0865 154.64 35.2429 153.547C35.3994 152.453 34.6399 151.44 33.5465 151.283Z" fill="#F98F8F"/>
<circle cx="37" cy="163" r="2" fill="#F98F8F"/>
<circle cx="25" cy="157" r="2" fill="#F98F8F"/>
<path d="M23.5465 167.283C22.453 167.127 21.4398 167.886 21.2833 168.98C21.1268 170.073 21.8863 171.087 22.9798 171.243C24.0732 171.399 25.0865 170.64 25.2429 169.547C25.3994 168.453 24.6399 167.44 23.5465 167.283Z" fill="#F98F8F"/>
<circle cx="32" cy="194" r="2" fill="#F98F8F"/>
<circle cx="20" cy="188" r="2" fill="#F98F8F"/>
<path d="M18.5465 198.283C17.453 198.127 16.4398 198.886 16.2833 199.98C16.1268 201.073 16.8863 202.087 17.9798 202.243C19.0732 202.399 20.0865 201.64 20.2429 200.547C20.3994 199.453 19.6399 198.44 18.5465 198.283Z" fill="#F98F8F"/>
<circle cx="33" cy="129" r="2" fill="#F98F8F"/>
<circle cx="21" cy="123" r="2" fill="#F98F8F"/>
<path d="M19.5465 133.283C18.453 133.127 17.4398 133.886 17.2833 134.98C17.1268 136.073 17.8863 137.087 18.9798 137.243C20.0732 137.399 21.0865 136.64 21.2429 135.547C21.3994 134.453 20.6399 133.44 19.5465 133.283Z" fill="#F98F8F"/>
<circle cx="2" cy="2" r="2" transform="matrix(0.141675 -0.989913 -0.989913 -0.141675 88.9464 185.066)" fill="#F98F8F"/>
<circle cx="2" cy="2" r="2" transform="matrix(0.141675 -0.989913 -0.989913 -0.141675 63.205 195.525)" fill="#F98F8F"/>
<circle cx="2" cy="2" r="2" transform="matrix(0.141675 -0.989913 -0.989913 -0.141675 35.7671 203.72)" fill="#F98F8F"/>
<circle cx="2" cy="2" r="2" transform="matrix(0.141675 -0.989913 -0.989913 -0.141675 44.1132 194.813)" fill="#F98F8F"/>
<circle cx="2" cy="2" r="2" transform="matrix(0.141675 -0.989913 -0.989913 -0.141675 104.93 172.201)" fill="#F98F8F"/>
<circle cx="2" cy="2" r="2" transform="matrix(0.141675 -0.989913 -0.989913 -0.141675 79.1888 182.66)" fill="#F98F8F"/>
<circle cx="2" cy="2" r="2" transform="matrix(0.141675 -0.989913 -0.989913 -0.141675 51.7511 190.855)" fill="#F98F8F"/>
<circle cx="2" cy="2" r="2" transform="matrix(0.141675 -0.989913 -0.989913 -0.141675 60.0972 181.948)" fill="#F98F8F"/>
<circle cx="44" cy="158" r="2" fill="#F98F8F"/>
<circle cx="2" cy="2" r="2" transform="matrix(0.141675 -0.989913 -0.989913 -0.141675 49.7511 178.855)" fill="#F98F8F"/>
<circle cx="2" cy="2" r="2" transform="matrix(0.141675 -0.989913 -0.989913 -0.141675 58.0972 169.948)" fill="#F98F8F"/>
<circle cx="2" cy="2" r="2" transform="matrix(0.141675 -0.989913 -0.989913 -0.141675 98.2842 169.229)" fill="#F98F8F"/>
<circle cx="2" cy="2" r="2" transform="matrix(0.141675 -0.989913 -0.989913 -0.141675 70.8463 177.425)" fill="#F98F8F"/>
<circle cx="2" cy="2" r="2" transform="matrix(0.141675 -0.989913 -0.989913 -0.141675 79.1925 168.517)" fill="#F98F8F"/>
<circle cx="2" cy="2" r="2" transform="matrix(0.141675 -0.989913 -0.989913 -0.141675 102.52 196.101)" fill="#F98F8F"/>
<circle cx="2" cy="2" r="2" transform="matrix(0.141675 -0.989913 -0.989913 -0.141675 113.96 196.526)" fill="#F98F8F"/>
<circle cx="2" cy="2" r="2" transform="matrix(0.141675 -0.989913 -0.989913 -0.141675 114.96 189.526)" fill="#F98F8F"/>
<circle cx="2" cy="2" r="2" transform="matrix(0.141675 -0.989913 -0.989913 -0.141675 113.96 180.526)" fill="#F98F8F"/>
<circle cx="2" cy="2" r="2" transform="matrix(0.141675 -0.989913 -0.989913 -0.141675 75.082 204.296)" fill="#F98F8F"/>
<circle cx="2" cy="2" r="2" transform="matrix(0.141675 -0.989913 -0.989913 -0.141675 83.4282 195.389)" fill="#F98F8F"/>
<circle cx="2" cy="2" r="2" transform="matrix(0.141675 -0.989913 -0.989913 -0.141675 172.96 185.526)" fill="#8FB9F9"/>
<circle cx="2" cy="2" r="2" transform="matrix(0.141675 -0.989913 -0.989913 -0.141675 156.96 206.526)" fill="#8FB9F9"/>
<circle cx="2" cy="2" r="2" transform="matrix(0.141675 -0.989913 -0.989913 -0.141675 111.438 162.02)" fill="#F98F8F"/>
<circle cx="2" cy="2" r="2" transform="matrix(0.141675 -0.989913 -0.989913 -0.141675 166.96 206.526)" fill="#8FB9F9"/>
<circle cx="2" cy="2" r="2" transform="matrix(0.141675 -0.989913 -0.989913 -0.141675 143.96 171.526)" fill="#8FB9F9"/>
<circle cx="2" cy="2" r="2" transform="matrix(0.141675 -0.989913 -0.989913 -0.141675 133.96 186.526)" fill="#8FB9F9"/>
<circle cx="2" cy="2" r="2" transform="matrix(0.141675 -0.989913 -0.989913 -0.141675 177.96 192.526)" fill="#8FB9F9"/>
<circle cx="2" cy="2" r="2" transform="matrix(0.141675 -0.989913 -0.989913 -0.141675 184.96 197.526)" fill="#8FB9F9"/>
<circle cx="2" cy="2" r="2" transform="matrix(0.141675 -0.989913 -0.989913 -0.141675 148.96 186.526)" fill="#8FB9F9"/>
<circle cx="2" cy="2" r="2" transform="matrix(0.141675 -0.989913 -0.989913 -0.141675 175.96 208.526)" fill="#8FB9F9"/>
<circle cx="2" cy="2" r="2" transform="matrix(0.141675 -0.989913 -0.989913 -0.141675 104.22 184.222)" fill="#F98F8F"/>
<circle cx="2" cy="2" r="2" transform="matrix(0.141675 -0.989913 -0.989913 -0.141675 174.96 202.526)" fill="#8FB9F9"/>
<circle cx="2" cy="2" r="2" transform="matrix(0.141675 -0.989913 -0.989913 -0.141675 187.96 204.526)" fill="#8FB9F9"/>
<circle cx="2" cy="2" r="2" transform="matrix(0.141675 -0.989913 -0.989913 -0.141675 151.483 176.269)" fill="#8FB9F9"/>
<circle cx="2" cy="2" r="2" transform="matrix(0.141675 -0.989913 -0.989913 -0.141675 140.96 191.526)" fill="#8FB9F9"/>
<circle cx="2" cy="2" r="2" transform="matrix(0.141675 -0.989913 -0.989913 -0.141675 137.96 178.526)" fill="#8FB9F9"/>
<circle cx="2" cy="2" r="2" transform="matrix(0.141675 -0.989913 -0.989913 -0.141675 158.96 187.526)" fill="#8FB9F9"/>
<circle cx="2" cy="2" r="2" transform="matrix(0.141675 -0.989913 -0.989913 -0.141675 170.96 177.526)" fill="#8FB9F9"/>
<circle cx="2" cy="2" r="2" transform="matrix(0.141675 -0.989913 -0.989913 -0.141675 167.96 194.526)" fill="#8FB9F9"/>
<circle cx="2" cy="2" r="2" transform="matrix(0.141675 -0.989913 -0.989913 -0.141675 160.96 199.526)" fill="#8FB9F9"/>
<circle cx="2" cy="2" r="2" transform="matrix(0.141675 -0.989913 -0.989913 -0.141675 140.96 198.526)" fill="#8FB9F9"/>
<circle cx="2" cy="2" r="2" transform="matrix(0.141675 -0.989913 -0.989913 -0.141675 156.96 170.526)" fill="#8FB9F9"/>
<circle cx="2" cy="2" r="2" transform="matrix(0.141675 -0.989913 -0.989913 -0.141675 149.96 196.526)" fill="#8FB9F9"/>
<circle cx="2" cy="2" r="2" transform="matrix(0.141675 -0.989913 -0.989913 -0.141675 160.96 178.526)" fill="#8FB9F9"/>
<circle cx="2" cy="2" r="2" transform="matrix(0.141675 -0.989913 -0.989913 -0.141675 145.96 206.526)" fill="#8FB9F9"/>
<circle cx="2" cy="2" r="2" transform="matrix(0.141675 -0.989913 -0.989913 -0.141675 133.96 203.526)" fill="#8FB9F9"/>
<circle cx="2" cy="2" r="2" transform="matrix(0.141675 -0.989913 -0.989913 -0.141675 87.8219 157.63)" fill="#F98F8F"/>
<circle cx="2" cy="2" r="2" transform="matrix(0.141675 -0.989913 -0.989913 -0.141675 96.1681 148.723)" fill="#F98F8F"/>
<path d="M202.066 215.795C210.039 234.406 213.532 252.825 212.754 267.546C211.973 282.303 206.921 293.173 198.002 296.994C189.082 300.815 177.728 296.973 166.507 287.357C155.313 277.764 144.389 262.529 136.417 243.917C128.444 225.306 124.951 206.887 125.729 192.166C126.51 177.408 131.562 166.539 140.481 162.718C149.401 158.897 160.755 162.739 171.976 172.355C183.17 181.948 194.094 197.183 202.066 215.795Z" stroke="black"/>
<rect x="103" y="210" width="104" height="15" fill="#F4F1DE"/>
</g>
<defs>
<clipPath id="clip0_16_981">
<rect width="225" height="225" fill="white"/>
</clipPath>
</defs>
</svg>
