<svg width="325" height="225" viewBox="0 0 325 225" fill="none" xmlns="http://www.w3.org/2000/svg">
<g clip-path="url(#clip0_10_38)">
<rect width="325" height="225" fill="#F4F1DE"/>
<rect width="325" height="225" fill="#F4F1DE"/>
<circle cx="43.5" cy="43.5" r="22.3192" stroke="#1C1A1A" stroke-width="0.361538"/>
<circle cx="172.5" cy="78.5" r="22.3192" stroke="#1C1A1A" stroke-width="0.361538"/>
<circle cx="173" cy="25" r="15.8715" stroke="#1C1A1A" stroke-width="0.257094"/>
<circle cx="172.5" cy="139.5" r="22.3192" stroke="#1C1A1A" stroke-width="0.361538"/>
<circle cx="43.5" cy="112.5" r="22.3192" stroke="#1C1A1A" stroke-width="0.361538"/>
<circle cx="43.5" cy="181.5" r="22.3192" stroke="#1C1A1A" stroke-width="0.361538"/>
<path d="M150.19 78.4623C150.446 78.3572 150.567 78.065 150.462 77.8096L148.749 73.6486C148.644 73.3932 148.352 73.2715 148.096 73.3766C147.841 73.4818 147.719 73.774 147.824 74.0293L149.347 77.728L145.649 79.251C145.393 79.3562 145.271 79.6484 145.377 79.9037C145.482 80.1591 145.774 80.2809 146.029 80.1757L150.19 78.4623ZM65.8077 43.4615L149.808 78.4615L150.192 77.5385L66.1923 42.5385L65.8077 43.4615Z" fill="#5F5F5F"/>
<path d="M172.646 56.3536C172.842 56.5488 173.158 56.5488 173.354 56.3536L176.536 53.1716C176.731 52.9763 176.731 52.6597 176.536 52.4645C176.34 52.2692 176.024 52.2692 175.828 52.4645L173 55.2929L170.172 52.4645C169.976 52.2692 169.66 52.2692 169.464 52.4645C169.269 52.6597 169.269 52.9763 169.464 53.1716L172.646 56.3536ZM172.5 41V41.9375H173.5V41H172.5ZM172.5 43.8125V45.6875H173.5V43.8125H172.5ZM172.5 47.5625V49.4375H173.5V47.5625H172.5ZM172.5 51.3125V53.1875H173.5V51.3125H172.5ZM172.5 55.0625V56H173.5V55.0625H172.5ZM172.646 56.3536C172.842 56.5488 173.158 56.5488 173.354 56.3536L176.536 53.1716C176.731 52.9763 176.731 52.6597 176.536 52.4645C176.34 52.2692 176.024 52.2692 175.828 52.4645L173 55.2929L170.172 52.4645C169.976 52.2692 169.66 52.2692 169.464 52.4645C169.269 52.6597 169.269 52.9763 169.464 53.1716L172.646 56.3536ZM172.5 41V41.9375H173.5V41H172.5ZM172.5 43.8125V45.6875H173.5V43.8125H172.5ZM172.5 47.5625V49.4375H173.5V47.5625H172.5ZM172.5 51.3125V53.1875H173.5V51.3125H172.5ZM172.5 55.0625V56H173.5V55.0625H172.5Z" fill="#5F5F5F"/>
<path d="M149.967 139.499C150.242 139.517 150.481 139.309 150.499 139.033L150.798 134.543C150.817 134.268 150.608 134.029 150.333 134.011C150.057 133.993 149.819 134.201 149.8 134.477L149.534 138.468L145.543 138.202C145.268 138.183 145.029 138.392 145.011 138.667C144.993 138.943 145.201 139.181 145.477 139.2L149.967 139.499ZM65.6237 43.3293L149.624 139.329L150.376 138.671L66.3763 42.6707L65.6237 43.3293Z" fill="#5F5F5F"/>
<path d="M150.46 78.1951C150.568 77.9408 150.449 77.6474 150.195 77.5396L146.052 75.784C145.797 75.6762 145.504 75.795 145.396 76.0493C145.288 76.3035 145.407 76.597 145.662 76.7047L149.345 78.2653L147.784 81.9483C147.676 82.2026 147.795 82.496 148.049 82.6038C148.304 82.7115 148.597 82.5927 148.705 82.3385L150.46 78.1951ZM66.1876 112.463L150.188 78.4635L149.812 77.5365L65.8124 111.537L66.1876 112.463Z" fill="#5F5F5F"/>
<path d="M150.228 139.445C150.474 139.319 150.571 139.017 150.445 138.772L148.389 134.769C148.263 134.523 147.962 134.426 147.716 134.552C147.47 134.678 147.373 134.98 147.5 135.225L149.327 138.784L145.769 140.611C145.523 140.737 145.426 141.038 145.552 141.284C145.678 141.53 145.98 141.627 146.225 141.5L150.228 139.445ZM65.847 112.476L149.847 139.476L150.153 138.524L66.153 111.524L65.847 112.476Z" fill="#5F5F5F"/>
<path d="M150.497 77.9495C150.47 77.6747 150.224 77.4747 149.949 77.5026L145.473 77.9574C145.198 77.9854 144.998 78.2307 145.026 78.5054C145.054 78.7801 145.299 78.9802 145.574 78.9523L149.553 78.548L149.957 82.5275C149.985 82.8022 150.231 83.0023 150.505 82.9744C150.78 82.9465 150.98 82.7011 150.952 82.4264L150.497 77.9495ZM66.3875 181.316L150.387 78.316L149.613 77.684L65.6125 180.684L66.3875 181.316Z" fill="#5F5F5F"/>
<path d="M249.354 83.3536C249.549 83.1583 249.549 82.8417 249.354 82.6464L246.172 79.4645C245.976 79.2692 245.66 79.2692 245.464 79.4645C245.269 79.6597 245.269 79.9763 245.464 80.1716L248.293 83L245.464 85.8284C245.269 86.0237 245.269 86.3403 245.464 86.5355C245.66 86.7308 245.976 86.7308 246.172 86.5355L249.354 83.3536ZM195 83.5H249V82.5H195V83.5Z" fill="#5F5F5F"/>
<path d="M249.354 139.354C249.549 139.158 249.549 138.842 249.354 138.646L246.172 135.464C245.976 135.269 245.66 135.269 245.464 135.464C245.269 135.66 245.269 135.976 245.464 136.172L248.293 139L245.464 141.828C245.269 142.024 245.269 142.34 245.464 142.536C245.66 142.731 245.976 142.731 246.172 142.536L249.354 139.354ZM195 139.5H249V138.5H195V139.5Z" fill="#5F5F5F"/>
<path d="M248.991 139.5C249.267 139.505 249.495 139.285 249.5 139.009L249.582 134.51C249.587 134.234 249.367 134.006 249.091 134.001C248.815 133.996 248.587 134.216 248.582 134.492L248.509 138.491L244.51 138.418C244.234 138.413 244.006 138.633 244.001 138.909C243.996 139.185 244.216 139.413 244.492 139.418L248.991 139.5ZM194.64 83.3471L248.64 139.347L249.36 138.653L195.36 82.6529L194.64 83.3471Z" fill="#5F5F5F"/>
<path d="M249.5 82.9909C249.495 82.7148 249.267 82.4951 248.991 82.5001L244.492 82.5819C244.216 82.5869 243.996 82.8148 244.001 83.0909C244.006 83.367 244.234 83.5867 244.51 83.5817L248.509 83.509L248.582 87.5083C248.587 87.7844 248.815 88.0042 249.091 87.9992C249.367 87.9942 249.587 87.7663 249.582 87.4902L249.5 82.9909ZM195.36 139.347L249.36 83.3471L248.64 82.6529L194.64 138.653L195.36 139.347Z" fill="#5F5F5F"/>
<path d="M149.475 139.156C149.561 138.893 149.418 138.611 149.156 138.525L144.88 137.122C144.618 137.036 144.335 137.179 144.249 137.442C144.163 137.704 144.306 137.987 144.568 138.073L148.369 139.319L147.122 143.12C147.036 143.382 147.179 143.665 147.442 143.751C147.704 143.837 147.987 143.694 148.073 143.432L149.475 139.156ZM66.2258 181.446L149.226 139.446L148.774 138.554L65.7742 180.554L66.2258 181.446Z" fill="#5F5F5F"/>
<path d="M41.8984 46.0936C41.8568 46.1144 41.8152 46.1248 41.7736 46.1248C41.6384 46.1248 41.5084 46.0156 41.3836 45.7972C41.2588 45.5684 41.1964 45.2408 41.1964 44.8144V42.022C41.1964 41.5332 41.1496 41.1536 41.056 40.8832C40.9728 40.6128 40.8532 40.4256 40.6972 40.3216C40.5516 40.2176 40.3852 40.1656 40.198 40.1656C39.938 40.1656 39.7248 40.2332 39.5584 40.3684C39.392 40.4932 39.2672 40.6544 39.184 40.852C39.1008 41.0496 39.0436 41.2472 39.0124 41.4448C39.002 41.5904 38.9552 41.7256 38.872 41.8504C38.7992 41.9752 38.6536 42.0376 38.4352 42.0376C38.2688 42.0376 38.1388 41.996 38.0452 41.9128C37.9516 41.8296 37.9048 41.7152 37.9048 41.5696C37.9048 41.3824 37.9984 41.19 38.1856 40.9924C38.3728 40.7844 38.6068 40.5972 38.8876 40.4308C39.1788 40.254 39.4804 40.1136 39.7924 40.0096C40.1148 39.8952 40.4164 39.838 40.6972 39.838C41.0924 39.838 41.42 39.9784 41.68 40.2592C41.94 40.5296 42.07 40.9612 42.07 41.554V44.3152C42.07 44.6792 42.1168 44.9444 42.2104 45.1108C42.304 45.2772 42.4548 45.3604 42.6628 45.3604C42.85 45.3604 43.11 45.2928 43.4428 45.1576C43.4948 45.1368 43.5312 45.1576 43.552 45.22C43.5728 45.272 43.5572 45.3084 43.5052 45.3292L41.8984 46.0936ZM38.8408 46.1092C38.508 46.1092 38.2584 46.0208 38.092 45.844C37.9256 45.6568 37.8424 45.4436 37.8424 45.2044C37.8424 44.9132 37.9568 44.6844 38.1856 44.518C38.4144 44.3412 38.7888 44.1644 39.3088 43.9876L41.3524 43.2544L41.3992 43.426L39.5896 44.1124C39.3504 44.206 39.1788 44.31 39.0748 44.4244C38.9812 44.5388 38.9344 44.6844 38.9344 44.8612C38.9344 45.0796 38.9968 45.2512 39.1216 45.376C39.2464 45.4904 39.4076 45.5476 39.6052 45.5476C39.7196 45.5476 39.8288 45.5372 39.9328 45.5164C40.0368 45.4852 40.1408 45.4436 40.2448 45.3916L41.5708 44.7208L41.602 44.908L40.2448 45.6412C39.9328 45.7972 39.6728 45.9168 39.4648 46C39.2568 46.0728 39.0488 46.1092 38.8408 46.1092ZM44.3935 46C44.3623 46 44.3467 45.9688 44.3467 45.9064C44.3467 45.844 44.3623 45.8128 44.3935 45.8128C44.8199 45.8128 45.1423 45.7868 45.3607 45.7348C45.5895 45.6828 45.7403 45.5788 45.8131 45.4228C45.8859 45.2668 45.9223 45.038 45.9223 44.7364V41.8348C45.9223 41.4188 45.8911 41.1276 45.8287 40.9612C45.7663 40.7948 45.6207 40.7324 45.3919 40.774C45.1735 40.8052 44.8355 40.93 44.3779 41.1484C44.3363 41.1588 44.2999 41.138 44.2687 41.086C44.2479 41.0236 44.2583 40.9872 44.2999 40.9768L46.6555 39.838C46.6971 39.8172 46.7335 39.8224 46.7647 39.8536C46.7959 39.8848 46.8115 39.916 46.8115 39.9472V44.7364C46.8115 45.038 46.8427 45.2668 46.9051 45.4228C46.9779 45.5788 47.1235 45.6828 47.3419 45.7348C47.5603 45.7868 47.8879 45.8128 48.3247 45.8128C48.3559 45.8128 48.3715 45.844 48.3715 45.9064C48.3715 45.9688 48.3559 46 48.3247 46C48.0647 46 47.7683 45.9948 47.4355 45.9844C47.1027 45.974 46.7439 45.9688 46.3591 45.9688C45.9951 45.9688 45.6415 45.974 45.2983 45.9844C44.9655 45.9948 44.6639 46 44.3935 46Z" fill="black"/>
<path d="M172.724 76.9784C172.755 76.9784 172.77 77.0096 172.77 77.072C172.77 77.1344 172.755 77.1656 172.724 77.1656C172.464 77.1656 172.24 77.254 172.053 77.4308C171.866 77.6076 171.689 77.9196 171.522 78.3668L169.619 83.4368C169.245 84.4352 168.886 85.2204 168.543 85.7924C168.2 86.3748 167.841 86.7856 167.466 87.0248C167.102 87.264 166.697 87.3836 166.25 87.3836C166.031 87.3836 165.844 87.3316 165.688 87.2276C165.532 87.134 165.454 86.9832 165.454 86.7752C165.454 86.6192 165.506 86.4996 165.61 86.4164C165.704 86.3436 165.813 86.3072 165.938 86.3072C166.146 86.3072 166.302 86.3384 166.406 86.4008C166.51 86.4632 166.614 86.5256 166.718 86.588C166.822 86.6504 166.957 86.6816 167.123 86.6816C167.373 86.6816 167.612 86.562 167.841 86.3228C168.08 86.094 168.335 85.6988 168.605 85.1372C168.876 84.5756 169.193 83.8112 169.557 82.844L169.541 83.2808L167.076 78.2732C166.848 77.8156 166.666 77.5192 166.53 77.384C166.406 77.2384 166.244 77.1656 166.047 77.1656C166.026 77.1656 166.016 77.1344 166.016 77.072C166.016 77.0096 166.026 76.9784 166.047 76.9784C166.213 76.9784 166.385 76.9836 166.562 76.994C166.749 77.0044 166.926 77.0096 167.092 77.0096C167.435 77.0096 167.737 77.0044 167.997 76.994C168.257 76.9836 168.491 76.9784 168.699 76.9784C168.72 76.9784 168.73 77.0096 168.73 77.072C168.73 77.1344 168.72 77.1656 168.699 77.1656C168.366 77.1656 168.111 77.2072 167.934 77.2904C167.768 77.3736 167.747 77.5348 167.872 77.774L170.009 82.1732L169.65 82.8128L171.179 78.4136C171.335 77.9456 171.33 77.6232 171.164 77.4464C171.008 77.2592 170.654 77.1656 170.103 77.1656C170.082 77.1656 170.072 77.1344 170.072 77.072C170.072 77.0096 170.082 76.9784 170.103 76.9784C170.352 76.9784 170.586 76.9836 170.805 76.994C171.034 77.0044 171.325 77.0096 171.678 77.0096C171.907 77.0096 172.089 77.0044 172.224 76.994C172.37 76.9836 172.536 76.9784 172.724 76.9784ZM173.637 83C173.606 83 173.59 82.9688 173.59 82.9064C173.59 82.844 173.606 82.8128 173.637 82.8128C174.064 82.8128 174.386 82.7868 174.604 82.7348C174.833 82.6828 174.984 82.5788 175.057 82.4228C175.13 82.2668 175.166 82.038 175.166 81.7364V78.8348C175.166 78.4188 175.135 78.1276 175.072 77.9612C175.01 77.7948 174.864 77.7324 174.636 77.774C174.417 77.8052 174.079 77.93 173.622 78.1484C173.58 78.1588 173.544 78.138 173.512 78.086C173.492 78.0236 173.502 77.9872 173.544 77.9768L175.899 76.838C175.941 76.8172 175.977 76.8224 176.008 76.8536C176.04 76.8848 176.055 76.916 176.055 76.9472V81.7364C176.055 82.038 176.086 82.2668 176.149 82.4228C176.222 82.5788 176.367 82.6828 176.586 82.7348C176.804 82.7868 177.132 82.8128 177.568 82.8128C177.6 82.8128 177.615 82.844 177.615 82.9064C177.615 82.9688 177.6 83 177.568 83C177.308 83 177.012 82.9948 176.679 82.9844C176.346 82.974 175.988 82.9688 175.603 82.9688C175.239 82.9688 174.885 82.974 174.542 82.9844C174.209 82.9948 173.908 83 173.637 83Z" fill="black"/>
<path d="M170.819 29.1449C170.529 29.1449 170.243 29.0966 169.961 29C169.679 28.9109 169.408 28.7549 169.148 28.532L169.671 27.5403C169.671 27.882 169.757 28.1569 169.928 28.3649C170.099 28.5654 170.299 28.7103 170.529 28.7994C170.767 28.8886 170.979 28.9331 171.165 28.9331C171.595 28.9331 171.93 28.766 172.167 28.4317C172.413 28.0974 172.535 27.6183 172.535 26.9943C172.535 26.3034 172.401 25.7871 172.134 25.4454C171.867 25.0963 171.525 24.9217 171.109 24.9217C170.804 24.9217 170.522 25.0183 170.262 25.2114C170.002 25.3971 169.761 25.6089 169.538 25.8466L169.449 25.7686C169.605 25.5977 169.779 25.4194 169.972 25.2337C170.165 25.0406 170.385 24.8809 170.63 24.7546C170.882 24.6209 171.165 24.554 171.477 24.554C171.796 24.554 172.089 24.632 172.357 24.788C172.624 24.9366 172.843 25.1631 173.014 25.4677C173.185 25.7723 173.271 26.1549 173.271 26.6154C173.271 27.18 173.148 27.6517 172.903 28.0306C172.665 28.402 172.357 28.6806 171.978 28.8663C171.607 29.052 171.22 29.1449 170.819 29.1449ZM168.457 29.0557C168.427 29.0631 168.405 29.0483 168.39 29.0111C168.375 28.9814 168.379 28.9591 168.401 28.9443C168.617 28.7957 168.776 28.6509 168.88 28.5097C168.992 28.3686 169.047 28.1494 169.047 27.8523V22.3477C169.047 22.0803 169.021 21.8871 168.969 21.7683C168.917 21.6494 168.821 21.59 168.68 21.59C168.561 21.59 168.394 21.6383 168.178 21.7349C168.149 21.7497 168.123 21.7349 168.1 21.6903C168.085 21.6457 168.093 21.6197 168.123 21.6123L169.515 20.9326C169.538 20.9251 169.556 20.9214 169.571 20.9214C169.593 20.9214 169.616 20.9326 169.638 20.9549C169.66 20.9697 169.671 20.9883 169.671 21.0106V28.4874L168.457 29.0557ZM174.293 29C174.271 29 174.26 28.9777 174.26 28.9331C174.26 28.8886 174.271 28.8663 174.293 28.8663C174.598 28.8663 174.828 28.8477 174.984 28.8106C175.147 28.7734 175.255 28.6991 175.307 28.5877C175.359 28.4763 175.385 28.3129 175.385 28.0974V26.0249C175.385 25.7277 175.363 25.5197 175.318 25.4009C175.274 25.282 175.17 25.2374 175.006 25.2671C174.85 25.2894 174.609 25.3786 174.282 25.5346C174.252 25.542 174.226 25.5271 174.204 25.49C174.189 25.4454 174.197 25.4194 174.226 25.412L175.909 24.5986C175.939 24.5837 175.965 24.5874 175.987 24.6097C176.009 24.632 176.02 24.6543 176.02 24.6766V28.0974C176.02 28.3129 176.043 28.4763 176.087 28.5877C176.139 28.6991 176.243 28.7734 176.399 28.8106C176.555 28.8477 176.789 28.8663 177.101 28.8663C177.123 28.8663 177.135 28.8886 177.135 28.9331C177.135 28.9777 177.123 29 177.101 29C176.915 29 176.704 28.9963 176.466 28.9889C176.228 28.9814 175.972 28.9777 175.697 28.9777C175.437 28.9777 175.185 28.9814 174.939 28.9889C174.702 28.9963 174.486 29 174.293 29Z" fill="black"/>
<circle cx="16" cy="16" r="15.8715" transform="matrix(1 0 0 -1 156 210)" stroke="#1C1A1A" stroke-width="0.257094"/>
<path d="M171.646 162.646C171.842 162.451 172.158 162.451 172.354 162.646L175.536 165.828C175.731 166.024 175.731 166.34 175.536 166.536C175.34 166.731 175.024 166.731 174.828 166.536L172 163.707L169.172 166.536C168.976 166.731 168.66 166.731 168.464 166.536C168.269 166.34 168.269 166.024 168.464 165.828L171.646 162.646ZM171.5 178V177.062H172.5V178H171.5ZM171.5 175.187V173.312H172.5V175.187H171.5ZM171.5 171.437V169.562H172.5V171.437H171.5ZM171.5 167.687V165.812H172.5V167.687H171.5ZM171.5 163.937V163H172.5V163.937H171.5ZM171.646 162.646C171.842 162.451 172.158 162.451 172.354 162.646L175.536 165.828C175.731 166.024 175.731 166.34 175.536 166.536C175.34 166.731 175.024 166.731 174.828 166.536L172 163.707L169.172 166.536C168.976 166.731 168.66 166.731 168.464 166.536C168.269 166.34 168.269 166.024 168.464 165.828L171.646 162.646ZM171.5 178V177.062H172.5V178H171.5ZM171.5 175.187V173.312H172.5V175.187H171.5ZM171.5 171.437V169.562H172.5V171.437H171.5ZM171.5 167.687V165.812H172.5V167.687H171.5ZM171.5 163.937V163H172.5V163.937H171.5Z" fill="#5F5F5F"/>
<path d="M76.0919 42.9908L74.7988 40.2012C74.6756 39.9241 74.574 39.7456 74.4939 39.6655C74.4139 39.5854 74.3154 39.5454 74.1984 39.5454C74.1861 39.5454 74.1799 39.5269 74.1799 39.49C74.1799 39.4531 74.1861 39.4346 74.1984 39.4346C74.2907 39.4346 74.3893 39.4377 74.4939 39.4438C74.5986 39.45 74.7064 39.4531 74.8172 39.4531C75.0266 39.4531 75.2052 39.45 75.353 39.4438C75.5069 39.4377 75.6455 39.4346 75.7686 39.4346C75.7871 39.4346 75.7963 39.4531 75.7963 39.49C75.7963 39.5269 75.7871 39.5454 75.7686 39.5454C75.5839 39.5454 75.4361 39.5701 75.3253 39.6193C75.2206 39.6686 75.2021 39.764 75.2698 39.9057L76.4522 42.4273L76.1935 42.7968L77.265 40.1735C77.3574 39.9518 77.3512 39.7917 77.2465 39.6932C77.1418 39.5947 76.9263 39.5454 76.5999 39.5454C76.5876 39.5454 76.5815 39.5269 76.5815 39.49C76.5815 39.4531 76.5876 39.4346 76.5999 39.4346C76.7477 39.4346 76.8863 39.4377 77.0156 39.4438C77.1511 39.45 77.3235 39.4531 77.5329 39.4531C77.6683 39.4531 77.7761 39.45 77.8562 39.4438C77.9362 39.4377 78.0347 39.4346 78.1517 39.4346C78.1702 39.4346 78.1794 39.4531 78.1794 39.49C78.1794 39.5269 78.1702 39.5454 78.1517 39.5454C78.0039 39.5454 77.8777 39.5947 77.773 39.6932C77.6683 39.7856 77.5606 39.9611 77.4497 40.2197L76.2951 42.9908C76.289 43.0154 76.2551 43.0277 76.1935 43.0277C76.1381 43.0277 76.1042 43.0154 76.0919 42.9908ZM73.912 42.9908L72.6189 40.2012C72.4896 39.9241 72.3818 39.7456 72.2956 39.6655C72.2155 39.5854 72.117 39.5454 72 39.5454C71.9815 39.5454 71.9723 39.5269 71.9723 39.49C71.9723 39.4531 71.9815 39.4346 72 39.4346C72.0924 39.4346 72.1909 39.4377 72.2956 39.4438C72.4064 39.45 72.5203 39.4531 72.6373 39.4531C72.8344 39.4531 73.0068 39.45 73.1546 39.4438C73.3086 39.4377 73.4533 39.4346 73.5887 39.4346C73.6072 39.4346 73.6164 39.4531 73.6164 39.49C73.6164 39.5269 73.6072 39.5454 73.5887 39.5454C73.3917 39.5454 73.2408 39.5701 73.1361 39.6193C73.0376 39.6686 73.0222 39.764 73.0899 39.9057L74.2815 42.4273L74.0044 42.7968L75.0112 40.3675L75.1682 40.4691L74.1152 42.9908C74.1091 43.0154 74.0752 43.0277 74.0136 43.0277C73.9582 43.0277 73.9243 43.0154 73.912 42.9908ZM78.705 43C78.6865 43 78.6773 42.9815 78.6773 42.9446C78.6773 42.9076 78.6865 42.8892 78.705 42.8892C78.9575 42.8892 79.1484 42.8738 79.2777 42.843C79.4132 42.8122 79.5025 42.7506 79.5456 42.6582C79.5887 42.5659 79.6102 42.4304 79.6102 42.2518V40.5338C79.6102 40.2874 79.5917 40.115 79.5548 40.0165C79.5179 39.918 79.4316 39.881 79.2962 39.9057C79.1669 39.9241 78.9667 39.998 78.6958 40.1273C78.6711 40.1335 78.6496 40.1212 78.6311 40.0904C78.6188 40.0534 78.625 40.0319 78.6496 40.0257L80.0444 39.3514C80.069 39.3391 80.0905 39.3422 80.109 39.3607C80.1275 39.3792 80.1367 39.3976 80.1367 39.4161V42.2518C80.1367 42.4304 80.1552 42.5659 80.1921 42.6582C80.2352 42.7506 80.3215 42.8122 80.4508 42.843C80.5801 42.8738 80.7741 42.8892 81.0327 42.8892C81.0512 42.8892 81.0604 42.9076 81.0604 42.9446C81.0604 42.9815 81.0512 43 81.0327 43C80.8787 43 80.7032 42.9969 80.5062 42.9908C80.3091 42.9846 80.0967 42.9815 79.8689 42.9815C79.6533 42.9815 79.444 42.9846 79.2407 42.9908C79.0437 42.9969 78.8651 43 78.705 43ZM81.7719 43C81.7535 43 81.7442 42.9815 81.7442 42.9446C81.7442 42.9076 81.7535 42.8892 81.7719 42.8892C82.0244 42.8892 82.2153 42.8738 82.3446 42.843C82.4801 42.8122 82.5694 42.7506 82.6125 42.6582C82.6556 42.5659 82.6771 42.4304 82.6771 42.2518V40.5338C82.6771 40.2874 82.6587 40.115 82.6217 40.0165C82.5848 39.918 82.4986 39.881 82.3631 39.9057C82.2338 39.9241 82.0336 39.998 81.7627 40.1273C81.7381 40.1335 81.7165 40.1212 81.698 40.0904C81.6857 40.0534 81.6919 40.0319 81.7165 40.0257L83.1113 39.3514C83.1359 39.3391 83.1575 39.3422 83.1759 39.3607C83.1944 39.3792 83.2036 39.3976 83.2036 39.4161V42.2518C83.2036 42.4304 83.2221 42.5659 83.2591 42.6582C83.3022 42.7506 83.3884 42.8122 83.5177 42.843C83.647 42.8738 83.841 42.8892 84.0996 42.8892C84.1181 42.8892 84.1273 42.9076 84.1273 42.9446C84.1273 42.9815 84.1181 43 84.0996 43C83.9457 43 83.7702 42.9969 83.5731 42.9908C83.3761 42.9846 83.1636 42.9815 82.9358 42.9815C82.7202 42.9815 82.5109 42.9846 82.3077 42.9908C82.1106 42.9969 81.932 43 81.7719 43Z" fill="black"/>
<path d="M204.981 74.4346C204.993 74.4346 205 74.4531 205 74.49C205 74.5269 204.993 74.5454 204.981 74.5454C204.827 74.5454 204.695 74.5947 204.584 74.6932C204.479 74.7856 204.375 74.9611 204.27 75.2197L203.115 77.9908C203.109 78.0154 203.075 78.0277 203.014 78.0277C202.958 78.0277 202.924 78.0154 202.912 77.9908L201.619 75.2012C201.49 74.9241 201.382 74.7456 201.296 74.6655C201.216 74.5854 201.117 74.5454 201 74.5454C200.982 74.5454 200.972 74.5269 200.972 74.49C200.972 74.4531 200.982 74.4346 201 74.4346C201.092 74.4346 201.191 74.4377 201.296 74.4438C201.406 74.45 201.52 74.4531 201.637 74.4531C201.847 74.4531 202.028 74.45 202.182 74.4438C202.336 74.4377 202.478 74.4346 202.607 74.4346C202.626 74.4346 202.635 74.4531 202.635 74.49C202.635 74.5269 202.626 74.5454 202.607 74.5454C202.416 74.5454 202.265 74.5701 202.155 74.6193C202.044 74.6624 202.022 74.7579 202.09 74.9057L203.272 77.4181L203.004 77.7968L204.085 75.1735C204.177 74.9518 204.168 74.7917 204.057 74.6932C203.953 74.5947 203.74 74.5454 203.42 74.5454C203.408 74.5454 203.402 74.5269 203.402 74.49C203.402 74.4531 203.408 74.4346 203.42 74.4346C203.568 74.4346 203.706 74.4377 203.836 74.4438C203.971 74.45 204.144 74.4531 204.353 74.4531C204.482 74.4531 204.587 74.45 204.667 74.4438C204.753 74.4377 204.858 74.4346 204.981 74.4346ZM205.513 78C205.495 78 205.485 77.9815 205.485 77.9446C205.485 77.9076 205.495 77.8892 205.513 77.8892C205.766 77.8892 205.956 77.8738 206.086 77.843C206.221 77.8122 206.311 77.7506 206.354 77.6582C206.397 77.5659 206.418 77.4304 206.418 77.2518V75.5338C206.418 75.2874 206.4 75.115 206.363 75.0165C206.326 74.918 206.24 74.881 206.104 74.9057C205.975 74.9241 205.775 74.998 205.504 75.1273C205.479 75.1335 205.458 75.1212 205.439 75.0904C205.427 75.0534 205.433 75.0319 205.458 75.0257L206.852 74.3514C206.877 74.3391 206.899 74.3422 206.917 74.3607C206.936 74.3792 206.945 74.3976 206.945 74.4161V77.2518C206.945 77.4304 206.963 77.5659 207 77.6582C207.043 77.7506 207.13 77.8122 207.259 77.843C207.388 77.8738 207.582 77.8892 207.841 77.8892C207.859 77.8892 207.868 77.9076 207.868 77.9446C207.868 77.9815 207.859 78 207.841 78C207.687 78 207.511 77.9969 207.314 77.9908C207.117 77.9846 206.905 77.9815 206.677 77.9815C206.461 77.9815 206.252 77.9846 206.049 77.9908C205.852 77.9969 205.673 78 205.513 78ZM208.58 78C208.562 78 208.552 77.9815 208.552 77.9446C208.552 77.9076 208.562 77.8892 208.58 77.8892C208.832 77.8892 209.023 77.8738 209.153 77.843C209.288 77.8122 209.377 77.7506 209.421 77.6582C209.464 77.5659 209.485 77.4304 209.485 77.2518V75.5338C209.485 75.2874 209.467 75.115 209.43 75.0165C209.393 74.918 209.307 74.881 209.171 74.9057C209.042 74.9241 208.842 74.998 208.571 75.1273C208.546 75.1335 208.525 75.1212 208.506 75.0904C208.494 75.0534 208.5 75.0319 208.525 75.0257L209.919 74.3514C209.944 74.3391 209.966 74.3422 209.984 74.3607C210.002 74.3792 210.012 74.3976 210.012 74.4161V77.2518C210.012 77.4304 210.03 77.5659 210.067 77.6582C210.11 77.7506 210.196 77.8122 210.326 77.843C210.455 77.8738 210.649 77.8892 210.908 77.8892C210.926 77.8892 210.935 77.9076 210.935 77.9446C210.935 77.9815 210.926 78 210.908 78C210.754 78 210.578 77.9969 210.381 77.9908C210.184 77.9846 209.972 77.9815 209.744 77.9815C209.528 77.9815 209.319 77.9846 209.116 77.9908C208.919 77.9969 208.74 78 208.58 78Z" fill="black"/>
<path d="M194.981 94.4346C194.993 94.4346 195 94.4531 195 94.49C195 94.5269 194.993 94.5454 194.981 94.5454C194.827 94.5454 194.695 94.5947 194.584 94.6932C194.479 94.7856 194.375 94.9611 194.27 95.2197L193.115 97.9908C193.109 98.0154 193.075 98.0277 193.014 98.0277C192.958 98.0277 192.924 98.0154 192.912 97.9908L191.619 95.2012C191.49 94.9241 191.382 94.7456 191.296 94.6655C191.216 94.5854 191.117 94.5454 191 94.5454C190.982 94.5454 190.972 94.5269 190.972 94.49C190.972 94.4531 190.982 94.4346 191 94.4346C191.092 94.4346 191.191 94.4377 191.296 94.4438C191.406 94.45 191.52 94.4531 191.637 94.4531C191.847 94.4531 192.028 94.45 192.182 94.4438C192.336 94.4377 192.478 94.4346 192.607 94.4346C192.626 94.4346 192.635 94.4531 192.635 94.49C192.635 94.5269 192.626 94.5454 192.607 94.5454C192.416 94.5454 192.265 94.5701 192.155 94.6193C192.044 94.6624 192.022 94.7579 192.09 94.9057L193.272 97.4181L193.004 97.7968L194.085 95.1735C194.177 94.9518 194.168 94.7917 194.057 94.6932C193.953 94.5947 193.74 94.5454 193.42 94.5454C193.408 94.5454 193.402 94.5269 193.402 94.49C193.402 94.4531 193.408 94.4346 193.42 94.4346C193.568 94.4346 193.706 94.4377 193.836 94.4438C193.971 94.45 194.144 94.4531 194.353 94.4531C194.482 94.4531 194.587 94.45 194.667 94.4438C194.753 94.4377 194.858 94.4346 194.981 94.4346ZM195.513 98C195.495 98 195.485 97.9815 195.485 97.9446C195.485 97.9076 195.495 97.8892 195.513 97.8892C195.766 97.8892 195.956 97.8738 196.086 97.843C196.221 97.8122 196.311 97.7506 196.354 97.6582C196.397 97.5659 196.418 97.4304 196.418 97.2518V95.5338C196.418 95.2874 196.4 95.115 196.363 95.0165C196.326 94.918 196.24 94.881 196.104 94.9057C195.975 94.9241 195.775 94.998 195.504 95.1273C195.479 95.1335 195.458 95.1212 195.439 95.0904C195.427 95.0534 195.433 95.0319 195.458 95.0257L196.852 94.3514C196.877 94.3391 196.899 94.3422 196.917 94.3607C196.936 94.3792 196.945 94.3976 196.945 94.4161V97.2518C196.945 97.4304 196.963 97.5659 197 97.6582C197.043 97.7506 197.13 97.8122 197.259 97.843C197.388 97.8738 197.582 97.8892 197.841 97.8892C197.859 97.8892 197.868 97.9076 197.868 97.9446C197.868 97.9815 197.859 98 197.841 98C197.687 98 197.511 97.9969 197.314 97.9908C197.117 97.9846 196.905 97.9815 196.677 97.9815C196.461 97.9815 196.252 97.9846 196.049 97.9908C195.852 97.9969 195.673 98 195.513 98ZM198.414 97.8614C198.808 97.5474 199.137 97.2703 199.402 97.0301C199.673 96.79 199.889 96.5775 200.049 96.3928C200.209 96.2019 200.323 96.0233 200.39 95.8571C200.464 95.6908 200.501 95.5245 200.501 95.3583C200.501 95.1058 200.424 94.9026 200.27 94.7486C200.123 94.5947 199.929 94.5177 199.688 94.5177C199.442 94.5177 199.233 94.6162 199.06 94.8133C198.888 95.0042 198.746 95.2874 198.635 95.6631C198.629 95.6754 198.608 95.6785 198.571 95.6723C198.534 95.6662 198.518 95.6538 198.525 95.6354L198.885 94.2314C198.891 94.2129 198.913 94.2098 198.949 94.2221C198.986 94.2283 198.999 94.2375 198.986 94.2498C198.962 94.3545 198.965 94.4223 198.996 94.4531C199.033 94.4838 199.073 94.4992 199.116 94.4992C199.208 94.4992 199.331 94.4684 199.485 94.4069C199.645 94.3453 199.839 94.3145 200.067 94.3145C200.387 94.3145 200.637 94.4007 200.815 94.5731C200.994 94.7394 201.083 94.958 201.083 95.2289C201.083 95.3952 201.043 95.5615 200.963 95.7277C200.883 95.8878 200.763 96.0572 200.603 96.2358C200.443 96.4082 200.24 96.596 199.993 96.7992C199.753 97.0024 199.47 97.2303 199.143 97.4827C199.119 97.5012 199.113 97.5166 199.125 97.5289C199.137 97.5412 199.156 97.5474 199.18 97.5474C199.63 97.5474 199.993 97.5443 200.27 97.5382C200.547 97.5258 200.763 97.5043 200.917 97.4735C201.071 97.4366 201.182 97.3781 201.249 97.298C201.323 97.2118 201.376 97.0948 201.406 96.947C201.413 96.9347 201.431 96.9316 201.462 96.9378C201.499 96.9378 201.517 96.9439 201.517 96.9562L201.379 97.8984C201.379 97.923 201.37 97.9477 201.351 97.9723C201.339 97.9908 201.32 98 201.296 98C200.858 98 200.393 98 199.901 98C199.408 98 198.934 98 198.478 98C198.454 98 198.432 97.9846 198.414 97.9538C198.395 97.9169 198.395 97.8861 198.414 97.8614Z" fill="black"/>
<path d="M203.981 145.435C203.993 145.435 204 145.453 204 145.49C204 145.527 203.993 145.545 203.981 145.545C203.827 145.545 203.695 145.595 203.584 145.693C203.479 145.786 203.375 145.961 203.27 146.22L202.115 148.991C202.109 149.015 202.075 149.028 202.014 149.028C201.958 149.028 201.924 149.015 201.912 148.991L200.619 146.201C200.49 145.924 200.382 145.746 200.296 145.665C200.216 145.585 200.117 145.545 200 145.545C199.982 145.545 199.972 145.527 199.972 145.49C199.972 145.453 199.982 145.435 200 145.435C200.092 145.435 200.191 145.438 200.296 145.444C200.406 145.45 200.52 145.453 200.637 145.453C200.847 145.453 201.028 145.45 201.182 145.444C201.336 145.438 201.478 145.435 201.607 145.435C201.626 145.435 201.635 145.453 201.635 145.49C201.635 145.527 201.626 145.545 201.607 145.545C201.416 145.545 201.265 145.57 201.155 145.619C201.044 145.662 201.022 145.758 201.09 145.906L202.272 148.418L202.004 148.797L203.085 146.174C203.177 145.952 203.168 145.792 203.057 145.693C202.953 145.595 202.74 145.545 202.42 145.545C202.408 145.545 202.402 145.527 202.402 145.49C202.402 145.453 202.408 145.435 202.42 145.435C202.568 145.435 202.706 145.438 202.836 145.444C202.971 145.45 203.144 145.453 203.353 145.453C203.482 145.453 203.587 145.45 203.667 145.444C203.753 145.438 203.858 145.435 203.981 145.435ZM204.347 148.861C204.741 148.547 205.07 148.27 205.335 148.03C205.606 147.79 205.822 147.578 205.982 147.393C206.142 147.202 206.256 147.023 206.323 146.857C206.397 146.691 206.434 146.525 206.434 146.358C206.434 146.106 206.357 145.903 206.203 145.749C206.056 145.595 205.862 145.518 205.621 145.518C205.375 145.518 205.166 145.616 204.993 145.813C204.821 146.004 204.679 146.287 204.568 146.663C204.562 146.675 204.541 146.678 204.504 146.672C204.467 146.666 204.451 146.654 204.458 146.635L204.818 145.231C204.824 145.213 204.846 145.21 204.883 145.222C204.919 145.228 204.932 145.238 204.919 145.25C204.895 145.355 204.898 145.422 204.929 145.453C204.966 145.484 205.006 145.499 205.049 145.499C205.141 145.499 205.264 145.468 205.418 145.407C205.578 145.345 205.772 145.314 206 145.314C206.32 145.314 206.57 145.401 206.748 145.573C206.927 145.739 207.016 145.958 207.016 146.229C207.016 146.395 206.976 146.561 206.896 146.728C206.816 146.888 206.696 147.057 206.536 147.236C206.376 147.408 206.173 147.596 205.926 147.799C205.686 148.002 205.403 148.23 205.077 148.483C205.052 148.501 205.046 148.517 205.058 148.529C205.07 148.541 205.089 148.547 205.113 148.547C205.563 148.547 205.926 148.544 206.203 148.538C206.481 148.526 206.696 148.504 206.85 148.473C207.004 148.437 207.115 148.378 207.183 148.298C207.256 148.212 207.309 148.095 207.34 147.947C207.346 147.935 207.364 147.932 207.395 147.938C207.432 147.938 207.45 147.944 207.45 147.956L207.312 148.898C207.312 148.923 207.303 148.948 207.284 148.972C207.272 148.991 207.253 149 207.229 149C206.791 149 206.327 149 205.834 149C205.341 149 204.867 149 204.411 149C204.387 149 204.365 148.985 204.347 148.954C204.328 148.917 204.328 148.886 204.347 148.861ZM208.063 148.861C208.457 148.547 208.787 148.27 209.052 148.03C209.322 147.79 209.538 147.578 209.698 147.393C209.858 147.202 209.972 147.023 210.04 146.857C210.114 146.691 210.151 146.525 210.151 146.358C210.151 146.106 210.074 145.903 209.92 145.749C209.772 145.595 209.578 145.518 209.338 145.518C209.092 145.518 208.882 145.616 208.71 145.813C208.537 146.004 208.396 146.287 208.285 146.663C208.279 146.675 208.257 146.678 208.22 146.672C208.183 146.666 208.168 146.654 208.174 146.635L208.534 145.231C208.54 145.213 208.562 145.21 208.599 145.222C208.636 145.228 208.648 145.238 208.636 145.25C208.611 145.355 208.614 145.422 208.645 145.453C208.682 145.484 208.722 145.499 208.765 145.499C208.858 145.499 208.981 145.468 209.135 145.407C209.295 145.345 209.489 145.314 209.717 145.314C210.037 145.314 210.286 145.401 210.465 145.573C210.643 145.739 210.733 145.958 210.733 146.229C210.733 146.395 210.693 146.561 210.613 146.728C210.533 146.888 210.412 147.057 210.252 147.236C210.092 147.408 209.889 147.596 209.643 147.799C209.403 148.002 209.119 148.23 208.793 148.483C208.768 148.501 208.762 148.517 208.774 148.529C208.787 148.541 208.805 148.547 208.83 148.547C209.279 148.547 209.643 148.544 209.92 148.538C210.197 148.526 210.412 148.504 210.566 148.473C210.72 148.437 210.831 148.378 210.899 148.298C210.973 148.212 211.025 148.095 211.056 147.947C211.062 147.935 211.081 147.932 211.111 147.938C211.148 147.938 211.167 147.944 211.167 147.956L211.028 148.898C211.028 148.923 211.019 148.948 211.001 148.972C210.988 148.991 210.97 149 210.945 149C210.508 149 210.043 149 209.55 149C209.058 149 208.584 149 208.128 149C208.103 149 208.082 148.985 208.063 148.954C208.045 148.917 208.045 148.886 208.063 148.861Z" fill="black"/>
<path d="M192.981 127.435C192.993 127.435 193 127.453 193 127.49C193 127.527 192.993 127.545 192.981 127.545C192.827 127.545 192.695 127.595 192.584 127.693C192.479 127.786 192.375 127.961 192.27 128.22L191.115 130.991C191.109 131.015 191.075 131.028 191.014 131.028C190.958 131.028 190.924 131.015 190.912 130.991L189.619 128.201C189.49 127.924 189.382 127.746 189.296 127.665C189.216 127.585 189.117 127.545 189 127.545C188.982 127.545 188.972 127.527 188.972 127.49C188.972 127.453 188.982 127.435 189 127.435C189.092 127.435 189.191 127.438 189.296 127.444C189.406 127.45 189.52 127.453 189.637 127.453C189.847 127.453 190.028 127.45 190.182 127.444C190.336 127.438 190.478 127.435 190.607 127.435C190.626 127.435 190.635 127.453 190.635 127.49C190.635 127.527 190.626 127.545 190.607 127.545C190.416 127.545 190.265 127.57 190.155 127.619C190.044 127.662 190.022 127.758 190.09 127.906L191.272 130.418L191.004 130.797L192.085 128.174C192.177 127.952 192.168 127.792 192.057 127.693C191.953 127.595 191.74 127.545 191.42 127.545C191.408 127.545 191.402 127.527 191.402 127.49C191.402 127.453 191.408 127.435 191.42 127.435C191.568 127.435 191.706 127.438 191.836 127.444C191.971 127.45 192.144 127.453 192.353 127.453C192.482 127.453 192.587 127.45 192.667 127.444C192.753 127.438 192.858 127.435 192.981 127.435ZM193.347 130.861C193.741 130.547 194.07 130.27 194.335 130.03C194.606 129.79 194.822 129.578 194.982 129.393C195.142 129.202 195.256 129.023 195.323 128.857C195.397 128.691 195.434 128.525 195.434 128.358C195.434 128.106 195.357 127.903 195.203 127.749C195.056 127.595 194.862 127.518 194.621 127.518C194.375 127.518 194.166 127.616 193.993 127.813C193.821 128.004 193.679 128.287 193.568 128.663C193.562 128.675 193.541 128.678 193.504 128.672C193.467 128.666 193.451 128.654 193.458 128.635L193.818 127.231C193.824 127.213 193.846 127.21 193.883 127.222C193.919 127.228 193.932 127.238 193.919 127.25C193.895 127.355 193.898 127.422 193.929 127.453C193.966 127.484 194.006 127.499 194.049 127.499C194.141 127.499 194.264 127.468 194.418 127.407C194.578 127.345 194.772 127.314 195 127.314C195.32 127.314 195.57 127.401 195.748 127.573C195.927 127.739 196.016 127.958 196.016 128.229C196.016 128.395 195.976 128.561 195.896 128.728C195.816 128.888 195.696 129.057 195.536 129.236C195.376 129.408 195.173 129.596 194.926 129.799C194.686 130.002 194.403 130.23 194.077 130.483C194.052 130.501 194.046 130.517 194.058 130.529C194.07 130.541 194.089 130.547 194.113 130.547C194.563 130.547 194.926 130.544 195.203 130.538C195.481 130.526 195.696 130.504 195.85 130.473C196.004 130.437 196.115 130.378 196.183 130.298C196.256 130.212 196.309 130.095 196.34 129.947C196.346 129.935 196.364 129.932 196.395 129.938C196.432 129.938 196.45 129.944 196.45 129.956L196.312 130.898C196.312 130.923 196.303 130.948 196.284 130.972C196.272 130.991 196.253 131 196.229 131C195.791 131 195.327 131 194.834 131C194.341 131 193.867 131 193.411 131C193.387 131 193.365 130.985 193.347 130.954C193.328 130.917 193.328 130.886 193.347 130.861ZM197.229 131C197.211 131 197.202 130.982 197.202 130.945C197.202 130.908 197.211 130.889 197.229 130.889C197.482 130.889 197.673 130.874 197.802 130.843C197.938 130.812 198.027 130.751 198.07 130.658C198.113 130.566 198.135 130.43 198.135 130.252V128.534C198.135 128.287 198.116 128.115 198.079 128.016C198.042 127.918 197.956 127.881 197.821 127.906C197.691 127.924 197.491 127.998 197.22 128.127C197.196 128.133 197.174 128.121 197.156 128.09C197.143 128.053 197.149 128.032 197.174 128.026L198.569 127.351C198.593 127.339 198.615 127.342 198.633 127.361C198.652 127.379 198.661 127.398 198.661 127.416V130.252C198.661 130.43 198.68 130.566 198.717 130.658C198.76 130.751 198.846 130.812 198.975 130.843C199.105 130.874 199.299 130.889 199.557 130.889C199.576 130.889 199.585 130.908 199.585 130.945C199.585 130.982 199.576 131 199.557 131C199.403 131 199.228 130.997 199.031 130.991C198.834 130.985 198.621 130.982 198.393 130.982C198.178 130.982 197.968 130.985 197.765 130.991C197.568 130.997 197.39 131 197.229 131Z" fill="black"/>
<path d="M73.0919 102.991L71.7988 100.201C71.6756 99.9241 71.574 99.7456 71.4939 99.6655C71.4139 99.5854 71.3154 99.5454 71.1984 99.5454C71.1861 99.5454 71.1799 99.5269 71.1799 99.49C71.1799 99.4531 71.1861 99.4346 71.1984 99.4346C71.2907 99.4346 71.3893 99.4377 71.4939 99.4438C71.5986 99.45 71.7064 99.4531 71.8172 99.4531C72.0266 99.4531 72.2052 99.45 72.353 99.4438C72.5069 99.4377 72.6455 99.4346 72.7686 99.4346C72.7871 99.4346 72.7963 99.4531 72.7963 99.49C72.7963 99.5269 72.7871 99.5454 72.7686 99.5454C72.5839 99.5454 72.4361 99.5701 72.3253 99.6193C72.2206 99.6686 72.2021 99.764 72.2698 99.9057L73.4522 102.427L73.1935 102.797L74.265 100.174C74.3574 99.9518 74.3512 99.7917 74.2465 99.6932C74.1418 99.5947 73.9263 99.5454 73.5999 99.5454C73.5876 99.5454 73.5815 99.5269 73.5815 99.49C73.5815 99.4531 73.5876 99.4346 73.5999 99.4346C73.7477 99.4346 73.8863 99.4377 74.0156 99.4438C74.1511 99.45 74.3235 99.4531 74.5329 99.4531C74.6683 99.4531 74.7761 99.45 74.8562 99.4438C74.9362 99.4377 75.0347 99.4346 75.1517 99.4346C75.1702 99.4346 75.1794 99.4531 75.1794 99.49C75.1794 99.5269 75.1702 99.5454 75.1517 99.5454C75.0039 99.5454 74.8777 99.5947 74.773 99.6932C74.6683 99.7856 74.5606 99.9611 74.4497 100.22L73.2951 102.991C73.289 103.015 73.2551 103.028 73.1935 103.028C73.1381 103.028 73.1042 103.015 73.0919 102.991ZM70.912 102.991L69.6189 100.201C69.4896 99.9241 69.3818 99.7456 69.2956 99.6655C69.2155 99.5854 69.117 99.5454 69 99.5454C68.9815 99.5454 68.9723 99.5269 68.9723 99.49C68.9723 99.4531 68.9815 99.4346 69 99.4346C69.0924 99.4346 69.1909 99.4377 69.2956 99.4438C69.4064 99.45 69.5203 99.4531 69.6373 99.4531C69.8344 99.4531 70.0068 99.45 70.1546 99.4438C70.3086 99.4377 70.4533 99.4346 70.5887 99.4346C70.6072 99.4346 70.6164 99.4531 70.6164 99.49C70.6164 99.5269 70.6072 99.5454 70.5887 99.5454C70.3917 99.5454 70.2408 99.5701 70.1361 99.6193C70.0376 99.6686 70.0222 99.764 70.0899 99.9057L71.2815 102.427L71.0044 102.797L72.0112 100.367L72.1682 100.469L71.1152 102.991C71.1091 103.015 71.0752 103.028 71.0136 103.028C70.9582 103.028 70.9243 103.015 70.912 102.991ZM75.5387 102.861C75.9329 102.547 76.2623 102.27 76.5271 102.03C76.798 101.79 77.0136 101.578 77.1737 101.393C77.3338 101.202 77.4477 101.023 77.5154 100.857C77.5893 100.691 77.6263 100.525 77.6263 100.358C77.6263 100.106 77.5493 99.9026 77.3954 99.7486C77.2476 99.5947 77.0536 99.5177 76.8134 99.5177C76.5671 99.5177 76.3577 99.6162 76.1853 99.8133C76.0129 100.004 75.8713 100.287 75.7604 100.663C75.7543 100.675 75.7327 100.678 75.6958 100.672C75.6588 100.666 75.6434 100.654 75.6496 100.635L76.0098 99.2314C76.016 99.2129 76.0375 99.2098 76.0745 99.2221C76.1114 99.2283 76.1237 99.2375 76.1114 99.2498C76.0868 99.3545 76.0899 99.4223 76.1207 99.4531C76.1576 99.4838 76.1976 99.4992 76.2407 99.4992C76.3331 99.4992 76.4563 99.4684 76.6102 99.4069C76.7703 99.3453 76.9643 99.3145 77.1921 99.3145C77.5124 99.3145 77.7617 99.4007 77.9403 99.5731C78.1189 99.7394 78.2082 99.958 78.2082 100.229C78.2082 100.395 78.1682 100.561 78.0881 100.728C78.0081 100.888 77.888 101.057 77.7279 101.236C77.5678 101.408 77.3646 101.596 77.1182 101.799C76.8781 102.002 76.5948 102.23 76.2685 102.483C76.2438 102.501 76.2377 102.517 76.25 102.529C76.2623 102.541 76.2808 102.547 76.3054 102.547C76.7549 102.547 77.1182 102.544 77.3954 102.538C77.6725 102.526 77.888 102.504 78.0419 102.473C78.1959 102.437 78.3067 102.378 78.3745 102.298C78.4484 102.212 78.5007 102.095 78.5315 101.947C78.5376 101.935 78.5561 101.932 78.5869 101.938C78.6239 101.938 78.6423 101.944 78.6423 101.956L78.5038 102.898C78.5038 102.923 78.4945 102.948 78.4761 102.972C78.4637 102.991 78.4453 103 78.4206 103C77.9834 103 77.5185 103 77.0259 103C76.5332 103 76.0591 103 75.6034 103C75.5788 103 75.5572 102.985 75.5387 102.954C75.5203 102.917 75.5203 102.886 75.5387 102.861ZM79.4214 103C79.4029 103 79.3937 102.982 79.3937 102.945C79.3937 102.908 79.4029 102.889 79.4214 102.889C79.6739 102.889 79.8648 102.874 79.9941 102.843C80.1296 102.812 80.2188 102.751 80.2619 102.658C80.3051 102.566 80.3266 102.43 80.3266 102.252V100.534C80.3266 100.287 80.3081 100.115 80.2712 100.016C80.2342 99.918 80.148 99.881 80.0126 99.9057C79.8832 99.9241 79.6831 99.998 79.4122 100.127C79.3875 100.133 79.366 100.121 79.3475 100.09C79.3352 100.053 79.3413 100.032 79.366 100.026L80.7607 99.3514C80.7854 99.3391 80.8069 99.3422 80.8254 99.3607C80.8439 99.3792 80.8531 99.3976 80.8531 99.4161V102.252C80.8531 102.43 80.8716 102.566 80.9085 102.658C80.9516 102.751 81.0378 102.812 81.1672 102.843C81.2965 102.874 81.4904 102.889 81.7491 102.889C81.7676 102.889 81.7768 102.908 81.7768 102.945C81.7768 102.982 81.7676 103 81.7491 103C81.5951 103 81.4196 102.997 81.2226 102.991C81.0255 102.985 80.8131 102.982 80.5852 102.982C80.3697 102.982 80.1603 102.985 79.9571 102.991C79.7601 102.997 79.5815 103 79.4214 103Z" fill="black"/>
<path d="M67.0919 162.991L65.7988 160.201C65.6756 159.924 65.574 159.746 65.4939 159.665C65.4139 159.585 65.3154 159.545 65.1984 159.545C65.1861 159.545 65.1799 159.527 65.1799 159.49C65.1799 159.453 65.1861 159.435 65.1984 159.435C65.2907 159.435 65.3893 159.438 65.4939 159.444C65.5986 159.45 65.7064 159.453 65.8172 159.453C66.0266 159.453 66.2052 159.45 66.353 159.444C66.5069 159.438 66.6455 159.435 66.7686 159.435C66.7871 159.435 66.7963 159.453 66.7963 159.49C66.7963 159.527 66.7871 159.545 66.7686 159.545C66.5839 159.545 66.4361 159.57 66.3253 159.619C66.2206 159.669 66.2021 159.764 66.2698 159.906L67.4522 162.427L67.1935 162.797L68.265 160.174C68.3574 159.952 68.3512 159.792 68.2465 159.693C68.1418 159.595 67.9263 159.545 67.5999 159.545C67.5876 159.545 67.5815 159.527 67.5815 159.49C67.5815 159.453 67.5876 159.435 67.5999 159.435C67.7477 159.435 67.8863 159.438 68.0156 159.444C68.1511 159.45 68.3235 159.453 68.5329 159.453C68.6683 159.453 68.7761 159.45 68.8562 159.444C68.9362 159.438 69.0347 159.435 69.1517 159.435C69.1702 159.435 69.1794 159.453 69.1794 159.49C69.1794 159.527 69.1702 159.545 69.1517 159.545C69.0039 159.545 68.8777 159.595 68.773 159.693C68.6683 159.786 68.5606 159.961 68.4497 160.22L67.2951 162.991C67.289 163.015 67.2551 163.028 67.1935 163.028C67.1381 163.028 67.1042 163.015 67.0919 162.991ZM64.912 162.991L63.6189 160.201C63.4896 159.924 63.3818 159.746 63.2956 159.665C63.2155 159.585 63.117 159.545 63 159.545C62.9815 159.545 62.9723 159.527 62.9723 159.49C62.9723 159.453 62.9815 159.435 63 159.435C63.0924 159.435 63.1909 159.438 63.2956 159.444C63.4064 159.45 63.5203 159.453 63.6373 159.453C63.8344 159.453 64.0068 159.45 64.1546 159.444C64.3086 159.438 64.4533 159.435 64.5887 159.435C64.6072 159.435 64.6164 159.453 64.6164 159.49C64.6164 159.527 64.6072 159.545 64.5887 159.545C64.3917 159.545 64.2408 159.57 64.1361 159.619C64.0376 159.669 64.0222 159.764 64.0899 159.906L65.2815 162.427L65.0044 162.797L66.0112 160.367L66.1682 160.469L65.1152 162.991C65.1091 163.015 65.0752 163.028 65.0136 163.028C64.9582 163.028 64.9243 163.015 64.912 162.991ZM69.742 165.54C69.7173 165.546 69.6958 165.531 69.6773 165.494C69.665 165.463 69.6711 165.445 69.6958 165.439C70.1022 165.309 70.4378 165.155 70.7026 164.977C70.9674 164.798 71.1767 164.604 71.3307 164.395C71.4908 164.185 71.6016 163.976 71.6632 163.767C71.7248 163.563 71.7556 163.369 71.7556 163.185C71.7556 162.988 71.7217 162.8 71.654 162.621C71.5862 162.437 71.4754 162.289 71.3215 162.178C71.1737 162.061 70.9735 162.002 70.7211 162.002C70.6472 162.002 70.5733 162.005 70.4994 162.012C70.4255 162.018 70.3485 162.033 70.2685 162.058C70.25 162.064 70.2346 162.049 70.2223 162.012C70.21 161.975 70.213 161.953 70.2315 161.947C70.7241 161.818 71.0659 161.642 71.2568 161.42C71.4539 161.199 71.5524 160.9 71.5524 160.525C71.5524 160.223 71.4877 159.98 71.3584 159.795C71.2352 159.61 71.032 159.518 70.7488 159.518C70.484 159.518 70.2561 159.604 70.0652 159.776C69.8744 159.949 69.7235 160.229 69.6126 160.617C69.6065 160.629 69.5849 160.632 69.548 160.626C69.511 160.62 69.4956 160.608 69.5018 160.589L69.8436 159.241C69.8559 159.222 69.8774 159.219 69.9082 159.231C69.9452 159.238 69.9606 159.247 69.9544 159.259C69.9298 159.364 69.9359 159.435 69.9729 159.472C70.0098 159.502 70.0499 159.518 70.093 159.518C70.1853 159.518 70.3116 159.484 70.4717 159.416C70.6318 159.348 70.8257 159.314 71.0536 159.314C71.4107 159.314 71.6817 159.422 71.8664 159.638C72.0512 159.853 72.1435 160.097 72.1435 160.367C72.1435 160.595 72.0912 160.817 71.9865 161.033C71.8818 161.242 71.731 161.427 71.5339 161.587C71.3369 161.741 71.0998 161.845 70.8227 161.901L70.9612 161.781C71.2937 161.787 71.5678 161.852 71.7833 161.975C71.9988 162.098 72.1589 162.258 72.2636 162.455C72.3683 162.652 72.4206 162.861 72.4206 163.083C72.4206 163.366 72.3252 163.665 72.1343 163.979C71.9496 164.299 71.6571 164.595 71.2568 164.866C70.8627 165.143 70.3577 165.368 69.742 165.54ZM73.2951 163C73.2766 163 73.2674 162.982 73.2674 162.945C73.2674 162.908 73.2766 162.889 73.2951 162.889C73.5476 162.889 73.7385 162.874 73.8678 162.843C74.0033 162.812 74.0926 162.751 74.1357 162.658C74.1788 162.566 74.2003 162.43 74.2003 162.252V160.534C74.2003 160.287 74.1818 160.115 74.1449 160.016C74.108 159.918 74.0217 159.881 73.8863 159.906C73.757 159.924 73.5568 159.998 73.2859 160.127C73.2612 160.133 73.2397 160.121 73.2212 160.09C73.2089 160.053 73.2151 160.032 73.2397 160.026L74.6345 159.351C74.6591 159.339 74.6806 159.342 74.6991 159.361C74.7176 159.379 74.7268 159.398 74.7268 159.416V162.252C74.7268 162.43 74.7453 162.566 74.7822 162.658C74.8253 162.751 74.9116 162.812 75.0409 162.843C75.1702 162.874 75.3642 162.889 75.6228 162.889C75.6413 162.889 75.6505 162.908 75.6505 162.945C75.6505 162.982 75.6413 163 75.6228 163C75.4688 163 75.2933 162.997 75.0963 162.991C74.8992 162.985 74.6868 162.982 74.459 162.982C74.2434 162.982 74.0341 162.985 73.8308 162.991C73.6338 162.997 73.4552 163 73.2951 163Z" fill="black"/>
<path d="M79.2232 183.991L77.9588 181.263C77.8384 180.992 77.739 180.818 77.6608 180.74C77.5825 180.661 77.4861 180.622 77.3717 180.622C77.3597 180.622 77.3537 180.604 77.3537 180.568C77.3537 180.532 77.3597 180.514 77.3717 180.514C77.4621 180.514 77.5584 180.517 77.6608 180.523C77.7631 180.529 77.8685 180.532 77.9769 180.532C78.1816 180.532 78.3562 180.529 78.5007 180.523C78.6512 180.517 78.7867 180.514 78.9071 180.514C78.9252 180.514 78.9342 180.532 78.9342 180.568C78.9342 180.604 78.9252 180.622 78.9071 180.622C78.7265 180.622 78.582 180.646 78.4736 180.694C78.3712 180.743 78.3532 180.836 78.4194 180.974L79.5755 183.44L79.3226 183.801L80.3702 181.236C80.4605 181.02 80.4545 180.863 80.3522 180.767C80.2498 180.67 80.0391 180.622 79.72 180.622C79.7079 180.622 79.7019 180.604 79.7019 180.568C79.7019 180.532 79.7079 180.514 79.72 180.514C79.8645 180.514 79.9999 180.517 80.1264 180.523C80.2588 180.529 80.4274 180.532 80.6321 180.532C80.7646 180.532 80.87 180.529 80.9483 180.523C81.0265 180.517 81.1229 180.514 81.2373 180.514C81.2553 180.514 81.2644 180.532 81.2644 180.568C81.2644 180.604 81.2553 180.622 81.2373 180.622C81.0928 180.622 80.9693 180.67 80.867 180.767C80.7646 180.857 80.6592 181.029 80.5509 181.281L79.4219 183.991C79.4159 184.015 79.3828 184.027 79.3226 184.027C79.2684 184.027 79.2353 184.015 79.2232 183.991ZM77.0918 183.991L75.8273 181.263C75.7009 180.992 75.5955 180.818 75.5112 180.74C75.433 180.661 75.3366 180.622 75.2222 180.622C75.2042 180.622 75.1951 180.604 75.1951 180.568C75.1951 180.532 75.2042 180.514 75.2222 180.514C75.3125 180.514 75.4089 180.517 75.5112 180.523C75.6196 180.529 75.731 180.532 75.8454 180.532C76.0381 180.532 76.2067 180.529 76.3512 180.523C76.5017 180.517 76.6432 180.514 76.7757 180.514C76.7937 180.514 76.8028 180.532 76.8028 180.568C76.8028 180.604 76.7937 180.622 76.7757 180.622C76.583 180.622 76.4355 180.646 76.3331 180.694C76.2368 180.743 76.2217 180.836 76.288 180.974L77.453 183.44L77.1821 183.801L78.1665 181.426L78.3201 181.525L77.2905 183.991C77.2844 184.015 77.2513 184.027 77.1911 184.027C77.1369 184.027 77.1038 184.015 77.0918 183.991ZM81.8144 186.484C81.7903 186.49 81.7692 186.475 81.7511 186.439C81.7391 186.408 81.7451 186.39 81.7692 186.384C82.1666 186.258 82.4947 186.107 82.7536 185.933C83.0126 185.758 83.2173 185.568 83.3678 185.364C83.5243 185.159 83.6327 184.954 83.6929 184.75C83.7531 184.551 83.7832 184.361 83.7832 184.181C83.7832 183.988 83.7501 183.804 83.6839 183.63C83.6177 183.449 83.5093 183.305 83.3588 183.196C83.2143 183.082 83.0186 183.025 82.7717 183.025C82.6995 183.025 82.6272 183.028 82.555 183.034C82.4827 183.04 82.4074 183.055 82.3292 183.079C82.3111 183.085 82.296 183.07 82.284 183.034C82.272 182.997 82.275 182.976 82.293 182.97C82.7747 182.844 83.1089 182.672 83.2955 182.456C83.4882 182.239 83.5846 181.947 83.5846 181.58C83.5846 181.285 83.5213 181.047 83.3949 180.866C83.2745 180.685 83.0758 180.595 82.7988 180.595C82.5399 180.595 82.3171 180.679 82.1305 180.848C81.9438 181.017 81.7963 181.291 81.6879 181.67C81.6819 181.682 81.6608 181.685 81.6247 181.679C81.5886 181.673 81.5735 181.661 81.5795 181.643L81.9137 180.324C81.9258 180.306 81.9468 180.303 81.9769 180.315C82.0131 180.321 82.0281 180.33 82.0221 180.342C81.998 180.445 82.004 180.514 82.0402 180.55C82.0763 180.58 82.1154 180.595 82.1576 180.595C82.2479 180.595 82.3713 180.562 82.5279 180.496C82.6844 180.43 82.8741 180.396 83.0968 180.396C83.4461 180.396 83.711 180.502 83.8916 180.713C84.0723 180.923 84.1626 181.161 84.1626 181.426C84.1626 181.649 84.1114 181.866 84.009 182.076C83.9067 182.281 83.7592 182.462 83.5665 182.618C83.3738 182.769 83.142 182.871 82.8711 182.925L83.0065 182.808C83.3317 182.814 83.5996 182.877 83.8103 182.997C84.0211 183.118 84.1776 183.274 84.28 183.467C84.3823 183.66 84.4335 183.865 84.4335 184.081C84.4335 184.358 84.3402 184.65 84.1535 184.957C83.9729 185.27 83.6869 185.559 83.2955 185.824C82.9102 186.095 82.4165 186.315 81.8144 186.484ZM85.126 183.865C85.5113 183.557 85.8335 183.287 86.0924 183.052C86.3573 182.817 86.568 182.609 86.7246 182.429C86.8811 182.242 86.9925 182.067 87.0587 181.905C87.131 181.742 87.1671 181.58 87.1671 181.417C87.1671 181.17 87.0919 180.971 86.9413 180.821C86.7968 180.67 86.6072 180.595 86.3723 180.595C86.1315 180.595 85.9268 180.691 85.7582 180.884C85.5896 181.071 85.4511 181.348 85.3427 181.715C85.3367 181.727 85.3157 181.73 85.2795 181.724C85.2434 181.718 85.2283 181.706 85.2344 181.688L85.5866 180.315C85.5926 180.297 85.6137 180.294 85.6498 180.306C85.6859 180.312 85.698 180.321 85.6859 180.333C85.6619 180.436 85.6649 180.502 85.695 180.532C85.7311 180.562 85.7702 180.577 85.8124 180.577C85.9027 180.577 86.0231 180.547 86.1737 180.487C86.3302 180.427 86.5199 180.396 86.7426 180.396C87.0557 180.396 87.2996 180.481 87.4742 180.649C87.6488 180.812 87.7361 181.026 87.7361 181.291C87.7361 181.453 87.697 181.616 87.6187 181.778C87.5404 181.935 87.423 182.1 87.2665 182.275C87.1099 182.444 86.9112 182.627 86.6704 182.826C86.4356 183.025 86.1586 183.247 85.8395 183.494C85.8154 183.512 85.8094 183.527 85.8214 183.539C85.8335 183.551 85.8515 183.557 85.8756 183.557C86.3151 183.557 86.6704 183.554 86.9413 183.548C87.2123 183.536 87.423 183.515 87.5735 183.485C87.7241 183.449 87.8325 183.392 87.8987 183.314C87.9709 183.229 88.0221 183.115 88.0522 182.97C88.0582 182.958 88.0763 182.955 88.1064 182.961C88.1425 182.961 88.1606 182.967 88.1606 182.979L88.0251 183.901C88.0251 183.925 88.0161 183.949 87.998 183.973C87.986 183.991 87.9679 184 87.9438 184C87.5163 184 87.0618 184 86.5801 184C86.0984 184 85.6348 184 85.1892 184C85.1651 184 85.1441 183.985 85.126 183.955C85.1079 183.919 85.1079 183.889 85.126 183.865Z" fill="black"/>
<path d="M75.001 122.991L73.7366 120.263C73.6161 119.992 73.5168 119.818 73.4385 119.74C73.3603 119.661 73.2639 119.622 73.1495 119.622C73.1375 119.622 73.1315 119.604 73.1315 119.568C73.1315 119.532 73.1375 119.514 73.1495 119.514C73.2398 119.514 73.3362 119.517 73.4385 119.523C73.5409 119.529 73.6463 119.532 73.7546 119.532C73.9593 119.532 74.134 119.529 74.2785 119.523C74.429 119.517 74.5645 119.514 74.6849 119.514C74.7029 119.514 74.712 119.532 74.712 119.568C74.712 119.604 74.7029 119.622 74.6849 119.622C74.5043 119.622 74.3597 119.646 74.2514 119.694C74.149 119.743 74.1309 119.836 74.1972 119.974L75.3532 122.44L75.1003 122.801L76.148 120.236C76.2383 120.02 76.2323 119.863 76.1299 119.767C76.0276 119.67 75.8168 119.622 75.4977 119.622C75.4857 119.622 75.4797 119.604 75.4797 119.568C75.4797 119.532 75.4857 119.514 75.4977 119.514C75.6422 119.514 75.7777 119.517 75.9041 119.523C76.0366 119.529 76.2052 119.532 76.4099 119.532C76.5424 119.532 76.6477 119.529 76.726 119.523C76.8043 119.517 76.9006 119.514 77.015 119.514C77.0331 119.514 77.0421 119.532 77.0421 119.568C77.0421 119.604 77.0331 119.622 77.015 119.622C76.8705 119.622 76.7471 119.67 76.6447 119.767C76.5424 119.857 76.437 120.029 76.3286 120.281L75.1997 122.991C75.1937 123.015 75.1605 123.027 75.1003 123.027C75.0461 123.027 75.013 123.015 75.001 122.991ZM72.8695 122.991L71.6051 120.263C71.4787 119.992 71.3733 119.818 71.289 119.74C71.2107 119.661 71.1144 119.622 71 119.622C70.9819 119.622 70.9729 119.604 70.9729 119.568C70.9729 119.532 70.9819 119.514 71 119.514C71.0903 119.514 71.1867 119.517 71.289 119.523C71.3974 119.529 71.5088 119.532 71.6232 119.532C71.8159 119.532 71.9844 119.529 72.1289 119.523C72.2795 119.517 72.421 119.514 72.5534 119.514C72.5715 119.514 72.5805 119.532 72.5805 119.568C72.5805 119.604 72.5715 119.622 72.5534 119.622C72.3608 119.622 72.2132 119.646 72.1109 119.694C72.0145 119.743 71.9995 119.836 72.0657 119.974L73.2308 122.44L72.9599 122.801L73.9443 120.426L74.0978 120.525L73.0682 122.991C73.0622 123.015 73.0291 123.027 72.9689 123.027C72.9147 123.027 72.8816 123.015 72.8695 122.991ZM77.3934 122.865C77.7788 122.557 78.1009 122.287 78.3598 122.052C78.6247 121.817 78.8355 121.609 78.992 121.429C79.1486 121.242 79.26 121.067 79.3262 120.905C79.3985 120.742 79.4346 120.58 79.4346 120.417C79.4346 120.17 79.3593 119.971 79.2088 119.821C79.0643 119.67 78.8746 119.595 78.6398 119.595C78.399 119.595 78.1942 119.691 78.0257 119.884C77.8571 120.071 77.7186 120.348 77.6102 120.715C77.6042 120.727 77.5831 120.73 77.547 120.724C77.5109 120.718 77.4958 120.706 77.5018 120.688L77.8541 119.315C77.8601 119.297 77.8811 119.294 77.9173 119.306C77.9534 119.312 77.9654 119.321 77.9534 119.333C77.9293 119.436 77.9323 119.502 77.9624 119.532C77.9986 119.562 78.0377 119.577 78.0798 119.577C78.1702 119.577 78.2906 119.547 78.4411 119.487C78.5977 119.427 78.7873 119.396 79.0101 119.396C79.3232 119.396 79.567 119.481 79.7417 119.649C79.9163 119.812 80.0036 120.026 80.0036 120.291C80.0036 120.453 79.9644 120.616 79.8862 120.778C79.8079 120.935 79.6905 121.1 79.5339 121.275C79.3774 121.444 79.1787 121.627 78.9378 121.826C78.703 122.025 78.4261 122.247 78.1069 122.494C78.0829 122.512 78.0768 122.527 78.0889 122.539C78.1009 122.551 78.119 122.557 78.1431 122.557C78.5826 122.557 78.9378 122.554 79.2088 122.548C79.4797 122.536 79.6905 122.515 79.841 122.485C79.9915 122.449 80.0999 122.392 80.1661 122.314C80.2384 122.229 80.2896 122.115 80.3197 121.97C80.3257 121.958 80.3438 121.955 80.3739 121.961C80.41 121.961 80.4281 121.967 80.4281 121.979L80.2926 122.901C80.2926 122.925 80.2835 122.949 80.2655 122.973C80.2534 122.991 80.2354 123 80.2113 123C79.7838 123 79.3292 123 78.8475 123C78.3658 123 77.9022 123 77.4567 123C77.4326 123 77.4115 122.985 77.3934 122.955C77.3754 122.919 77.3754 122.889 77.3934 122.865ZM81.0272 122.865C81.4126 122.557 81.7347 122.287 81.9936 122.052C82.2585 121.817 82.4693 121.609 82.6258 121.429C82.7824 121.242 82.8938 121.067 82.96 120.905C83.0323 120.742 83.0684 120.58 83.0684 120.417C83.0684 120.17 82.9931 119.971 82.8426 119.821C82.6981 119.67 82.5084 119.595 82.2736 119.595C82.0328 119.595 81.828 119.691 81.6595 119.884C81.4909 120.071 81.3524 120.348 81.244 120.715C81.238 120.727 81.2169 120.73 81.1808 120.724C81.1447 120.718 81.1296 120.706 81.1356 120.688L81.4879 119.315C81.4939 119.297 81.5149 119.294 81.5511 119.306C81.5872 119.312 81.5992 119.321 81.5872 119.333C81.5631 119.436 81.5661 119.502 81.5962 119.532C81.6324 119.562 81.6715 119.577 81.7136 119.577C81.804 119.577 81.9244 119.547 82.0749 119.487C82.2315 119.427 82.4211 119.396 82.6439 119.396C82.957 119.396 83.2008 119.481 83.3755 119.649C83.5501 119.812 83.6374 120.026 83.6374 120.291C83.6374 120.453 83.5982 120.616 83.52 120.778C83.4417 120.935 83.3243 121.1 83.1677 121.275C83.0112 121.444 82.8125 121.627 82.5716 121.826C82.3368 122.025 82.0599 122.247 81.7407 122.494C81.7167 122.512 81.7106 122.527 81.7227 122.539C81.7347 122.551 81.7528 122.557 81.7769 122.557C82.2164 122.557 82.5716 122.554 82.8426 122.548C83.1135 122.536 83.3243 122.515 83.4748 122.485C83.6253 122.449 83.7337 122.392 83.7999 122.314C83.8722 122.229 83.9234 122.115 83.9535 121.97C83.9595 121.958 83.9776 121.955 84.0077 121.961C84.0438 121.961 84.0619 121.967 84.0619 121.979L83.9264 122.901C83.9264 122.925 83.9173 122.949 83.8993 122.973C83.8872 122.991 83.8692 123 83.8451 123C83.4176 123 82.963 123 82.4813 123C81.9996 123 81.536 123 81.0905 123C81.0664 123 81.0453 122.985 81.0272 122.955C81.0092 122.919 81.0092 122.889 81.0272 122.865Z" fill="black"/>
<path d="M69.1549 62.9906L67.8418 60.1582C67.7168 59.8768 67.6136 59.6955 67.5323 59.6142C67.451 59.5329 67.351 59.4923 67.2322 59.4923C67.2197 59.4923 67.2134 59.4735 67.2134 59.436C67.2134 59.3985 67.2197 59.3797 67.2322 59.3797C67.326 59.3797 67.426 59.3829 67.5323 59.3891C67.6386 59.3954 67.748 59.3985 67.8606 59.3985C68.0732 59.3985 68.2545 59.3954 68.4046 59.3891C68.5609 59.3829 68.7016 59.3797 68.8266 59.3797C68.8454 59.3797 68.8547 59.3985 68.8547 59.436C68.8547 59.4735 68.8454 59.4923 68.8266 59.4923C68.639 59.4923 68.489 59.5173 68.3764 59.5673C68.2701 59.6173 68.2514 59.7142 68.3201 59.8581L69.5207 62.4185L69.258 62.7937L70.346 60.13C70.4398 59.9049 70.4335 59.7424 70.3272 59.6423C70.2209 59.5423 70.0021 59.4923 69.6707 59.4923C69.6582 59.4923 69.652 59.4735 69.652 59.436C69.652 59.3985 69.6582 59.3797 69.6707 59.3797C69.8208 59.3797 69.9615 59.3829 70.0928 59.3891C70.2303 59.3954 70.4054 59.3985 70.618 59.3985C70.7555 59.3985 70.865 59.3954 70.9463 59.3891C71.0275 59.3829 71.1276 59.3797 71.2464 59.3797C71.2651 59.3797 71.2745 59.3985 71.2745 59.436C71.2745 59.4735 71.2651 59.4923 71.2464 59.4923C71.0963 59.4923 70.9681 59.5423 70.8618 59.6423C70.7555 59.7361 70.6461 59.9143 70.5336 60.1769L69.3612 62.9906C69.355 63.0156 69.3206 63.0281 69.258 63.0281C69.2018 63.0281 69.1674 63.0156 69.1549 62.9906ZM66.9414 62.9906L65.6284 60.1582C65.4971 59.8768 65.3877 59.6955 65.3001 59.6142C65.2188 59.5329 65.1188 59.4923 65 59.4923C64.9812 59.4923 64.9719 59.4735 64.9719 59.436C64.9719 59.3985 64.9812 59.3797 65 59.3797C65.0938 59.3797 65.1938 59.3829 65.3001 59.3891C65.4127 59.3954 65.5283 59.3985 65.6471 59.3985C65.8472 59.3985 66.0223 59.3954 66.1724 59.3891C66.3287 59.3829 66.4756 59.3797 66.6132 59.3797C66.6319 59.3797 66.6413 59.3985 66.6413 59.436C66.6413 59.4735 66.6319 59.4923 66.6132 59.4923C66.4131 59.4923 66.2599 59.5173 66.1536 59.5673C66.0536 59.6173 66.0379 59.7142 66.1067 59.8581L67.3166 62.4185L67.0352 62.7937L68.0575 60.327L68.217 60.4302L67.1478 62.9906C67.1415 63.0156 67.1071 63.0281 67.0446 63.0281C66.9883 63.0281 66.9539 63.0156 66.9414 62.9906ZM71.8082 63C71.7894 63 71.78 62.9812 71.78 62.9437C71.78 62.9062 71.7894 62.8875 71.8082 62.8875C72.0645 62.8875 72.2584 62.8718 72.3897 62.8406C72.5272 62.8093 72.6179 62.7468 72.6616 62.653C72.7054 62.5592 72.7273 62.4216 72.7273 62.2403V60.4958C72.7273 60.2457 72.7085 60.0706 72.671 59.9706C72.6335 59.8706 72.546 59.833 72.4084 59.8581C72.2771 59.8768 72.0739 59.9518 71.7988 60.0831C71.7738 60.0894 71.7519 60.0769 71.7331 60.0456C71.7206 60.0081 71.7269 59.9862 71.7519 59.98L73.1681 59.2953C73.1931 59.2828 73.215 59.2859 73.2338 59.3047C73.2525 59.3235 73.2619 59.3422 73.2619 59.361V62.2403C73.2619 62.4216 73.2807 62.5592 73.3182 62.653C73.3619 62.7468 73.4495 62.8093 73.5808 62.8406C73.7121 62.8718 73.909 62.8875 74.1717 62.8875C74.1904 62.8875 74.1998 62.9062 74.1998 62.9437C74.1998 62.9812 74.1904 63 74.1717 63C74.0153 63 73.8371 62.9969 73.6371 62.9906C73.437 62.9844 73.2213 62.9812 72.9899 62.9812C72.7711 62.9812 72.5585 62.9844 72.3521 62.9906C72.1521 62.9969 71.9707 63 71.8082 63ZM74.7534 62.8593C75.1536 62.5404 75.4881 62.2591 75.757 62.0152C76.0321 61.7714 76.251 61.5556 76.4135 61.3681C76.5761 61.1742 76.6918 60.9929 76.7605 60.8241C76.8356 60.6553 76.8731 60.4864 76.8731 60.3176C76.8731 60.0613 76.7949 59.8549 76.6386 59.6986C76.4886 59.5423 76.2916 59.4641 76.0477 59.4641C75.7976 59.4641 75.585 59.5642 75.41 59.7643C75.2349 59.9581 75.0911 60.2457 74.9785 60.6271C74.9723 60.6396 74.9504 60.6428 74.9129 60.6365C74.8754 60.6303 74.8597 60.6177 74.866 60.599L75.2318 59.1734C75.238 59.1546 75.2599 59.1515 75.2974 59.164C75.3349 59.1703 75.3474 59.1796 75.3349 59.1921C75.3099 59.2984 75.3131 59.3672 75.3443 59.3985C75.3818 59.4297 75.4225 59.4454 75.4662 59.4454C75.56 59.4454 75.6851 59.4141 75.8414 59.3516C76.004 59.2891 76.2009 59.2578 76.4323 59.2578C76.7574 59.2578 77.0106 59.3453 77.192 59.5204C77.3733 59.6892 77.464 59.9112 77.464 60.1863C77.464 60.3551 77.4233 60.524 77.342 60.6928C77.2608 60.8553 77.1388 61.0273 76.9763 61.2086C76.8137 61.3837 76.6074 61.5744 76.3572 61.7807C76.1134 61.9871 75.8258 62.2184 75.4944 62.4748C75.4694 62.4935 75.4631 62.5092 75.4756 62.5217C75.4881 62.5342 75.5069 62.5404 75.5319 62.5404C75.9883 62.5404 76.3572 62.5373 76.6386 62.5311C76.92 62.5185 77.1388 62.4967 77.2951 62.4654C77.4515 62.4279 77.564 62.3685 77.6328 62.2872C77.7078 62.1997 77.761 62.0809 77.7922 61.9308C77.7985 61.9183 77.8172 61.9152 77.8485 61.9214C77.886 61.9214 77.9048 61.9277 77.9048 61.9402L77.7641 62.8968C77.7641 62.9218 77.7547 62.9469 77.736 62.9719C77.7234 62.9906 77.7047 63 77.6797 63C77.2357 63 76.7637 63 76.2635 63C75.7632 63 75.2818 63 74.8191 63C74.7941 63 74.7722 62.9844 74.7534 62.9531C74.7347 62.9156 74.7347 62.8843 74.7534 62.8593Z" fill="black"/>
<path d="M172.724 137.978C172.755 137.978 172.77 138.01 172.77 138.072C172.77 138.134 172.755 138.166 172.724 138.166C172.464 138.166 172.24 138.254 172.053 138.431C171.866 138.608 171.689 138.92 171.522 139.367L169.619 144.437C169.245 145.435 168.886 146.22 168.543 146.792C168.2 147.375 167.841 147.786 167.466 148.025C167.102 148.264 166.697 148.384 166.25 148.384C166.031 148.384 165.844 148.332 165.688 148.228C165.532 148.134 165.454 147.983 165.454 147.775C165.454 147.619 165.506 147.5 165.61 147.416C165.704 147.344 165.813 147.307 165.938 147.307C166.146 147.307 166.302 147.338 166.406 147.401C166.51 147.463 166.614 147.526 166.718 147.588C166.822 147.65 166.957 147.682 167.123 147.682C167.373 147.682 167.612 147.562 167.841 147.323C168.08 147.094 168.335 146.699 168.605 146.137C168.876 145.576 169.193 144.811 169.557 143.844L169.541 144.281L167.076 139.273C166.848 138.816 166.666 138.519 166.53 138.384C166.406 138.238 166.244 138.166 166.047 138.166C166.026 138.166 166.016 138.134 166.016 138.072C166.016 138.01 166.026 137.978 166.047 137.978C166.213 137.978 166.385 137.984 166.562 137.994C166.749 138.004 166.926 138.01 167.092 138.01C167.435 138.01 167.737 138.004 167.997 137.994C168.257 137.984 168.491 137.978 168.699 137.978C168.72 137.978 168.73 138.01 168.73 138.072C168.73 138.134 168.72 138.166 168.699 138.166C168.366 138.166 168.111 138.207 167.934 138.29C167.768 138.374 167.747 138.535 167.872 138.774L170.009 143.173L169.65 143.813L171.179 139.414C171.335 138.946 171.33 138.623 171.164 138.446C171.008 138.259 170.654 138.166 170.103 138.166C170.082 138.166 170.072 138.134 170.072 138.072C170.072 138.01 170.082 137.978 170.103 137.978C170.352 137.978 170.586 137.984 170.805 137.994C171.034 138.004 171.325 138.01 171.678 138.01C171.907 138.01 172.089 138.004 172.224 137.994C172.37 137.984 172.536 137.978 172.724 137.978ZM173.356 143.766C174.022 143.236 174.578 142.768 175.026 142.362C175.483 141.956 175.847 141.598 176.118 141.286C176.388 140.963 176.58 140.662 176.695 140.381C176.82 140.1 176.882 139.819 176.882 139.538C176.882 139.112 176.752 138.769 176.492 138.509C176.242 138.249 175.915 138.119 175.509 138.119C175.093 138.119 174.74 138.285 174.448 138.618C174.157 138.94 173.918 139.419 173.731 140.053C173.72 140.074 173.684 140.079 173.622 140.069C173.559 140.058 173.533 140.038 173.544 140.006L174.152 137.635C174.162 137.604 174.199 137.599 174.261 137.62C174.324 137.63 174.344 137.646 174.324 137.666C174.282 137.843 174.287 137.958 174.339 138.01C174.402 138.062 174.469 138.088 174.542 138.088C174.698 138.088 174.906 138.036 175.166 137.932C175.436 137.828 175.764 137.776 176.149 137.776C176.69 137.776 177.111 137.921 177.412 138.212C177.714 138.493 177.865 138.862 177.865 139.32C177.865 139.601 177.797 139.882 177.662 140.162C177.527 140.433 177.324 140.719 177.054 141.02C176.783 141.312 176.44 141.629 176.024 141.972C175.618 142.315 175.14 142.7 174.589 143.126C174.547 143.158 174.537 143.184 174.558 143.204C174.578 143.225 174.61 143.236 174.651 143.236C175.41 143.236 176.024 143.23 176.492 143.22C176.96 143.199 177.324 143.163 177.584 143.111C177.844 143.048 178.031 142.95 178.146 142.814C178.27 142.669 178.359 142.471 178.411 142.222C178.421 142.201 178.452 142.196 178.504 142.206C178.567 142.206 178.598 142.216 178.598 142.237L178.364 143.828C178.364 143.87 178.348 143.912 178.317 143.953C178.296 143.984 178.265 144 178.224 144C177.485 144 176.7 144 175.868 144C175.036 144 174.235 144 173.466 144C173.424 144 173.388 143.974 173.356 143.922C173.325 143.86 173.325 143.808 173.356 143.766Z" fill="black"/>
<path d="M41.8984 115.094C41.8568 115.114 41.8152 115.125 41.7736 115.125C41.6384 115.125 41.5084 115.016 41.3836 114.797C41.2588 114.568 41.1964 114.241 41.1964 113.814V111.022C41.1964 110.533 41.1496 110.154 41.056 109.883C40.9728 109.613 40.8532 109.426 40.6972 109.322C40.5516 109.218 40.3852 109.166 40.198 109.166C39.938 109.166 39.7248 109.233 39.5584 109.368C39.392 109.493 39.2672 109.654 39.184 109.852C39.1008 110.05 39.0436 110.247 39.0124 110.445C39.002 110.59 38.9552 110.726 38.872 110.85C38.7992 110.975 38.6536 111.038 38.4352 111.038C38.2688 111.038 38.1388 110.996 38.0452 110.913C37.9516 110.83 37.9048 110.715 37.9048 110.57C37.9048 110.382 37.9984 110.19 38.1856 109.992C38.3728 109.784 38.6068 109.597 38.8876 109.431C39.1788 109.254 39.4804 109.114 39.7924 109.01C40.1148 108.895 40.4164 108.838 40.6972 108.838C41.0924 108.838 41.42 108.978 41.68 109.259C41.94 109.53 42.07 109.961 42.07 110.554V113.315C42.07 113.679 42.1168 113.944 42.2104 114.111C42.304 114.277 42.4548 114.36 42.6628 114.36C42.85 114.36 43.11 114.293 43.4428 114.158C43.4948 114.137 43.5312 114.158 43.552 114.22C43.5728 114.272 43.5572 114.308 43.5052 114.329L41.8984 115.094ZM38.8408 115.109C38.508 115.109 38.2584 115.021 38.092 114.844C37.9256 114.657 37.8424 114.444 37.8424 114.204C37.8424 113.913 37.9568 113.684 38.1856 113.518C38.4144 113.341 38.7888 113.164 39.3088 112.988L41.3524 112.254L41.3992 112.426L39.5896 113.112C39.3504 113.206 39.1788 113.31 39.0748 113.424C38.9812 113.539 38.9344 113.684 38.9344 113.861C38.9344 114.08 38.9968 114.251 39.1216 114.376C39.2464 114.49 39.4076 114.548 39.6052 114.548C39.7196 114.548 39.8288 114.537 39.9328 114.516C40.0368 114.485 40.1408 114.444 40.2448 114.392L41.5708 113.721L41.602 113.908L40.2448 114.641C39.9328 114.797 39.6728 114.917 39.4648 115C39.2568 115.073 39.0488 115.109 38.8408 115.109ZM44.1127 114.766C44.7783 114.236 45.3347 113.768 45.7819 113.362C46.2395 112.956 46.6035 112.598 46.8739 112.286C47.1443 111.963 47.3367 111.662 47.4511 111.381C47.5759 111.1 47.6383 110.819 47.6383 110.538C47.6383 110.112 47.5083 109.769 47.2483 109.509C46.9987 109.249 46.6711 109.119 46.2655 109.119C45.8495 109.119 45.4959 109.285 45.2047 109.618C44.9135 109.94 44.6743 110.419 44.4871 111.053C44.4767 111.074 44.4403 111.079 44.3779 111.069C44.3155 111.058 44.2895 111.038 44.2999 111.006L44.9083 108.635C44.9187 108.604 44.9551 108.599 45.0175 108.62C45.0799 108.63 45.1007 108.646 45.0799 108.666C45.0383 108.843 45.0435 108.958 45.0955 109.01C45.1579 109.062 45.2255 109.088 45.2983 109.088C45.4543 109.088 45.6623 109.036 45.9223 108.932C46.1927 108.828 46.5203 108.776 46.9051 108.776C47.4459 108.776 47.8671 108.921 48.1687 109.212C48.4703 109.493 48.6211 109.862 48.6211 110.32C48.6211 110.601 48.5535 110.882 48.4183 111.162C48.2831 111.433 48.0803 111.719 47.8099 112.02C47.5395 112.312 47.1963 112.629 46.7803 112.972C46.3747 113.315 45.8963 113.7 45.3451 114.126C45.3035 114.158 45.2931 114.184 45.3139 114.204C45.3347 114.225 45.3659 114.236 45.4075 114.236C46.1667 114.236 46.7803 114.23 47.2483 114.22C47.7163 114.199 48.0803 114.163 48.3403 114.111C48.6003 114.048 48.7875 113.95 48.9019 113.814C49.0267 113.669 49.1151 113.471 49.1671 113.222C49.1775 113.201 49.2087 113.196 49.2607 113.206C49.3231 113.206 49.3543 113.216 49.3543 113.237L49.1203 114.828C49.1203 114.87 49.1047 114.912 49.0735 114.953C49.0527 114.984 49.0215 115 48.9799 115C48.2415 115 47.4563 115 46.6243 115C45.7923 115 44.9915 115 44.2219 115C44.1803 115 44.1439 114.974 44.1127 114.922C44.0815 114.86 44.0815 114.808 44.1127 114.766Z" fill="black"/>
<path d="M40.8984 184.094C40.8568 184.114 40.8152 184.125 40.7736 184.125C40.6384 184.125 40.5084 184.016 40.3836 183.797C40.2588 183.568 40.1964 183.241 40.1964 182.814V180.022C40.1964 179.533 40.1496 179.154 40.056 178.883C39.9728 178.613 39.8532 178.426 39.6972 178.322C39.5516 178.218 39.3852 178.166 39.198 178.166C38.938 178.166 38.7248 178.233 38.5584 178.368C38.392 178.493 38.2672 178.654 38.184 178.852C38.1008 179.05 38.0436 179.247 38.0124 179.445C38.002 179.59 37.9552 179.726 37.872 179.85C37.7992 179.975 37.6536 180.038 37.4352 180.038C37.2688 180.038 37.1388 179.996 37.0452 179.913C36.9516 179.83 36.9048 179.715 36.9048 179.57C36.9048 179.382 36.9984 179.19 37.1856 178.992C37.3728 178.784 37.6068 178.597 37.8876 178.431C38.1788 178.254 38.4804 178.114 38.7924 178.01C39.1148 177.895 39.4164 177.838 39.6972 177.838C40.0924 177.838 40.42 177.978 40.68 178.259C40.94 178.53 41.07 178.961 41.07 179.554V182.315C41.07 182.679 41.1168 182.944 41.2104 183.111C41.304 183.277 41.4548 183.36 41.6628 183.36C41.85 183.36 42.11 183.293 42.4428 183.158C42.4948 183.137 42.5312 183.158 42.552 183.22C42.5728 183.272 42.5572 183.308 42.5052 183.329L40.8984 184.094ZM37.8408 184.109C37.508 184.109 37.2584 184.021 37.092 183.844C36.9256 183.657 36.8424 183.444 36.8424 183.204C36.8424 182.913 36.9568 182.684 37.1856 182.518C37.4144 182.341 37.7888 182.164 38.3088 181.988L40.3524 181.254L40.3992 181.426L38.5896 182.112C38.3504 182.206 38.1788 182.31 38.0748 182.424C37.9812 182.539 37.9344 182.684 37.9344 182.861C37.9344 183.08 37.9968 183.251 38.1216 183.376C38.2464 183.49 38.4076 183.548 38.6052 183.548C38.7196 183.548 38.8288 183.537 38.9328 183.516C39.0368 183.485 39.1408 183.444 39.2448 183.392L40.5708 182.721L40.602 182.908L39.2448 183.641C38.9328 183.797 38.6728 183.917 38.4648 184C38.2568 184.073 38.0488 184.109 37.8408 184.109ZM43.4559 188.29C43.4143 188.3 43.3779 188.274 43.3467 188.212C43.3259 188.16 43.3363 188.129 43.3779 188.118C44.0643 187.9 44.6311 187.64 45.0783 187.338C45.5255 187.037 45.8791 186.709 46.1391 186.356C46.4095 186.002 46.5967 185.648 46.7007 185.295C46.8047 184.952 46.8567 184.624 46.8567 184.312C46.8567 183.979 46.7995 183.662 46.6851 183.36C46.5707 183.048 46.3835 182.799 46.1235 182.612C45.8739 182.414 45.5359 182.315 45.1095 182.315C44.9847 182.315 44.8599 182.32 44.7351 182.331C44.6103 182.341 44.4803 182.367 44.3451 182.409C44.3139 182.419 44.2879 182.393 44.2671 182.331C44.2463 182.268 44.2515 182.232 44.2827 182.222C45.1147 182.003 45.6919 181.707 46.0143 181.332C46.3471 180.958 46.5135 180.454 46.5135 179.819C46.5135 179.31 46.4043 178.899 46.1859 178.587C45.9779 178.275 45.6347 178.119 45.1563 178.119C44.7091 178.119 44.3243 178.264 44.0019 178.556C43.6795 178.847 43.4247 179.32 43.2375 179.975C43.2271 179.996 43.1907 180.001 43.1283 179.991C43.0659 179.98 43.0399 179.96 43.0503 179.928L43.6275 177.651C43.6483 177.62 43.6847 177.614 43.7367 177.635C43.7991 177.646 43.8251 177.661 43.8147 177.682C43.7731 177.859 43.7835 177.978 43.8459 178.041C43.9083 178.093 43.9759 178.119 44.0487 178.119C44.2047 178.119 44.4179 178.062 44.6883 177.947C44.9587 177.833 45.2863 177.776 45.6711 177.776C46.2743 177.776 46.7319 177.958 47.0439 178.322C47.3559 178.686 47.5119 179.096 47.5119 179.554C47.5119 179.939 47.4235 180.313 47.2467 180.677C47.0699 181.031 46.8151 181.343 46.4823 181.613C46.1495 181.873 45.7491 182.05 45.2811 182.144L45.5151 181.941C46.0767 181.951 46.5395 182.06 46.9035 182.268C47.2675 182.476 47.5379 182.747 47.7147 183.08C47.8915 183.412 47.9799 183.766 47.9799 184.14C47.9799 184.619 47.8187 185.123 47.4963 185.654C47.1843 186.194 46.6903 186.694 46.0143 187.151C45.3487 187.619 44.4959 187.999 43.4559 188.29Z" fill="black"/>
<path d="M168.819 197.145C168.529 197.145 168.243 197.097 167.961 197C167.679 196.911 167.408 196.755 167.148 196.532L167.671 195.54C167.671 195.882 167.757 196.157 167.928 196.365C168.099 196.565 168.299 196.71 168.529 196.799C168.767 196.889 168.979 196.933 169.165 196.933C169.595 196.933 169.93 196.766 170.167 196.432C170.413 196.097 170.535 195.618 170.535 194.994C170.535 194.303 170.401 193.787 170.134 193.445C169.867 193.096 169.525 192.922 169.109 192.922C168.804 192.922 168.522 193.018 168.262 193.211C168.002 193.397 167.761 193.609 167.538 193.847L167.449 193.769C167.605 193.598 167.779 193.419 167.972 193.234C168.165 193.041 168.385 192.881 168.63 192.755C168.882 192.621 169.165 192.554 169.477 192.554C169.796 192.554 170.089 192.632 170.357 192.788C170.624 192.937 170.843 193.163 171.014 193.468C171.185 193.772 171.271 194.155 171.271 194.615C171.271 195.18 171.148 195.652 170.903 196.031C170.665 196.402 170.357 196.681 169.978 196.866C169.607 197.052 169.22 197.145 168.819 197.145ZM166.457 197.056C166.427 197.063 166.405 197.048 166.39 197.011C166.375 196.981 166.379 196.959 166.401 196.944C166.617 196.796 166.776 196.651 166.88 196.51C166.992 196.369 167.047 196.149 167.047 195.852V190.348C167.047 190.08 167.021 189.887 166.969 189.768C166.917 189.649 166.821 189.59 166.68 189.59C166.561 189.59 166.394 189.638 166.178 189.735C166.149 189.75 166.123 189.735 166.1 189.69C166.085 189.646 166.093 189.62 166.123 189.612L167.515 188.933C167.538 188.925 167.556 188.921 167.571 188.921C167.593 188.921 167.616 188.933 167.638 188.955C167.66 188.97 167.671 188.988 167.671 189.011V196.487L166.457 197.056ZM172.093 196.833C172.568 196.454 172.965 196.12 173.285 195.83C173.612 195.54 173.872 195.284 174.065 195.061C174.258 194.831 174.395 194.615 174.477 194.415C174.566 194.214 174.611 194.014 174.611 193.813C174.611 193.509 174.518 193.263 174.332 193.078C174.154 192.892 173.92 192.799 173.63 192.799C173.333 192.799 173.081 192.918 172.873 193.156C172.665 193.386 172.494 193.728 172.36 194.181C172.353 194.196 172.327 194.199 172.282 194.192C172.237 194.185 172.219 194.17 172.226 194.147L172.661 192.454C172.668 192.431 172.694 192.428 172.739 192.443C172.783 192.45 172.798 192.461 172.783 192.476C172.754 192.602 172.757 192.684 172.795 192.721C172.839 192.758 172.887 192.777 172.939 192.777C173.051 192.777 173.199 192.74 173.385 192.665C173.578 192.591 173.812 192.554 174.087 192.554C174.473 192.554 174.774 192.658 174.99 192.866C175.205 193.067 175.313 193.33 175.313 193.657C175.313 193.858 175.265 194.058 175.168 194.259C175.071 194.452 174.927 194.656 174.733 194.872C174.54 195.08 174.295 195.306 173.998 195.551C173.708 195.797 173.367 196.071 172.973 196.376C172.943 196.398 172.936 196.417 172.951 196.432C172.965 196.447 172.988 196.454 173.017 196.454C173.56 196.454 173.998 196.45 174.332 196.443C174.667 196.428 174.927 196.402 175.112 196.365C175.298 196.32 175.432 196.25 175.513 196.153C175.603 196.049 175.666 195.908 175.703 195.73C175.71 195.715 175.733 195.711 175.77 195.719C175.814 195.719 175.837 195.726 175.837 195.741L175.669 196.877C175.669 196.907 175.658 196.937 175.636 196.967C175.621 196.989 175.599 197 175.569 197C175.042 197 174.481 197 173.887 197C173.292 197 172.72 197 172.171 197C172.141 197 172.115 196.981 172.093 196.944C172.07 196.9 172.07 196.863 172.093 196.833Z" fill="black"/>
<circle cx="271.5" cy="78.5" r="22.3192" stroke="#1C1A1A" stroke-width="0.361538"/>
<circle cx="272" cy="25" r="15.8715" stroke="#1C1A1A" stroke-width="0.257094"/>
<circle cx="271.5" cy="139.5" r="22.3192" stroke="#1C1A1A" stroke-width="0.361538"/>
<path d="M271.646 56.3536C271.842 56.5488 272.158 56.5488 272.354 56.3536L275.536 53.1716C275.731 52.9763 275.731 52.6597 275.536 52.4645C275.34 52.2692 275.024 52.2692 274.828 52.4645L272 55.2929L269.172 52.4645C268.976 52.2692 268.66 52.2692 268.464 52.4645C268.269 52.6597 268.269 52.9763 268.464 53.1716L271.646 56.3536ZM271.5 41V41.9375H272.5V41H271.5ZM271.5 43.8125V45.6875H272.5V43.8125H271.5ZM271.5 47.5625V49.4375H272.5V47.5625H271.5ZM271.5 51.3125V53.1875H272.5V51.3125H271.5ZM271.5 55.0625V56H272.5V55.0625H271.5ZM271.646 56.3536C271.842 56.5488 272.158 56.5488 272.354 56.3536L275.536 53.1716C275.731 52.9763 275.731 52.6597 275.536 52.4645C275.34 52.2692 275.024 52.2692 274.828 52.4645L272 55.2929L269.172 52.4645C268.976 52.2692 268.66 52.2692 268.464 52.4645C268.269 52.6597 268.269 52.9763 268.464 53.1716L271.646 56.3536ZM271.5 41V41.9375H272.5V41H271.5ZM271.5 43.8125V45.6875H272.5V43.8125H271.5ZM271.5 47.5625V49.4375H272.5V47.5625H271.5ZM271.5 51.3125V53.1875H272.5V51.3125H271.5ZM271.5 55.0625V56H272.5V55.0625H271.5Z" fill="#5F5F5F"/>
<path d="M265.655 82.8128L269.399 77.2904C269.441 77.2176 269.415 77.1812 269.321 77.1812C268.562 77.1812 267.948 77.2176 267.48 77.2904C267.012 77.3528 266.648 77.4828 266.388 77.6804C266.139 77.878 265.952 78.1744 265.827 78.5696C265.816 78.6008 265.78 78.6112 265.718 78.6008C265.666 78.58 265.645 78.5592 265.655 78.5384L266.186 76.526C266.196 76.5052 266.232 76.5 266.295 76.5104C266.357 76.5104 266.378 76.5208 266.357 76.5416C266.316 76.7184 266.352 76.838 266.466 76.9004C266.591 76.9524 266.804 76.9784 267.106 76.9784C267.48 76.9784 267.938 76.9784 268.479 76.9784C269.03 76.9784 269.675 76.9784 270.413 76.9784C270.455 76.9784 270.491 76.9992 270.522 77.0408C270.554 77.0824 270.559 77.124 270.538 77.1656L266.856 82.6568C266.815 82.7296 266.841 82.766 266.934 82.766C267.652 82.766 268.224 82.7504 268.65 82.7192C269.087 82.688 269.425 82.6256 269.664 82.532C269.904 82.428 270.086 82.272 270.21 82.064C270.346 81.856 270.47 81.5752 270.585 81.2216C270.595 81.2008 270.626 81.1904 270.678 81.1904C270.73 81.1904 270.756 81.2008 270.756 81.2216L270.725 82.8284C270.725 82.87 270.71 82.9116 270.678 82.9532C270.658 82.9844 270.626 83 270.585 83C270.096 83 269.576 83 269.025 83C268.474 83 267.922 83 267.371 83C266.82 83 266.284 83 265.764 83C265.723 83 265.686 82.9792 265.655 82.9376C265.634 82.896 265.634 82.8544 265.655 82.8128ZM272.18 83C272.149 83 272.133 82.9688 272.133 82.9064C272.133 82.844 272.149 82.8128 272.18 82.8128C272.607 82.8128 272.929 82.7868 273.147 82.7348C273.376 82.6828 273.527 82.5788 273.6 82.4228C273.673 82.2668 273.709 82.038 273.709 81.7364V78.8348C273.709 78.4188 273.678 78.1276 273.615 77.9612C273.553 77.7948 273.407 77.7324 273.179 77.774C272.96 77.8052 272.622 77.93 272.165 78.1484C272.123 78.1588 272.087 78.138 272.055 78.086C272.035 78.0236 272.045 77.9872 272.087 77.9768L274.442 76.838C274.484 76.8172 274.52 76.8224 274.551 76.8536C274.583 76.8848 274.598 76.916 274.598 76.9472V81.7364C274.598 82.038 274.629 82.2668 274.692 82.4228C274.765 82.5788 274.91 82.6828 275.129 82.7348C275.347 82.7868 275.675 82.8128 276.111 82.8128C276.143 82.8128 276.158 82.844 276.158 82.9064C276.158 82.9688 276.143 83 276.111 83C275.851 83 275.555 82.9948 275.222 82.9844C274.889 82.974 274.531 82.9688 274.146 82.9688C273.782 82.9688 273.428 82.974 273.085 82.9844C272.752 82.9948 272.451 83 272.18 83Z" fill="black"/>
<path d="M269.574 29.1337C269.069 29.1337 268.657 29.026 268.337 28.8106C268.018 28.5877 267.78 28.3091 267.624 27.9749C267.475 27.6331 267.401 27.2877 267.401 26.9386C267.401 26.5671 267.472 26.2366 267.613 25.9469C267.761 25.6571 267.955 25.412 268.192 25.2114C268.43 25.0109 268.694 24.8586 268.983 24.7546C269.273 24.6506 269.555 24.5986 269.83 24.5986C270.046 24.5986 270.25 24.6283 270.443 24.6877C270.644 24.7397 270.807 24.8177 270.933 24.9217C271.067 25.0257 271.134 25.1446 271.134 25.2783C271.134 25.3749 271.101 25.4603 271.034 25.5346C270.967 25.6014 270.87 25.6349 270.744 25.6349C270.625 25.6349 270.525 25.5977 270.443 25.5234C270.369 25.4491 270.306 25.3637 270.254 25.2671C270.172 25.1334 270.075 25.0257 269.964 24.944C269.853 24.8623 269.685 24.8214 269.463 24.8214C269.039 24.8214 268.712 24.9886 268.482 25.3229C268.252 25.6497 268.137 26.0769 268.137 26.6043C268.137 26.9831 268.2 27.336 268.326 27.6629C268.46 27.9897 268.664 28.2534 268.939 28.454C269.214 28.6471 269.57 28.7437 270.009 28.7437C270.209 28.7437 270.406 28.7177 270.599 28.6657C270.792 28.6137 270.974 28.5171 271.145 28.376C271.16 28.3611 271.179 28.3686 271.201 28.3983C271.231 28.428 271.238 28.4503 271.223 28.4651C270.963 28.6954 270.703 28.8663 270.443 28.9777C270.183 29.0817 269.893 29.1337 269.574 29.1337ZM272.194 29C272.172 29 272.161 28.9777 272.161 28.9331C272.161 28.8886 272.172 28.8663 272.194 28.8663C272.499 28.8663 272.729 28.8477 272.885 28.8106C273.048 28.7734 273.156 28.6991 273.208 28.5877C273.26 28.4763 273.286 28.3129 273.286 28.0974V26.0249C273.286 25.7277 273.264 25.5197 273.219 25.4009C273.175 25.282 273.071 25.2374 272.907 25.2671C272.751 25.2894 272.51 25.3786 272.183 25.5346C272.153 25.542 272.127 25.5271 272.105 25.49C272.09 25.4454 272.097 25.4194 272.127 25.412L273.81 24.5986C273.839 24.5837 273.865 24.5874 273.888 24.6097C273.91 24.632 273.921 24.6543 273.921 24.6766V28.0974C273.921 28.3129 273.943 28.4763 273.988 28.5877C274.04 28.6991 274.144 28.7734 274.3 28.8106C274.456 28.8477 274.69 28.8663 275.002 28.8663C275.024 28.8663 275.035 28.8886 275.035 28.9331C275.035 28.9777 275.024 29 275.002 29C274.816 29 274.605 28.9963 274.367 28.9889C274.129 28.9814 273.873 28.9777 273.598 28.9777C273.338 28.9777 273.085 28.9814 272.84 28.9889C272.603 28.9963 272.387 29 272.194 29Z" fill="black"/>
<circle cx="16" cy="16" r="15.8715" transform="matrix(1 0 0 -1 255 210)" stroke="#1C1A1A" stroke-width="0.257094"/>
<path d="M270.646 162.646C270.842 162.451 271.158 162.451 271.354 162.646L274.536 165.828C274.731 166.024 274.731 166.34 274.536 166.536C274.34 166.731 274.024 166.731 273.828 166.536L271 163.707L268.172 166.536C267.976 166.731 267.66 166.731 267.464 166.536C267.269 166.34 267.269 166.024 267.464 165.828L270.646 162.646ZM270.5 178V177.062H271.5V178H270.5ZM270.5 175.187V173.312H271.5V175.187H270.5ZM270.5 171.437V169.562H271.5V171.437H270.5ZM270.5 167.687V165.812H271.5V167.687H270.5ZM270.5 163.937V163H271.5V163.937H270.5ZM270.646 162.646C270.842 162.451 271.158 162.451 271.354 162.646L274.536 165.828C274.731 166.024 274.731 166.34 274.536 166.536C274.34 166.731 274.024 166.731 273.828 166.536L271 163.707L268.172 166.536C267.976 166.731 267.66 166.731 267.464 166.536C267.269 166.34 267.269 166.024 267.464 165.828L270.646 162.646ZM270.5 178V177.062H271.5V178H270.5ZM270.5 175.187V173.312H271.5V175.187H270.5ZM270.5 171.437V169.562H271.5V171.437H270.5ZM270.5 167.687V165.812H271.5V167.687H270.5ZM270.5 163.937V163H271.5V163.937H270.5Z" fill="#5F5F5F"/>
<path d="M265.655 143.813L269.399 138.29C269.441 138.218 269.415 138.181 269.321 138.181C268.562 138.181 267.948 138.218 267.48 138.29C267.012 138.353 266.648 138.483 266.388 138.68C266.139 138.878 265.952 139.174 265.827 139.57C265.816 139.601 265.78 139.611 265.718 139.601C265.666 139.58 265.645 139.559 265.655 139.538L266.186 137.526C266.196 137.505 266.232 137.5 266.295 137.51C266.357 137.51 266.378 137.521 266.357 137.542C266.316 137.718 266.352 137.838 266.466 137.9C266.591 137.952 266.804 137.978 267.106 137.978C267.48 137.978 267.938 137.978 268.479 137.978C269.03 137.978 269.675 137.978 270.413 137.978C270.455 137.978 270.491 137.999 270.522 138.041C270.554 138.082 270.559 138.124 270.538 138.166L266.856 143.657C266.815 143.73 266.841 143.766 266.934 143.766C267.652 143.766 268.224 143.75 268.65 143.719C269.087 143.688 269.425 143.626 269.664 143.532C269.904 143.428 270.086 143.272 270.21 143.064C270.346 142.856 270.47 142.575 270.585 142.222C270.595 142.201 270.626 142.19 270.678 142.19C270.73 142.19 270.756 142.201 270.756 142.222L270.725 143.828C270.725 143.87 270.71 143.912 270.678 143.953C270.658 143.984 270.626 144 270.585 144C270.096 144 269.576 144 269.025 144C268.474 144 267.922 144 267.371 144C266.82 144 266.284 144 265.764 144C265.723 144 265.686 143.979 265.655 143.938C265.634 143.896 265.634 143.854 265.655 143.813ZM271.899 143.766C272.565 143.236 273.121 142.768 273.569 142.362C274.026 141.956 274.39 141.598 274.661 141.286C274.931 140.963 275.123 140.662 275.238 140.381C275.363 140.1 275.425 139.819 275.425 139.538C275.425 139.112 275.295 138.769 275.035 138.509C274.785 138.249 274.458 138.119 274.052 138.119C273.636 138.119 273.283 138.285 272.991 138.618C272.7 138.94 272.461 139.419 272.274 140.053C272.263 140.074 272.227 140.079 272.165 140.069C272.102 140.058 272.076 140.038 272.087 140.006L272.695 137.635C272.705 137.604 272.742 137.599 272.804 137.62C272.867 137.63 272.887 137.646 272.867 137.666C272.825 137.843 272.83 137.958 272.882 138.01C272.945 138.062 273.012 138.088 273.085 138.088C273.241 138.088 273.449 138.036 273.709 137.932C273.979 137.828 274.307 137.776 274.692 137.776C275.233 137.776 275.654 137.921 275.955 138.212C276.257 138.493 276.408 138.862 276.408 139.32C276.408 139.601 276.34 139.882 276.205 140.162C276.07 140.433 275.867 140.719 275.597 141.02C275.326 141.312 274.983 141.629 274.567 141.972C274.161 142.315 273.683 142.7 273.132 143.126C273.09 143.158 273.08 143.184 273.101 143.204C273.121 143.225 273.153 143.236 273.194 143.236C273.953 143.236 274.567 143.23 275.035 143.22C275.503 143.199 275.867 143.163 276.127 143.111C276.387 143.048 276.574 142.95 276.689 142.814C276.813 142.669 276.902 142.471 276.954 142.222C276.964 142.201 276.995 142.196 277.047 142.206C277.11 142.206 277.141 142.216 277.141 142.237L276.907 143.828C276.907 143.87 276.891 143.912 276.86 143.953C276.839 143.984 276.808 144 276.767 144C276.028 144 275.243 144 274.411 144C273.579 144 272.778 144 272.009 144C271.967 144 271.931 143.974 271.899 143.922C271.868 143.86 271.868 143.808 271.899 143.766Z" fill="black"/>
<path d="M268.574 197.134C268.069 197.134 267.657 197.026 267.337 196.811C267.018 196.588 266.78 196.309 266.624 195.975C266.475 195.633 266.401 195.288 266.401 194.939C266.401 194.567 266.472 194.237 266.613 193.947C266.761 193.657 266.955 193.412 267.192 193.211C267.43 193.011 267.694 192.859 267.983 192.755C268.273 192.651 268.555 192.599 268.83 192.599C269.046 192.599 269.25 192.628 269.443 192.688C269.644 192.74 269.807 192.818 269.933 192.922C270.067 193.026 270.134 193.145 270.134 193.278C270.134 193.375 270.101 193.46 270.034 193.535C269.967 193.601 269.87 193.635 269.744 193.635C269.625 193.635 269.525 193.598 269.443 193.523C269.369 193.449 269.306 193.364 269.254 193.267C269.172 193.133 269.075 193.026 268.964 192.944C268.853 192.862 268.685 192.821 268.463 192.821C268.039 192.821 267.712 192.989 267.482 193.323C267.252 193.65 267.137 194.077 267.137 194.604C267.137 194.983 267.2 195.336 267.326 195.663C267.46 195.99 267.664 196.253 267.939 196.454C268.214 196.647 268.57 196.744 269.009 196.744C269.209 196.744 269.406 196.718 269.599 196.666C269.792 196.614 269.974 196.517 270.145 196.376C270.16 196.361 270.179 196.369 270.201 196.398C270.231 196.428 270.238 196.45 270.223 196.465C269.963 196.695 269.703 196.866 269.443 196.978C269.183 197.082 268.893 197.134 268.574 197.134ZM270.993 196.833C271.469 196.454 271.866 196.12 272.186 195.83C272.513 195.54 272.773 195.284 272.966 195.061C273.159 194.831 273.296 194.615 273.378 194.415C273.467 194.214 273.512 194.014 273.512 193.813C273.512 193.509 273.419 193.263 273.233 193.078C273.055 192.892 272.821 192.799 272.531 192.799C272.234 192.799 271.981 192.918 271.773 193.156C271.565 193.386 271.395 193.728 271.261 194.181C271.253 194.196 271.227 194.199 271.183 194.192C271.138 194.185 271.12 194.17 271.127 194.147L271.562 192.454C271.569 192.431 271.595 192.428 271.64 192.443C271.684 192.45 271.699 192.461 271.684 192.476C271.655 192.602 271.658 192.684 271.695 192.721C271.74 192.758 271.788 192.777 271.84 192.777C271.952 192.777 272.1 192.74 272.286 192.665C272.479 192.591 272.713 192.554 272.988 192.554C273.374 192.554 273.675 192.658 273.891 192.866C274.106 193.067 274.214 193.33 274.214 193.657C274.214 193.858 274.165 194.058 274.069 194.259C273.972 194.452 273.827 194.656 273.634 194.872C273.441 195.08 273.196 195.306 272.899 195.551C272.609 195.797 272.267 196.071 271.874 196.376C271.844 196.398 271.837 196.417 271.851 196.432C271.866 196.447 271.889 196.454 271.918 196.454C272.461 196.454 272.899 196.45 273.233 196.443C273.567 196.428 273.827 196.402 274.013 196.365C274.199 196.32 274.333 196.25 274.414 196.153C274.503 196.049 274.567 195.908 274.604 195.73C274.611 195.715 274.633 195.711 274.671 195.719C274.715 195.719 274.737 195.726 274.737 195.741L274.57 196.877C274.57 196.907 274.559 196.937 274.537 196.967C274.522 196.989 274.5 197 274.47 197C273.943 197 273.382 197 272.787 197C272.193 197 271.621 197 271.071 197C271.042 197 271.016 196.981 270.993 196.944C270.971 196.9 270.971 196.863 270.993 196.833Z" fill="black"/>
</g>
<defs>
<clipPath id="clip0_10_38">
<rect width="325" height="225" fill="white"/>
</clipPath>
</defs>
</svg>
