<svg width="225" height="225" viewBox="0 0 225 225" fill="none" xmlns="http://www.w3.org/2000/svg">
<g clip-path="url(#clip0_16_850)">
<rect width="225" height="225" fill="#F4F1DE"/>
<rect width="225" height="225" fill="#F4F1DE"/>
<circle cx="84" cy="92" r="2" fill="#F98F8F"/>
<circle cx="72" cy="118" r="2" fill="#F98F8F"/>
<circle cx="76" cy="127" r="2" fill="#F98F8F"/>
<circle cx="82" cy="111" r="2" fill="#F98F8F"/>
<circle cx="101" cy="100" r="2" fill="#F98F8F"/>
<circle cx="89" cy="126" r="2" fill="#F98F8F"/>
<circle cx="99" cy="119" r="2" fill="#F98F8F"/>
<path d="M11.1464 9.64645C11.3417 9.45118 11.6583 9.45118 11.8536 9.64645L15.0355 12.8284C15.2308 13.0237 15.2308 13.3403 15.0355 13.5355C14.8403 13.7308 14.5237 13.7308 14.3284 13.5355L11.5 10.7071L8.67157 13.5355C8.47631 13.7308 8.15973 13.7308 7.96447 13.5355C7.7692 13.3403 7.7692 13.0237 7.96447 12.8284L11.1464 9.64645ZM11 210L11 10L12 10L12 210L11 210Z" fill="#5F5F5F"/>
<path d="M212.354 209.854C212.549 209.658 212.549 209.342 212.354 209.146L209.172 205.964C208.976 205.769 208.66 205.769 208.464 205.964C208.269 206.16 208.269 206.476 208.464 206.672L211.293 209.5L208.464 212.328C208.269 212.524 208.269 212.84 208.464 213.036C208.66 213.231 208.976 213.231 209.172 213.036L212.354 209.854ZM12 210H212V209H12V210Z" fill="#5F5F5F"/>
<line x1="11.6739" y1="208.621" x2="154.674" y2="85.6209" stroke="black"/>
<circle cx="46" cy="137" r="2" fill="#F98F8F"/>
<circle cx="30" cy="180" r="2" fill="#F98F8F"/>
<circle cx="61" cy="123" r="2" fill="#F98F8F"/>
<circle cx="47" cy="147" r="2" fill="#F98F8F"/>
<circle cx="35" cy="173" r="2" fill="#F98F8F"/>
<circle cx="45" cy="166" r="2" fill="#F98F8F"/>
<circle cx="77" cy="106" r="2" fill="#F98F8F"/>
<circle cx="63" cy="130" r="2" fill="#F98F8F"/>
<circle cx="51" cy="156" r="2" fill="#F98F8F"/>
<circle cx="61" cy="149" r="2" fill="#F98F8F"/>
<circle cx="37" cy="122" r="2" fill="#F98F8F"/>
<circle cx="35" cy="141" r="2" fill="#F98F8F"/>
<circle cx="49" cy="122" r="2" fill="#F98F8F"/>
<circle cx="59" cy="115" r="2" fill="#F98F8F"/>
<circle cx="99" cy="92" r="2" fill="#F98F8F"/>
<circle cx="85" cy="116" r="2" fill="#F98F8F"/>
<circle cx="84" cy="92" r="2" fill="#F98F8F"/>
<circle cx="72" cy="118" r="2" fill="#F98F8F"/>
<circle cx="82" cy="111" r="2" fill="#F98F8F"/>
<circle cx="101" cy="100" r="2" fill="#F98F8F"/>
<circle cx="77" cy="106" r="2" fill="#F98F8F"/>
<circle cx="49" cy="122" r="2" fill="#F98F8F"/>
<circle cx="59" cy="115" r="2" fill="#F98F8F"/>
<circle cx="99" cy="92" r="2" fill="#F98F8F"/>
<circle cx="85" cy="116" r="2" fill="#F98F8F"/>
<circle cx="73" cy="142" r="2" fill="#F98F8F"/>
<circle cx="83" cy="135" r="2" fill="#F98F8F"/>
<circle cx="2" cy="2" r="2" transform="matrix(0.141675 -0.989913 -0.989913 -0.141675 103.096 156.786)" fill="#8FB9F9"/>
<circle cx="2" cy="2" r="2" transform="matrix(0.141675 -0.989913 -0.989913 -0.141675 105.927 144.058)" fill="#8FB9F9"/>
<circle cx="2" cy="2" r="2" transform="matrix(0.141675 -0.989913 -0.989913 -0.141675 114.274 135.151)" fill="#8FB9F9"/>
<circle cx="2" cy="2" r="2" transform="matrix(0.141675 -0.989913 -0.989913 -0.141675 88.9464 185.066)" fill="#8FB9F9"/>
<circle cx="2" cy="2" r="2" transform="matrix(0.141675 -0.989913 -0.989913 -0.141675 63.205 195.525)" fill="#8FB9F9"/>
<circle cx="2" cy="2" r="2" transform="matrix(0.141675 -0.989913 -0.989913 -0.141675 35.7671 203.72)" fill="#8FB9F9"/>
<circle cx="2" cy="2" r="2" transform="matrix(0.141675 -0.989913 -0.989913 -0.141675 44.1132 194.813)" fill="#8FB9F9"/>
<circle cx="2" cy="2" r="2" transform="matrix(0.141675 -0.989913 -0.989913 -0.141675 104.93 172.201)" fill="#8FB9F9"/>
<circle cx="2" cy="2" r="2" transform="matrix(0.141675 -0.989913 -0.989913 -0.141675 79.1888 182.66)" fill="#8FB9F9"/>
<circle cx="2" cy="2" r="2" transform="matrix(0.141675 -0.989913 -0.989913 -0.141675 51.7511 190.855)" fill="#8FB9F9"/>
<circle cx="2" cy="2" r="2" transform="matrix(0.141675 -0.989913 -0.989913 -0.141675 60.0972 181.948)" fill="#8FB9F9"/>
<circle cx="2" cy="2" r="2" transform="matrix(0.141675 -0.989913 -0.989913 -0.141675 98.2842 169.229)" fill="#8FB9F9"/>
<circle cx="2" cy="2" r="2" transform="matrix(0.141675 -0.989913 -0.989913 -0.141675 70.8463 177.425)" fill="#8FB9F9"/>
<circle cx="2" cy="2" r="2" transform="matrix(0.141675 -0.989913 -0.989913 -0.141675 79.1925 168.517)" fill="#8FB9F9"/>
<circle cx="2" cy="2" r="2" transform="matrix(0.141675 -0.989913 -0.989913 -0.141675 102.52 196.101)" fill="#8FB9F9"/>
<circle cx="2" cy="2" r="2" transform="matrix(0.141675 -0.989913 -0.989913 -0.141675 75.082 204.296)" fill="#8FB9F9"/>
<circle cx="2" cy="2" r="2" transform="matrix(0.141675 -0.989913 -0.989913 -0.141675 83.4282 195.389)" fill="#8FB9F9"/>
<circle cx="2" cy="2" r="2" transform="matrix(0.141675 -0.989913 -0.989913 -0.141675 164.617 143.366)" fill="#8FB9F9"/>
<circle cx="2" cy="2" r="2" transform="matrix(0.141675 -0.989913 -0.989913 -0.141675 138.876 153.825)" fill="#8FB9F9"/>
<circle cx="2" cy="2" r="2" transform="matrix(0.141675 -0.989913 -0.989913 -0.141675 111.438 162.02)" fill="#8FB9F9"/>
<circle cx="2" cy="2" r="2" transform="matrix(0.141675 -0.989913 -0.989913 -0.141675 119.784 153.113)" fill="#8FB9F9"/>
<circle cx="2" cy="2" r="2" transform="matrix(0.141675 -0.989913 -0.989913 -0.141675 159.107 125.404)" fill="#8FB9F9"/>
<circle cx="2" cy="2" r="2" transform="matrix(0.141675 -0.989913 -0.989913 -0.141675 133.365 135.863)" fill="#8FB9F9"/>
<circle cx="2" cy="2" r="2" transform="matrix(0.141675 -0.989913 -0.989913 -0.141675 124.026 158.771)" fill="#8FB9F9"/>
<circle cx="2" cy="2" r="2" transform="matrix(0.141675 -0.989913 -0.989913 -0.141675 128.261 185.642)" fill="#8FB9F9"/>
<circle cx="2" cy="2" r="2" transform="matrix(0.141675 -0.989913 -0.989913 -0.141675 157.399 165.568)" fill="#8FB9F9"/>
<circle cx="2" cy="2" r="2" transform="matrix(0.141675 -0.989913 -0.989913 -0.141675 131.658 176.026)" fill="#8FB9F9"/>
<circle cx="2" cy="2" r="2" transform="matrix(0.141675 -0.989913 -0.989913 -0.141675 104.22 184.222)" fill="#8FB9F9"/>
<circle cx="2" cy="2" r="2" transform="matrix(0.141675 -0.989913 -0.989913 -0.141675 112.566 175.314)" fill="#8FB9F9"/>
<circle cx="2" cy="2" r="2" transform="matrix(0.141675 -0.989913 -0.989913 -0.141675 141.001 138.976)" fill="#8FB9F9"/>
<circle cx="2" cy="2" r="2" transform="matrix(0.141675 -0.989913 -0.989913 -0.141675 115.26 149.435)" fill="#8FB9F9"/>
<circle cx="2" cy="2" r="2" transform="matrix(0.141675 -0.989913 -0.989913 -0.141675 87.8219 157.63)" fill="#8FB9F9"/>
<circle cx="2" cy="2" r="2" transform="matrix(0.141675 -0.989913 -0.989913 -0.141675 96.1681 148.723)" fill="#8FB9F9"/>
</g>
<defs>
<clipPath id="clip0_16_850">
<rect width="225" height="225" fill="white"/>
</clipPath>
</defs>
</svg>
